solid KRH
facet normal -0.1169455866853345 -0.8882899210302078 0.4441449605151123
  outer loop
    vertex 337.69996610187576 194.17938736131995 -75.60000000000002
    vertex 338.34701371463206 194.1942019270426 -75.40000000000002
    vertex 337.725848006386 194.2759799439488 -75.40000000000002
  endloop
endfacet
facet normal -0.1169455866853345 -0.8882899210302078 0.4441449605151123
  outer loop
    vertex 338.34701371463206 194.1942019270426 -75.40000000000002
    vertex 337.69996610187576 194.17938736131995 -75.60000000000002
    vertex 338.34701371463206 194.0942019270426 -75.60000000000001
  endloop
endfacet
facet normal -0.5454228094450817 0.7108088441951561 0.4441449605151236
  outer loop
    vertex 337.097013714632 198.75926543650368 -75.60000000000002
    vertex 336.6499574397843 198.29125820189032 -75.40000000000002
    vertex 337.14701371463207 198.67266289612522 -75.40000000000002
  endloop
endfacet
facet normal -0.5454228094450817 0.7108088441951561 0.4441449605151236
  outer loop
    vertex 336.6499574397843 198.29125820189032 -75.40000000000002
    vertex 337.097013714632 198.75926543650368 -75.60000000000002
    vertex 336.5792467616657 198.361968880009 -75.60000000000002
  endloop
endfacet
facet normal -0.3428671115851343 -0.8277544308805002 0.4441449605151078
  outer loop
    vertex 337.09701371463206 194.42913841758147 -75.60000000000002
    vertex 337.725848006386 194.2759799439488 -75.40000000000002
    vertex 337.14701371463207 194.51574095795993 -75.40000000000002
  endloop
endfacet
facet normal -0.3428671115851343 -0.8277544308805002 0.4441449605151078
  outer loop
    vertex 337.725848006386 194.2759799439488 -75.40000000000002
    vertex 337.09701371463206 194.42913841758147 -75.60000000000002
    vertex 337.69996610187576 194.17938736131995 -75.60000000000002
  endloop
endfacet
facet normal 0.1169455866853391 -0.8882899210302121 0.4441449605151022
  outer loop
    vertex 338.34701371463206 194.0942019270426 -75.60000000000001
    vertex 338.9681794228781 194.2759799439488 -75.40000000000002
    vertex 338.34701371463206 194.1942019270426 -75.40000000000002
  endloop
endfacet
facet normal 0.1169455866853391 -0.8882899210302121 0.4441449605151022
  outer loop
    vertex 338.9681794228781 194.2759799439488 -75.40000000000002
    vertex 338.34701371463206 194.0942019270426 -75.60000000000001
    vertex 338.99406132738835 194.17938736131995 -75.60000000000002
  endloop
endfacet
facet normal 0.7108088441951509 -0.5454228094450798 0.44414496051513397
  outer loop
    vertex 340.0440699894798 194.8971456521949 -75.40000000000002
    vertex 340.51207722409316 195.3442019270426 -75.60000000000002
    vertex 340.4254746837147 195.3942019270426 -75.40000000000002
  endloop
endfacet
facet normal 0.7108088441951509 -0.5454228094450798 0.44414496051513397
  outer loop
    vertex 340.51207722409316 195.3442019270426 -75.60000000000002
    vertex 340.0440699894798 194.8971456521949 -75.40000000000002
    vertex 340.1147806675984 194.82643497407622 -75.60000000000002
  endloop
endfacet
facet normal -0.5454228094450765 -0.7108088441951659 0.4441449605151142
  outer loop
    vertex 336.5792467616657 194.82643497407622 -75.60000000000002
    vertex 337.14701371463207 194.51574095795993 -75.40000000000002
    vertex 336.6499574397843 194.8971456521949 -75.40000000000002
  endloop
endfacet
facet normal -0.5454228094450765 -0.7108088441951659 0.4441449605151142
  outer loop
    vertex 337.14701371463207 194.51574095795993 -75.40000000000002
    vertex 336.5792467616657 194.82643497407622 -75.60000000000002
    vertex 337.09701371463206 194.42913841758147 -75.60000000000002
  endloop
endfacet
facet normal 0.8277544308804992 0.34286711158511574 0.4441449605151239
  outer loop
    vertex 340.4254746837147 197.7942019270426 -75.4
    vertex 340.76182828035473 197.24124953979893 -75.60000000000001
    vertex 340.51207722409316 197.8442019270426 -75.60000000000001
  endloop
endfacet
facet normal 0.8277544308804992 0.34286711158511574 0.4441449605151239
  outer loop
    vertex 340.76182828035473 197.24124953979893 -75.60000000000001
    vertex 340.4254746837147 197.7942019270426 -75.4
    vertex 340.6652356977258 197.21536763528863 -75.4
  endloop
endfacet
facet normal 0.8882899210302891 0.11694558668493325 0.444144960515055
  outer loop
    vertex 340.6652356977258 197.21536763528863 -75.4
    vertex 340.7811874658383 197.0942019270426 -75.60000000000004
    vertex 340.76182828035473 197.24124953979893 -75.60000000000001
  endloop
endfacet
facet normal 0.8882899210302891 0.11694558668493325 0.444144960515055
  outer loop
    vertex 340.7811874658383 197.0942019270426 -75.60000000000004
    vertex 340.6652356977258 197.21536763528863 -75.4
    vertex 340.6811874658383 197.0942019270426 -75.40000000000005
  endloop
endfacet
facet normal -0.8277544308805086 0.3428671115851179 0.44414496051510455
  outer loop
    vertex 335.9321991489094 197.24124953979887 -75.60000000000001
    vertex 336.2685527455494 197.7942019270426 -75.4
    vertex 336.18195020517095 197.84420192704258 -75.60000000000001
  endloop
endfacet
facet normal -0.8277544308805086 0.3428671115851179 0.44414496051510455
  outer loop
    vertex 336.2685527455494 197.7942019270426 -75.4
    vertex 335.9321991489094 197.24124953979887 -75.60000000000001
    vertex 336.02879173153826 197.21536763528866 -75.4
  endloop
endfacet
facet normal -0.3428671115851293 0.8277544308805033 0.44414496051510544
  outer loop
    vertex 337.69996610187576 199.00901649276526 -75.60000000000001
    vertex 337.14701371463207 198.67266289612522 -75.40000000000002
    vertex 337.725848006386 198.91242391013634 -75.40000000000002
  endloop
endfacet
facet normal -0.3428671115851293 0.8277544308805033 0.44414496051510544
  outer loop
    vertex 337.14701371463207 198.67266289612522 -75.40000000000002
    vertex 337.69996610187576 199.00901649276526 -75.60000000000001
    vertex 337.097013714632 198.75926543650368 -75.60000000000002
  endloop
endfacet
facet normal 0.34286711158512934 -0.8277544308805039 0.44414496051510466
  outer loop
    vertex 338.99406132738835 194.17938736131995 -75.60000000000002
    vertex 339.54701371463204 194.51574095795993 -75.40000000000002
    vertex 338.9681794228781 194.2759799439488 -75.40000000000002
  endloop
endfacet
facet normal 0.34286711158512934 -0.8277544308805039 0.44414496051510466
  outer loop
    vertex 339.54701371463204 194.51574095795993 -75.40000000000002
    vertex 338.99406132738835 194.17938736131995 -75.60000000000002
    vertex 339.59701371463206 194.42913841758153 -75.60000000000002
  endloop
endfacet
facet normal 0.3428671115851343 0.8277544308804997 0.4441449605151087
  outer loop
    vertex 339.59701371463206 198.75926543650368 -75.60000000000002
    vertex 338.9681794228781 198.91242391013634 -75.40000000000002
    vertex 339.54701371463204 198.67266289612522 -75.40000000000002
  endloop
endfacet
facet normal 0.3428671115851343 0.8277544308804997 0.4441449605151087
  outer loop
    vertex 338.9681794228781 198.91242391013634 -75.40000000000002
    vertex 339.59701371463206 198.75926543650368 -75.60000000000002
    vertex 338.99406132738835 199.00901649276526 -75.60000000000001
  endloop
endfacet
facet normal -0.11694558668533907 0.8882899210302114 0.4441449605151031
  outer loop
    vertex 338.34701371463206 199.0942019270426 -75.60000000000001
    vertex 337.725848006386 198.91242391013634 -75.40000000000002
    vertex 338.34701371463206 198.99420192704258 -75.40000000000002
  endloop
endfacet
facet normal -0.11694558668533907 0.8882899210302114 0.4441449605151031
  outer loop
    vertex 337.725848006386 198.91242391013634 -75.40000000000002
    vertex 338.34701371463206 199.0942019270426 -75.60000000000001
    vertex 337.69996610187576 199.00901649276526 -75.60000000000001
  endloop
endfacet
facet normal -0.710808844195145 -0.5454228094450724 0.44414496051515273
  outer loop
    vertex 336.18195020517095 195.3442019270426 -75.60000000000002
    vertex 336.6499574397843 194.8971456521949 -75.40000000000002
    vertex 336.2685527455494 195.3942019270426 -75.40000000000002
  endloop
endfacet
facet normal -0.710808844195145 -0.5454228094450724 0.44414496051515273
  outer loop
    vertex 336.6499574397843 194.8971456521949 -75.40000000000002
    vertex 336.18195020517095 195.3442019270426 -75.60000000000002
    vertex 336.5792467616657 194.82643497407622 -75.60000000000002
  endloop
endfacet
facet normal 0.5454228094450818 -0.7108088441951566 0.4441449605151228
  outer loop
    vertex 339.59701371463206 194.42913841758153 -75.60000000000002
    vertex 340.0440699894798 194.8971456521949 -75.40000000000002
    vertex 339.54701371463204 194.51574095795993 -75.40000000000002
  endloop
endfacet
facet normal 0.5454228094450818 -0.7108088441951566 0.4441449605151228
  outer loop
    vertex 340.0440699894798 194.8971456521949 -75.40000000000002
    vertex 339.59701371463206 194.42913841758153 -75.60000000000002
    vertex 340.1147806675984 194.82643497407622 -75.60000000000002
  endloop
endfacet
facet normal 0.0 1.0 5.551115123125783e-16
  outer loop
    vertex 351.84701371463206 220.5942019270426 -71.60000000000001
    vertex 324.84701371463206 220.5942019270426 -70.0
    vertex 351.84701371463206 220.5942019270426 -70.0
  endloop
endfacet
facet normal 0.0 1.0 5.551115123125783e-16
  outer loop
    vertex 324.84701371463206 220.5942019270426 -70.0
    vertex 351.84701371463206 220.5942019270426 -71.60000000000001
    vertex 324.84701371463206 220.5942019270426 -71.60000000000001
  endloop
endfacet
facet normal 0.13052619222005155 0.9914448613738105 5.503624563717505e-16
  outer loop
    vertex 351.84701371463206 189.5942019270426 -71.60000000000001
    vertex 350.0352803989144 189.8327211430191 -70.0
    vertex 351.84701371463206 189.5942019270426 -70.00000000000001
  endloop
endfacet
facet normal 0.13052619222005155 0.9914448613738105 5.503624563717505e-16
  outer loop
    vertex 350.0352803989144 189.8327211430191 -70.0
    vertex 351.84701371463206 189.5942019270426 -71.60000000000001
    vertex 350.0352803989144 189.83272114301909 -71.60000000000001
  endloop
endfacet
facet normal 0.38268343236509167 0.923879532511286 5.228708762681632e-16
  outer loop
    vertex 350.0352803989144 189.8327211430191 -70.0
    vertex 349.84701371463206 189.91070375699186 -71.4
    vertex 348.34701371463206 190.53202410055152 -70.0
  endloop
endfacet
facet normal 0.38268343236509167 0.923879532511286 5.228708762681632e-16
  outer loop
    vertex 349.84701371463206 189.91070375699186 -71.4
    vertex 350.0352803989144 189.8327211430191 -70.0
    vertex 350.0352803989144 189.83272114301909 -71.60000000000001
  endloop
endfacet
facet normal 0.38268343236509167 0.923879532511286 5.228708762681632e-16
  outer loop
    vertex 349.84701371463206 189.91070375699186 -71.4
    vertex 350.0352803989144 189.83272114301909 -71.60000000000001
    vertex 349.84701371463206 189.91070375699186 -71.60000000000001
  endloop
endfacet
facet normal 0.38268343236509167 0.923879532511286 5.228708762681632e-16
  outer loop
    vertex 348.34701371463206 190.5320241005515 -71.4
    vertex 348.34701371463206 190.53202410055152 -70.0
    vertex 349.84701371463206 189.91070375699186 -71.4
  endloop
endfacet
facet normal 0.6087614290087207 0.7933533402912353 4.4039957252730316e-16
  outer loop
    vertex 348.34701371463206 190.5320241005515 -71.4
    vertex 346.8972662463262 191.64445445873676 -70.0
    vertex 348.34701371463206 190.53202410055152 -70.0
  endloop
endfacet
facet normal 0.6087614290087207 0.7933533402912353 4.4039957252730316e-16
  outer loop
    vertex 346.8972662463262 191.64445445873676 -70.0
    vertex 348.34701371463206 190.5320241005515 -71.4
    vertex 346.8972662463262 191.64445445873673 -71.4
  endloop
endfacet
facet normal 0.7933533402912304 0.6087614290087269 3.379304774946006e-16
  outer loop
    vertex 346.8972662463262 191.64445445873676 -70.0
    vertex 345.78483588814095 193.09420192704258 -71.40000000000002
    vertex 345.78483588814095 193.09420192704258 -70.00000000000001
  endloop
endfacet
facet normal 0.7933533402912304 0.6087614290087269 3.379304774946006e-16
  outer loop
    vertex 345.78483588814095 193.09420192704258 -71.40000000000002
    vertex 346.8972662463262 191.64445445873676 -70.0
    vertex 346.8972662463262 191.64445445873673 -71.4
  endloop
endfacet
facet normal 0.9238795325112902 0.3826834323650815 2.1243197887714867e-16
  outer loop
    vertex 345.78483588814095 193.09420192704258 -70.00000000000001
    vertex 345.08553293060857 194.78246861132493 -71.40000000000002
    vertex 345.08553293060857 194.78246861132496 -70.00000000000001
  endloop
endfacet
facet normal 0.9238795325112902 0.3826834323650815 2.1243197887714867e-16
  outer loop
    vertex 345.08553293060857 194.78246861132493 -71.40000000000002
    vertex 345.78483588814095 193.09420192704258 -70.00000000000001
    vertex 345.78483588814095 193.09420192704258 -71.40000000000002
  endloop
endfacet
facet normal 0.9914448613738108 0.1305261922200489 7.245659195967364e-17
  outer loop
    vertex 345.08553293060857 194.78246861132496 -70.00000000000001
    vertex 344.84701371463206 196.59420192704258 -71.40000000000002
    vertex 344.84701371463206 196.5942019270426 -70.00000000000001
  endloop
endfacet
facet normal 0.9914448613738108 0.1305261922200489 7.245659195967364e-17
  outer loop
    vertex 344.84701371463206 196.59420192704258 -71.40000000000002
    vertex 345.08553293060857 194.78246861132496 -70.00000000000001
    vertex 345.08553293060857 194.78246861132493 -71.40000000000002
  endloop
endfacet
facet normal 0.9914448613738108 -0.13052619222004852 -7.245659195967342e-17
  outer loop
    vertex 344.84701371463206 196.5942019270426 -70.00000000000001
    vertex 345.08553293060857 198.40593524276022 -71.40000000000002
    vertex 345.08553293060857 198.40593524276025 -70.00000000000001
  endloop
endfacet
facet normal 0.9914448613738108 -0.13052619222004852 -7.245659195967342e-17
  outer loop
    vertex 345.08553293060857 198.40593524276022 -71.40000000000002
    vertex 344.84701371463206 196.5942019270426 -70.00000000000001
    vertex 344.84701371463206 196.59420192704258 -71.40000000000002
  endloop
endfacet
facet normal 0.9238795325112897 -0.3826834323650826 -2.1243197887714926e-16
  outer loop
    vertex 345.08553293060857 198.40593524276025 -70.00000000000001
    vertex 345.78483588814095 200.0942019270426 -71.4
    vertex 345.78483588814095 200.09420192704263 -70.00000000000001
  endloop
endfacet
facet normal 0.9238795325112897 -0.3826834323650826 -2.1243197887714926e-16
  outer loop
    vertex 345.78483588814095 200.0942019270426 -71.4
    vertex 345.08553293060857 198.40593524276025 -70.00000000000001
    vertex 345.08553293060857 198.40593524276022 -71.40000000000002
  endloop
endfacet
facet normal -0.8277544308804992 -0.3428671115851161 0.4441449605151237
  outer loop
    vertex 335.9321991489094 195.94715431428628 -75.60000000000002
    vertex 336.2685527455494 195.3942019270426 -75.40000000000002
    vertex 336.02879173153826 195.97303621879655 -75.40000000000002
  endloop
endfacet
facet normal -0.8277544308804992 -0.3428671115851161 0.4441449605151237
  outer loop
    vertex 336.2685527455494 195.3942019270426 -75.40000000000002
    vertex 335.9321991489094 195.94715431428628 -75.60000000000002
    vertex 336.18195020517095 195.3442019270426 -75.60000000000002
  endloop
endfacet
facet normal 0.7933533402912304 -0.6087614290087269 -3.379304774946006e-16
  outer loop
    vertex 345.78483588814095 200.09420192704263 -70.00000000000001
    vertex 346.8972662463262 201.54394939534842 -71.40000000000002
    vertex 346.8972662463262 201.54394939534845 -70.0
  endloop
endfacet
facet normal 0.7933533402912304 -0.6087614290087269 -3.379304774946006e-16
  outer loop
    vertex 346.8972662463262 201.54394939534842 -71.40000000000002
    vertex 345.78483588814095 200.09420192704263 -70.00000000000001
    vertex 345.78483588814095 200.0942019270426 -71.4
  endloop
endfacet
facet normal 0.11694558668533447 0.8882899210302071 0.4441449605151132
  outer loop
    vertex 338.99406132738835 199.00901649276526 -75.60000000000001
    vertex 338.34701371463206 198.99420192704258 -75.40000000000002
    vertex 338.9681794228781 198.91242391013634 -75.40000000000002
  endloop
endfacet
facet normal 0.11694558668533447 0.8882899210302071 0.4441449605151132
  outer loop
    vertex 338.34701371463206 198.99420192704258 -75.40000000000002
    vertex 338.99406132738835 199.00901649276526 -75.60000000000001
    vertex 338.34701371463206 199.0942019270426 -75.60000000000001
  endloop
endfacet
facet normal -0.8882899210302091 -0.1169455866853884 0.444144960515095
  outer loop
    vertex 335.9321991489094 195.94715431428628 -75.60000000000002
    vertex 336.01283996342573 196.0942019270426 -75.40000000000002
    vertex 335.91283996342577 196.0942019270426 -75.60000000000002
  endloop
endfacet
facet normal -0.8882899210302091 -0.1169455866853884 0.444144960515095
  outer loop
    vertex 336.01283996342573 196.0942019270426 -75.40000000000002
    vertex 335.9321991489094 195.94715431428628 -75.60000000000002
    vertex 336.02879173153826 195.97303621879655 -75.40000000000002
  endloop
endfacet
facet normal 0.7108088441951461 0.5454228094450755 0.444144960515147
  outer loop
    vertex 340.0440699894798 198.29125820189032 -75.40000000000002
    vertex 340.51207722409316 197.8442019270426 -75.60000000000001
    vertex 340.1147806675984 198.361968880009 -75.60000000000002
  endloop
endfacet
facet normal 0.7108088441951461 0.5454228094450755 0.444144960515147
  outer loop
    vertex 340.51207722409316 197.8442019270426 -75.60000000000001
    vertex 340.0440699894798 198.29125820189032 -75.40000000000002
    vertex 340.4254746837147 197.7942019270426 -75.4
  endloop
endfacet
facet normal 0.8882899210302403 -0.11694558668530945 0.44414496051505353
  outer loop
    vertex 340.6652356977258 195.97303621879655 -75.40000000000002
    vertex 340.78118746583834 196.0942019270426 -75.60000000000002
    vertex 340.6811874658384 196.0942019270426 -75.40000000000002
  endloop
endfacet
facet normal 0.8882899210302403 -0.11694558668530945 0.44414496051505353
  outer loop
    vertex 340.78118746583834 196.0942019270426 -75.60000000000002
    vertex 340.6652356977258 195.97303621879655 -75.40000000000002
    vertex 340.76182828035473 195.94715431428628 -75.60000000000002
  endloop
endfacet
facet normal 0.5454228094450815 0.7108088441951665 0.444144960515107
  outer loop
    vertex 340.1147806675984 198.361968880009 -75.60000000000002
    vertex 339.54701371463204 198.67266289612522 -75.40000000000002
    vertex 340.0440699894798 198.29125820189032 -75.40000000000002
  endloop
endfacet
facet normal 0.5454228094450815 0.7108088441951665 0.444144960515107
  outer loop
    vertex 339.54701371463204 198.67266289612522 -75.40000000000002
    vertex 340.1147806675984 198.361968880009 -75.60000000000002
    vertex 339.59701371463206 198.75926543650368 -75.60000000000002
  endloop
endfacet
facet normal -0.888289921030184 0.11694558668545883 0.4441449605151265
  outer loop
    vertex 335.9128399634257 197.0942019270426 -75.60000000000002
    vertex 336.02879173153826 197.21536763528866 -75.4
    vertex 335.9321991489094 197.24124953979887 -75.60000000000001
  endloop
endfacet
facet normal -0.888289921030184 0.11694558668545883 0.4441449605151265
  outer loop
    vertex 336.02879173153826 197.21536763528866 -75.4
    vertex 335.9128399634257 197.0942019270426 -75.60000000000002
    vertex 336.01283996342573 197.0942019270426 -75.4
  endloop
endfacet
facet normal 0.8277544308805049 -0.3428671115851169 0.444144960515112
  outer loop
    vertex 340.4254746837147 195.3942019270426 -75.40000000000002
    vertex 340.76182828035473 195.94715431428628 -75.60000000000002
    vertex 340.6652356977258 195.97303621879655 -75.40000000000002
  endloop
endfacet
facet normal 0.8277544308805049 -0.3428671115851169 0.444144960515112
  outer loop
    vertex 340.76182828035473 195.94715431428628 -75.60000000000002
    vertex 340.4254746837147 195.3942019270426 -75.40000000000002
    vertex 340.51207722409316 195.3442019270426 -75.60000000000002
  endloop
endfacet
facet normal -0.3826834323650931 0.9238795325112854 5.099780224109324e-16
  outer loop
    vertex 337.725848006386 198.91242391013634 -75.40000000000002
    vertex 337.14701371463207 198.67266289612522 -71.40000000000002
    vertex 337.725848006386 198.91242391013634 -71.40000000000002
  endloop
endfacet
facet normal -0.3826834323650931 0.9238795325112854 5.099780224109324e-16
  outer loop
    vertex 337.14701371463207 198.67266289612522 -71.40000000000002
    vertex 337.725848006386 198.91242391013634 -75.40000000000002
    vertex 337.14701371463207 198.67266289612522 -75.40000000000002
  endloop
endfacet
facet normal -0.13052619222005157 0.9914448613738105 5.511346130954328e-16
  outer loop
    vertex 338.34701371463206 198.99420192704258 -75.40000000000002
    vertex 337.725848006386 198.91242391013634 -71.40000000000002
    vertex 338.34701371463206 198.99420192704258 -71.40000000000002
  endloop
endfacet
facet normal -0.13052619222005157 0.9914448613738105 5.511346130954328e-16
  outer loop
    vertex 337.725848006386 198.91242391013634 -71.40000000000002
    vertex 338.34701371463206 198.99420192704258 -75.40000000000002
    vertex 337.725848006386 198.91242391013634 -75.40000000000002
  endloop
endfacet
facet normal 0.1305261922200516 0.9914448613738105 5.511346130954328e-16
  outer loop
    vertex 338.9681794228781 198.91242391013634 -75.40000000000002
    vertex 338.34701371463206 198.99420192704258 -71.40000000000002
    vertex 338.9681794228781 198.91242391013634 -71.40000000000002
  endloop
endfacet
facet normal 0.1305261922200516 0.9914448613738105 5.511346130954328e-16
  outer loop
    vertex 338.34701371463206 198.99420192704258 -71.40000000000002
    vertex 338.9681794228781 198.91242391013634 -75.40000000000002
    vertex 338.34701371463206 198.99420192704258 -75.40000000000002
  endloop
endfacet
facet normal -0.7933533402912296 0.6087614290087278 3.3793047749459883e-16
  outer loop
    vertex 336.2685527455494 197.7942019270426 -75.4
    vertex 336.6499574397843 198.29125820189032 -71.40000000000002
    vertex 336.6499574397843 198.29125820189032 -75.40000000000002
  endloop
endfacet
facet normal -0.7933533402912296 0.6087614290087278 3.3793047749459883e-16
  outer loop
    vertex 336.6499574397843 198.29125820189032 -71.40000000000002
    vertex 336.2685527455494 197.7942019270426 -75.4
    vertex 336.2685527455494 197.7942019270426 -71.40000000000002
  endloop
endfacet
facet normal 0.38268343236509306 0.9238795325112854 5.157343065630252e-16
  outer loop
    vertex 339.54701371463204 198.67266289612522 -75.40000000000002
    vertex 338.9681794228781 198.91242391013634 -71.40000000000002
    vertex 339.54701371463204 198.67266289612522 -71.40000000000002
  endloop
endfacet
facet normal 0.38268343236509306 0.9238795325112854 5.157343065630252e-16
  outer loop
    vertex 338.9681794228781 198.91242391013634 -71.40000000000002
    vertex 339.54701371463204 198.67266289612522 -75.40000000000002
    vertex 338.9681794228781 198.91242391013634 -75.40000000000002
  endloop
endfacet
facet normal -0.6087614290087265 0.7933533402912306 4.403995725272991e-16
  outer loop
    vertex 337.14701371463207 198.67266289612522 -75.40000000000002
    vertex 336.6499574397843 198.29125820189032 -71.40000000000002
    vertex 337.14701371463207 198.67266289612522 -71.40000000000002
  endloop
endfacet
facet normal -0.6087614290087265 0.7933533402912306 4.403995725272991e-16
  outer loop
    vertex 336.6499574397843 198.29125820189032 -71.40000000000002
    vertex 337.14701371463207 198.67266289612522 -75.40000000000002
    vertex 336.6499574397843 198.29125820189032 -75.40000000000002
  endloop
endfacet
facet normal 0.6087614290087207 -0.7933533402912353 -4.4039957252730316e-16
  outer loop
    vertex 346.8972662463262 201.54394939534842 -71.40000000000002
    vertex 348.34701371463206 202.65637975353368 -70.0
    vertex 346.8972662463262 201.54394939534845 -70.0
  endloop
endfacet
facet normal 0.6087614290087207 -0.7933533402912353 -4.4039957252730316e-16
  outer loop
    vertex 348.34701371463206 202.65637975353368 -70.0
    vertex 346.8972662463262 201.54394939534842 -71.40000000000002
    vertex 348.34701371463206 202.65637975353366 -71.40000000000002
  endloop
endfacet
facet normal 0.3826834323650923 -0.9238795325112857 -9.535034828591405e-16
  outer loop
    vertex 348.34701371463206 202.65637975353366 -71.40000000000002
    vertex 350.0352803989144 203.3556827110661 -70.0
    vertex 348.34701371463206 202.65637975353368 -70.0
  endloop
endfacet
facet normal 0.3826834323650923 -0.9238795325112857 -9.535034828591405e-16
  outer loop
    vertex 350.0352803989144 203.3556827110661 -70.0
    vertex 348.34701371463206 202.65637975353366 -71.40000000000002
    vertex 349.84701371463206 203.27770009709332 -71.40000000000002
  endloop
endfacet
facet normal 0.3826834323650923 -0.9238795325112857 -9.535034828591405e-16
  outer loop
    vertex 350.0352803989144 203.3556827110661 -70.0
    vertex 349.84701371463206 203.27770009709332 -71.40000000000002
    vertex 350.0352803989144 203.3556827110661 -71.60000000000001
  endloop
endfacet
facet normal 0.3826834323650923 -0.9238795325112857 -9.535034828591405e-16
  outer loop
    vertex 350.0352803989144 203.3556827110661 -71.60000000000001
    vertex 349.84701371463206 203.27770009709332 -71.40000000000002
    vertex 349.84701371463206 203.27770009709332 -71.60000000000001
  endloop
endfacet
facet normal 0.13052619222005155 -0.9914448613738105 -5.503624563717505e-16
  outer loop
    vertex 350.0352803989144 203.3556827110661 -71.60000000000001
    vertex 351.84701371463206 203.5942019270426 -70.0
    vertex 350.0352803989144 203.3556827110661 -70.0
  endloop
endfacet
facet normal 0.13052619222005155 -0.9914448613738105 -5.503624563717505e-16
  outer loop
    vertex 351.84701371463206 203.5942019270426 -70.0
    vertex 350.0352803989144 203.3556827110661 -71.60000000000001
    vertex 351.84701371463206 203.5942019270426 -71.60000000000001
  endloop
endfacet
facet normal 0.3821042504737633 0.9224812637341422 -0.054996907452545415
  outer loop
    vertex 339.59701371463206 198.75926543650368 -75.60000000000002
    vertex 338.9681794228781 198.91242391013634 -77.40000000000002
    vertex 338.99406132738835 199.00901649276526 -75.60000000000001
  endloop
endfacet
facet normal 0.3821042504737633 0.9224812637341422 -0.054996907452545415
  outer loop
    vertex 338.9681794228781 198.91242391013634 -77.40000000000002
    vertex 339.59701371463206 198.75926543650368 -75.60000000000002
    vertex 339.54701371463204 198.67266289612522 -77.40000000000002
  endloop
endfacet
facet normal 0.13032864406278555 0.9899443341458206 -0.054996907452546054
  outer loop
    vertex 338.9681794228781 198.91242391013634 -77.40000000000002
    vertex 338.34701371463206 199.0942019270426 -75.60000000000001
    vertex 338.99406132738835 199.00901649276526 -75.60000000000001
  endloop
endfacet
facet normal 0.13032864406278555 0.9899443341458206 -0.054996907452546054
  outer loop
    vertex 338.34701371463206 199.0942019270426 -75.60000000000001
    vertex 338.9681794228781 198.91242391013634 -77.40000000000002
    vertex 338.34701371463206 198.99420192704258 -77.40000000000002
  endloop
endfacet
facet normal -0.3821042504737569 0.9224812637341449 -0.054996907452544895
  outer loop
    vertex 337.725848006386 198.91242391013634 -77.40000000000002
    vertex 337.097013714632 198.75926543650368 -75.60000000000002
    vertex 337.69996610187576 199.00901649276526 -75.60000000000001
  endloop
endfacet
facet normal -0.3821042504737569 0.9224812637341449 -0.054996907452544895
  outer loop
    vertex 337.097013714632 198.75926543650368 -75.60000000000002
    vertex 337.725848006386 198.91242391013634 -77.40000000000002
    vertex 337.14701371463207 198.67266289612522 -77.40000000000002
  endloop
endfacet
facet normal -0.13032864406278993 0.98994433414582 -0.05499690745254451
  outer loop
    vertex 338.34701371463206 198.99420192704258 -77.40000000000002
    vertex 337.69996610187576 199.00901649276526 -75.60000000000001
    vertex 338.34701371463206 199.0942019270426 -75.60000000000001
  endloop
endfacet
facet normal -0.13032864406278993 0.98994433414582 -0.05499690745254451
  outer loop
    vertex 337.69996610187576 199.00901649276526 -75.60000000000001
    vertex 338.34701371463206 198.99420192704258 -77.40000000000002
    vertex 337.725848006386 198.91242391013634 -77.40000000000002
  endloop
endfacet
facet normal 0.6078400836720637 0.792152619671358 -0.054996907452545214
  outer loop
    vertex 340.0440699894798 198.29125820189032 -77.40000000000002
    vertex 339.59701371463206 198.75926543650368 -75.60000000000002
    vertex 340.1147806675984 198.361968880009 -75.60000000000002
  endloop
endfacet
facet normal 0.6078400836720637 0.792152619671358 -0.054996907452545214
  outer loop
    vertex 339.59701371463206 198.75926543650368 -75.60000000000002
    vertex 340.0440699894798 198.29125820189032 -77.40000000000002
    vertex 339.54701371463204 198.67266289612522 -77.40000000000002
  endloop
endfacet
facet normal 0.7921526196713522 0.6078400836720707 -0.0549969074525515
  outer loop
    vertex 340.51207722409316 197.8442019270426 -75.60000000000001
    vertex 340.0440699894798 198.29125820189032 -77.40000000000002
    vertex 340.1147806675984 198.361968880009 -75.60000000000002
  endloop
endfacet
facet normal 0.7921526196713522 0.6078400836720707 -0.0549969074525515
  outer loop
    vertex 340.0440699894798 198.29125820189032 -77.40000000000002
    vertex 340.51207722409316 197.8442019270426 -75.60000000000001
    vertex 340.4254746837147 197.7942019270426 -77.4
  endloop
endfacet
facet normal 1.1749860343949574e-16 -5.551115123125783e-16 1.0
  outer loop
    vertex 351.84701371463206 172.5942019270426 -70.0
    vertex 324.84701371463206 220.5942019270426 -70.0
    vertex 324.84701371463206 172.5942019270426 -70.0
  endloop
endfacet
facet normal 1.1749860343949574e-16 -5.551115123125783e-16 1.0
  outer loop
    vertex 324.84701371463206 220.5942019270426 -70.0
    vertex 351.84701371463206 172.5942019270426 -70.0
    vertex 345.08553293060857 194.78246861132496 -70.00000000000001
  endloop
endfacet
facet normal 1.1749860343949574e-16 -5.551115123125783e-16 1.0
  outer loop
    vertex 324.84701371463206 220.5942019270426 -70.0
    vertex 345.08553293060857 194.78246861132496 -70.00000000000001
    vertex 344.84701371463206 196.5942019270426 -70.00000000000001
  endloop
endfacet
facet normal 1.1749860343949574e-16 -5.551115123125783e-16 1.0
  outer loop
    vertex 345.08553293060857 194.78246861132496 -70.00000000000001
    vertex 351.84701371463206 172.5942019270426 -70.0
    vertex 345.78483588814095 193.09420192704258 -70.00000000000001
  endloop
endfacet
facet normal 1.1749860343949574e-16 -5.551115123125783e-16 1.0
  outer loop
    vertex 345.78483588814095 193.09420192704258 -70.00000000000001
    vertex 351.84701371463206 172.5942019270426 -70.0
    vertex 346.8972662463262 191.64445445873676 -70.0
  endloop
endfacet
facet normal 1.1749860343949574e-16 -5.551115123125783e-16 1.0
  outer loop
    vertex 346.8972662463262 191.64445445873676 -70.0
    vertex 351.84701371463206 172.5942019270426 -70.0
    vertex 348.34701371463206 190.53202410055152 -70.0
  endloop
endfacet
facet normal 1.1749860343949574e-16 -5.551115123125783e-16 1.0
  outer loop
    vertex 348.34701371463206 190.53202410055152 -70.0
    vertex 351.84701371463206 172.5942019270426 -70.0
    vertex 350.0352803989144 189.8327211430191 -70.0
  endloop
endfacet
facet normal 1.1749860343949574e-16 -5.551115123125783e-16 1.0
  outer loop
    vertex 350.0352803989144 189.8327211430191 -70.0
    vertex 351.84701371463206 172.5942019270426 -70.0
    vertex 351.84701371463206 189.5942019270426 -70.00000000000001
  endloop
endfacet
facet normal 1.1749860343949574e-16 -5.551115123125783e-16 1.0
  outer loop
    vertex 324.84701371463206 220.5942019270426 -70.0
    vertex 345.08553293060857 198.40593524276025 -70.00000000000001
    vertex 351.84701371463206 220.5942019270426 -70.0
  endloop
endfacet
facet normal 1.1749860343949574e-16 -5.551115123125783e-16 1.0
  outer loop
    vertex 345.08553293060857 198.40593524276025 -70.00000000000001
    vertex 324.84701371463206 220.5942019270426 -70.0
    vertex 344.84701371463206 196.5942019270426 -70.00000000000001
  endloop
endfacet
facet normal 1.1749860343949574e-16 -5.551115123125783e-16 1.0
  outer loop
    vertex 351.84701371463206 220.5942019270426 -70.0
    vertex 345.08553293060857 198.40593524276025 -70.00000000000001
    vertex 345.78483588814095 200.09420192704263 -70.00000000000001
  endloop
endfacet
facet normal 1.1749860343949574e-16 -5.551115123125783e-16 1.0
  outer loop
    vertex 351.84701371463206 220.5942019270426 -70.0
    vertex 345.78483588814095 200.09420192704263 -70.00000000000001
    vertex 346.8972662463262 201.54394939534845 -70.0
  endloop
endfacet
facet normal 1.1749860343949574e-16 -5.551115123125783e-16 1.0
  outer loop
    vertex 351.84701371463206 220.5942019270426 -70.0
    vertex 346.8972662463262 201.54394939534845 -70.0
    vertex 348.34701371463206 202.65637975353368 -70.0
  endloop
endfacet
facet normal 1.1749860343949574e-16 -5.551115123125783e-16 1.0
  outer loop
    vertex 351.84701371463206 220.5942019270426 -70.0
    vertex 348.34701371463206 202.65637975353368 -70.0
    vertex 350.0352803989144 203.3556827110661 -70.0
  endloop
endfacet
facet normal 1.1749860343949574e-16 -5.551115123125783e-16 1.0
  outer loop
    vertex 351.84701371463206 220.5942019270426 -70.0
    vertex 350.0352803989144 203.3556827110661 -70.0
    vertex 351.84701371463206 203.5942019270426 -70.0
  endloop
endfacet
facet normal -0.9914448613738075 -0.13052619222007494 2.525930634099411e-15
  outer loop
    vertex 336.02879173153826 195.97303621879655 -75.40000000000002
    vertex 336.01283996342573 196.0942019270426 -72.40000000000002
    vertex 336.01283996342573 196.0942019270426 -75.40000000000002
  endloop
endfacet
facet normal -0.9914448613738075 -0.13052619222007494 2.525930634099411e-15
  outer loop
    vertex 336.01283996342573 196.0942019270426 -72.40000000000002
    vertex 335.9470137146321 196.59420192704258 -71.40000000000002
    vertex 335.947013714632 196.59420192704258 -72.40000000000002
  endloop
endfacet
facet normal -0.9914448613738075 -0.13052619222007494 2.525930634099411e-15
  outer loop
    vertex 335.9470137146321 196.59420192704258 -71.40000000000002
    vertex 336.01283996342573 196.0942019270426 -72.40000000000002
    vertex 336.02879173153826 195.97303621879655 -71.40000000000002
  endloop
endfacet
facet normal -0.9914448613738075 -0.13052619222007494 2.525930634099411e-15
  outer loop
    vertex 336.02879173153826 195.97303621879655 -71.40000000000002
    vertex 336.01283996342573 196.0942019270426 -72.40000000000002
    vertex 336.02879173153826 195.97303621879655 -75.40000000000002
  endloop
endfacet
facet normal 0.9914448613738096 0.13052619222005782 -5.351539310110006e-15
  outer loop
    vertex 340.6652356977258 197.21536763528863 -71.40000000000002
    vertex 340.6811874658384 197.0942019270426 -72.40000000000002
    vertex 340.6652356977258 197.21536763528863 -75.4
  endloop
endfacet
facet normal 0.9914448613738096 0.13052619222005782 -5.351539310110006e-15
  outer loop
    vertex 340.6811874658384 197.0942019270426 -72.40000000000002
    vertex 340.6652356977258 197.21536763528863 -71.40000000000002
    vertex 340.74701371463203 196.59420192704258 -71.40000000000002
  endloop
endfacet
facet normal 0.9914448613738096 0.13052619222005782 -5.351539310110006e-15
  outer loop
    vertex 340.6811874658384 197.0942019270426 -72.40000000000002
    vertex 340.74701371463203 196.59420192704258 -71.40000000000002
    vertex 340.7470137146321 196.59420192704258 -72.40000000000002
  endloop
endfacet
facet normal 0.9914448613738096 0.13052619222005782 -5.351539310110006e-15
  outer loop
    vertex 340.6811874658383 197.0942019270426 -75.40000000000005
    vertex 340.6652356977258 197.21536763528863 -75.4
    vertex 340.6811874658384 197.0942019270426 -72.40000000000002
  endloop
endfacet
facet normal 8.290721989131364e-17 -4.884922575755046e-16 -1.0
  outer loop
    vertex 340.6811874658384 196.0942019270426 -77.40000000000002
    vertex 336.02879173153826 195.97303621879655 -77.40000000000002
    vertex 336.01283996342573 196.0942019270426 -77.40000000000002
  endloop
endfacet
facet normal 8.290721989131364e-17 -4.884922575755046e-16 -1.0
  outer loop
    vertex 336.02879173153826 195.97303621879655 -77.40000000000002
    vertex 340.6811874658384 196.0942019270426 -77.40000000000002
    vertex 336.2685527455494 195.3942019270426 -77.40000000000002
  endloop
endfacet
facet normal 8.290721989131364e-17 -4.884922575755046e-16 -1.0
  outer loop
    vertex 336.2685527455494 195.3942019270426 -77.40000000000002
    vertex 340.6811874658384 196.0942019270426 -77.40000000000002
    vertex 336.6499574397843 194.8971456521949 -77.40000000000002
  endloop
endfacet
facet normal 8.290721989131364e-17 -4.884922575755046e-16 -1.0
  outer loop
    vertex 336.6499574397843 194.8971456521949 -77.40000000000002
    vertex 340.6811874658384 196.0942019270426 -77.40000000000002
    vertex 337.14701371463207 194.51574095795993 -77.40000000000002
  endloop
endfacet
facet normal 8.290721989131364e-17 -4.884922575755046e-16 -1.0
  outer loop
    vertex 337.14701371463207 194.51574095795993 -77.40000000000002
    vertex 340.6811874658384 196.0942019270426 -77.40000000000002
    vertex 337.725848006386 194.2759799439488 -77.40000000000002
  endloop
endfacet
facet normal 8.290721989131364e-17 -4.884922575755046e-16 -1.0
  outer loop
    vertex 337.725848006386 194.2759799439488 -77.40000000000002
    vertex 340.6811874658384 196.0942019270426 -77.40000000000002
    vertex 338.34701371463206 194.1942019270426 -77.40000000000002
  endloop
endfacet
facet normal 8.290721989131364e-17 -4.884922575755046e-16 -1.0
  outer loop
    vertex 338.34701371463206 194.1942019270426 -77.40000000000002
    vertex 340.6811874658384 196.0942019270426 -77.40000000000002
    vertex 338.9681794228781 194.2759799439488 -77.40000000000002
  endloop
endfacet
facet normal 8.290721989131364e-17 -4.884922575755046e-16 -1.0
  outer loop
    vertex 338.9681794228781 194.2759799439488 -77.40000000000002
    vertex 340.6811874658384 196.0942019270426 -77.40000000000002
    vertex 339.54701371463204 194.51574095795993 -77.40000000000002
  endloop
endfacet
facet normal 8.290721989131364e-17 -4.884922575755046e-16 -1.0
  outer loop
    vertex 339.54701371463204 194.51574095795993 -77.40000000000002
    vertex 340.6811874658384 196.0942019270426 -77.40000000000002
    vertex 340.0440699894798 194.8971456521949 -77.40000000000002
  endloop
endfacet
facet normal 8.290721989131364e-17 -4.884922575755046e-16 -1.0
  outer loop
    vertex 340.0440699894798 194.8971456521949 -77.40000000000002
    vertex 340.6811874658384 196.0942019270426 -77.40000000000002
    vertex 340.4254746837147 195.3942019270426 -77.40000000000002
  endloop
endfacet
facet normal 8.290721989131364e-17 -4.884922575755046e-16 -1.0
  outer loop
    vertex 340.4254746837147 195.3942019270426 -77.40000000000002
    vertex 340.6811874658384 196.0942019270426 -77.40000000000002
    vertex 340.6652356977258 195.97303621879655 -77.40000000000002
  endloop
endfacet
facet normal -0.9914448613738089 0.1305261922200632 1.0051639953899152e-15
  outer loop
    vertex 336.01283996342573 197.0942019270426 -75.4
    vertex 336.02879173153826 197.21536763528866 -71.40000000000002
    vertex 336.02879173153826 197.21536763528866 -75.4
  endloop
endfacet
facet normal -0.9914448613738089 0.1305261922200632 1.0051639953899152e-15
  outer loop
    vertex 336.02879173153826 197.21536763528866 -71.40000000000002
    vertex 336.01283996342573 197.0942019270426 -75.4
    vertex 336.01283996342573 197.0942019270426 -72.40000000000002
  endloop
endfacet
facet normal -0.9914448613738089 0.1305261922200632 1.0051639953899152e-15
  outer loop
    vertex 336.02879173153826 197.21536763528866 -71.40000000000002
    vertex 336.01283996342573 197.0942019270426 -72.40000000000002
    vertex 335.9470137146321 196.59420192704258 -71.40000000000002
  endloop
endfacet
facet normal -0.9914448613738089 0.1305261922200632 1.0051639953899152e-15
  outer loop
    vertex 335.9470137146321 196.59420192704258 -71.40000000000002
    vertex 336.01283996342573 197.0942019270426 -72.40000000000002
    vertex 335.947013714632 196.59420192704258 -72.40000000000002
  endloop
endfacet
facet normal -0.382683432365093 -0.9238795325112854 -5.157343065630252e-16
  outer loop
    vertex 337.14701371463207 194.51574095795993 -75.40000000000002
    vertex 337.725848006386 194.2759799439488 -71.40000000000002
    vertex 337.14701371463207 194.51574095795993 -71.40000000000002
  endloop
endfacet
facet normal -0.382683432365093 -0.9238795325112854 -5.157343065630252e-16
  outer loop
    vertex 337.725848006386 194.2759799439488 -71.40000000000002
    vertex 337.14701371463207 194.51574095795993 -75.40000000000002
    vertex 337.725848006386 194.2759799439488 -75.40000000000002
  endloop
endfacet
facet normal -0.6087614290087265 -0.7933533402912308 -4.44192495352073e-16
  outer loop
    vertex 336.6499574397843 194.8971456521949 -75.40000000000002
    vertex 337.14701371463207 194.51574095795993 -71.40000000000002
    vertex 336.6499574397843 194.89714565219487 -71.40000000000002
  endloop
endfacet
facet normal -0.6087614290087265 -0.7933533402912308 -4.44192495352073e-16
  outer loop
    vertex 337.14701371463207 194.51574095795993 -71.40000000000002
    vertex 336.6499574397843 194.8971456521949 -75.40000000000002
    vertex 337.14701371463207 194.51574095795993 -75.40000000000002
  endloop
endfacet
facet normal -0.1305261922200516 -0.9914448613738105 -5.511346130954318e-16
  outer loop
    vertex 337.725848006386 194.2759799439488 -75.40000000000002
    vertex 338.34701371463206 194.1942019270426 -71.40000000000002
    vertex 337.725848006386 194.2759799439488 -71.40000000000002
  endloop
endfacet
facet normal -0.1305261922200516 -0.9914448613738105 -5.511346130954318e-16
  outer loop
    vertex 338.34701371463206 194.1942019270426 -71.40000000000002
    vertex 337.725848006386 194.2759799439488 -75.40000000000002
    vertex 338.34701371463206 194.1942019270426 -75.40000000000002
  endloop
endfacet
facet normal -0.7933533402912331 -0.6087614290087235 -3.3793047749459597e-16
  outer loop
    vertex 336.6499574397843 194.8971456521949 -75.40000000000002
    vertex 336.2685527455494 195.3942019270426 -71.40000000000002
    vertex 336.2685527455494 195.3942019270426 -75.40000000000002
  endloop
endfacet
facet normal -0.7933533402912331 -0.6087614290087235 -3.3793047749459597e-16
  outer loop
    vertex 336.2685527455494 195.3942019270426 -71.40000000000002
    vertex 336.6499574397843 194.8971456521949 -75.40000000000002
    vertex 336.6499574397843 194.89714565219487 -71.40000000000002
  endloop
endfacet
facet normal 0.38268343236509306 -0.9238795325112854 -5.157343065630279e-16
  outer loop
    vertex 338.9681794228781 194.2759799439488 -75.40000000000002
    vertex 339.54701371463204 194.51574095795993 -71.40000000000002
    vertex 338.9681794228781 194.2759799439488 -71.40000000000002
  endloop
endfacet
facet normal 0.38268343236509306 -0.9238795325112854 -5.157343065630279e-16
  outer loop
    vertex 339.54701371463204 194.51574095795993 -71.40000000000002
    vertex 338.9681794228781 194.2759799439488 -75.40000000000002
    vertex 339.54701371463204 194.51574095795993 -75.40000000000002
  endloop
endfacet
facet normal 0.6087614290087265 -0.7933533402912308 -4.4039957252729784e-16
  outer loop
    vertex 339.54701371463204 194.51574095795993 -75.40000000000002
    vertex 340.0440699894798 194.89714565219487 -71.40000000000002
    vertex 339.54701371463204 194.51574095795993 -71.40000000000002
  endloop
endfacet
facet normal 0.6087614290087265 -0.7933533402912308 -4.4039957252729784e-16
  outer loop
    vertex 340.0440699894798 194.89714565219487 -71.40000000000002
    vertex 339.54701371463204 194.51574095795993 -75.40000000000002
    vertex 340.0440699894798 194.8971456521949 -75.40000000000002
  endloop
endfacet
facet normal 0.1305261922200516 -0.9914448613738105 -5.511346130954328e-16
  outer loop
    vertex 338.34701371463206 194.1942019270426 -75.40000000000002
    vertex 338.9681794228781 194.2759799439488 -71.40000000000002
    vertex 338.34701371463206 194.1942019270426 -71.40000000000002
  endloop
endfacet
facet normal 0.1305261922200516 -0.9914448613738105 -5.511346130954328e-16
  outer loop
    vertex 338.9681794228781 194.2759799439488 -71.40000000000002
    vertex 338.34701371463206 194.1942019270426 -75.40000000000002
    vertex 338.9681794228781 194.2759799439488 -75.40000000000002
  endloop
endfacet
facet normal -0.9238795325112849 -0.38268343236509433 -2.1481630984182597e-16
  outer loop
    vertex 336.2685527455494 195.3942019270426 -75.40000000000002
    vertex 336.02879173153826 195.97303621879655 -71.40000000000002
    vertex 336.02879173153826 195.97303621879655 -75.40000000000002
  endloop
endfacet
facet normal -0.9238795325112849 -0.38268343236509433 -2.1481630984182597e-16
  outer loop
    vertex 336.02879173153826 195.97303621879655 -71.40000000000002
    vertex 336.2685527455494 195.3942019270426 -75.40000000000002
    vertex 336.2685527455494 195.3942019270426 -71.40000000000002
  endloop
endfacet
facet normal -0.9238795325112849 0.3826834323650945 2.124319788771552e-16
  outer loop
    vertex 336.02879173153826 197.21536763528866 -75.4
    vertex 336.2685527455494 197.7942019270426 -71.40000000000002
    vertex 336.2685527455494 197.7942019270426 -75.4
  endloop
endfacet
facet normal -0.9238795325112849 0.3826834323650945 2.124319788771552e-16
  outer loop
    vertex 336.2685527455494 197.7942019270426 -71.40000000000002
    vertex 336.02879173153826 197.21536763528866 -75.4
    vertex 336.02879173153826 197.21536763528866 -71.40000000000002
  endloop
endfacet
facet normal 8.29072198913146e-17 1.5987152822006635e-15 -1.0
  outer loop
    vertex 336.02879173153826 197.21536763528866 -77.4
    vertex 340.6811874658384 197.0942019270426 -77.40000000000002
    vertex 336.01283996342573 197.0942019270426 -77.40000000000002
  endloop
endfacet
facet normal 8.29072198913146e-17 1.5987152822006635e-15 -1.0
  outer loop
    vertex 340.6811874658384 197.0942019270426 -77.40000000000002
    vertex 336.02879173153826 197.21536763528866 -77.4
    vertex 336.2685527455494 197.7942019270426 -77.4
  endloop
endfacet
facet normal 8.29072198913146e-17 1.5987152822006635e-15 -1.0
  outer loop
    vertex 340.6811874658384 197.0942019270426 -77.40000000000002
    vertex 336.2685527455494 197.7942019270426 -77.4
    vertex 336.6499574397843 198.29125820189032 -77.40000000000002
  endloop
endfacet
facet normal 8.29072198913146e-17 1.5987152822006635e-15 -1.0
  outer loop
    vertex 340.6811874658384 197.0942019270426 -77.40000000000002
    vertex 336.6499574397843 198.29125820189032 -77.40000000000002
    vertex 337.14701371463207 198.67266289612522 -77.40000000000002
  endloop
endfacet
facet normal 8.29072198913146e-17 1.5987152822006635e-15 -1.0
  outer loop
    vertex 340.6811874658384 197.0942019270426 -77.40000000000002
    vertex 337.14701371463207 198.67266289612522 -77.40000000000002
    vertex 337.725848006386 198.91242391013634 -77.40000000000002
  endloop
endfacet
facet normal 8.29072198913146e-17 1.5987152822006635e-15 -1.0
  outer loop
    vertex 340.6811874658384 197.0942019270426 -77.40000000000002
    vertex 337.725848006386 198.91242391013634 -77.40000000000002
    vertex 338.34701371463206 198.99420192704258 -77.40000000000002
  endloop
endfacet
facet normal 8.29072198913146e-17 1.5987152822006635e-15 -1.0
  outer loop
    vertex 340.6811874658384 197.0942019270426 -77.40000000000002
    vertex 338.34701371463206 198.99420192704258 -77.40000000000002
    vertex 338.9681794228781 198.91242391013634 -77.40000000000002
  endloop
endfacet
facet normal 8.29072198913146e-17 1.5987152822006635e-15 -1.0
  outer loop
    vertex 340.6811874658384 197.0942019270426 -77.40000000000002
    vertex 338.9681794228781 198.91242391013634 -77.40000000000002
    vertex 339.54701371463204 198.67266289612522 -77.40000000000002
  endloop
endfacet
facet normal 8.29072198913146e-17 1.5987152822006635e-15 -1.0
  outer loop
    vertex 340.6811874658384 197.0942019270426 -77.40000000000002
    vertex 339.54701371463204 198.67266289612522 -77.40000000000002
    vertex 340.0440699894798 198.29125820189032 -77.40000000000002
  endloop
endfacet
facet normal 8.29072198913146e-17 1.5987152822006635e-15 -1.0
  outer loop
    vertex 340.6811874658384 197.0942019270426 -77.40000000000002
    vertex 340.0440699894798 198.29125820189032 -77.40000000000002
    vertex 340.4254746837147 197.7942019270426 -77.4
  endloop
endfacet
facet normal 8.29072198913146e-17 1.5987152822006635e-15 -1.0
  outer loop
    vertex 340.6811874658384 197.0942019270426 -77.40000000000002
    vertex 340.4254746837147 197.7942019270426 -77.4
    vertex 340.6652356977258 197.21536763528866 -77.4
  endloop
endfacet
facet normal -0.7108088441951509 0.5454228094450794 0.4441449605151345
  outer loop
    vertex 336.18195020517095 197.84420192704258 -75.60000000000001
    vertex 336.6499574397843 198.29125820189032 -75.40000000000002
    vertex 336.5792467616657 198.361968880009 -75.60000000000002
  endloop
endfacet
facet normal -0.7108088441951509 0.5454228094450794 0.4441449605151345
  outer loop
    vertex 336.6499574397843 198.29125820189032 -75.40000000000002
    vertex 336.18195020517095 197.84420192704258 -75.60000000000001
    vertex 336.2685527455494 197.7942019270426 -75.4
  endloop
endfacet
facet normal 0.6087614290087265 0.7933533402912306 4.428710891585387e-16
  outer loop
    vertex 340.0440699894798 198.29125820189032 -75.40000000000002
    vertex 339.54701371463204 198.67266289612522 -71.40000000000002
    vertex 340.0440699894798 198.29125820189032 -71.40000000000002
  endloop
endfacet
facet normal 0.6087614290087265 0.7933533402912306 4.428710891585387e-16
  outer loop
    vertex 339.54701371463204 198.67266289612522 -71.40000000000002
    vertex 340.0440699894798 198.29125820189032 -75.40000000000002
    vertex 339.54701371463204 198.67266289612522 -75.40000000000002
  endloop
endfacet
facet normal 0.9238795325112849 0.3826834323650944 2.1243197887714929e-16
  outer loop
    vertex 340.6652356977258 197.21536763528863 -71.40000000000002
    vertex 340.4254746837147 197.7942019270426 -75.4
    vertex 340.4254746837147 197.7942019270426 -71.40000000000002
  endloop
endfacet
facet normal 0.9238795325112849 0.3826834323650944 2.1243197887714929e-16
  outer loop
    vertex 340.4254746837147 197.7942019270426 -75.4
    vertex 340.6652356977258 197.21536763528863 -71.40000000000002
    vertex 340.6652356977258 197.21536763528863 -75.4
  endloop
endfacet
facet normal 0.9238795325112862 -0.38268343236509117 -2.1481630984181732e-16
  outer loop
    vertex 340.4254746837147 195.3942019270426 -71.40000000000002
    vertex 340.6652356977258 195.97303621879655 -75.40000000000002
    vertex 340.6652356977258 195.97303621879655 -71.40000000000002
  endloop
endfacet
facet normal 0.9238795325112862 -0.38268343236509117 -2.1481630984181732e-16
  outer loop
    vertex 340.6652356977258 195.97303621879655 -75.40000000000002
    vertex 340.4254746837147 195.3942019270426 -71.40000000000002
    vertex 340.4254746837147 195.3942019270426 -75.40000000000002
  endloop
endfacet
facet normal 0.7933533402912296 -0.6087614290087278 -3.3793047749459883e-16
  outer loop
    vertex 340.0440699894798 194.89714565219487 -71.40000000000002
    vertex 340.4254746837147 195.3942019270426 -75.40000000000002
    vertex 340.4254746837147 195.3942019270426 -71.40000000000002
  endloop
endfacet
facet normal 0.7933533402912296 -0.6087614290087278 -3.3793047749459883e-16
  outer loop
    vertex 340.4254746837147 195.3942019270426 -75.40000000000002
    vertex 340.0440699894798 194.89714565219487 -71.40000000000002
    vertex 340.0440699894798 194.8971456521949 -75.40000000000002
  endloop
endfacet
facet normal 0.9914448613738073 -0.13052619222007666 2.624881910691295e-15
  outer loop
    vertex 340.6652356977258 195.97303621879655 -71.40000000000002
    vertex 340.7470137146321 196.59420192704258 -72.40000000000002
    vertex 340.74701371463203 196.59420192704258 -71.40000000000002
  endloop
endfacet
facet normal 0.9914448613738073 -0.13052619222007666 2.624881910691295e-15
  outer loop
    vertex 340.7470137146321 196.59420192704258 -72.40000000000002
    vertex 340.6652356977258 195.97303621879655 -71.40000000000002
    vertex 340.6811874658384 196.0942019270426 -72.40000000000002
  endloop
endfacet
facet normal 0.9914448613738073 -0.13052619222007666 2.624881910691295e-15
  outer loop
    vertex 340.6811874658384 196.0942019270426 -72.40000000000002
    vertex 340.6652356977258 195.97303621879655 -71.40000000000002
    vertex 340.6811874658384 196.0942019270426 -75.40000000000002
  endloop
endfacet
facet normal 0.9914448613738073 -0.13052619222007666 2.624881910691295e-15
  outer loop
    vertex 340.6811874658384 196.0942019270426 -75.40000000000002
    vertex 340.6652356977258 195.97303621879655 -71.40000000000002
    vertex 340.6652356977258 195.97303621879655 -75.40000000000002
  endloop
endfacet
facet normal 0.7933533402912331 0.6087614290087235 3.379304774946016e-16
  outer loop
    vertex 340.4254746837147 197.7942019270426 -71.40000000000002
    vertex 340.0440699894798 198.29125820189032 -75.40000000000002
    vertex 340.0440699894798 198.29125820189032 -71.40000000000002
  endloop
endfacet
facet normal 0.7933533402912331 0.6087614290087235 3.379304774946016e-16
  outer loop
    vertex 340.0440699894798 198.29125820189032 -75.40000000000002
    vertex 340.4254746837147 197.7942019270426 -71.40000000000002
    vertex 340.4254746837147 197.7942019270426 -75.4
  endloop
endfacet
facet normal 0.9224812637341492 0.38210425047374597 -0.0549969074525481
  outer loop
    vertex 340.76182828035473 197.24124953979893 -75.60000000000001
    vertex 340.4254746837147 197.7942019270426 -77.4
    vertex 340.51207722409316 197.8442019270426 -75.60000000000001
  endloop
endfacet
facet normal 0.9224812637341492 0.38210425047374597 -0.0549969074525481
  outer loop
    vertex 340.4254746837147 197.7942019270426 -77.4
    vertex 340.76182828035473 197.24124953979893 -75.60000000000001
    vertex 340.6652356977258 197.21536763528866 -77.4
  endloop
endfacet
facet normal 1.0 0.0 0.0
  outer loop
    vertex 351.84701371463206 172.5942019270426 -70.0
    vertex 351.84701371463206 189.5942019270426 -71.60000000000001
    vertex 351.84701371463206 189.5942019270426 -70.00000000000001
  endloop
endfacet
facet normal 1.0 0.0 0.0
  outer loop
    vertex 351.84701371463206 189.5942019270426 -71.60000000000001
    vertex 351.84701371463206 172.5942019270426 -70.0
    vertex 351.84701371463206 172.59420192704258 -71.60000000000001
  endloop
endfacet
facet normal 0.0 5.551115123125783e-16 -1.0
  outer loop
    vertex 324.84701371463206 220.5942019270426 -71.60000000000001
    vertex 326.84701371463206 218.09420192704258 -71.60000000000001
    vertex 324.84701371463206 172.59420192704258 -71.60000000000001
  endloop
endfacet
facet normal 0.0 5.551115123125783e-16 -1.0
  outer loop
    vertex 326.84701371463206 218.09420192704258 -71.60000000000001
    vertex 324.84701371463206 220.5942019270426 -71.60000000000001
    vertex 351.84701371463206 220.5942019270426 -71.60000000000001
  endloop
endfacet
facet normal 0.0 5.551115123125783e-16 -1.0
  outer loop
    vertex 326.84701371463206 218.09420192704258 -71.60000000000001
    vertex 351.84701371463206 220.5942019270426 -71.60000000000001
    vertex 349.84701371463206 218.09420192704258 -71.60000000000001
  endloop
endfacet
facet normal 0.0 5.551115123125783e-16 -1.0
  outer loop
    vertex 349.84701371463206 218.09420192704258 -71.60000000000001
    vertex 351.84701371463206 220.5942019270426 -71.60000000000001
    vertex 349.84701371463206 203.27770009709332 -71.60000000000001
  endloop
endfacet
facet normal 0.0 5.551115123125783e-16 -1.0
  outer loop
    vertex 349.84701371463206 203.27770009709332 -71.60000000000001
    vertex 351.84701371463206 220.5942019270426 -71.60000000000001
    vertex 350.0352803989144 203.3556827110661 -71.60000000000001
  endloop
endfacet
facet normal 0.0 5.551115123125783e-16 -1.0
  outer loop
    vertex 350.0352803989144 203.3556827110661 -71.60000000000001
    vertex 351.84701371463206 220.5942019270426 -71.60000000000001
    vertex 351.84701371463206 203.5942019270426 -71.60000000000001
  endloop
endfacet
facet normal 0.0 5.551115123125783e-16 -1.0
  outer loop
    vertex 350.0352803989144 189.83272114301909 -71.60000000000001
    vertex 349.84701371463206 175.0942019270426 -71.60000000000002
    vertex 349.84701371463206 189.91070375699186 -71.60000000000001
  endloop
endfacet
facet normal 0.0 5.551115123125783e-16 -1.0
  outer loop
    vertex 324.84701371463206 172.59420192704258 -71.60000000000001
    vertex 326.84701371463206 175.0942019270426 -71.60000000000002
    vertex 351.84701371463206 172.59420192704258 -71.60000000000001
  endloop
endfacet
facet normal 0.0 5.551115123125783e-16 -1.0
  outer loop
    vertex 326.84701371463206 175.0942019270426 -71.60000000000002
    vertex 324.84701371463206 172.59420192704258 -71.60000000000001
    vertex 326.84701371463206 218.09420192704258 -71.60000000000001
  endloop
endfacet
facet normal 0.0 5.551115123125783e-16 -1.0
  outer loop
    vertex 351.84701371463206 172.59420192704258 -71.60000000000001
    vertex 326.84701371463206 175.0942019270426 -71.60000000000002
    vertex 349.84701371463206 175.0942019270426 -71.60000000000002
  endloop
endfacet
facet normal 0.0 5.551115123125783e-16 -1.0
  outer loop
    vertex 351.84701371463206 172.59420192704258 -71.60000000000001
    vertex 349.84701371463206 175.0942019270426 -71.60000000000002
    vertex 350.0352803989144 189.83272114301909 -71.60000000000001
  endloop
endfacet
facet normal 0.0 5.551115123125783e-16 -1.0
  outer loop
    vertex 351.84701371463206 172.59420192704258 -71.60000000000001
    vertex 350.0352803989144 189.83272114301909 -71.60000000000001
    vertex 351.84701371463206 189.5942019270426 -71.60000000000001
  endloop
endfacet
facet normal 0.0 5.551115123125783e-16 -1.0
  outer loop
    vertex 326.84701371463206 218.09420192704258 -71.4
    vertex 336.2685527455494 197.7942019270426 -71.40000000000002
    vertex 326.84701371463206 175.0942019270426 -71.40000000000003
  endloop
endfacet
facet normal 0.0 5.551115123125783e-16 -1.0
  outer loop
    vertex 336.2685527455494 197.7942019270426 -71.40000000000002
    vertex 326.84701371463206 218.09420192704258 -71.4
    vertex 349.84701371463206 218.09420192704258 -71.4
  endloop
endfacet
facet normal 0.0 5.551115123125783e-16 -1.0
  outer loop
    vertex 326.84701371463206 175.0942019270426 -71.40000000000003
    vertex 336.2685527455494 197.7942019270426 -71.40000000000002
    vertex 336.02879173153826 197.21536763528866 -71.40000000000002
  endloop
endfacet
facet normal 0.0 5.551115123125783e-16 -1.0
  outer loop
    vertex 326.84701371463206 175.0942019270426 -71.40000000000003
    vertex 336.02879173153826 197.21536763528866 -71.40000000000002
    vertex 335.9470137146321 196.59420192704258 -71.40000000000002
  endloop
endfacet
facet normal 0.0 5.551115123125783e-16 -1.0
  outer loop
    vertex 336.2685527455494 197.7942019270426 -71.40000000000002
    vertex 349.84701371463206 218.09420192704258 -71.4
    vertex 336.6499574397843 198.29125820189032 -71.40000000000002
  endloop
endfacet
facet normal 0.0 5.551115123125783e-16 -1.0
  outer loop
    vertex 336.6499574397843 198.29125820189032 -71.40000000000002
    vertex 349.84701371463206 218.09420192704258 -71.4
    vertex 337.14701371463207 198.67266289612522 -71.40000000000002
  endloop
endfacet
facet normal 0.0 5.551115123125783e-16 -1.0
  outer loop
    vertex 337.14701371463207 198.67266289612522 -71.40000000000002
    vertex 349.84701371463206 218.09420192704258 -71.4
    vertex 337.725848006386 198.91242391013634 -71.40000000000002
  endloop
endfacet
facet normal 0.0 5.551115123125783e-16 -1.0
  outer loop
    vertex 337.725848006386 198.91242391013634 -71.40000000000002
    vertex 349.84701371463206 218.09420192704258 -71.4
    vertex 338.34701371463206 198.99420192704258 -71.40000000000002
  endloop
endfacet
facet normal 0.0 5.551115123125783e-16 -1.0
  outer loop
    vertex 338.34701371463206 198.99420192704258 -71.40000000000002
    vertex 349.84701371463206 218.09420192704258 -71.4
    vertex 338.9681794228781 198.91242391013634 -71.40000000000002
  endloop
endfacet
facet normal 0.0 5.551115123125783e-16 -1.0
  outer loop
    vertex 338.9681794228781 198.91242391013634 -71.40000000000002
    vertex 349.84701371463206 218.09420192704258 -71.4
    vertex 339.54701371463204 198.67266289612522 -71.40000000000002
  endloop
endfacet
facet normal 0.0 5.551115123125783e-16 -1.0
  outer loop
    vertex 339.54701371463204 198.67266289612522 -71.40000000000002
    vertex 349.84701371463206 218.09420192704258 -71.4
    vertex 340.0440699894798 198.29125820189032 -71.40000000000002
  endloop
endfacet
facet normal 0.0 5.551115123125783e-16 -1.0
  outer loop
    vertex 340.0440699894798 198.29125820189032 -71.40000000000002
    vertex 349.84701371463206 218.09420192704258 -71.4
    vertex 340.4254746837147 197.7942019270426 -71.40000000000002
  endloop
endfacet
facet normal 0.0 5.551115123125783e-16 -1.0
  outer loop
    vertex 340.4254746837147 197.7942019270426 -71.40000000000002
    vertex 349.84701371463206 218.09420192704258 -71.4
    vertex 340.6652356977258 197.21536763528863 -71.40000000000002
  endloop
endfacet
facet normal 0.0 5.551115123125783e-16 -1.0
  outer loop
    vertex 340.6652356977258 197.21536763528863 -71.40000000000002
    vertex 349.84701371463206 218.09420192704258 -71.4
    vertex 340.74701371463203 196.59420192704258 -71.40000000000002
  endloop
endfacet
facet normal 0.0 5.551115123125783e-16 -1.0
  outer loop
    vertex 340.74701371463203 196.59420192704258 -71.40000000000002
    vertex 349.84701371463206 218.09420192704258 -71.4
    vertex 345.08553293060857 198.40593524276022 -71.40000000000002
  endloop
endfacet
facet normal 0.0 5.551115123125783e-16 -1.0
  outer loop
    vertex 340.74701371463203 196.59420192704258 -71.40000000000002
    vertex 345.08553293060857 198.40593524276022 -71.40000000000002
    vertex 344.84701371463206 196.59420192704258 -71.40000000000002
  endloop
endfacet
facet normal 0.0 5.551115123125783e-16 -1.0
  outer loop
    vertex 345.08553293060857 198.40593524276022 -71.40000000000002
    vertex 349.84701371463206 218.09420192704258 -71.4
    vertex 345.78483588814095 200.0942019270426 -71.4
  endloop
endfacet
facet normal 0.0 5.551115123125783e-16 -1.0
  outer loop
    vertex 345.78483588814095 200.0942019270426 -71.4
    vertex 349.84701371463206 218.09420192704258 -71.4
    vertex 346.8972662463262 201.54394939534842 -71.40000000000002
  endloop
endfacet
facet normal 0.0 5.551115123125783e-16 -1.0
  outer loop
    vertex 346.8972662463262 201.54394939534842 -71.40000000000002
    vertex 349.84701371463206 218.09420192704258 -71.4
    vertex 348.34701371463206 202.65637975353366 -71.40000000000002
  endloop
endfacet
facet normal 0.0 5.551115123125783e-16 -1.0
  outer loop
    vertex 348.34701371463206 202.65637975353366 -71.40000000000002
    vertex 349.84701371463206 218.09420192704258 -71.4
    vertex 349.84701371463206 203.27770009709332 -71.40000000000002
  endloop
endfacet
facet normal 0.0 5.551115123125783e-16 -1.0
  outer loop
    vertex 326.84701371463206 175.0942019270426 -71.40000000000003
    vertex 336.2685527455494 195.3942019270426 -71.40000000000002
    vertex 349.84701371463206 175.0942019270426 -71.40000000000003
  endloop
endfacet
facet normal 0.0 5.551115123125783e-16 -1.0
  outer loop
    vertex 336.2685527455494 195.3942019270426 -71.40000000000002
    vertex 326.84701371463206 175.0942019270426 -71.40000000000003
    vertex 336.02879173153826 195.97303621879655 -71.40000000000002
  endloop
endfacet
facet normal 0.0 5.551115123125783e-16 -1.0
  outer loop
    vertex 336.02879173153826 195.97303621879655 -71.40000000000002
    vertex 326.84701371463206 175.0942019270426 -71.40000000000003
    vertex 335.9470137146321 196.59420192704258 -71.40000000000002
  endloop
endfacet
facet normal 0.0 5.551115123125783e-16 -1.0
  outer loop
    vertex 349.84701371463206 175.0942019270426 -71.40000000000003
    vertex 336.2685527455494 195.3942019270426 -71.40000000000002
    vertex 336.6499574397843 194.89714565219487 -71.40000000000002
  endloop
endfacet
facet normal 0.0 5.551115123125783e-16 -1.0
  outer loop
    vertex 349.84701371463206 175.0942019270426 -71.40000000000003
    vertex 336.6499574397843 194.89714565219487 -71.40000000000002
    vertex 337.14701371463207 194.51574095795993 -71.40000000000002
  endloop
endfacet
facet normal 0.0 5.551115123125783e-16 -1.0
  outer loop
    vertex 349.84701371463206 175.0942019270426 -71.40000000000003
    vertex 337.14701371463207 194.51574095795993 -71.40000000000002
    vertex 337.725848006386 194.2759799439488 -71.40000000000002
  endloop
endfacet
facet normal 0.0 5.551115123125783e-16 -1.0
  outer loop
    vertex 349.84701371463206 175.0942019270426 -71.40000000000003
    vertex 337.725848006386 194.2759799439488 -71.40000000000002
    vertex 338.34701371463206 194.1942019270426 -71.40000000000002
  endloop
endfacet
facet normal 0.0 5.551115123125783e-16 -1.0
  outer loop
    vertex 349.84701371463206 175.0942019270426 -71.40000000000003
    vertex 338.34701371463206 194.1942019270426 -71.40000000000002
    vertex 338.9681794228781 194.2759799439488 -71.40000000000002
  endloop
endfacet
facet normal 0.0 5.551115123125783e-16 -1.0
  outer loop
    vertex 349.84701371463206 175.0942019270426 -71.40000000000003
    vertex 338.9681794228781 194.2759799439488 -71.40000000000002
    vertex 339.54701371463204 194.51574095795993 -71.40000000000002
  endloop
endfacet
facet normal 0.0 5.551115123125783e-16 -1.0
  outer loop
    vertex 349.84701371463206 175.0942019270426 -71.40000000000003
    vertex 339.54701371463204 194.51574095795993 -71.40000000000002
    vertex 340.0440699894798 194.89714565219487 -71.40000000000002
  endloop
endfacet
facet normal 0.0 5.551115123125783e-16 -1.0
  outer loop
    vertex 349.84701371463206 175.0942019270426 -71.40000000000003
    vertex 340.0440699894798 194.89714565219487 -71.40000000000002
    vertex 340.4254746837147 195.3942019270426 -71.40000000000002
  endloop
endfacet
facet normal 0.0 5.551115123125783e-16 -1.0
  outer loop
    vertex 349.84701371463206 175.0942019270426 -71.40000000000003
    vertex 340.4254746837147 195.3942019270426 -71.40000000000002
    vertex 340.6652356977258 195.97303621879655 -71.40000000000002
  endloop
endfacet
facet normal 0.0 5.551115123125783e-16 -1.0
  outer loop
    vertex 349.84701371463206 175.0942019270426 -71.40000000000003
    vertex 340.6652356977258 195.97303621879655 -71.40000000000002
    vertex 340.74701371463203 196.59420192704258 -71.40000000000002
  endloop
endfacet
facet normal 0.0 5.551115123125783e-16 -1.0
  outer loop
    vertex 349.84701371463206 175.0942019270426 -71.40000000000003
    vertex 340.74701371463203 196.59420192704258 -71.40000000000002
    vertex 345.08553293060857 194.78246861132493 -71.40000000000002
  endloop
endfacet
facet normal 0.0 5.551115123125783e-16 -1.0
  outer loop
    vertex 345.08553293060857 194.78246861132493 -71.40000000000002
    vertex 340.74701371463203 196.59420192704258 -71.40000000000002
    vertex 344.84701371463206 196.59420192704258 -71.40000000000002
  endloop
endfacet
facet normal 0.0 5.551115123125783e-16 -1.0
  outer loop
    vertex 349.84701371463206 175.0942019270426 -71.40000000000003
    vertex 345.08553293060857 194.78246861132493 -71.40000000000002
    vertex 345.78483588814095 193.09420192704258 -71.40000000000002
  endloop
endfacet
facet normal 0.0 5.551115123125783e-16 -1.0
  outer loop
    vertex 349.84701371463206 175.0942019270426 -71.40000000000003
    vertex 345.78483588814095 193.09420192704258 -71.40000000000002
    vertex 346.8972662463262 191.64445445873673 -71.4
  endloop
endfacet
facet normal 0.0 5.551115123125783e-16 -1.0
  outer loop
    vertex 349.84701371463206 175.0942019270426 -71.40000000000003
    vertex 346.8972662463262 191.64445445873673 -71.4
    vertex 348.34701371463206 190.5320241005515 -71.4
  endloop
endfacet
facet normal 0.0 5.551115123125783e-16 -1.0
  outer loop
    vertex 349.84701371463206 175.0942019270426 -71.40000000000003
    vertex 348.34701371463206 190.5320241005515 -71.4
    vertex 349.84701371463206 189.91070375699186 -71.4
  endloop
endfacet
facet normal -1.0 0.0 -0.0
  outer loop
    vertex 349.84701371463206 175.0942019270426 -71.60000000000002
    vertex 349.84701371463206 189.91070375699186 -71.4
    vertex 349.84701371463206 189.91070375699186 -71.60000000000001
  endloop
endfacet
facet normal -1.0 0.0 -0.0
  outer loop
    vertex 349.84701371463206 189.91070375699186 -71.4
    vertex 349.84701371463206 175.0942019270426 -71.60000000000002
    vertex 349.84701371463206 175.0942019270426 -71.40000000000003
  endloop
endfacet
facet normal 0.0 1.0 5.551115123125783e-16
  outer loop
    vertex 349.84701371463206 175.0942019270426 -71.60000000000002
    vertex 326.84701371463206 175.0942019270426 -71.40000000000003
    vertex 349.84701371463206 175.0942019270426 -71.40000000000003
  endloop
endfacet
facet normal 0.0 1.0 5.551115123125783e-16
  outer loop
    vertex 326.84701371463206 175.0942019270426 -71.40000000000003
    vertex 349.84701371463206 175.0942019270426 -71.60000000000002
    vertex 326.84701371463206 175.0942019270426 -71.60000000000002
  endloop
endfacet
facet normal 1.0 0.0 0.0
  outer loop
    vertex 326.84701371463206 175.0942019270426 -71.40000000000003
    vertex 326.84701371463206 218.09420192704258 -71.60000000000001
    vertex 326.84701371463206 218.09420192704258 -71.4
  endloop
endfacet
facet normal 1.0 0.0 0.0
  outer loop
    vertex 326.84701371463206 218.09420192704258 -71.60000000000001
    vertex 326.84701371463206 175.0942019270426 -71.40000000000003
    vertex 326.84701371463206 175.0942019270426 -71.60000000000002
  endloop
endfacet
facet normal 0.0 -1.0 -5.551115123125783e-16
  outer loop
    vertex 326.84701371463206 218.09420192704258 -71.60000000000001
    vertex 349.84701371463206 218.09420192704258 -71.4
    vertex 326.84701371463206 218.09420192704258 -71.4
  endloop
endfacet
facet normal 0.0 -1.0 -5.551115123125783e-16
  outer loop
    vertex 349.84701371463206 218.09420192704258 -71.4
    vertex 326.84701371463206 218.09420192704258 -71.60000000000001
    vertex 349.84701371463206 218.09420192704258 -71.60000000000001
  endloop
endfacet
facet normal -1.0 0.0 -0.0
  outer loop
    vertex 349.84701371463206 203.27770009709332 -71.60000000000001
    vertex 349.84701371463206 218.09420192704258 -71.4
    vertex 349.84701371463206 218.09420192704258 -71.60000000000001
  endloop
endfacet
facet normal -1.0 0.0 -0.0
  outer loop
    vertex 349.84701371463206 218.09420192704258 -71.4
    vertex 349.84701371463206 203.27770009709332 -71.60000000000001
    vertex 349.84701371463206 203.27770009709332 -71.40000000000002
  endloop
endfacet
facet normal 0.0 -1.0 -5.551115123125783e-16
  outer loop
    vertex 324.84701371463206 172.59420192704258 -71.60000000000001
    vertex 351.84701371463206 172.5942019270426 -70.0
    vertex 324.84701371463206 172.5942019270426 -70.0
  endloop
endfacet
facet normal 0.0 -1.0 -5.551115123125783e-16
  outer loop
    vertex 351.84701371463206 172.5942019270426 -70.0
    vertex 324.84701371463206 172.59420192704258 -71.60000000000001
    vertex 351.84701371463206 172.59420192704258 -71.60000000000001
  endloop
endfacet
facet normal -0.13032864406278552 -0.9899443341458204 -0.054996907452547136
  outer loop
    vertex 337.69996610187576 194.17938736131995 -75.60000000000002
    vertex 338.34701371463206 194.1942019270426 -77.40000000000002
    vertex 338.34701371463206 194.0942019270426 -75.60000000000001
  endloop
endfacet
facet normal -0.13032864406278552 -0.9899443341458204 -0.054996907452547136
  outer loop
    vertex 338.34701371463206 194.1942019270426 -77.40000000000002
    vertex 337.69996610187576 194.17938736131995 -75.60000000000002
    vertex 337.725848006386 194.2759799439488 -77.40000000000002
  endloop
endfacet
facet normal 1.0 0.0 0.0
  outer loop
    vertex 351.84701371463206 203.5942019270426 -70.0
    vertex 351.84701371463206 220.5942019270426 -71.60000000000001
    vertex 351.84701371463206 220.5942019270426 -70.0
  endloop
endfacet
facet normal 1.0 0.0 0.0
  outer loop
    vertex 351.84701371463206 220.5942019270426 -71.60000000000001
    vertex 351.84701371463206 203.5942019270426 -70.0
    vertex 351.84701371463206 203.5942019270426 -71.60000000000001
  endloop
endfacet
facet normal -0.3821042504737633 -0.9224812637341422 -0.05499690745254644
  outer loop
    vertex 337.14701371463207 194.51574095795993 -77.40000000000002
    vertex 337.69996610187576 194.17938736131995 -75.60000000000002
    vertex 337.09701371463206 194.42913841758147 -75.60000000000002
  endloop
endfacet
facet normal -0.3821042504737633 -0.9224812637341422 -0.05499690745254644
  outer loop
    vertex 337.69996610187576 194.17938736131995 -75.60000000000002
    vertex 337.14701371463207 194.51574095795993 -77.40000000000002
    vertex 337.725848006386 194.2759799439488 -77.40000000000002
  endloop
endfacet
facet normal -1.0 0.0 -0.0
  outer loop
    vertex 324.84701371463206 172.59420192704258 -71.60000000000001
    vertex 324.84701371463206 220.5942019270426 -70.0
    vertex 324.84701371463206 220.5942019270426 -71.60000000000001
  endloop
endfacet
facet normal -1.0 0.0 -0.0
  outer loop
    vertex 324.84701371463206 220.5942019270426 -70.0
    vertex 324.84701371463206 172.59420192704258 -71.60000000000001
    vertex 324.84701371463206 172.5942019270426 -70.0
  endloop
endfacet
facet normal 0.13032864406278993 -0.98994433414582 -0.05499690745254561
  outer loop
    vertex 338.34701371463206 194.1942019270426 -77.40000000000002
    vertex 338.99406132738835 194.17938736131995 -75.60000000000002
    vertex 338.34701371463206 194.0942019270426 -75.60000000000001
  endloop
endfacet
facet normal 0.13032864406278993 -0.98994433414582 -0.05499690745254561
  outer loop
    vertex 338.99406132738835 194.17938736131995 -75.60000000000002
    vertex 338.34701371463206 194.1942019270426 -77.40000000000002
    vertex 338.9681794228781 194.2759799439488 -77.40000000000002
  endloop
endfacet
facet normal -0.7921526196713536 -0.6078400836720684 -0.05499690745255313
  outer loop
    vertex 336.6499574397843 194.8971456521949 -77.40000000000002
    vertex 336.18195020517095 195.3442019270426 -75.60000000000002
    vertex 336.2685527455494 195.3942019270426 -77.40000000000002
  endloop
endfacet
facet normal -0.7921526196713536 -0.6078400836720684 -0.05499690745255313
  outer loop
    vertex 336.18195020517095 195.3442019270426 -75.60000000000002
    vertex 336.6499574397843 194.8971456521949 -77.40000000000002
    vertex 336.5792467616657 194.82643497407622 -75.60000000000002
  endloop
endfacet
facet normal -0.9224812637341492 -0.3821042504737458 -0.05499690745254852
  outer loop
    vertex 336.2685527455494 195.3942019270426 -77.40000000000002
    vertex 335.9321991489094 195.94715431428628 -75.60000000000002
    vertex 336.02879173153826 195.97303621879655 -77.40000000000002
  endloop
endfacet
facet normal -0.9224812637341492 -0.3821042504737458 -0.05499690745254852
  outer loop
    vertex 335.9321991489094 195.94715431428628 -75.60000000000002
    vertex 336.2685527455494 195.3942019270426 -77.40000000000002
    vertex 336.18195020517095 195.3442019270426 -75.60000000000002
  endloop
endfacet
facet normal -0.6078400836720608 -0.7921526196713599 -0.05499690745254731
  outer loop
    vertex 336.6499574397843 194.8971456521949 -77.40000000000002
    vertex 337.09701371463206 194.42913841758147 -75.60000000000002
    vertex 336.5792467616657 194.82643497407622 -75.60000000000002
  endloop
endfacet
facet normal -0.6078400836720608 -0.7921526196713599 -0.05499690745254731
  outer loop
    vertex 337.09701371463206 194.42913841758147 -75.60000000000002
    vertex 336.6499574397843 194.8971456521949 -77.40000000000002
    vertex 337.14701371463207 194.51574095795993 -77.40000000000002
  endloop
endfacet
facet normal -0.7921526196713521 0.6078400836720705 -0.05499690745254961
  outer loop
    vertex 336.6499574397843 198.29125820189032 -77.40000000000002
    vertex 336.18195020517095 197.84420192704258 -75.60000000000001
    vertex 336.5792467616657 198.361968880009 -75.60000000000002
  endloop
endfacet
facet normal -0.7921526196713521 0.6078400836720705 -0.05499690745254961
  outer loop
    vertex 336.18195020517095 197.84420192704258 -75.60000000000001
    vertex 336.6499574397843 198.29125820189032 -77.40000000000002
    vertex 336.2685527455494 197.7942019270426 -77.4
  endloop
endfacet
facet normal 0.7921526196713521 -0.6078400836720707 -0.05499690745255029
  outer loop
    vertex 340.51207722409316 195.3442019270426 -75.60000000000002
    vertex 340.0440699894798 194.8971456521949 -77.40000000000002
    vertex 340.4254746837147 195.3942019270426 -77.40000000000002
  endloop
endfacet
facet normal 0.7921526196713521 -0.6078400836720707 -0.05499690745255029
  outer loop
    vertex 340.0440699894798 194.8971456521949 -77.40000000000002
    vertex 340.51207722409316 195.3442019270426 -75.60000000000002
    vertex 340.1147806675984 194.82643497407622 -75.60000000000002
  endloop
endfacet
facet normal -0.92248126373415 0.3821042504737444 -0.05499690745254512
  outer loop
    vertex 336.2685527455494 197.7942019270426 -77.4
    vertex 335.9321991489094 197.24124953979887 -75.60000000000001
    vertex 336.18195020517095 197.84420192704258 -75.60000000000001
  endloop
endfacet
facet normal -0.92248126373415 0.3821042504737444 -0.05499690745254512
  outer loop
    vertex 335.9321991489094 197.24124953979887 -75.60000000000001
    vertex 336.2685527455494 197.7942019270426 -77.4
    vertex 336.02879173153826 197.21536763528866 -77.4
  endloop
endfacet
facet normal -0.6078400836720694 0.7921526196713532 -0.054996907452547775
  outer loop
    vertex 337.14701371463207 198.67266289612522 -77.40000000000002
    vertex 336.5792467616657 198.361968880009 -75.60000000000002
    vertex 337.097013714632 198.75926543650368 -75.60000000000002
  endloop
endfacet
facet normal -0.6078400836720694 0.7921526196713532 -0.054996907452547775
  outer loop
    vertex 336.5792467616657 198.361968880009 -75.60000000000002
    vertex 337.14701371463207 198.67266289612522 -77.40000000000002
    vertex 336.6499574397843 198.29125820189032 -77.40000000000002
  endloop
endfacet
facet normal 0.92248126373415 -0.3821042504737445 -0.05499690745254676
  outer loop
    vertex 340.76182828035473 195.94715431428628 -75.60000000000002
    vertex 340.4254746837147 195.3942019270426 -77.40000000000002
    vertex 340.6652356977258 195.97303621879655 -77.40000000000002
  endloop
endfacet
facet normal 0.92248126373415 -0.3821042504737445 -0.05499690745254676
  outer loop
    vertex 340.4254746837147 195.3942019270426 -77.40000000000002
    vertex 340.76182828035473 195.94715431428628 -75.60000000000002
    vertex 340.51207722409316 195.3442019270426 -75.60000000000002
  endloop
endfacet
facet normal 0.3821042504737568 -0.9224812637341446 -0.05499690745254591
  outer loop
    vertex 338.9681794228781 194.2759799439488 -77.40000000000002
    vertex 339.59701371463206 194.42913841758153 -75.60000000000002
    vertex 338.99406132738835 194.17938736131995 -75.60000000000002
  endloop
endfacet
facet normal 0.3821042504737568 -0.9224812637341446 -0.05499690745254591
  outer loop
    vertex 339.59701371463206 194.42913841758153 -75.60000000000002
    vertex 338.9681794228781 194.2759799439488 -77.40000000000002
    vertex 339.54701371463204 194.51574095795993 -77.40000000000002
  endloop
endfacet
facet normal 0.6078400836720694 -0.7921526196713532 -0.05499690745254865
  outer loop
    vertex 339.54701371463204 194.51574095795993 -77.40000000000002
    vertex 340.1147806675984 194.82643497407622 -75.60000000000002
    vertex 339.59701371463206 194.42913841758153 -75.60000000000002
  endloop
endfacet
facet normal 0.6078400836720694 -0.7921526196713532 -0.05499690745254865
  outer loop
    vertex 340.1147806675984 194.82643497407622 -75.60000000000002
    vertex 339.54701371463204 194.51574095795993 -77.40000000000002
    vertex 340.0440699894798 194.8971456521949 -77.40000000000002
  endloop
endfacet
facet normal -2.955636345616435e-16 -1.0 -1.1681477041708171e-15
  outer loop
    vertex 336.01283996342573 197.0942019270426 -75.4
    vertex 340.6811874658384 197.0942019270426 -72.40000000000002
    vertex 336.01283996342573 197.0942019270426 -72.40000000000002
  endloop
endfacet
facet normal -2.955636345616435e-16 -1.0 -1.1681477041708171e-15
  outer loop
    vertex 340.6811874658384 197.0942019270426 -72.40000000000002
    vertex 336.01283996342573 197.0942019270426 -75.4
    vertex 340.6811874658383 197.0942019270426 -75.40000000000005
  endloop
endfacet
facet normal -2.955636345616435e-16 -1.0 -1.1681477041708171e-15
  outer loop
    vertex 340.6811874658383 197.0942019270426 -75.40000000000005
    vertex 336.01283996342573 197.0942019270426 -75.4
    vertex 335.9128399634257 197.0942019270426 -75.60000000000002
  endloop
endfacet
facet normal -2.955636345616435e-16 -1.0 -1.1681477041708171e-15
  outer loop
    vertex 340.6811874658383 197.0942019270426 -75.40000000000005
    vertex 335.9128399634257 197.0942019270426 -75.60000000000002
    vertex 340.7811874658383 197.0942019270426 -75.60000000000004
  endloop
endfacet
facet normal -2.955636345616435e-16 -1.0 -1.1681477041708171e-15
  outer loop
    vertex 340.7811874658383 197.0942019270426 -75.60000000000004
    vertex 335.9128399634257 197.0942019270426 -75.60000000000002
    vertex 336.01283996342573 197.0942019270426 -77.40000000000002
  endloop
endfacet
facet normal -2.955636345616435e-16 -1.0 -1.1681477041708171e-15
  outer loop
    vertex 340.7811874658383 197.0942019270426 -75.60000000000004
    vertex 336.01283996342573 197.0942019270426 -77.40000000000002
    vertex 340.6811874658384 197.0942019270426 -77.40000000000002
  endloop
endfacet
facet normal 0.0 5.551115123125783e-16 -1.0
  outer loop
    vertex 336.01283996342573 197.0942019270426 -72.40000000000002
    vertex 336.01283996342573 196.0942019270426 -72.40000000000002
    vertex 335.947013714632 196.59420192704258 -72.40000000000002
  endloop
endfacet
facet normal 0.0 5.551115123125783e-16 -1.0
  outer loop
    vertex 336.01283996342573 196.0942019270426 -72.40000000000002
    vertex 336.01283996342573 197.0942019270426 -72.40000000000002
    vertex 340.6811874658384 197.0942019270426 -72.40000000000002
  endloop
endfacet
facet normal 0.0 5.551115123125783e-16 -1.0
  outer loop
    vertex 336.01283996342573 196.0942019270426 -72.40000000000002
    vertex 340.6811874658384 197.0942019270426 -72.40000000000002
    vertex 340.6811874658384 196.0942019270426 -72.40000000000002
  endloop
endfacet
facet normal 0.0 5.551115123125783e-16 -1.0
  outer loop
    vertex 340.6811874658384 196.0942019270426 -72.40000000000002
    vertex 340.6811874658384 197.0942019270426 -72.40000000000002
    vertex 340.7470137146321 196.59420192704258 -72.40000000000002
  endloop
endfacet
facet normal -2.9556363456163724e-16 1.0 1.1681477041708171e-15
  outer loop
    vertex 340.6811874658384 196.0942019270426 -75.40000000000002
    vertex 336.01283996342573 196.0942019270426 -72.40000000000002
    vertex 340.6811874658384 196.0942019270426 -72.40000000000002
  endloop
endfacet
facet normal -2.9556363456163724e-16 1.0 1.1681477041708171e-15
  outer loop
    vertex 336.01283996342573 196.0942019270426 -72.40000000000002
    vertex 340.6811874658384 196.0942019270426 -75.40000000000002
    vertex 336.01283996342573 196.0942019270426 -75.40000000000002
  endloop
endfacet
facet normal -2.9556363456163724e-16 1.0 1.1681477041708171e-15
  outer loop
    vertex 336.01283996342573 196.0942019270426 -75.40000000000002
    vertex 340.6811874658384 196.0942019270426 -75.40000000000002
    vertex 340.78118746583834 196.0942019270426 -75.60000000000002
  endloop
endfacet
facet normal -2.9556363456163724e-16 1.0 1.1681477041708171e-15
  outer loop
    vertex 336.01283996342573 196.0942019270426 -75.40000000000002
    vertex 340.78118746583834 196.0942019270426 -75.60000000000002
    vertex 335.91283996342577 196.0942019270426 -75.60000000000002
  endloop
endfacet
facet normal -2.9556363456163724e-16 1.0 1.1681477041708171e-15
  outer loop
    vertex 335.91283996342577 196.0942019270426 -75.60000000000002
    vertex 340.78118746583834 196.0942019270426 -75.60000000000002
    vertex 340.6811874658384 196.0942019270426 -77.40000000000002
  endloop
endfacet
facet normal -2.9556363456163724e-16 1.0 1.1681477041708171e-15
  outer loop
    vertex 335.91283996342577 196.0942019270426 -75.60000000000002
    vertex 340.6811874658384 196.0942019270426 -77.40000000000002
    vertex 336.01283996342573 196.0942019270426 -77.40000000000002
  endloop
endfacet
endsolid KRH
