<?xml version="1.0" encoding="UTF-8" standalone="no"?>
<svg
   xmlns:dc="http://purl.org/dc/elements/1.1/"
   xmlns:cc="http://creativecommons.org/ns#"
   xmlns:rdf="http://www.w3.org/1999/02/22-rdf-syntax-ns#"
   xmlns:svg="http://www.w3.org/2000/svg"
   xmlns="http://www.w3.org/2000/svg"
   xmlns:sodipodi="http://sodipodi.sourceforge.net/DTD/sodipodi-0.dtd"
   xmlns:inkscape="http://www.inkscape.org/namespaces/inkscape"
   width="1531.5299"
   height="968.78522"
   version="1.1"
   id="svg2085"
   sodipodi:docname="KRH.svg"
   inkscape:version="0.92.2 (5c3e80d, 2017-08-06)">
  <metadata
     id="metadata2089">
    <rdf:RDF>
      <cc:Work
         rdf:about="">
        <dc:format>image/svg+xml</dc:format>
        <dc:type
           rdf:resource="http://purl.org/dc/dcmitype/StillImage" />
        <dc:title></dc:title>
      </cc:Work>
    </rdf:RDF>
  </metadata>
  <sodipodi:namedview
     pagecolor="#ffffff"
     bordercolor="#666666"
     borderopacity="1"
     objecttolerance="10"
     gridtolerance="10"
     guidetolerance="10"
     inkscape:pageopacity="0"
     inkscape:pageshadow="2"
     inkscape:window-width="1366"
     inkscape:window-height="749"
     id="namedview2087"
     showgrid="false"
     inkscape:zoom="0.51847645"
     inkscape:cx="623.21377"
     inkscape:cy="143.33166"
     inkscape:window-x="-4"
     inkscape:window-y="-4"
     inkscape:window-maximized="1"
     inkscape:current-layer="g831" />
  <desc
     id="desc815">C:\Users\Andreas Reheis\Documents\Laser\Kabelrollenhalter KRH\KRH.dxf - scale = 1.000000, origin = (0.000000, 0.000000), method = file</desc>
  <defs
     id="defs829">
    <marker
       id="DistanceX"
       orient="auto"
       refX="0"
       refY="0"
       style="overflow:visible">
      <path
         d="M 3,-3 -3,3 M 0,-5 V 5"
         style="stroke:#000000;stroke-width:0.5"
         id="path817"
         inkscape:connector-curvature="0" />
    </marker>
    <pattern
       height="8"
       id="Hatch"
       patternUnits="userSpaceOnUse"
       width="8"
       x="0"
       y="0">
      <path
         d="M8 4 l-4,4"
         linecap="square"
         stroke="#000000"
         stroke-width="0.25"
         id="path820" />
      <path
         d="M6 2 l-4,4"
         linecap="square"
         stroke="#000000"
         stroke-width="0.25"
         id="path822" />
      <path
         d="M4 0 l-4,4"
         linecap="square"
         stroke="#000000"
         stroke-width="0.25"
         id="path824" />
    </pattern>
    <symbol
       id="*MODEL_SPACE" />
    <symbol
       id="*PAPER_SPACE" />
  </defs>
  <g
     inkscape:groupmode="layer"
     inkscape:label="Gravur"
     id="g831"
     transform="translate(765.76495,-638.12707)"
     style="display:inline">
    <g
       aria-label="Kabelrollenhalter by mini revollo made in the erfindergarden"
       style="font-style:normal;font-variant:normal;font-weight:normal;font-stretch:normal;font-size:29.33333397px;line-height:1.25;font-family:'OCR A Extended';-inkscape-font-specification:'OCR A Extended';font-variant-ligatures:normal;font-variant-caps:normal;font-variant-numeric:normal;font-feature-settings:normal;text-align:start;letter-spacing:0px;word-spacing:0px;writing-mode:lr-tb;text-anchor:start;fill:#ff0000;fill-opacity:1;stroke:#ff0000;stroke-opacity:1"
       id="text2101">
      <path
         d="m -691.41427,1568.4553 v -16.6002 q 0,-0.5157 0.34375,-0.8737 0.35808,-0.3581 0.85938,-0.3581 0.5013,0 0.84505,0.3581 0.35807,0.3437 0.35807,0.845 v 5.6862 l 7.70573,-6.5742 q 0.40105,-0.3294 0.90235,-0.3294 0.5013,0 0.84505,0.3724 0.34375,0.3724 0.34375,0.8593 0,0.5013 -0.38672,0.8308 l -8.73698,7.4192 8.73698,7.5482 q 0.35807,0.3008 0.35807,0.7735 0,0.4726 -0.35807,0.8593 -0.34375,0.3867 -0.85937,0.3867 -0.48698,0 -0.8737,-0.3294 l -7.67709,-6.6172 v 5.7435 q 0,0.5013 -0.35807,0.8594 -0.34375,0.3437 -0.84505,0.3437 -0.48698,0 -0.84505,-0.3437 -0.35808,-0.3581 -0.35808,-0.8594 z"
         style="fill:#ff0000;fill-opacity:1;stroke:#ff0000;stroke-opacity:1"
         id="path2103" />
      <path
         d="m -670.10177,1560.9788 h 4.71224 q 0.38672,0 1.11719,0.1718 l -0.0286,-1.7044 q 0,-0.5013 -0.35808,-0.845 -0.34375,-0.3581 -0.84505,-0.3581 h -4.56901 q -0.48698,0 -0.84505,-0.3581 -0.35808,-0.3581 -0.35808,-0.845 0,-0.5013 0.34376,-0.8451 0.35807,-0.3581 0.85937,-0.3581 h 4.56901 q 1.48958,0 2.53516,1.0456 1.05989,1.0456 1.10286,2.5638 l 0.30078,9.0091 q 0,0.5013 -0.35807,0.8594 -0.35807,0.3437 -0.84505,0.3437 -0.51563,0 -0.8737,-0.3437 -0.35807,-0.3581 -0.35807,-0.8594 l -2.03386,1.2031 h -4.06771 q -1.51823,0 -2.57812,-1.0598 -1.0599,-1.0599 -1.0599,-2.5782 v -1.4036 q 0,-1.5039 1.0599,-2.5638 1.07422,-1.0742 2.57812,-1.0742 z m 6.01563,4.6836 -0.0716,-1.017 q -0.0143,-0.5156 -0.35807,-0.8593 -0.34375,-0.3438 -0.84505,-0.3438 h -4.74089 q -0.5013,0 -0.85937,0.3581 -0.34375,0.3437 -0.34375,0.845 v 1.3464 q 0,0.487 0.35807,0.845 0.35808,0.3581 0.84505,0.3581 h 3.39454 z"
         style="fill:#ff0000;fill-opacity:1;stroke:#ff0000;stroke-opacity:1"
         id="path2105" />
      <path
         d="m -653.51583,1551.8264 v 5.6576 l 1.0599,-0.8451 q 1.0026,-0.8307 2.07682,-0.8307 h 2.20573 q 1.21745,0 2.16276,0.8307 l 1.14583,0.9883 q 0.47266,0.4154 0.77344,1.1888 0.31511,0.7734 0.31511,1.5182 v 4.8698 q 0,0.6589 -0.28646,1.3893 -0.28646,0.7305 -0.65886,1.0743 l -1.04557,0.9882 q -0.40104,0.3868 -1.14583,0.7019 -0.7448,0.3007 -1.26042,0.3007 h -2.0625 q -1.50391,0 -3.27995,-1.6757 v 0.4726 q 0,0.5013 -0.35807,0.8594 -0.34375,0.3437 -0.84505,0.3437 -0.50131,0 -0.85938,-0.3437 -0.34375,-0.3581 -0.34375,-0.8594 v -16.6289 q 0,-0.5013 0.35807,-0.845 0.35808,-0.3581 0.84506,-0.3581 0.5013,0 0.84505,0.3581 0.35807,0.3437 0.35807,0.845 z m 5.15625,6.4167 h -1.66146 q -0.60156,0 -0.91666,0.2721 l -2.16276,1.8477 q -0.41537,0.3724 -0.41537,1.1172 v 2.7213 q 0,0.6016 0.47266,1.0026 l 1.93359,1.6328 q 0.41537,0.3868 0.8737,0.3868 h 1.96224 q 0.41536,0 0.71615,-0.2579 l 0.95963,-0.8593 q 0.38672,-0.2865 0.38672,-0.8164 v -5.0704 q 0,-0.6015 -0.38672,-0.9166 l -0.8737,-0.7305 q -0.40104,-0.3294 -0.88802,-0.3294 z"
         style="fill:#ff0000;fill-opacity:1;stroke:#ff0000;stroke-opacity:1"
         id="path2107" />
      <path
         d="m -626.15906,1560.3629 v 2.9075 q 0,0.487 -0.35807,0.8451 -0.35807,0.3581 -0.84505,0.3581 H -635.87 v 0.7018 q 0,0.6159 0.52995,1.0455 l 0.70183,0.5873 q 0.57291,0.444 1.08854,0.444 h 6.1875 q 0.48698,0 0.84505,0.3581 0.35807,0.3437 0.35807,0.845 0,0.487 -0.37239,0.8451 -0.35808,0.358 -0.83073,0.358 h -6.34505 q -0.63021,0 -1.33204,-0.2578 -0.6875,-0.2721 -1.01692,-0.5586 l -1.07422,-0.9453 q -0.5013,-0.401 -0.84505,-1.1172 -0.32943,-0.7161 -0.32943,-1.3177 v -5.5143 q 0,-0.4726 0.35807,-1.2747 0.3724,-0.8021 0.93099,-1.2461 l 1.00261,-0.7878 q 0.98828,-0.8021 2.1914,-0.8021 h 3.38021 q 1.27474,0 2.40625,1.0599 l 0.90234,0.8594 q 0.97396,0.8737 0.97396,2.6068 z m -9.68229,-0.1862 v 1.862 h 7.30469 v -1.6758 q 0,-0.6732 -0.41537,-1.0313 l -0.70182,-0.6159 q -0.54427,-0.444 -0.97396,-0.444 h -3.02213 q -0.5586,0 -1.01693,0.3867 l -0.70182,0.5873 q -0.47266,0.3581 -0.47266,0.931 z"
         style="fill:#ff0000;fill-opacity:1;stroke:#ff0000;stroke-opacity:1"
         id="path2109" />
      <path
         d="m -610.86218,1569.6584 h -7.27604 q -0.50131,0 -0.85938,-0.358 -0.34375,-0.3724 -0.34375,-0.8737 0,-0.487 0.34375,-0.8451 0.35807,-0.358 0.85938,-0.358 h 2.40625 v -14.1941 h -2.4349 q -0.5013,0 -0.85938,-0.3437 -0.34375,-0.3581 -0.34375,-0.8594 0,-0.5013 0.34375,-0.845 0.35808,-0.3581 0.85938,-0.3581 h 3.66667 q 0.48698,0 0.84505,0.3581 0.35807,0.358 0.35807,0.845 v 15.3972 h 2.4349 q 0.48698,0 0.84505,0.358 0.35807,0.3581 0.35807,0.8451 0,0.5013 -0.35807,0.8737 -0.34375,0.358 -0.84505,0.358 z"
         style="fill:#ff0000;fill-opacity:1;stroke:#ff0000;stroke-opacity:1"
         id="path2111" />
      <path
         d="M -602.87,1568.4553 V 1557.04 q 0,-0.5013 0.34375,-0.8594 0.35808,-0.3724 0.85938,-0.3724 0.5013,0 0.84505,0.3581 0.35807,0.358 0.35807,0.8737 v 1.5039 l 1.96224,-1.6758 q 1.21745,-1.0313 2.37761,-1.0313 h 1.76172 q 1.48958,0 2.54948,1.0599 1.05989,1.0599 1.05989,2.5495 v 0.6445 q 0,0.5157 -0.35807,0.8737 -0.34375,0.3581 -0.84505,0.3581 -0.5013,0 -0.85938,-0.3437 -0.34375,-0.3581 -0.34375,-0.8594 v -0.6732 q 0,-0.5013 -0.35807,-0.845 -0.34375,-0.3581 -0.84505,-0.3581 h -1.5612 q -0.5013,0 -1.11719,0.5299 l -3.42318,2.9649 v 6.7174 q 0,0.5013 -0.35807,0.8594 -0.35807,0.3437 -0.84505,0.3437 -0.5013,0 -0.85938,-0.3437 -0.34375,-0.3581 -0.34375,-0.8594 z"
         style="fill:#ff0000;fill-opacity:1;stroke:#ff0000;stroke-opacity:1"
         id="path2113" />
      <path
         d="m -573.04968,1560.1767 v 5.0846 q 0,1.6185 -1.53255,2.9935 -1.51823,1.375 -3.13672,1.375 h -2.82162 q -1.64713,0 -3.15104,-1.3893 -1.50391,-1.4037 -1.50391,-2.9792 v -5.0846 q 0,-1.5755 1.46094,-2.9649 1.47526,-1.4036 3.19401,-1.4036 h 2.82162 q 1.61849,-0.029 3.13672,1.3463 1.53255,1.375 1.53255,3.0222 z m -9.71094,0.1002 v 4.8698 q 0,0.6589 0.47266,1.0456 l 0.90234,0.7734 q 0.30078,0.2579 0.84505,0.2579 h 2.79297 q 0.61589,0 1.11719,-0.4441 l 0.73047,-0.6445 q 0.44401,-0.3437 0.44401,-0.9596 v -4.8698 q 0,-0.7162 -0.44401,-1.0599 l -0.84505,-0.6732 q -0.42969,-0.3581 -1.00261,-0.3581 h -2.49219 q -0.8164,0 -1.26041,0.3868 l -0.81641,0.7018 q -0.44401,0.3724 -0.44401,0.9739 z"
         style="fill:#ff0000;fill-opacity:1;stroke:#ff0000;stroke-opacity:1"
         id="path2115" />
      <path
         d="m -557.75281,1569.6584 h -7.27604 q -0.5013,0 -0.85937,-0.358 -0.34375,-0.3724 -0.34375,-0.8737 0,-0.487 0.34375,-0.8451 0.35807,-0.358 0.85937,-0.358 h 2.40625 v -14.1941 h -2.4349 q -0.5013,0 -0.85937,-0.3437 -0.34375,-0.3581 -0.34375,-0.8594 0,-0.5013 0.34375,-0.845 0.35807,-0.3581 0.85937,-0.3581 h 3.66667 q 0.48698,0 0.84505,0.3581 0.35808,0.358 0.35808,0.845 v 15.3972 h 2.43489 q 0.48698,0 0.84505,0.358 0.35808,0.3581 0.35808,0.8451 0,0.5013 -0.35808,0.8737 -0.34375,0.358 -0.84505,0.358 z"
         style="fill:#ff0000;fill-opacity:1;stroke:#ff0000;stroke-opacity:1"
         id="path2117" />
      <path
         d="m -540.04968,1569.6584 h -7.27604 q -0.50131,0 -0.85938,-0.358 -0.34375,-0.3724 -0.34375,-0.8737 0,-0.487 0.34375,-0.8451 0.35807,-0.358 0.85938,-0.358 h 2.40625 v -14.1941 h -2.4349 q -0.5013,0 -0.85938,-0.3437 -0.34375,-0.3581 -0.34375,-0.8594 0,-0.5013 0.34375,-0.845 0.35808,-0.3581 0.85938,-0.3581 h 3.66667 q 0.48698,0 0.84505,0.3581 0.35807,0.358 0.35807,0.845 v 15.3972 h 2.4349 q 0.48698,0 0.84505,0.358 0.35807,0.3581 0.35807,0.8451 0,0.5013 -0.35807,0.8737 -0.34375,0.358 -0.84505,0.358 z"
         style="fill:#ff0000;fill-opacity:1;stroke:#ff0000;stroke-opacity:1"
         id="path2119" />
      <path
         d="m -519.94031,1560.3629 v 2.9075 q 0,0.487 -0.35807,0.8451 -0.35807,0.3581 -0.84505,0.3581 h -8.50782 v 0.7018 q 0,0.6159 0.52995,1.0455 l 0.70183,0.5873 q 0.57291,0.444 1.08854,0.444 h 6.1875 q 0.48698,0 0.84505,0.3581 0.35807,0.3437 0.35807,0.845 0,0.487 -0.37239,0.8451 -0.35808,0.358 -0.83073,0.358 h -6.34505 q -0.63021,0 -1.33204,-0.2578 -0.6875,-0.2721 -1.01692,-0.5586 l -1.07422,-0.9453 q -0.5013,-0.401 -0.84505,-1.1172 -0.32943,-0.7161 -0.32943,-1.3177 v -5.5143 q 0,-0.4726 0.35807,-1.2747 0.3724,-0.8021 0.93099,-1.2461 l 1.00261,-0.7878 q 0.98828,-0.8021 2.1914,-0.8021 h 3.38021 q 1.27474,0 2.40625,1.0599 l 0.90234,0.8594 q 0.97396,0.8737 0.97396,2.6068 z m -9.68229,-0.1862 v 1.862 h 7.30469 v -1.6758 q 0,-0.6732 -0.41537,-1.0313 l -0.70182,-0.6159 q -0.54427,-0.444 -0.97396,-0.444 h -3.02213 q -0.5586,0 -1.01693,0.3867 l -0.70182,0.5873 q -0.47266,0.3581 -0.47266,0.931 z"
         style="fill:#ff0000;fill-opacity:1;stroke:#ff0000;stroke-opacity:1"
         id="path2121" />
      <path
         d="m -508.66817,1558.6298 -3.27995,2.1341 v 7.6914 q 0,0.487 -0.35807,0.8451 -0.35808,0.358 -0.84506,0.358 -0.48697,0 -0.84505,-0.358 -0.35807,-0.3581 -0.35807,-0.8451 V 1557.04 q 0,-0.5013 0.34375,-0.8594 0.35807,-0.3724 0.85937,-0.3724 0.48698,0 0.84506,0.3724 0.35807,0.3581 0.35807,0.8594 v 0.802 l 2.19141,-1.332 q 1.10286,-0.7018 2.49218,-0.7018 h 1.11719 q 1.43229,0 2.47787,1.0169 1.04557,1.0169 1.10286,2.5065 l 0.32943,9.1237 q 0.0143,0.487 -0.34375,0.8451 -0.35808,0.358 -0.85938,0.358 -0.47265,0 -0.83073,-0.3151 -0.35807,-0.3294 -0.37239,-0.888 l -0.35808,-8.9804 q -0.043,-1.2605 -1.3177,-1.2605 h -1.17448 q -0.54427,0 -1.17448,0.4154 z"
         style="fill:#ff0000;fill-opacity:1;stroke:#ff0000;stroke-opacity:1"
         id="path2123" />
      <path
         d="m -496.67989,1568.4553 v -16.6289 q 0,-0.487 0.34375,-0.8307 0.35807,-0.3438 0.85937,-0.3438 0.50131,0 0.84506,0.3581 0.35807,0.3438 0.35807,0.8451 v 6.0729 l 1.93359,-1.2604 q 1.31771,-0.8308 2.34896,-0.8308 h 1.48958 q 1.47527,0 2.53516,1.0599 1.0599,1.0456 1.10287,2.5495 l 0.30078,9.0091 q 0.0143,0.5013 -0.34375,0.8594 -0.35808,0.3437 -0.85938,0.3437 -0.5013,0 -0.84505,-0.358 -0.34375,-0.3724 -0.35807,-0.8451 l -0.30078,-9.0377 q -0.0143,-0.487 -0.3724,-0.8451 -0.35807,-0.3581 -0.85938,-0.3581 h -1.34635 q -0.45833,0 -1.0026,0.3581 l -3.42318,2.2344 v 7.6484 q 0,0.5013 -0.35807,0.8594 -0.34375,0.3437 -0.84506,0.3437 -0.5013,0 -0.85937,-0.3437 -0.34375,-0.3581 -0.34375,-0.8594 z"
         style="fill:#ff0000;fill-opacity:1;stroke:#ff0000;stroke-opacity:1"
         id="path2125" />
      <path
         d="m -475.36739,1560.9788 h 4.71224 q 0.38672,0 1.11719,0.1718 l -0.0287,-1.7044 q 0,-0.5013 -0.35807,-0.845 -0.34375,-0.3581 -0.84505,-0.3581 h -4.56901 q -0.48698,0 -0.84506,-0.3581 -0.35807,-0.3581 -0.35807,-0.845 0,-0.5013 0.34375,-0.8451 0.35807,-0.3581 0.85938,-0.3581 h 4.56901 q 1.48958,0 2.53515,1.0456 1.0599,1.0456 1.10287,2.5638 l 0.30078,9.0091 q 0,0.5013 -0.35808,0.8594 -0.35807,0.3437 -0.84505,0.3437 -0.51562,0 -0.8737,-0.3437 -0.35807,-0.3581 -0.35807,-0.8594 l -2.03385,1.2031 h -4.06771 q -1.51823,0 -2.57813,-1.0598 -1.05989,-1.0599 -1.05989,-2.5782 v -1.4036 q 0,-1.5039 1.05989,-2.5638 1.07422,-1.0742 2.57813,-1.0742 z m 6.01562,4.6836 -0.0716,-1.017 q -0.0143,-0.5156 -0.35807,-0.8593 -0.34375,-0.3438 -0.84506,-0.3438 h -4.74088 q -0.5013,0 -0.85938,0.3581 -0.34375,0.3437 -0.34375,0.845 v 1.3464 q 0,0.487 0.35808,0.845 0.35807,0.3581 0.84505,0.3581 h 3.39453 z"
         style="fill:#ff0000;fill-opacity:1;stroke:#ff0000;stroke-opacity:1"
         id="path2127" />
      <path
         d="m -451.53406,1569.6584 h -7.27604 q -0.5013,0 -0.85937,-0.358 -0.34375,-0.3724 -0.34375,-0.8737 0,-0.487 0.34375,-0.8451 0.35807,-0.358 0.85937,-0.358 h 2.40625 v -14.1941 h -2.4349 q -0.5013,0 -0.85937,-0.3437 -0.34375,-0.3581 -0.34375,-0.8594 0,-0.5013 0.34375,-0.845 0.35807,-0.3581 0.85937,-0.3581 h 3.66667 q 0.48698,0 0.84505,0.3581 0.35808,0.358 0.35808,0.845 v 15.3972 h 2.43489 q 0.48698,0 0.84505,0.358 0.35808,0.3581 0.35808,0.8451 0,0.5013 -0.35808,0.8737 -0.34375,0.358 -0.84505,0.358 z"
         style="fill:#ff0000;fill-opacity:1;stroke:#ff0000;stroke-opacity:1"
         id="path2129" />
      <path
         d="m -435.09135,1569.6584 h -2.40625 q -1.48958,0 -2.5638,-1.0598 -1.07422,-1.0599 -1.07422,-2.5495 v -7.806 h -1.23177 q -0.5013,0 -0.85938,-0.3438 -0.34375,-0.3437 -0.34375,-0.8593 0,-0.5013 0.34375,-0.8451 0.35808,-0.3581 0.85938,-0.3581 h 1.26042 v -2.9505 q 0,-0.5013 0.34375,-0.845 0.35807,-0.3581 0.85937,-0.3581 0.47266,0 0.83073,0.3581 0.3724,0.358 0.3724,0.845 v 2.9505 h 4.84114 q 0.48698,0 0.84505,0.3581 0.35808,0.3581 0.35808,0.8451 0,0.5013 -0.35808,0.8593 -0.35807,0.3438 -0.84505,0.3438 h -4.86979 v 7.806 q 0,0.487 0.35807,0.845 0.3724,0.3581 0.8737,0.3581 h 2.34896 q 0.95963,0 1.27474,-1.0313 0.3151,-1.0455 1.21745,-1.0455 0.52994,0 0.85937,0.358 0.34375,0.3438 0.34375,0.8737 0,1.0886 -1.03125,2.1771 -1.01693,1.0742 -2.60677,1.0742 z"
         style="fill:#ff0000;fill-opacity:1;stroke:#ff0000;stroke-opacity:1"
         id="path2131" />
      <path
         d="m -413.72156,1560.3629 v 2.9075 q 0,0.487 -0.35807,0.8451 -0.35807,0.3581 -0.84505,0.3581 h -8.50782 v 0.7018 q 0,0.6159 0.52995,1.0455 l 0.70183,0.5873 q 0.57291,0.444 1.08854,0.444 h 6.1875 q 0.48698,0 0.84505,0.3581 0.35807,0.3437 0.35807,0.845 0,0.487 -0.37239,0.8451 -0.35808,0.358 -0.83073,0.358 h -6.34505 q -0.63021,0 -1.33204,-0.2578 -0.6875,-0.2721 -1.01692,-0.5586 l -1.07422,-0.9453 q -0.5013,-0.401 -0.84505,-1.1172 -0.32943,-0.7161 -0.32943,-1.3177 v -5.5143 q 0,-0.4726 0.35807,-1.2747 0.3724,-0.8021 0.93099,-1.2461 l 1.00261,-0.7878 q 0.98828,-0.8021 2.1914,-0.8021 h 3.38021 q 1.27474,0 2.40625,1.0599 l 0.90234,0.8594 q 0.97396,0.8737 0.97396,2.6068 z m -9.68229,-0.1862 v 1.862 h 7.30469 v -1.6758 q 0,-0.6732 -0.41537,-1.0313 l -0.70182,-0.6159 q -0.54427,-0.444 -0.97396,-0.444 h -3.02213 q -0.5586,0 -1.01693,0.3867 l -0.70182,0.5873 q -0.47266,0.3581 -0.47266,0.931 z"
         style="fill:#ff0000;fill-opacity:1;stroke:#ff0000;stroke-opacity:1"
         id="path2133" />
      <path
         d="M -408.13562,1568.4553 V 1557.04 q 0,-0.5013 0.34375,-0.8594 0.35807,-0.3724 0.85937,-0.3724 0.50131,0 0.84506,0.3581 0.35807,0.358 0.35807,0.8737 v 1.5039 l 1.96224,-1.6758 q 1.21745,-1.0313 2.3776,-1.0313 h 1.76172 q 1.48959,0 2.54948,1.0599 1.0599,1.0599 1.0599,2.5495 v 0.6445 q 0,0.5157 -0.35808,0.8737 -0.34375,0.3581 -0.84505,0.3581 -0.5013,0 -0.85937,-0.3437 -0.34375,-0.3581 -0.34375,-0.8594 v -0.6732 q 0,-0.5013 -0.35808,-0.845 -0.34375,-0.3581 -0.84505,-0.3581 h -1.5612 q -0.5013,0 -1.11718,0.5299 l -3.42318,2.9649 v 6.7174 q 0,0.5013 -0.35807,0.8594 -0.35808,0.3437 -0.84506,0.3437 -0.5013,0 -0.85937,-0.3437 -0.34375,-0.3581 -0.34375,-0.8594 z"
         style="fill:#ff0000;fill-opacity:1;stroke:#ff0000;stroke-opacity:1"
         id="path2135" />
      <path
         d="m -370.26583,1551.8264 v 5.6576 l 1.0599,-0.8451 q 1.0026,-0.8307 2.07682,-0.8307 h 2.20573 q 1.21745,0 2.16276,0.8307 l 1.14583,0.9883 q 0.47266,0.4154 0.77344,1.1888 0.31511,0.7734 0.31511,1.5182 v 4.8698 q 0,0.6589 -0.28646,1.3893 -0.28646,0.7305 -0.65886,1.0743 l -1.04557,0.9882 q -0.40104,0.3868 -1.14583,0.7019 -0.7448,0.3007 -1.26042,0.3007 h -2.0625 q -1.50391,0 -3.27995,-1.6757 v 0.4726 q 0,0.5013 -0.35807,0.8594 -0.34375,0.3437 -0.84505,0.3437 -0.50131,0 -0.85938,-0.3437 -0.34375,-0.3581 -0.34375,-0.8594 v -16.6289 q 0,-0.5013 0.35807,-0.845 0.35808,-0.3581 0.84506,-0.3581 0.5013,0 0.84505,0.3581 0.35807,0.3437 0.35807,0.845 z m 5.15625,6.4167 h -1.66146 q -0.60156,0 -0.91666,0.2721 l -2.16276,1.8477 q -0.41537,0.3724 -0.41537,1.1172 v 2.7213 q 0,0.6016 0.47266,1.0026 l 1.93359,1.6328 q 0.41537,0.3868 0.8737,0.3868 h 1.96224 q 0.41536,0 0.71615,-0.2579 l 0.95963,-0.8593 q 0.38672,-0.2865 0.38672,-0.8164 v -5.0704 q 0,-0.6015 -0.38672,-0.9166 l -0.8737,-0.7305 q -0.40104,-0.3294 -0.88802,-0.3294 z"
         style="fill:#ff0000;fill-opacity:1;stroke:#ff0000;stroke-opacity:1"
         id="path2137" />
      <path
         d="m -342.88041,1559.3603 -6.48828,14.6666 q -0.32943,0.7878 -1.14584,0.7878 h -3.33724 q -0.5013,0 -0.85937,-0.3438 -0.34375,-0.3437 -0.34375,-0.8593 0,-0.5013 0.34375,-0.8451 0.35807,-0.3437 0.85937,-0.3437 h 2.57813 l 1.64713,-3.8242 h -0.58723 q -0.81641,0 -1.17448,-0.8451 l -3.60938,-8.3932 v -2.3203 q 0,-0.5013 0.34375,-0.8451 0.34375,-0.3581 0.83073,-0.3581 0.5013,0 0.85937,0.3581 0.3724,0.3438 0.3724,0.8451 v 1.7903 l 3.16537,7.3334 h 0.84505 l 3.26562,-7.3047 v -1.8477 q 0,-0.4726 0.35808,-0.8307 0.37239,-0.3724 0.87369,-0.3724 0.48698,0 0.84506,0.3581 0.35807,0.358 0.35807,0.845 z"
         style="fill:#ff0000;fill-opacity:1;stroke:#ff0000;stroke-opacity:1"
         id="path2139" />
      <path
         d="M -319.92078,1568.4553 V 1557.04 q 0,-0.5013 0.34375,-0.8451 0.35808,-0.3581 0.85938,-0.3581 0.93099,0 1.17448,0.9167 1.0026,-0.9453 2.23437,-0.9453 1.44662,0 2.37761,1.2318 1.14583,-1.2318 2.52083,-1.2318 1.11719,0 1.93359,0.8021 0.83073,0.7877 0.88803,2.0195 l 0.34375,9.8255 q 0,0.487 -0.35808,0.8451 -0.35807,0.358 -0.84505,0.358 -0.5013,0 -0.85937,-0.358 -0.35808,-0.3581 -0.3724,-0.8451 l -0.28646,-9.4388 q -0.0286,-0.7734 -0.47266,-0.7734 -0.24348,0 -0.5013,0.2148 l -1.43229,1.2032 v 8.7942 q 0,0.487 -0.35807,0.8308 -0.34375,0.3437 -0.84505,0.3437 -0.48698,0 -0.84506,-0.3437 -0.35807,-0.3581 -0.35807,-0.8594 v -9.5677 q 0,-0.6159 -0.52995,-0.6159 -0.25781,0 -0.47265,0.1862 l -1.73308,1.4609 v 8.5651 q 0,0.487 -0.34375,0.8451 -0.34375,0.358 -0.83073,0.358 -0.5013,0 -0.87369,-0.358 -0.35808,-0.3581 -0.35808,-0.8451 z"
         style="fill:#ff0000;fill-opacity:1;stroke:#ff0000;stroke-opacity:1"
         id="path2141" />
      <path
         d="m -297.10437,1549.5634 h 1.26042 q 0.5013,0 0.84505,0.3581 0.35807,0.3437 0.35807,0.845 v 1.0313 q 0,0.5013 -0.35807,0.8737 -0.34375,0.358 -0.84505,0.358 h -1.28907 q -0.51562,0 -0.87369,-0.3724 -0.34375,-0.3724 -0.32943,-0.8307 l 0.0287,-1.0599 q 0,-0.5013 0.34375,-0.845 0.35807,-0.3581 0.85937,-0.3581 z m 4.89844,20.0664 h -7.33334 q -0.5013,0 -0.85937,-0.3437 -0.34375,-0.3581 -0.34375,-0.8594 0,-0.487 0.34375,-0.8451 0.35807,-0.358 0.85937,-0.358 h 2.46355 v -8.9805 h -2.4349 q -0.5013,0 -0.85938,-0.3581 -0.34375,-0.3581 -0.34375,-0.845 0,-0.5013 0.34375,-0.8594 0.35808,-0.3724 0.85938,-0.3724 h 3.66667 q 0.5013,0 0.84505,0.3724 0.35807,0.3581 0.35807,0.8594 v 10.1836 h 2.40625 q 0.5013,0 0.85938,0.358 0.37239,0.3438 0.37239,0.8451 0,0.5013 -0.35807,0.8594 -0.35807,0.3437 -0.84505,0.3437 z"
         style="fill:#ff0000;fill-opacity:1;stroke:#ff0000;stroke-opacity:1"
         id="path2143" />
      <path
         d="m -278.52755,1558.6298 -3.27995,2.1341 v 7.6914 q 0,0.487 -0.35807,0.8451 -0.35807,0.358 -0.84505,0.358 -0.48698,0 -0.84505,-0.358 -0.35808,-0.3581 -0.35808,-0.8451 V 1557.04 q 0,-0.5013 0.34375,-0.8594 0.35808,-0.3724 0.85938,-0.3724 0.48698,0 0.84505,0.3724 0.35807,0.3581 0.35807,0.8594 v 0.802 l 2.19141,-1.332 q 1.10287,-0.7018 2.49219,-0.7018 h 1.11719 q 1.43229,0 2.47786,1.0169 1.04557,1.0169 1.10287,2.5065 l 0.32942,9.1237 q 0.0143,0.487 -0.34375,0.8451 -0.35807,0.358 -0.85937,0.358 -0.47266,0 -0.83073,-0.3151 -0.35807,-0.3294 -0.3724,-0.888 l -0.35807,-8.9804 q -0.043,-1.2605 -1.31771,-1.2605 h -1.17448 q -0.54427,0 -1.17448,0.4154 z"
         style="fill:#ff0000;fill-opacity:1;stroke:#ff0000;stroke-opacity:1"
         id="path2145" />
      <path
         d="m -261.69812,1549.5634 h 1.26042 q 0.5013,0 0.84505,0.3581 0.35807,0.3437 0.35807,0.845 v 1.0313 q 0,0.5013 -0.35807,0.8737 -0.34375,0.358 -0.84505,0.358 h -1.28907 q -0.51562,0 -0.87369,-0.3724 -0.34375,-0.3724 -0.32943,-0.8307 l 0.0287,-1.0599 q 0,-0.5013 0.34375,-0.845 0.35807,-0.3581 0.85937,-0.3581 z m 4.89844,20.0664 h -7.33334 q -0.5013,0 -0.85937,-0.3437 -0.34375,-0.3581 -0.34375,-0.8594 0,-0.487 0.34375,-0.8451 0.35807,-0.358 0.85937,-0.358 h 2.46355 v -8.9805 h -2.4349 q -0.5013,0 -0.85938,-0.3581 -0.34375,-0.3581 -0.34375,-0.845 0,-0.5013 0.34375,-0.8594 0.35808,-0.3724 0.85938,-0.3724 h 3.66667 q 0.5013,0 0.84505,0.3724 0.35807,0.3581 0.35807,0.8594 v 10.1836 h 2.40625 q 0.5013,0 0.85938,0.358 0.37239,0.3438 0.37239,0.8451 0,0.5013 -0.35807,0.8594 -0.35807,0.3437 -0.84505,0.3437 z"
         style="fill:#ff0000;fill-opacity:1;stroke:#ff0000;stroke-opacity:1"
         id="path2147" />
      <path
         d="M -231.10437,1568.4553 V 1557.04 q 0,-0.5013 0.34375,-0.8594 0.35807,-0.3724 0.85937,-0.3724 0.50131,0 0.84506,0.3581 0.35807,0.358 0.35807,0.8737 v 1.5039 l 1.96224,-1.6758 q 1.21745,-1.0313 2.3776,-1.0313 h 1.76172 q 1.48959,0 2.54948,1.0599 1.0599,1.0599 1.0599,2.5495 v 0.6445 q 0,0.5157 -0.35808,0.8737 -0.34375,0.3581 -0.84505,0.3581 -0.5013,0 -0.85937,-0.3437 -0.34375,-0.3581 -0.34375,-0.8594 v -0.6732 q 0,-0.5013 -0.35808,-0.845 -0.34375,-0.3581 -0.84505,-0.3581 h -1.5612 q -0.5013,0 -1.11718,0.5299 l -3.42318,2.9649 v 6.7174 q 0,0.5013 -0.35807,0.8594 -0.35808,0.3437 -0.84506,0.3437 -0.5013,0 -0.85937,-0.3437 -0.34375,-0.3581 -0.34375,-0.8594 z"
         style="fill:#ff0000;fill-opacity:1;stroke:#ff0000;stroke-opacity:1"
         id="path2149" />
      <path
         d="m -201.28406,1560.3629 v 2.9075 q 0,0.487 -0.35807,0.8451 -0.35807,0.3581 -0.84505,0.3581 h -8.50782 v 0.7018 q 0,0.6159 0.52995,1.0455 l 0.70183,0.5873 q 0.57291,0.444 1.08854,0.444 h 6.1875 q 0.48698,0 0.84505,0.3581 0.35807,0.3437 0.35807,0.845 0,0.487 -0.37239,0.8451 -0.35808,0.358 -0.83073,0.358 h -6.34505 q -0.63021,0 -1.33204,-0.2578 -0.6875,-0.2721 -1.01692,-0.5586 l -1.07422,-0.9453 q -0.5013,-0.401 -0.84505,-1.1172 -0.32943,-0.7161 -0.32943,-1.3177 v -5.5143 q 0,-0.4726 0.35807,-1.2747 0.3724,-0.8021 0.93099,-1.2461 l 1.00261,-0.7878 q 0.98828,-0.8021 2.1914,-0.8021 h 3.38021 q 1.27474,0 2.40625,1.0599 l 0.90234,0.8594 q 0.97396,0.8737 0.97396,2.6068 z m -9.68229,-0.1862 v 1.862 h 7.30469 v -1.6758 q 0,-0.6732 -0.41537,-1.0313 l -0.70182,-0.6159 q -0.54427,-0.444 -0.97396,-0.444 h -3.02213 q -0.5586,0 -1.01693,0.3867 l -0.70182,0.5873 q -0.47266,0.3581 -0.47266,0.931 z"
         style="fill:#ff0000;fill-opacity:1;stroke:#ff0000;stroke-opacity:1"
         id="path2151" />
      <path
         d="m -183.58093,1557.04 v 2.2916 l -4.16797,9.4818 q -0.40104,0.845 -1.0599,0.845 h -1.54687 q -0.84505,0 -1.23177,-0.8737 l -4.13933,-9.4244 v -2.3203 q 0,-0.5013 0.34375,-0.8451 0.35808,-0.3581 0.85938,-0.3581 0.5013,0 0.84505,0.3581 0.35807,0.3438 0.35807,0.8451 v 1.8476 l 3.66667,8.25 3.63802,-8.2786 v -1.819 q 0,-0.5013 0.35807,-0.8451 0.35808,-0.3581 0.8737,-0.3581 0.5013,0 0.84505,0.3581 0.35808,0.3438 0.35808,0.8451 z"
         style="fill:#ff0000;fill-opacity:1;stroke:#ff0000;stroke-opacity:1"
         id="path2153" />
      <path
         d="m -165.87781,1560.1767 v 5.0846 q 0,1.6185 -1.53255,2.9935 -1.51823,1.375 -3.13672,1.375 h -2.82161 q -1.64714,0 -3.15104,-1.3893 -1.50391,-1.4037 -1.50391,-2.9792 v -5.0846 q 0,-1.5755 1.46094,-2.9649 1.47526,-1.4036 3.19401,-1.4036 h 2.82161 q 1.61849,-0.029 3.13672,1.3463 1.53255,1.375 1.53255,3.0222 z m -9.71094,0.1002 v 4.8698 q 0,0.6589 0.47266,1.0456 l 0.90235,0.7734 q 0.30078,0.2579 0.84505,0.2579 h 2.79297 q 0.61588,0 1.11718,-0.4441 l 0.73047,-0.6445 q 0.44401,-0.3437 0.44401,-0.9596 v -4.8698 q 0,-0.7162 -0.44401,-1.0599 l -0.84505,-0.6732 q -0.42969,-0.3581 -1.0026,-0.3581 h -2.49219 q -0.81641,0 -1.26042,0.3868 l -0.8164,0.7018 q -0.44402,0.3724 -0.44402,0.9739 z"
         style="fill:#ff0000;fill-opacity:1;stroke:#ff0000;stroke-opacity:1"
         id="path2155" />
      <path
         d="m -150.58093,1569.6584 h -7.27604 q -0.50131,0 -0.85938,-0.358 -0.34375,-0.3724 -0.34375,-0.8737 0,-0.487 0.34375,-0.8451 0.35807,-0.358 0.85938,-0.358 h 2.40625 v -14.1941 h -2.4349 q -0.5013,0 -0.85938,-0.3437 -0.34375,-0.3581 -0.34375,-0.8594 0,-0.5013 0.34375,-0.845 0.35808,-0.3581 0.85938,-0.3581 h 3.66667 q 0.48698,0 0.84505,0.3581 0.35807,0.358 0.35807,0.845 v 15.3972 h 2.4349 q 0.48698,0 0.84505,0.358 0.35807,0.3581 0.35807,0.8451 0,0.5013 -0.35807,0.8737 -0.34375,0.358 -0.84505,0.358 z"
         style="fill:#ff0000;fill-opacity:1;stroke:#ff0000;stroke-opacity:1"
         id="path2157" />
      <path
         d="m -132.87781,1569.6584 h -7.27604 q -0.5013,0 -0.85937,-0.358 -0.34375,-0.3724 -0.34375,-0.8737 0,-0.487 0.34375,-0.8451 0.35807,-0.358 0.85937,-0.358 h 2.40625 v -14.1941 h -2.4349 q -0.5013,0 -0.85937,-0.3437 -0.34375,-0.3581 -0.34375,-0.8594 0,-0.5013 0.34375,-0.845 0.35807,-0.3581 0.85937,-0.3581 h 3.66667 q 0.48698,0 0.84505,0.3581 0.35808,0.358 0.35808,0.845 v 15.3972 h 2.43489 q 0.48698,0 0.84505,0.358 0.35808,0.3581 0.35808,0.8451 0,0.5013 -0.35808,0.8737 -0.34375,0.358 -0.84505,0.358 z"
         style="fill:#ff0000;fill-opacity:1;stroke:#ff0000;stroke-opacity:1"
         id="path2159" />
      <path
         d="m -112.76843,1560.1767 v 5.0846 q 0,1.6185 -1.53255,2.9935 -1.51823,1.375 -3.13672,1.375 h -2.82162 q -1.64713,0 -3.15104,-1.3893 -1.50391,-1.4037 -1.50391,-2.9792 v -5.0846 q 0,-1.5755 1.46094,-2.9649 1.47526,-1.4036 3.19401,-1.4036 h 2.82162 q 1.61849,-0.029 3.13672,1.3463 1.53255,1.375 1.53255,3.0222 z m -9.71094,0.1002 v 4.8698 q 0,0.6589 0.47266,1.0456 l 0.90234,0.7734 q 0.30078,0.2579 0.84505,0.2579 h 2.79297 q 0.61589,0 1.11719,-0.4441 l 0.73047,-0.6445 q 0.44401,-0.3437 0.44401,-0.9596 v -4.8698 q 0,-0.7162 -0.44401,-1.0599 l -0.84505,-0.6732 q -0.42969,-0.3581 -1.00261,-0.3581 h -2.49219 q -0.8164,0 -1.26041,0.3868 l -0.81641,0.7018 q -0.44401,0.3724 -0.44401,0.9739 z"
         style="fill:#ff0000;fill-opacity:1;stroke:#ff0000;stroke-opacity:1"
         id="path2161" />
      <path
         d="M -89.780151,1568.4553 V 1557.04 q 0,-0.5013 0.34375,-0.8451 0.358073,-0.3581 0.859375,-0.3581 0.930989,0 1.174479,0.9167 1.002604,-0.9453 2.234375,-0.9453 1.446615,0 2.377604,1.2318 1.145834,-1.2318 2.520834,-1.2318 1.117187,0 1.933593,0.8021 0.83073,0.7877 0.888021,2.0195 l 0.34375,9.8255 q 0,0.487 -0.358073,0.8451 -0.358073,0.358 -0.845052,0.358 -0.501302,0 -0.859375,-0.358 -0.358073,-0.3581 -0.372396,-0.8451 l -0.286458,-9.4388 q -0.02865,-0.7734 -0.472656,-0.7734 -0.24349,0 -0.501302,0.2148 l -1.432292,1.2032 v 8.7942 q 0,0.487 -0.358073,0.8308 -0.34375,0.3437 -0.845052,0.3437 -0.486979,0 -0.845052,-0.3437 -0.358073,-0.3581 -0.358073,-0.8594 v -9.5677 q 0,-0.6159 -0.529948,-0.6159 -0.257813,0 -0.472656,0.1862 l -1.733073,1.4609 v 8.5651 q 0,0.487 -0.34375,0.8451 -0.34375,0.358 -0.830729,0.358 -0.501303,0 -0.873698,-0.358 -0.358073,-0.3581 -0.358073,-0.8451 z"
         style="fill:#ff0000;fill-opacity:1;stroke:#ff0000;stroke-opacity:1"
         id="path2163" />
      <path
         d="m -68.195516,1560.9788 h 4.71224 q 0.386719,0 1.117187,0.1718 l -0.02864,-1.7044 q 0,-0.5013 -0.358073,-0.845 -0.34375,-0.3581 -0.845052,-0.3581 h -4.569011 q -0.486979,0 -0.845052,-0.3581 -0.358073,-0.3581 -0.358073,-0.845 0,-0.5013 0.34375,-0.8451 0.358073,-0.3581 0.859375,-0.3581 h 4.569011 q 1.489583,0 2.535156,1.0456 1.059896,1.0456 1.102864,2.5638 l 0.300782,9.0091 q 0,0.5013 -0.358073,0.8594 -0.358073,0.3437 -0.845052,0.3437 -0.515625,0 -0.873698,-0.3437 -0.358073,-0.3581 -0.358073,-0.8594 l -2.033854,1.2031 h -4.067709 q -1.518229,0 -2.578125,-1.0598 -1.059896,-1.0599 -1.059896,-2.5782 v -1.4036 q 0,-1.5039 1.059896,-2.5638 1.074219,-1.0742 2.578125,-1.0742 z m 6.015625,4.6836 -0.07161,-1.017 q -0.01432,-0.5156 -0.358073,-0.8593 -0.34375,-0.3438 -0.845052,-0.3438 h -4.740886 q -0.501302,0 -0.859375,0.3581 -0.34375,0.3437 -0.34375,0.845 v 1.3464 q 0,0.487 0.358073,0.845 0.358073,0.3581 0.845052,0.3581 h 3.394532 z"
         style="fill:#ff0000;fill-opacity:1;stroke:#ff0000;stroke-opacity:1"
         id="path2165" />
      <path
         d="m -44.390828,1557.5126 v -5.6862 q 0,-0.5013 0.34375,-0.845 0.34375,-0.3581 0.830729,-0.3581 0.501302,0 0.859375,0.3581 0.372396,0.3437 0.372396,0.845 v 16.6289 q 0,0.5013 -0.358073,0.8594 -0.358073,0.3437 -0.845052,0.3437 -0.515625,0 -0.859375,-0.3437 -0.34375,-0.3581 -0.34375,-0.8594 v -0.5299 q -1.761719,1.733 -3.294271,1.733 h -2.048177 q -1.231771,0 -2.463542,-1.0598 l -1.002604,-0.8451 q -0.34375,-0.3294 -0.658854,-1.1029 -0.300782,-0.7734 -0.300782,-1.4466 v -4.8984 q 0,-0.8164 0.34375,-1.5755 0.34375,-0.7735 0.802084,-1.1602 l 0.988281,-0.845 q 1.059896,-0.9167 2.492188,-0.9167 h 1.733073 q 1.417968,0 2.578125,1.0026 z m -3.494792,0.7305 h -1.675781 q -0.529948,0 -0.959636,0.3867 l -0.773437,0.6732 q -0.401042,0.3581 -0.401042,0.9166 v 5.099 q 0,0.5013 0.472656,0.9023 l 0.787761,0.6732 q 0.372396,0.3295 0.78776,0.3295 h 1.96224 q 0.386719,0 0.916667,-0.4441 l 1.904948,-1.5755 q 0.472656,-0.4153 0.472656,-1.0312 v -2.6068 q 0,-0.8737 -0.501302,-1.2891 l -1.96224,-1.6757 q -0.386719,-0.3581 -1.03125,-0.3581 z"
         style="fill:#ff0000;fill-opacity:1;stroke:#ff0000;stroke-opacity:1"
         id="path2167" />
      <path
         d="m -24.252807,1560.3629 v 2.9075 q 0,0.487 -0.358073,0.8451 -0.358073,0.3581 -0.845052,0.3581 h -8.507813 v 0.7018 q 0,0.6159 0.529948,1.0455 l 0.701823,0.5873 q 0.572917,0.444 1.088542,0.444 h 6.1875 q 0.486979,0 0.845052,0.3581 0.358073,0.3437 0.358073,0.845 0,0.487 -0.372396,0.8451 -0.358073,0.358 -0.830729,0.358 h -6.345053 q -0.630208,0 -1.332031,-0.2578 -0.6875,-0.2721 -1.016927,-0.5586 l -1.074219,-0.9453 q -0.501302,-0.401 -0.845052,-1.1172 -0.329427,-0.7161 -0.329427,-1.3177 v -5.5143 q 0,-0.4726 0.358073,-1.2747 0.372396,-0.8021 0.93099,-1.2461 l 1.002604,-0.7878 q 0.988281,-0.8021 2.191406,-0.8021 h 3.380209 q 1.274739,0 2.40625,1.0599 l 0.902343,0.8594 q 0.973959,0.8737 0.973959,2.6068 z m -9.682292,-0.1862 v 1.862 h 7.304687 v -1.6758 q 0,-0.6732 -0.415364,-1.0313 l -0.701823,-0.6159 q -0.544271,-0.444 -0.973958,-0.444 h -3.022136 q -0.558594,0 -1.016927,0.3867 l -0.701823,0.5873 q -0.472656,0.3581 -0.472656,0.931 z"
         style="fill:#ff0000;fill-opacity:1;stroke:#ff0000;stroke-opacity:1"
         id="path2169" />
      <path
         d="m 3.8487551,1549.5634 h 1.2604166 q 0.5013021,0 0.8450521,0.3581 0.358073,0.3437 0.358073,0.845 v 1.0313 q 0,0.5013 -0.358073,0.8737 -0.34375,0.358 -0.8450521,0.358 H 3.8201092 q -0.515625,0 -0.8736979,-0.3724 -0.34375,-0.3724 -0.3294271,-0.8307 l 0.028646,-1.0599 q 0,-0.5013 0.34375,-0.845 0.358073,-0.3581 0.8593751,-0.3581 z m 4.8984376,20.0664 H 1.4138592 q -0.50130213,0 -0.85937505,-0.3437 -0.34375001,-0.3581 -0.34375001,-0.8594 0,-0.487 0.34375001,-0.8451 0.35807292,-0.358 0.85937505,-0.358 h 2.4635417 v -8.9805 H 1.442505 q -0.50130209,0 -0.85937502,-0.3581 -0.34375001,-0.3581 -0.34375001,-0.845 0,-0.5013 0.34375001,-0.8594 0.35807293,-0.3724 0.85937502,-0.3724 h 3.6666667 q 0.5013021,0 0.8450521,0.3724 0.358073,0.3581 0.358073,0.8594 v 10.1836 h 2.40625 q 0.5013021,0 0.859375,0.358 0.3723959,0.3438 0.3723959,0.8451 0,0.5013 -0.3580729,0.8594 -0.358073,0.3437 -0.8450521,0.3437 z"
         style="fill:#ff0000;fill-opacity:1;stroke:#ff0000;stroke-opacity:1"
         id="path2171" />
      <path
         d="m 22.425578,1558.6298 -3.279948,2.1341 v 7.6914 q 0,0.487 -0.358073,0.8451 -0.358073,0.358 -0.845052,0.358 -0.486979,0 -0.845052,-0.358 -0.358073,-0.3581 -0.358073,-0.8451 V 1557.04 q 0,-0.5013 0.34375,-0.8594 0.358073,-0.3724 0.859375,-0.3724 0.486979,0 0.845052,0.3724 0.358073,0.3581 0.358073,0.8594 v 0.802 l 2.191406,-1.332 q 1.102865,-0.7018 2.492188,-0.7018 h 1.117187 q 1.432292,0 2.477865,1.0169 1.045573,1.0169 1.102865,2.5065 l 0.329427,9.1237 q 0.01432,0.487 -0.34375,0.8451 -0.358073,0.358 -0.859375,0.358 -0.472657,0 -0.83073,-0.3151 -0.358072,-0.3294 -0.372395,-0.888 l -0.358073,-8.9804 q -0.04297,-1.2605 -1.317709,-1.2605 h -1.174479 q -0.544271,0 -1.174479,0.4154 z"
         style="fill:#ff0000;fill-opacity:1;stroke:#ff0000;stroke-opacity:1"
         id="path2173" />
      <path
         d="m 60.596151,1569.6584 h -2.40625 q -1.489583,0 -2.563802,-1.0598 -1.074219,-1.0599 -1.074219,-2.5495 v -7.806 h -1.231771 q -0.501302,0 -0.859375,-0.3438 -0.34375,-0.3437 -0.34375,-0.8593 0,-0.5013 0.34375,-0.8451 0.358073,-0.3581 0.859375,-0.3581 h 1.260417 v -2.9505 q 0,-0.5013 0.34375,-0.845 0.358073,-0.3581 0.859375,-0.3581 0.472656,0 0.830729,0.3581 0.372396,0.358 0.372396,0.845 v 2.9505 h 4.841146 q 0.486979,0 0.845052,0.3581 0.358073,0.3581 0.358073,0.8451 0,0.5013 -0.358073,0.8593 -0.358073,0.3438 -0.845052,0.3438 H 56.95813 v 7.806 q 0,0.487 0.358073,0.845 0.372396,0.3581 0.873698,0.3581 h 2.348958 q 0.959636,0 1.27474,-1.0313 0.315104,-1.0455 1.217448,-1.0455 0.529948,0 0.859375,0.358 0.34375,0.3438 0.34375,0.8737 0,1.0886 -1.03125,2.1771 -1.016927,1.0742 -2.606771,1.0742 z"
         style="fill:#ff0000;fill-opacity:1;stroke:#ff0000;stroke-opacity:1"
         id="path2175" />
      <path
         d="m 69.820109,1568.4553 v -16.6289 q 0,-0.487 0.34375,-0.8307 0.358073,-0.3438 0.859375,-0.3438 0.501302,0 0.845052,0.3581 0.358073,0.3438 0.358073,0.8451 v 6.0729 l 1.933594,-1.2604 q 1.317708,-0.8308 2.348958,-0.8308 h 1.489584 q 1.47526,0 2.535156,1.0599 1.059896,1.0456 1.102865,2.5495 l 0.300781,9.0091 q 0.01432,0.5013 -0.34375,0.8594 -0.358073,0.3437 -0.859375,0.3437 -0.501302,0 -0.845052,-0.358 -0.34375,-0.3724 -0.358073,-0.8451 l -0.300781,-9.0377 q -0.01432,-0.487 -0.372396,-0.8451 -0.358073,-0.3581 -0.859375,-0.3581 h -1.346354 q -0.458334,0 -1.002605,0.3581 l -3.423177,2.2344 v 7.6484 q 0,0.5013 -0.358073,0.8594 -0.34375,0.3437 -0.845052,0.3437 -0.501302,0 -0.859375,-0.3437 -0.34375,-0.3581 -0.34375,-0.8594 z"
         style="fill:#ff0000;fill-opacity:1;stroke:#ff0000;stroke-opacity:1"
         id="path2177" />
      <path
         d="m 99.669068,1560.3629 v 2.9075 q 0,0.487 -0.358073,0.8451 -0.358073,0.3581 -0.845052,0.3581 H 89.95813 v 0.7018 q 0,0.6159 0.529948,1.0455 l 0.701823,0.5873 q 0.572917,0.444 1.088542,0.444 h 6.1875 q 0.486979,0 0.845052,0.3581 0.358073,0.3437 0.358073,0.845 0,0.487 -0.372396,0.8451 -0.358073,0.358 -0.830729,0.358 H 92.12089 q -0.630208,0 -1.332031,-0.2578 -0.6875,-0.2721 -1.016927,-0.5586 l -1.074219,-0.9453 q -0.501302,-0.401 -0.845052,-1.1172 -0.329427,-0.7161 -0.329427,-1.3177 v -5.5143 q 0,-0.4726 0.358073,-1.2747 0.372396,-0.8021 0.93099,-1.2461 l 1.002604,-0.7878 q 0.988281,-0.8021 2.191406,-0.8021 h 3.380209 q 1.274739,0 2.40625,1.0599 l 0.902343,0.8594 q 0.973959,0.8737 0.973959,2.6068 z m -9.682292,-0.1862 v 1.862 h 7.304687 v -1.6758 q 0,-0.6732 -0.415364,-1.0313 l -0.701823,-0.6159 q -0.544271,-0.444 -0.973958,-0.444 h -3.022136 q -0.558594,0 -1.016927,0.3867 l -0.701823,0.5873 q -0.472656,0.3581 -0.472656,0.931 z"
         style="fill:#ff0000;fill-opacity:1;stroke:#ff0000;stroke-opacity:1"
         id="path2179" />
      <path
         d="m 135.07532,1560.3629 v 2.9075 q 0,0.487 -0.35808,0.8451 -0.35807,0.3581 -0.84505,0.3581 h -8.50781 v 0.7018 q 0,0.6159 0.52995,1.0455 l 0.70182,0.5873 q 0.57292,0.444 1.08854,0.444 h 6.1875 q 0.48698,0 0.84505,0.3581 0.35808,0.3437 0.35808,0.845 0,0.487 -0.3724,0.8451 -0.35807,0.358 -0.83073,0.358 h -6.34505 q -0.63021,0 -1.33203,-0.2578 -0.6875,-0.2721 -1.01693,-0.5586 l -1.07422,-0.9453 q -0.5013,-0.401 -0.84505,-1.1172 -0.32943,-0.7161 -0.32943,-1.3177 v -5.5143 q 0,-0.4726 0.35808,-1.2747 0.37239,-0.8021 0.93099,-1.2461 l 1.0026,-0.7878 q 0.98828,-0.8021 2.19141,-0.8021 h 3.38021 q 1.27474,0 2.40625,1.0599 l 0.90234,0.8594 q 0.97396,0.8737 0.97396,2.6068 z m -9.68229,-0.1862 v 1.862 h 7.30468 v -1.6758 q 0,-0.6732 -0.41536,-1.0313 l -0.70182,-0.6159 q -0.54427,-0.444 -0.97396,-0.444 h -3.02214 q -0.55859,0 -1.01692,0.3867 l -0.70183,0.5873 q -0.47265,0.3581 -0.47265,0.931 z"
         style="fill:#ff0000;fill-opacity:1;stroke:#ff0000;stroke-opacity:1"
         id="path2181" />
      <path
         d="M 140.66125,1568.4553 V 1557.04 q 0,-0.5013 0.34375,-0.8594 0.35808,-0.3724 0.85938,-0.3724 0.5013,0 0.84505,0.3581 0.35807,0.358 0.35807,0.8737 v 1.5039 l 1.96224,-1.6758 q 1.21745,-1.0313 2.37761,-1.0313 h 1.76172 q 1.48958,0 2.54948,1.0599 1.05989,1.0599 1.05989,2.5495 v 0.6445 q 0,0.5157 -0.35807,0.8737 -0.34375,0.3581 -0.84505,0.3581 -0.5013,0 -0.85938,-0.3437 -0.34375,-0.3581 -0.34375,-0.8594 v -0.6732 q 0,-0.5013 -0.35807,-0.845 -0.34375,-0.3581 -0.84505,-0.3581 h -1.5612 q -0.5013,0 -1.11719,0.5299 l -3.42318,2.9649 v 6.7174 q 0,0.5013 -0.35807,0.8594 -0.35807,0.3437 -0.84505,0.3437 -0.5013,0 -0.85938,-0.3437 -0.34375,-0.3581 -0.34375,-0.8594 z"
         style="fill:#ff0000;fill-opacity:1;stroke:#ff0000;stroke-opacity:1"
         id="path2183" />
      <path
         d="m 163.85006,1558.2431 v 10.2122 q 0,0.5013 -0.35808,0.8594 -0.35807,0.3437 -0.84505,0.3437 -0.51562,0 -0.8737,-0.3437 -0.35807,-0.3581 -0.35807,-0.8594 v -10.2122 h -1.23177 q -0.5013,0 -0.85937,-0.3581 -0.34375,-0.3581 -0.34375,-0.845 0,-0.4727 0.3151,-0.8308 0.32943,-0.3724 0.88802,-0.3724 h 1.26042 v -0.931 q 0,-1.8476 1.26041,-3.0651 1.27474,-1.2174 3.16537,-1.2174 h 2.82161 q 0.50131,0 0.84506,0.3581 0.35807,0.358 0.35807,0.8737 0,0.4869 -0.35807,0.845 -0.35808,0.3581 -0.84506,0.3581 h -2.82161 q -0.85938,0 -1.43229,0.5156 -0.5586,0.5156 -0.5586,1.332 v 0.931 h 2.40625 q 0.48698,-0.014 0.84506,0.3438 0.35807,0.3581 0.35807,0.8594 0,0.4869 -0.35807,0.845 -0.35808,0.3581 -0.84506,0.3581 z"
         style="fill:#ff0000;fill-opacity:1;stroke:#ff0000;stroke-opacity:1"
         id="path2185" />
      <path
         d="m 180.88001,1549.5634 h 1.26041 q 0.5013,0 0.84505,0.3581 0.35808,0.3437 0.35808,0.845 v 1.0313 q 0,0.5013 -0.35808,0.8737 -0.34375,0.358 -0.84505,0.358 h -1.28906 q -0.51563,0 -0.8737,-0.3724 -0.34375,-0.3724 -0.32943,-0.8307 l 0.0286,-1.0599 q 0,-0.5013 0.34375,-0.845 0.35807,-0.3581 0.85938,-0.3581 z m 4.89843,20.0664 h -7.33333 q -0.5013,0 -0.85938,-0.3437 -0.34375,-0.3581 -0.34375,-0.8594 0,-0.487 0.34375,-0.8451 0.35808,-0.358 0.85938,-0.358 h 2.46354 v -8.9805 h -2.4349 q -0.5013,0 -0.85937,-0.3581 -0.34375,-0.3581 -0.34375,-0.845 0,-0.5013 0.34375,-0.8594 0.35807,-0.3724 0.85937,-0.3724 h 3.66667 q 0.5013,0 0.84505,0.3724 0.35808,0.3581 0.35808,0.8594 v 10.1836 h 2.40625 q 0.5013,0 0.85937,0.358 0.3724,0.3438 0.3724,0.8451 0,0.5013 -0.35808,0.8594 -0.35807,0.3437 -0.84505,0.3437 z"
         style="fill:#ff0000;fill-opacity:1;stroke:#ff0000;stroke-opacity:1"
         id="path2187" />
      <path
         d="m 199.45683,1558.6298 -3.27995,2.1341 v 7.6914 q 0,0.487 -0.35807,0.8451 -0.35808,0.358 -0.84506,0.358 -0.48697,0 -0.84505,-0.358 -0.35807,-0.3581 -0.35807,-0.8451 V 1557.04 q 0,-0.5013 0.34375,-0.8594 0.35807,-0.3724 0.85937,-0.3724 0.48698,0 0.84506,0.3724 0.35807,0.3581 0.35807,0.8594 v 0.802 l 2.19141,-1.332 q 1.10286,-0.7018 2.49218,-0.7018 h 1.11719 q 1.43229,0 2.47787,1.0169 1.04557,1.0169 1.10286,2.5065 l 0.32943,9.1237 q 0.0143,0.487 -0.34375,0.8451 -0.35808,0.358 -0.85938,0.358 -0.47265,0 -0.83073,-0.3151 -0.35807,-0.3294 -0.37239,-0.888 l -0.35808,-8.9804 q -0.043,-1.2605 -1.3177,-1.2605 h -1.17448 q -0.54427,0 -1.17448,0.4154 z"
         style="fill:#ff0000;fill-opacity:1;stroke:#ff0000;stroke-opacity:1"
         id="path2189" />
      <path
         d="m 221.15605,1557.5126 v -5.6862 q 0,-0.5013 0.34375,-0.845 0.34375,-0.3581 0.83073,-0.3581 0.5013,0 0.85937,0.3581 0.3724,0.3437 0.3724,0.845 v 16.6289 q 0,0.5013 -0.35808,0.8594 -0.35807,0.3437 -0.84505,0.3437 -0.51562,0 -0.85937,-0.3437 -0.34375,-0.3581 -0.34375,-0.8594 v -0.5299 q -1.76172,1.733 -3.29427,1.733 h -2.04818 q -1.23177,0 -2.46354,-1.0598 l -1.00261,-0.8451 q -0.34375,-0.3294 -0.65885,-1.1029 -0.30078,-0.7734 -0.30078,-1.4466 v -4.8984 q 0,-0.8164 0.34375,-1.5755 0.34375,-0.7735 0.80208,-1.1602 l 0.98828,-0.845 q 1.0599,-0.9167 2.49219,-0.9167 h 1.73307 q 1.41797,0 2.57813,1.0026 z m -3.49479,0.7305 h -1.67579 q -0.52994,0 -0.95963,0.3867 l -0.77344,0.6732 q -0.40104,0.3581 -0.40104,0.9166 v 5.099 q 0,0.5013 0.47266,0.9023 l 0.78776,0.6732 q 0.37239,0.3295 0.78776,0.3295 h 1.96224 q 0.38671,0 0.91666,-0.4441 l 1.90495,-1.5755 q 0.47266,-0.4153 0.47266,-1.0312 v -2.6068 q 0,-0.8737 -0.50131,-1.2891 l -1.96223,-1.6757 q -0.38672,-0.3581 -1.03125,-0.3581 z"
         style="fill:#ff0000;fill-opacity:1;stroke:#ff0000;stroke-opacity:1"
         id="path2191" />
      <path
         d="m 241.29407,1560.3629 v 2.9075 q 0,0.487 -0.35808,0.8451 -0.35807,0.3581 -0.84505,0.3581 h -8.50781 v 0.7018 q 0,0.6159 0.52995,1.0455 l 0.70182,0.5873 q 0.57292,0.444 1.08854,0.444 h 6.1875 q 0.48698,0 0.84505,0.3581 0.35808,0.3437 0.35808,0.845 0,0.487 -0.3724,0.8451 -0.35807,0.358 -0.83073,0.358 h -6.34505 q -0.63021,0 -1.33203,-0.2578 -0.6875,-0.2721 -1.01693,-0.5586 l -1.07422,-0.9453 q -0.5013,-0.401 -0.84505,-1.1172 -0.32943,-0.7161 -0.32943,-1.3177 v -5.5143 q 0,-0.4726 0.35808,-1.2747 0.37239,-0.8021 0.93099,-1.2461 l 1.0026,-0.7878 q 0.98828,-0.8021 2.19141,-0.8021 h 3.38021 q 1.27474,0 2.40625,1.0599 l 0.90234,0.8594 q 0.97396,0.8737 0.97396,2.6068 z m -9.68229,-0.1862 v 1.862 h 7.30468 v -1.6758 q 0,-0.6732 -0.41536,-1.0313 l -0.70182,-0.6159 q -0.54427,-0.444 -0.97396,-0.444 h -3.02214 q -0.55859,0 -1.01692,0.3867 l -0.70183,0.5873 q -0.47265,0.3581 -0.47265,0.931 z"
         style="fill:#ff0000;fill-opacity:1;stroke:#ff0000;stroke-opacity:1"
         id="path2193" />
      <path
         d="M 246.88,1568.4553 V 1557.04 q 0,-0.5013 0.34375,-0.8594 0.35808,-0.3724 0.85938,-0.3724 0.5013,0 0.84505,0.3581 0.35807,0.358 0.35807,0.8737 v 1.5039 l 1.96224,-1.6758 q 1.21745,-1.0313 2.37761,-1.0313 h 1.76172 q 1.48958,0 2.54948,1.0599 1.05989,1.0599 1.05989,2.5495 v 0.6445 q 0,0.5157 -0.35807,0.8737 -0.34375,0.3581 -0.84505,0.3581 -0.5013,0 -0.85938,-0.3437 -0.34375,-0.3581 -0.34375,-0.8594 v -0.6732 q 0,-0.5013 -0.35807,-0.845 -0.34375,-0.3581 -0.84505,-0.3581 h -1.5612 q -0.5013,0 -1.11719,0.5299 l -3.42318,2.9649 v 6.7174 q 0,0.5013 -0.35807,0.8594 -0.35807,0.3437 -0.84505,0.3437 -0.5013,0 -0.85938,-0.3437 -0.34375,-0.3581 -0.34375,-0.8594 z"
         style="fill:#ff0000;fill-opacity:1;stroke:#ff0000;stroke-opacity:1"
         id="path2195" />
      <path
         d="m 272.14563,1574.8147 h -5.21354 q -0.5013,0 -0.85938,-0.3438 -0.34375,-0.3437 -0.34375,-0.8593 0,-0.5013 0.34375,-0.8451 0.35808,-0.3437 0.85938,-0.3437 h 5.21354 q 0.47266,0 0.88802,-0.3581 l 0.81641,-0.7018 q 0.41536,-0.3151 0.41536,-0.8308 v -3.6666 q -1.6901,1.7044 -3.29427,1.7044 h -1.84766 q -1.43229,0 -2.57812,-0.9883 l -0.90234,-0.8021 q -0.44401,-0.3724 -0.77344,-1.0885 -0.31511,-0.7161 -0.31511,-1.4036 v -3.9818 q 0,-0.8451 0.31511,-1.6042 0.32943,-0.7591 0.77344,-1.1315 l 0.98828,-0.845 q 1.05989,-0.9167 2.49218,-0.9167 h 1.73308 q 1.41797,0 2.57812,1.0026 l 0.83073,0.7018 -0.0286,-0.4726 q 0,-0.487 0.35807,-0.8451 0.35807,-0.3581 0.84505,-0.3581 0.5013,0 0.85938,0.3581 0.37239,0.3438 0.37239,0.8451 v 13.4921 q 0,1.5326 -1.23177,2.6211 l -0.97396,0.8451 q -0.37239,0.3294 -1.05989,0.5729 -0.67318,0.2435 -1.26042,0.2435 z m -1.375,-16.6003 h -1.61849 q -0.52995,0 -1.01693,0.4154 l -0.74479,0.6159 q -0.42969,0.3581 -0.42969,0.9739 v 4.0105 q 0,0.4869 0.47266,0.9166 l 0.78776,0.7019 q 0.3724,0.3151 0.78776,0.3151 h 1.96224 q 0.42969,0 0.94531,-0.4297 l 1.90495,-1.6185 q 0.44401,-0.3867 0.44401,-0.9453 v -1.819 q 0,-0.6589 -0.5013,-1.0743 l -1.96224,-1.6757 q -0.41536,-0.3868 -1.03125,-0.3868 z"
         style="fill:#ff0000;fill-opacity:1;stroke:#ff0000;stroke-opacity:1"
         id="path2197" />
      <path
         d="m 285.86698,1560.9788 h 4.71224 q 0.38672,0 1.11719,0.1718 l -0.0286,-1.7044 q 0,-0.5013 -0.35808,-0.845 -0.34375,-0.3581 -0.84505,-0.3581 h -4.56901 q -0.48698,0 -0.84505,-0.3581 -0.35808,-0.3581 -0.35808,-0.845 0,-0.5013 0.34376,-0.8451 0.35807,-0.3581 0.85937,-0.3581 h 4.56901 q 1.48958,0 2.53516,1.0456 1.05989,1.0456 1.10286,2.5638 l 0.30078,9.0091 q 0,0.5013 -0.35807,0.8594 -0.35807,0.3437 -0.84505,0.3437 -0.51563,0 -0.8737,-0.3437 -0.35807,-0.3581 -0.35807,-0.8594 l -2.03386,1.2031 h -4.06771 q -1.51823,0 -2.57812,-1.0598 -1.0599,-1.0599 -1.0599,-2.5782 v -1.4036 q 0,-1.5039 1.0599,-2.5638 1.07422,-1.0742 2.57812,-1.0742 z m 6.01563,4.6836 -0.0716,-1.017 q -0.0143,-0.5156 -0.35807,-0.8593 -0.34375,-0.3438 -0.84505,-0.3438 h -4.74089 q -0.5013,0 -0.85937,0.3581 -0.34375,0.3437 -0.34375,0.845 v 1.3464 q 0,0.487 0.35807,0.845 0.35808,0.3581 0.84505,0.3581 h 3.39454 z"
         style="fill:#ff0000;fill-opacity:1;stroke:#ff0000;stroke-opacity:1"
         id="path2199" />
      <path
         d="M 299.98938,1568.4553 V 1557.04 q 0,-0.5013 0.34375,-0.8594 0.35807,-0.3724 0.85937,-0.3724 0.50131,0 0.84506,0.3581 0.35807,0.358 0.35807,0.8737 v 1.5039 l 1.96224,-1.6758 q 1.21745,-1.0313 2.3776,-1.0313 h 1.76172 q 1.48959,0 2.54948,1.0599 1.0599,1.0599 1.0599,2.5495 v 0.6445 q 0,0.5157 -0.35808,0.8737 -0.34375,0.3581 -0.84505,0.3581 -0.5013,0 -0.85937,-0.3437 -0.34375,-0.3581 -0.34375,-0.8594 v -0.6732 q 0,-0.5013 -0.35808,-0.845 -0.34375,-0.3581 -0.84505,-0.3581 h -1.5612 q -0.5013,0 -1.11718,0.5299 l -3.42318,2.9649 v 6.7174 q 0,0.5013 -0.35807,0.8594 -0.35808,0.3437 -0.84506,0.3437 -0.5013,0 -0.85937,-0.3437 -0.34375,-0.3581 -0.34375,-0.8594 z"
         style="fill:#ff0000;fill-opacity:1;stroke:#ff0000;stroke-opacity:1"
         id="path2201" />
      <path
         d="m 327.3748,1557.5126 v -5.6862 q 0,-0.5013 0.34375,-0.845 0.34375,-0.3581 0.83073,-0.3581 0.5013,0 0.85937,0.3581 0.3724,0.3437 0.3724,0.845 v 16.6289 q 0,0.5013 -0.35808,0.8594 -0.35807,0.3437 -0.84505,0.3437 -0.51562,0 -0.85937,-0.3437 -0.34375,-0.3581 -0.34375,-0.8594 v -0.5299 q -1.76172,1.733 -3.29427,1.733 h -2.04818 q -1.23177,0 -2.46354,-1.0598 l -1.00261,-0.8451 q -0.34375,-0.3294 -0.65885,-1.1029 -0.30078,-0.7734 -0.30078,-1.4466 v -4.8984 q 0,-0.8164 0.34375,-1.5755 0.34375,-0.7735 0.80208,-1.1602 l 0.98828,-0.845 q 1.0599,-0.9167 2.49219,-0.9167 h 1.73307 q 1.41797,0 2.57813,1.0026 z m -3.49479,0.7305 h -1.67579 q -0.52994,0 -0.95963,0.3867 l -0.77344,0.6732 q -0.40104,0.3581 -0.40104,0.9166 v 5.099 q 0,0.5013 0.47266,0.9023 l 0.78776,0.6732 q 0.37239,0.3295 0.78776,0.3295 h 1.96224 q 0.38671,0 0.91666,-0.4441 l 1.90495,-1.5755 q 0.47266,-0.4153 0.47266,-1.0312 v -2.6068 q 0,-0.8737 -0.50131,-1.2891 l -1.96223,-1.6757 q -0.38672,-0.3581 -1.03125,-0.3581 z"
         style="fill:#ff0000;fill-opacity:1;stroke:#ff0000;stroke-opacity:1"
         id="path2203" />
      <path
         d="m 347.51282,1560.3629 v 2.9075 q 0,0.487 -0.35808,0.8451 -0.35807,0.3581 -0.84505,0.3581 h -8.50781 v 0.7018 q 0,0.6159 0.52995,1.0455 l 0.70182,0.5873 q 0.57292,0.444 1.08854,0.444 h 6.1875 q 0.48698,0 0.84505,0.3581 0.35808,0.3437 0.35808,0.845 0,0.487 -0.3724,0.8451 -0.35807,0.358 -0.83073,0.358 h -6.34505 q -0.63021,0 -1.33203,-0.2578 -0.6875,-0.2721 -1.01693,-0.5586 l -1.07422,-0.9453 q -0.5013,-0.401 -0.84505,-1.1172 -0.32943,-0.7161 -0.32943,-1.3177 v -5.5143 q 0,-0.4726 0.35808,-1.2747 0.37239,-0.8021 0.93099,-1.2461 l 1.0026,-0.7878 q 0.98828,-0.8021 2.19141,-0.8021 h 3.38021 q 1.27474,0 2.40625,1.0599 l 0.90234,0.8594 q 0.97396,0.8737 0.97396,2.6068 z m -9.68229,-0.1862 v 1.862 h 7.30468 v -1.6758 q 0,-0.6732 -0.41536,-1.0313 l -0.70182,-0.6159 q -0.54427,-0.444 -0.97396,-0.444 h -3.02214 q -0.55859,0 -1.01692,0.3867 l -0.70183,0.5873 q -0.47265,0.3581 -0.47265,0.931 z"
         style="fill:#ff0000;fill-opacity:1;stroke:#ff0000;stroke-opacity:1"
         id="path2205" />
      <path
         d="m 358.78495,1558.6298 -3.27995,2.1341 v 7.6914 q 0,0.487 -0.35807,0.8451 -0.35807,0.358 -0.84505,0.358 -0.48698,0 -0.84505,-0.358 -0.35808,-0.3581 -0.35808,-0.8451 V 1557.04 q 0,-0.5013 0.34375,-0.8594 0.35808,-0.3724 0.85938,-0.3724 0.48698,0 0.84505,0.3724 0.35807,0.3581 0.35807,0.8594 v 0.802 l 2.19141,-1.332 q 1.10287,-0.7018 2.49219,-0.7018 h 1.11719 q 1.43229,0 2.47786,1.0169 1.04557,1.0169 1.10287,2.5065 l 0.32942,9.1237 q 0.0143,0.487 -0.34375,0.8451 -0.35807,0.358 -0.85937,0.358 -0.47266,0 -0.83073,-0.3151 -0.35807,-0.3294 -0.3724,-0.888 l -0.35807,-8.9804 q -0.043,-1.2605 -1.31771,-1.2605 h -1.17448 q -0.54427,0 -1.17448,0.4154 z"
         style="fill:#ff0000;fill-opacity:1;stroke:#ff0000;stroke-opacity:1"
         id="path2207" />
    </g>
  </g>
  <g
     inkscape:groupmode="layer"
     inkscape:label="PROFILEEDGES"
     id="g2081"
     transform="translate(765.76495,-638.12707)"
     style="display:inline">
    <path
       id="path1609"
       style="fill:none;stroke:#000000"
       d="m -18.171057,1590.1834 0.944882,-0.6865 h 1.167938 l 0.944882,0.6865 0.360912,1.1108 -0.360912,1.1108 -0.944882,0.6865 h -1.167938 l -0.944882,-0.6865 -0.360913,-1.1108 z m 292.552477,1.1108 0.36091,-1.1108 0.94488,-0.6865 h 1.16794 l 0.94488,0.6865 0.36091,1.1108 -0.36091,1.1108 -0.94488,0.6865 h -1.16794 l -0.94488,-0.6865 z m 148.34645,15.1181 H -748.92567 v -15.1181 h -15.11811 v -37.7953 h 15.11811 v -15.1181 H 422.72787 v 15.1181 h 15.11811 v 37.7953 h -15.11811 z m -731.69949,-13.3208 h -1.16794 l -0.94488,-0.6865 -0.36092,-1.1108 0.36092,-1.1108 0.94488,-0.6865 h 1.16794 l 0.94488,0.6865 0.36091,1.1108 -0.36091,1.1108 z m -291.96851,-0.6865 -0.94488,0.6865 h -1.16794 l -0.94488,-0.6865 -0.36091,-1.1108 0.36091,-1.1108 0.94488,-0.6865 h 1.16794 l 0.94488,0.6865 0.36092,1.1108 z"
       inkscape:connector-curvature="0"
       sodipodi:nodetypes="ccccccccccccccccccccccccccccccccccccccccccccccccccccccccc" />
    <path
       id="path1833"
       style="fill:none;stroke:#000000"
       d="m 611.56064,1017.8386 0.44447,2.5208 -0.44447,2.5207 -1.2798,2.2167 -1.96077,1.6452 -2.40524,0.8755 h -2.5596 l -2.40524,-0.8755 -1.96077,-1.6452 -1.2798,-2.2167 -0.44447,-2.5207 0.44447,-2.5208 1.2798,-2.2166 1.96077,-1.6453 2.40524,-0.8755 h 2.5596 l 2.40524,0.8755 1.96077,1.6453 z m -39.0516,-20.15641 v 30.23621 H 534.71377 V 997.68219 Z M 451.56416,827.60345 V 638.62707 H 765.26495 V 1043.0365 H 519.59566 V 759.57195 Z m 25.19788,-95.12163 -2.52071,0.44446 -2.52072,-0.44446 -2.21668,-1.27981 -1.64528,-1.96076 -0.87543,-2.40524 v -2.5596 l 0.87543,-2.40524 1.64528,-1.96077 2.21668,-1.2798 2.52072,-0.44447 2.52071,0.44447 2.21668,1.2798 1.64528,1.96077 0.87544,2.40524 v 2.5596 l -0.87544,2.40524 -1.64528,1.96076 z m 273.3848,295.43658 h -37.79528 v -30.23621 h 37.79528 z M 466.68227,752.0129 h 15.11811 v 15.11811 h -15.11811 z m 152.43742,-93.22938 0.44447,2.52072 -0.44447,2.52071 -1.2798,2.21668 -1.96077,1.64528 -2.40524,0.87544 h -2.5596 l -2.40524,-0.87544 -1.96076,-1.64528 -1.27981,-2.21668 -0.44447,-2.52071 0.44447,-2.52072 1.27981,-2.21668 1.96076,-1.64528 2.40524,-0.87543 h 2.5596 l 2.40524,0.87543 1.96077,1.64528 z M 481.80038,683.9814 v 15.11811 H 466.68227 V 683.9814 Z m 268.34646,257.00788 h -37.79528 v -15.11811 h 37.79528 z m -68.0315,-272.12599 h -37.79527 v -15.11811 h 37.79527 z m -39.68504,83.14961 2.93465,0.38635 2.73465,1.13273 2.34829,1.80191 1.80191,2.3483 1.13273,2.73465 0.38636,2.93464 -0.38636,2.93464 -1.13273,2.73465 -1.80191,2.3483 -2.34829,1.80191 -2.73465,1.13273 -2.93465,0.38635 -2.93464,-0.38635 -2.73465,-1.13273 -2.34829,-1.80191 -1.80192,-2.3483 -1.13273,-2.73465 -0.38635,-2.93464 0.38635,-2.93464 1.13273,-2.73465 1.80192,-2.3483 2.34829,-1.80191 2.73465,-1.13273 z M 504.47755,668.86329 h -37.79528 v -15.11811 h 37.79528 z"
       inkscape:connector-curvature="0"
       sodipodi:nodetypes="cccccccccccccccccccccccccccccccccccccccccccccccccccccccccccccccccccccccccccccccccccccccccccccccccccccccccccccccccccccccccccc" />
    <path
       id="path2057"
       style="fill:none;stroke:#000000"
       d="m 534.71377,1099.7294 v -30.2362 h 37.79527 v 30.2362 z m 230.55118,359.0552 H 451.56416 v -188.9764 l 68.0315,68.0315 v -283.4646 h 245.66929 z m -154.98411,-386.4697 1.2798,2.2167 0.44447,2.5207 -0.44447,2.5207 -1.2798,2.2167 -1.96077,1.6452 -2.40524,0.8755 h -2.5596 l -2.40524,-0.8755 -1.96077,-1.6452 -1.2798,-2.2167 -0.44447,-2.5207 0.44447,-2.5207 1.2798,-2.2167 1.96077,-1.6453 2.40524,-0.8754 h 2.5596 l 2.40524,0.8754 z m 139.866,27.4145 h -37.79528 v -30.2362 h 37.79528 z m 0,56.6929 v 15.1182 h -37.79528 v -15.1182 z m -68.0315,272.126 v 15.1181 h -37.79527 v -15.1181 z m -75.56706,12.2965 -1.27981,-2.2167 -0.44447,-2.5207 0.44447,-2.5207 1.27981,-2.2167 1.96076,-1.6453 2.40524,-0.8754 h 2.5596 l 2.40524,0.8754 1.96077,1.6453 1.2798,2.2167 0.44447,2.5207 -0.44447,2.5207 -1.2798,2.2167 -1.96077,1.6453 -2.40524,0.8754 h -2.5596 l -2.40524,-0.8754 z m -124.7479,-27.4146 h -15.11811 v -15.1181 h 15.11811 z m -15.11811,-83.1496 v 15.1181 h 15.11811 v -15.1181 z m 167.73045,11.7971 2.34829,1.8019 2.73465,1.1328 2.93464,0.3863 2.93465,-0.3863 2.73465,-1.1328 2.34829,-1.8019 1.80191,-2.3483 1.13273,-2.7346 0.38636,-2.9347 -0.38636,-2.9346 -1.13273,-2.7346 -1.80191,-2.3483 -2.34829,-1.802 -2.73465,-1.1327 -2.93465,-0.3863 -2.93464,0.3863 -2.73465,1.1327 -2.34829,1.802 -1.80192,2.3483 -1.13273,2.7346 -0.38635,2.9346 0.38635,2.9347 1.13273,2.7346 z m -167.73045,101.5887 h 37.79528 v -15.1181 h -37.79528 z m 5.03834,-64.8854 -2.21668,-1.2798 -1.64528,-1.9607 -0.87543,-2.4053 v -2.5596 l 0.87543,-2.4052 1.64528,-1.9608 2.21668,-1.2798 2.52072,-0.4445 2.52071,0.4445 2.21668,1.2798 1.64528,1.9608 0.87544,2.4052 v 2.5596 l -0.87544,2.4053 -1.64528,1.9607 -2.21668,1.2798 -2.52071,0.4445 z"
       inkscape:connector-curvature="0"
       sodipodi:nodetypes="cccccccccccccccccccccccccccccccccccccccccccccccccccccccccccccccccccccccccccccccccccccccccccccccccccccccccccccccccccccccccccc" />
    <path
       id="path2059"
       style="fill:none;stroke:#000000"
       d="m 368.59332,916.40559 h -15.11811 v 15.11811 h 15.11811 v 5.66929 h 15.11811 v -5.66929 h 37.79527 v 24.56693 h 15.11811 v 37.79528 H 421.5067 V 1009.004 H -750.14684 v -15.11809 h -15.11811 v -37.79528 h 15.11811 V 931.5237 h 37.79528 v 5.6693 h 15.11811 v -5.6693 h 15.11811 v -15.11811 h -15.11811 v -5.66929 h -15.11811 v 5.66929 h -37.79528 V 816.24811 h -15.11811 v -37.79527 h 15.11811 V 763.33473 H 421.5067 v 15.11811 h 15.11811 v 37.79527 H 421.5067 v 100.15748 h -37.79527 v -5.66929 h -15.11811 z"
       inkscape:connector-curvature="0"
       sodipodi:nodetypes="ccccccccccccccccccccccccccccccccccccccccccccc" />
    <path
       id="path2075"
       style="fill:none;stroke:#000000"
       d="m 281.46408,1193.6321 1.44153,1.8786 0.90618,2.1877 0.30909,2.3478 -0.30909,2.3477 -0.90618,2.1877 -1.44153,1.8786 -1.87864,1.4416 -2.18772,0.9061 -2.34771,0.3091 -2.34771,-0.3091 -2.18772,-0.9061 -1.87864,-1.4416 -1.44153,-1.8786 -0.90618,-2.1877 -0.30909,-2.3477 0.30909,-2.3478 0.90618,-2.1877 1.44153,-1.8786 1.87864,-1.4415 2.18772,-0.9062 2.34771,-0.3091 2.34771,0.3091 2.18772,0.9062 z m -876.39244,8.7618 0.30908,-2.3477 -0.30908,-2.3478 -0.90619,-2.1877 -1.44153,-1.8786 -1.87863,-1.4415 -2.18772,-0.9062 -2.34772,-0.3091 -2.34771,0.3091 -2.18772,0.9062 -1.87864,1.4415 -1.44153,1.8786 -0.90618,2.1877 -0.30908,2.3478 0.30908,2.3477 0.90618,2.1877 1.44153,1.8786 1.87864,1.4416 2.18772,0.9061 2.34771,0.3091 2.34772,-0.3091 2.18772,-0.9061 1.87863,-1.4416 1.44153,-1.8786 z m 584.920585,-6.8832 0.906184,2.1877 0.309082,2.3478 -0.309082,2.3477 -0.906184,2.1877 -1.441529,1.8786 -1.878638,1.4416 -2.18772,0.9061 -2.347713,0.3091 -2.347713,-0.3091 -2.18772,-0.9061 -1.878638,-1.4416 -1.44153,-1.8786 -0.906183,-2.1877 -0.309082,-2.3477 0.309082,-2.3478 0.906183,-2.1877 1.44153,-1.8786 1.878638,-1.4415 2.18772,-0.9062 2.347713,-0.3091 2.347713,0.3091 2.18772,0.9062 1.878638,1.4415 z m -309.839855,4.5355 0.30908,-2.3478 0.90619,-2.1877 1.44153,-1.8786 1.87864,-1.4415 2.18772,-0.9062 2.34771,-0.3091 2.34771,0.3091 2.18772,0.9062 1.87864,1.4415 1.44153,1.8786 0.90618,2.1877 0.30908,2.3478 -0.30908,2.3477 -0.90618,2.1877 -1.44153,1.8786 -1.87864,1.4416 -2.18772,0.9061 -2.34771,0.3091 -2.34771,-0.3091 -2.18772,-0.9061 -1.87864,-1.4416 -1.44153,-1.8786 -0.90619,-2.1877 z m -430.29921,54.7968 h -15.11811 v -37.7953 h 15.11811 v -100.1575 h 37.79528 v 5.6693 h 15.11811 v -5.6693 h 15.11811 v -15.1181 h -15.11811 v -5.6693 h -15.11811 v 5.6693 h -37.79528 v -24.5669 h -15.11811 v -37.7953 h 15.11811 v -15.1181 H 421.5067 v 15.1181 h 15.11811 v 37.7953 H 421.5067 v 24.5669 h -37.79527 v -5.6693 h -15.11811 v 5.6693 h -15.11811 v 15.1181 h 15.11811 v 5.6693 h 15.11811 v -5.6693 h 37.79527 v 100.1575 h 15.11811 v 37.7953 H 421.5067 v 15.1181 h -120 v -18.8913 l -0.90149,-6.8475 -2.64303,-6.3809 -4.20446,-5.4793 -5.47936,-4.2045 -6.38085,-2.643 -6.8475,-0.9015 -6.8475,0.9015 -6.38085,2.643 -5.47936,4.2045 -4.20446,5.4793 -2.64303,6.3809 -0.90149,6.8475 v 18.8913 H 8.593318 v -18.8913 l -0.90149,-6.8475 -2.643035,-6.3809 -4.204461,-5.4793 -5.479361,-4.2045 -6.38085,-2.643 -6.847496,-0.9015 -6.847496,0.9015 -6.380851,2.643 -5.47936,4.2045 -4.204461,5.4793 -2.643035,6.3809 -0.90149,6.8475 v 18.8913 H -284.32007 v -18.8913 l -0.90149,-6.8475 -2.64303,-6.3809 -4.20446,-5.4793 -5.47936,-4.2045 -6.38085,-2.643 -6.8475,-0.9015 -6.8475,0.9015 -6.38085,2.643 -5.47936,4.2045 -4.20446,5.4793 -2.64303,6.3809 -0.90149,6.8475 v 18.8913 h -240 v -18.8913 l -0.90149,-6.8475 -2.64304,-6.3809 -4.20446,-5.4793 -5.47936,-4.2045 -6.38085,-2.643 -6.8475,-0.9015 -6.84749,0.9015 -6.38085,2.643 -5.47936,4.2045 -4.20447,5.4793 -2.64303,6.3809 -0.90149,6.8475 v 18.8913 h -120 z"
       inkscape:connector-curvature="0"
       sodipodi:nodetypes="ccccccccccccccccccccccccccccccccccccccccccccccccccccccccccccccccccccccccccccccccccccccccccccccccccccccccccccccccccccccccccccccccccccccccccccccccccccccccccccccccccccccccccccccccccccccccccccccccccccccccccccc" />
    <path
       id="path2077"
       style="fill:none;stroke:#000000"
       d="m -401.48542,1405.961 h 181.41732 v 102.0473 h -64.25197 v 18.8913 h 240.000002 v -18.8913 H -108.57204 V 1405.961 H 72.845286 v 102.0473 H 8.593318 v 18.8913 H 248.59332 v -18.8913 H 184.34135 V 1405.961 h 181.41732 v 102.0473 H 301.5067 v 18.8913 h 120 v -15.1181 h 15.11811 v -37.7953 H 421.5067 v -139.8425 h 15.11811 v -37.7953 H 421.5067 v -15.1181 H -750.14684 v 15.1181 h -15.11811 v 37.7953 h 15.11811 v 139.8425 h -15.11811 v 37.7953 h 15.11811 v 15.1181 h 120 v -18.8913 h -64.25197 V 1405.961 h 181.41732 v 102.0473 h -64.25196 v 18.8913 h 240 v -18.8913 h -64.25197 z m -295.74803,-26.463 v -26.4567 h -15.11811 v 26.4567 z m 1065.82677,-26.4567 v 26.4567 h 15.11811 v -26.4567 z"
       inkscape:connector-curvature="0"
       sodipodi:nodetypes="ccccccccccccccccccccccccccccccccccccccccccccccccccccccccccccccc" />
    <path
       id="path2079"
       style="fill:none;stroke:#000000"
       d="m -750.14684,721.77668 h -15.11811 v 15.11811 h 15.11811 V 752.0129 H 421.5067 v -15.11811 h 15.11811 V 721.77668 H 421.5067 v -18.89764 h -37.79527 v 5.66929 h -15.11811 v -5.66929 h -15.11811 v -15.11811 h 15.11811 v -5.66929 h 15.11811 v 5.66929 h 37.79527 v -18.89764 h 15.11811 V 653.74518 H 421.5067 V 638.62707 H -750.14684 v 15.11811 h -15.11811 v 15.11811 h 15.11811 v 18.89764 h 37.79528 v -5.66929 h 15.11811 v 5.66929 h 15.11811 v 15.11811 h -15.11811 v 5.66929 h -15.11811 v -5.66929 h -37.79528 z"
       inkscape:connector-curvature="0"
       sodipodi:nodetypes="ccccccccccccccccccccccccccccccccccccccccccccc" />
  </g>
</svg>
