  0
SECTION
  2
HEADER
  9
$ACADVER
  1
AC1014
  9
$ACADMAINTVER
 70
     9
  9
$DWGCODEPAGE
  3
ANSI_1252
  9
$INSBASE
 10
0.0
 20
0.0
 30
0.0
  9
$EXTMIN
 10
1.000000000000000E+20
 20
1.000000000000000E+20
 30
1.000000000000000E+20
  9
$EXTMAX
 10
-1.000000000000000E+20
 20
-1.000000000000000E+20
 30
-1.000000000000000E+20
  9
$LIMMIN
 10
0.0
 20
0.0
  9
$LIMMAX
 10
12.0
 20
9.0
  9
$ORTHOMODE
 70
     0
  9
$REGENMODE
 70
     1
  9
$FILLMODE
 70
     1
  9
$QTEXTMODE
 70
     0
  9
$MIRRTEXT
 70
     1
  9
$DRAGMODE
 70
     2
  9
$LTSCALE
 40
1.0
  9
$OSMODE
 70
    37
  9
$ATTMODE
 70
     1
  9
$TEXTSIZE
 40
0.2
  9
$TRACEWID
 40
0.05
  9
$TEXTSTYLE
  7
STANDARD
  9
$CLAYER
  8
0
  9
$CELTYPE
  6
BYLAYER
  9
$CECOLOR
 62
   256
  9
$CELTSCALE
 40
1.0
  9
$DELOBJ
 70
     1
  9
$DISPSILH
 70
     0
  9
$DIMSCALE
 40
1.0
  9
$DIMASZ
 40
0.18
  9
$DIMEXO
 40
0.0625
  9
$DIMDLI
 40
0.38
  9
$DIMRND
 40
0.0
  9
$DIMDLE
 40
0.0
  9
$DIMEXE
 40
0.18
  9
$DIMTP
 40
0.0
  9
$DIMTM
 40
0.0
  9
$DIMTXT
 40
0.18
  9
$DIMCEN
 40
0.09
  9
$DIMTSZ
 40
0.0
  9
$DIMTOL
 70
     0
  9
$DIMLIM
 70
     0
  9
$DIMTIH
 70
     1
  9
$DIMTOH
 70
     1
  9
$DIMSE1
 70
     0
  9
$DIMSE2
 70
     0
  9
$DIMTAD
 70
     0
  9
$DIMZIN
 70
     0
  9
$DIMBLK
  1

  9
$DIMASO
 70
     1
  9
$DIMSHO
 70
     1
  9
$DIMPOST
  1

  9
$DIMAPOST
  1

  9
$DIMALT
 70
     0
  9
$DIMALTD
 70
     2
  9
$DIMALTF
 40
25.4
  9
$DIMLFAC
 40
1.0
  9
$DIMTOFL
 70
     0
  9
$DIMTVP
 40
0.0
  9
$DIMTIX
 70
     0
  9
$DIMSOXD
 70
     0
  9
$DIMSAH
 70
     0
  9
$DIMBLK1
  1

  9
$DIMBLK2
  1

  9
$DIMSTYLE
  2
STANDARD
  9
$DIMCLRD
 70
     0
  9
$DIMCLRE
 70
     0
  9
$DIMCLRT
 70
     0
  9
$DIMTFAC
 40
1.0
  9
$DIMGAP
 40
0.09
  9
$DIMJUST
 70
     0
  9
$DIMSD1
 70
     0
  9
$DIMSD2
 70
     0
  9
$DIMTOLJ
 70
     1
  9
$DIMTZIN
 70
     0
  9
$DIMALTZ
 70
     0
  9
$DIMALTTZ
 70
     0
  9
$DIMFIT
 70
     3
  9
$DIMUPT
 70
     0
  9
$DIMUNIT
 70
     2
  9
$DIMDEC
 70
     4
  9
$DIMTDEC
 70
     4
  9
$DIMALTU
 70
     2
  9
$DIMALTTD
 70
     2
  9
$DIMTXSTY
  7
STANDARD
  9
$DIMAUNIT
 70
     0
  9
$LUNITS
 70
     2
  9
$LUPREC
 70
     4
  9
$SKETCHINC
 40
0.1
  9
$FILLETRAD
 40
0.5
  9
$AUNITS
 70
     0
  9
$AUPREC
 70
     0
  9
$MENU
  1
.
  9
$ELEVATION
 40
0.0
  9
$PELEVATION
 40
0.0
  9
$THICKNESS
 40
0.0
  9
$LIMCHECK
 70
     0
  9
$CHAMFERA
 40
0.0
  9
$CHAMFERB
 40
0.0
  9
$CHAMFERC
 40
0.0
  9
$CHAMFERD
 40
0.0
  9
$SKPOLY
 70
     0
  9
$TDCREATE
 40
2458133.726223461
  9
$TDUPDATE
 40
2458133.726226354
  9
$TDINDWG
 40
0.0000000116
  9
$TDUSRTIMER
 40
0.0000000116
  9
$USRTIMER
 70
     1
  9
$ANGBASE
 50
0.0
  9
$ANGDIR
 70
     0
  9
$PDMODE
 70
     0
  9
$PDSIZE
 40
0.0
  9
$PLINEWID
 40
0.0
  9
$COORDS
 70
     1
  9
$SPLFRAME
 70
     0
  9
$SPLINETYPE
 70
     6
  9
$SPLINESEGS
 70
     8
  9
$ATTDIA
 70
     0
  9
$ATTREQ
 70
     1
  9
$HANDLING
 70
     1
  9
$HANDSEED
  5
313
  9
$SURFTAB1
 70
     6
  9
$SURFTAB2
 70
     6
  9
$SURFTYPE
 70
     6
  9
$SURFU
 70
     6
  9
$SURFV
 70
     6
  9
$UCSNAME
  2

  9
$UCSORG
 10
0.0
 20
0.0
 30
0.0
  9
$UCSXDIR
 10
1.0
 20
0.0
 30
0.0
  9
$UCSYDIR
 10
0.0
 20
1.0
 30
0.0
  9
$PUCSNAME
  2

  9
$PUCSORG
 10
0.0
 20
0.0
 30
0.0
  9
$PUCSXDIR
 10
1.0
 20
0.0
 30
0.0
  9
$PUCSYDIR
 10
0.0
 20
1.0
 30
0.0
  9
$USERI1
 70
     0
  9
$USERI2
 70
     0
  9
$USERI3
 70
     0
  9
$USERI4
 70
     0
  9
$USERI5
 70
     0
  9
$USERR1
 40
0.0
  9
$USERR2
 40
0.0
  9
$USERR3
 40
0.0
  9
$USERR4
 40
0.0
  9
$USERR5
 40
0.0
  9
$WORLDVIEW
 70
     1
  9
$SHADEDGE
 70
     3
  9
$SHADEDIF
 70
    70
  9
$TILEMODE
 70
     1
  9
$MAXACTVP
 70
    64
  9
$PINSBASE
 10
0.0
 20
0.0
 30
0.0
  9
$PLIMCHECK
 70
     0
  9
$PEXTMIN
 10
1.000000000000000E+20
 20
1.000000000000000E+20
 30
1.000000000000000E+20
  9
$PEXTMAX
 10
-1.000000000000000E+20
 20
-1.000000000000000E+20
 30
-1.000000000000000E+20
  9
$PLIMMIN
 10
0.0
 20
0.0
  9
$PLIMMAX
 10
12.0
 20
9.0
  9
$UNITMODE
 70
     0
  9
$VISRETAIN
 70
     1
  9
$PLINEGEN
 70
     0
  9
$PSLTSCALE
 70
     1
  9
$TREEDEPTH
 70
  3020
  9
$PICKSTYLE
 70
     1
  9
$CMLSTYLE
  2
STANDARD
  9
$CMLJUST
 70
     0
  9
$CMLSCALE
 40
1.0
  9
$PROXYGRAPHICS
 70
     1
  9
$MEASUREMENT
 70
     1
  0
ENDSEC
  0
SECTION
  2
CLASSES
  0
CLASS
  1
ACDBDICTIONARYWDFLT
  2
AcDbDictionaryWithDefault
  3
ObjectDBX Classes
 90
        0
280
     0
281
     0
  0
CLASS
  1
VISUALSTYLE
  2
AcDbVisualStyle
  3
ObjectDBX Classes
 90
     4095
280
     0
281
     0
  0
CLASS
  1
MATERIAL
  2
AcDbMaterial
  3
ObjectDBX Classes
 90
     1153
280
     0
281
     0
  0
CLASS
  1
SCALE
  2
AcDbScale
  3
ObjectDBX Classes
 90
     1153
280
     0
281
     0
  0
CLASS
  1
TABLESTYLE
  2
AcDbTableStyle
  3
ObjectDBX Classes
 90
     4095
280
     0
281
     0
  0
CLASS
  1
MLEADERSTYLE
  2
AcDbMLeaderStyle
  3
ACDB_MLEADERSTYLE_CLASS
 90
     4095
280
     0
281
     0
  0
CLASS
  1
SUN
  2
AcDbSun
  3
SCENEOE
 90
     1153
280
     0
281
     0
  0
CLASS
  1
DICTIONARYVAR
  2
AcDbDictionaryVar
  3
ObjectDBX Classes
 90
        0
280
     0
281
     0
  0
CLASS
  1
XRECORD
  2
AcDbXrecord
  3
ObjectDBX Classes
 90
        0
280
     0
281
     0
  0
CLASS
  1
LWPOLYLINE
  2
AcDbPolyline
  3
ObjectDBX Classes
 90
        0
280
     0
281
     1
  0
CLASS
  1
HATCH
  2
AcDbHatch
  3
ObjectDBX Classes
 90
        0
280
     0
281
     1
  0
CLASS
  1
ACDBPLACEHOLDER
  2
AcDbPlaceHolder
  3
ObjectDBX Classes
 90
        0
280
     0
281
     0
  0
CLASS
  1
LAYOUT
  2
AcDbLayout
  3
ObjectDBX Classes
 90
        0
280
     0
281
     0
  0
ENDSEC
  0
SECTION
  2
TABLES
  0
TABLE
  2
VPORT
  5
8
102
{ACAD_XDICTIONARY
360
308
102
}
330
0
100
AcDbSymbolTable
 70
     1
  0
VPORT
  5
29
330
8
100
AcDbSymbolTableRecord
100
AcDbViewportTableRecord
  2
*ACTIVE
 70
     0
 10
0.0
 20
0.0
 11
1.0
 21
1.0
 12
0.0
 22
0.0
 13
0.0
 23
0.0
 14
0.5
 24
0.5
 15
0.5
 25
0.5
 16
0.0
 26
0.0
 36
1.0
 17
0.0
 27
0.0
 37
-1000.0
 40
494.7191461360974
 41
1.523378582202112
 42
50.0
 43
862.8108820088463
 44
1411.386633566368
 50
0.0
 51
0.0
 71
     0
 72
   100
 73
     1
 74
     3
 75
     0
 76
     0
 77
     0
 78
     0
  0
ENDTAB
  0
TABLE
  2
LTYPE
  5
5
330
0
100
AcDbSymbolTable
 70
     1
  0
LTYPE
  5
14
330
5
100
AcDbSymbolTableRecord
100
AcDbLinetypeTableRecord
  2
BYBLOCK
 70
     0
  3

 72
    65
 73
     0
 40
0.0
  0
LTYPE
  5
15
330
5
100
AcDbSymbolTableRecord
100
AcDbLinetypeTableRecord
  2
BYLAYER
 70
     0
  3

 72
    65
 73
     0
 40
0.0
  0
LTYPE
  5
16
330
5
100
AcDbSymbolTableRecord
100
AcDbLinetypeTableRecord
  2
CONTINUOUS
 70
     0
  3
Solid line
 72
    65
 73
     0
 40
0.0
  0
ENDTAB
  0
TABLE
  2
LAYER
  5
2
330
0
100
AcDbSymbolTable
 70
     3
  0
LAYER
  5
10
330
2
100
AcDbSymbolTableRecord
100
AcDbLayerTableRecord
  2
0
 70
     0
 62
     7
  6
CONTINUOUS
  0
LAYER
  5
6E
330
2
100
AcDbSymbolTableRecord
100
AcDbLayerTableRecord
  2
PROFILEEDGES
 70
     0
 62
     7
  6
CONTINUOUS
  0
LAYER
  5
6F
330
2
100
AcDbSymbolTableRecord
100
AcDbLayerTableRecord
  2
SECTIONCUTEDGES
 70
     0
 62
     7
  6
CONTINUOUS
  0
ENDTAB
  0
TABLE
  2
STYLE
  5
3
330
0
100
AcDbSymbolTable
 70
     1
  0
STYLE
  5
11
330
3
100
AcDbSymbolTableRecord
100
AcDbTextStyleTableRecord
  2
STANDARD
 70
     0
 40
0.0
 41
1.0
 50
0.0
 71
     0
 42
0.2
  3
txt
  4

  0
ENDTAB
  0
TABLE
  2
VIEW
  5
6
330
0
100
AcDbSymbolTable
 70
     0
  0
ENDTAB
  0
TABLE
  2
UCS
  5
7
330
0
100
AcDbSymbolTable
 70
     0
  0
ENDTAB
  0
TABLE
  2
APPID
  5
9
330
0
100
AcDbSymbolTable
 70
     2
  0
APPID
  5
12
330
9
100
AcDbSymbolTableRecord
100
AcDbRegAppTableRecord
  2
ACAD
 70
     0
  0
APPID
  5
312
330
9
100
AcDbSymbolTableRecord
100
AcDbRegAppTableRecord
  2
ACAD_MLEADERVER
 70
     0
  0
ENDTAB
  0
TABLE
  2
DIMSTYLE
  5
A
330
0
100
AcDbSymbolTable
 70
     1
  0
DIMSTYLE
105
27
330
A
100
AcDbSymbolTableRecord
100
AcDbDimStyleTableRecord
  2
STANDARD
 70
     0
  3

  4

  5

  6

  7

 40
1.0
 41
0.18
 42
0.0625
 43
0.38
 44
0.18
 45
0.0
 46
0.0
 47
0.0
 48
0.0
140
0.18
141
0.09
142
0.0
143
25.4
144
1.0
145
0.0
146
1.0
147
0.09
 71
     0
 72
     0
 73
     1
 74
     1
 75
     0
 76
     0
 77
     0
 78
     0
170
     0
171
     2
172
     0
173
     0
174
     0
175
     0
176
     0
177
     0
178
     0
270
     2
271
     4
272
     4
273
     2
274
     2
340
11
275
     0
280
     0
281
     0
282
     0
283
     1
284
     0
285
     0
286
     0
287
     3
288
     0
  0
ENDTAB
  0
TABLE
  2
BLOCK_RECORD
  5
1
330
0
100
AcDbSymbolTable
 70
     1
  0
BLOCK_RECORD
  5
1F
330
1
100
AcDbSymbolTableRecord
100
AcDbBlockTableRecord
  2
*MODEL_SPACE
  0
BLOCK_RECORD
  5
1B
330
1
100
AcDbSymbolTableRecord
100
AcDbBlockTableRecord
  2
*PAPER_SPACE
  0
ENDTAB
  0
ENDSEC
  0
SECTION
  2
BLOCKS
  0
BLOCK
  5
20
330
1F
100
AcDbEntity
  8
0
100
AcDbBlockBegin
  2
*MODEL_SPACE
 70
     0
 10
0.0
 20
0.0
 30
0.0
  3
*MODEL_SPACE
  1

  0
ENDBLK
  5
21
330
1F
100
AcDbEntity
  8
0
100
AcDbBlockEnd
  0
BLOCK
  5
1C
330
1B
100
AcDbEntity
 67
     1
  8
0
100
AcDbBlockBegin
  2
*PAPER_SPACE
 70
     0
 10
0.0
 20
0.0
 30
0.0
  3
*PAPER_SPACE
  1

  0
ENDBLK
  5
1D
330
1B
100
AcDbEntity
 67
     1
  8
0
100
AcDbBlockEnd
  0
ENDSEC
  0
SECTION
  2
ENTITIES
  0
LWPOLYLINE
  5
70
330
1F
100
AcDbEntity
  8
PROFILEEDGES
100
AcDbPolyline
 90
        2
 70
     0
 43
1.492365448374351
 10
-54.5343534726637
 20
101.5236486452711
 10
-54.53435347266378
 20
111.523648645271
  0
LWPOLYLINE
  5
71
330
1F
100
AcDbEntity
  8
PROFILEEDGES
100
AcDbPolyline
 90
        2
 70
     0
 43
1.492365448374351
 10
-56.0343534726638
 20
97.5236486452711
 10
-56.03435347266362
 20
101.5236486452711
  0
LWPOLYLINE
  5
72
330
1F
100
AcDbEntity
  8
PROFILEEDGES
100
AcDbPolyline
 90
        2
 70
     0
 43
1.492365448374351
 10
-91.0343534726637
 20
-198.4763513547288
 10
-95.03435347266368
 20
-198.4763513547288
  0
LWPOLYLINE
  5
73
330
1F
100
AcDbEntity
  8
PROFILEEDGES
100
AcDbPolyline
 90
        2
 70
     0
 43
1.492365448374351
 10
-91.0343534726637
 20
-198.4763513547288
 10
-91.0343534726637
 20
-202.4763513547288
  0
LWPOLYLINE
  5
74
330
1F
100
AcDbEntity
  8
PROFILEEDGES
100
AcDbPolyline
 90
        2
 70
     0
 43
1.492365448374351
 10
-91.0343534726637
 20
-202.4763513547288
 10
-81.03435347266371
 20
-202.4763513547288
  0
LWPOLYLINE
  5
75
330
1F
100
AcDbEntity
  8
PROFILEEDGES
100
AcDbPolyline
 90
        2
 70
     0
 43
1.492365448374351
 10
-81.03435347266371
 20
-202.4763513547288
 10
-81.03435347266371
 20
-198.4763513547288
  0
LWPOLYLINE
  5
76
330
1F
100
AcDbEntity
  8
PROFILEEDGES
100
AcDbPolyline
 90
        2
 70
     0
 43
1.492365448374351
 10
-54.5343534726637
 20
-198.4763513547288
 10
-81.03435347266371
 20
-198.4763513547288
  0
LWPOLYLINE
  5
77
330
1F
100
AcDbEntity
  8
PROFILEEDGES
100
AcDbPolyline
 90
        2
 70
     0
 43
1.492365448374351
 10
-54.5343534726637
 20
-198.4763513547288
 10
-54.5343534726637
 20
-188.4763513547288
  0
LWPOLYLINE
  5
78
330
1F
100
AcDbEntity
  8
PROFILEEDGES
100
AcDbPolyline
 90
        2
 70
     0
 43
1.492365448374351
 10
-54.5343534726637
 20
-188.4763513547288
 10
-56.03435347266372
 20
-188.4763513547288
  0
LWPOLYLINE
  5
79
330
1F
100
AcDbEntity
  8
PROFILEEDGES
100
AcDbPolyline
 90
        2
 70
     0
 43
1.492365448374351
 10
-56.03435347266372
 20
-188.4763513547288
 10
-56.03435347266372
 20
-184.4763513547288
  0
LWPOLYLINE
  5
7A
330
1F
100
AcDbEntity
  8
PROFILEEDGES
100
AcDbPolyline
 90
        2
 70
     0
 43
1.492365448374351
 10
-56.03435347266372
 20
-184.4763513547288
 10
-54.5343534726637
 20
-184.4763513547288
  0
LWPOLYLINE
  5
7B
330
1F
100
AcDbEntity
  8
PROFILEEDGES
100
AcDbPolyline
 90
        2
 70
     0
 43
1.492365448374351
 10
-54.5343534726637
 20
-184.4763513547288
 10
-54.5343534726637
 20
-180.4763513547288
  0
LWPOLYLINE
  5
7C
330
1F
100
AcDbEntity
  8
PROFILEEDGES
100
AcDbPolyline
 90
        2
 70
     0
 43
1.492365448374351
 10
-54.5343534726637
 20
-180.4763513547288
 10
-50.5343534726637
 20
-180.4763513547288
  0
LWPOLYLINE
  5
7D
330
1F
100
AcDbEntity
  8
PROFILEEDGES
100
AcDbPolyline
 90
        2
 70
     0
 43
1.492365448374351
 10
-50.5343534726637
 20
-180.4763513547288
 10
-50.5343534726637
 20
-184.4763513547288
  0
LWPOLYLINE
  5
7E
330
1F
100
AcDbEntity
  8
PROFILEEDGES
100
AcDbPolyline
 90
        2
 70
     0
 43
1.492365448374351
 10
-50.5343534726637
 20
-184.4763513547288
 10
-49.03435347266368
 20
-184.4763513547288
  0
LWPOLYLINE
  5
7F
330
1F
100
AcDbEntity
  8
PROFILEEDGES
100
AcDbPolyline
 90
        2
 70
     0
 43
1.492365448374351
 10
-49.03435347266368
 20
-184.4763513547288
 10
-49.03435347266368
 20
-188.4763513547288
  0
LWPOLYLINE
  5
80
330
1F
100
AcDbEntity
  8
PROFILEEDGES
100
AcDbPolyline
 90
        2
 70
     0
 43
1.492365448374351
 10
-49.03435347266368
 20
-188.4763513547288
 10
-50.5343534726637
 20
-188.4763513547288
  0
LWPOLYLINE
  5
81
330
1F
100
AcDbEntity
  8
PROFILEEDGES
100
AcDbPolyline
 90
        2
 70
     0
 43
1.492365448374351
 10
-50.5343534726637
 20
-188.4763513547288
 10
-50.5343534726637
 20
-198.4763513547288
  0
LWPOLYLINE
  5
82
330
1F
100
AcDbEntity
  8
PROFILEEDGES
100
AcDbPolyline
 90
        2
 70
     0
 43
1.492365448374351
 10
-44.03435347266365
 20
-198.4763513547288
 10
-50.5343534726637
 20
-198.4763513547288
  0
LWPOLYLINE
  5
83
330
1F
100
AcDbEntity
  8
PROFILEEDGES
100
AcDbPolyline
 90
        2
 70
     0
 43
1.492365448374351
 10
-44.03435347266365
 20
-202.4763513547288
 10
-44.03435347266365
 20
-198.4763513547288
  0
LWPOLYLINE
  5
84
330
1F
100
AcDbEntity
  8
PROFILEEDGES
100
AcDbPolyline
 90
        2
 70
     0
 43
1.492365448374351
 10
-34.03435347266367
 20
-202.4763513547288
 10
-44.03435347266365
 20
-202.4763513547288
  0
LWPOLYLINE
  5
85
330
1F
100
AcDbEntity
  8
PROFILEEDGES
100
AcDbPolyline
 90
        2
 70
     0
 43
1.492365448374351
 10
-34.03435347266367
 20
-198.4763513547288
 10
-34.03435347266367
 20
-202.4763513547288
  0
LWPOLYLINE
  5
86
330
1F
100
AcDbEntity
  8
PROFILEEDGES
100
AcDbPolyline
 90
        2
 70
     0
 43
1.492365448374351
 10
-30.03435347266367
 20
-198.4763513547288
 10
-34.03435347266367
 20
-198.4763513547288
  0
LWPOLYLINE
  5
87
330
1F
100
AcDbEntity
  8
PROFILEEDGES
100
AcDbPolyline
 90
        2
 70
     0
 43
1.492365448374351
 10
-30.03435347266367
 20
111.5236486452712
 10
-30.03435347266367
 20
-198.4763513547288
  0
LWPOLYLINE
  5
88
330
1F
100
AcDbEntity
  8
PROFILEEDGES
100
AcDbPolyline
 90
        2
 70
     0
 43
1.492365448374351
 10
-34.03435347266367
 20
111.5236486452712
 10
-30.03435347266367
 20
111.5236486452712
  0
LWPOLYLINE
  5
89
330
1F
100
AcDbEntity
  8
PROFILEEDGES
100
AcDbPolyline
 90
        2
 70
     0
 43
1.492365448374351
 10
-34.03435347266367
 20
115.5236486452712
 10
-34.03435347266367
 20
111.5236486452712
  0
LWPOLYLINE
  5
8A
330
1F
100
AcDbEntity
  8
PROFILEEDGES
100
AcDbPolyline
 90
        2
 70
     0
 43
1.492365448374351
 10
-34.03435347266367
 20
115.5236486452712
 10
-44.03435347266365
 20
115.5236486452712
  0
LWPOLYLINE
  5
8B
330
1F
100
AcDbEntity
  8
PROFILEEDGES
100
AcDbPolyline
 90
        2
 70
     0
 43
1.492365448374351
 10
-44.03435347266365
 20
111.5236486452712
 10
-44.03435347266365
 20
115.5236486452712
  0
LWPOLYLINE
  5
8C
330
1F
100
AcDbEntity
  8
PROFILEEDGES
100
AcDbPolyline
 90
        2
 70
     0
 43
1.492365448374351
 10
-50.53435347266388
 20
111.5236486452712
 10
-44.03435347266365
 20
111.5236486452712
  0
LWPOLYLINE
  5
8D
330
1F
100
AcDbEntity
  8
PROFILEEDGES
100
AcDbPolyline
 90
        2
 70
     0
 43
1.492365448374351
 10
-50.53435347266388
 20
111.5236486452712
 10
-50.53435347266388
 20
101.5236486452713
  0
LWPOLYLINE
  5
8E
330
1F
100
AcDbEntity
  8
PROFILEEDGES
100
AcDbPolyline
 90
        2
 70
     0
 43
1.492365448374351
 10
-50.53435347266388
 20
101.5236486452713
 10
-49.03435347266377
 20
101.5236486452711
  0
LWPOLYLINE
  5
8F
330
1F
100
AcDbEntity
  8
PROFILEEDGES
100
AcDbPolyline
 90
        2
 70
     0
 43
1.492365448374351
 10
-49.03435347266377
 20
101.5236486452711
 10
-49.03435347266359
 20
97.5236486452711
  0
LWPOLYLINE
  5
90
330
1F
100
AcDbEntity
  8
PROFILEEDGES
100
AcDbPolyline
 90
        2
 70
     0
 43
1.492365448374351
 10
-49.03435347266359
 20
97.5236486452711
 10
-50.5343534726638
 20
97.52364864527127
  0
LWPOLYLINE
  5
91
330
1F
100
AcDbEntity
  8
PROFILEEDGES
100
AcDbPolyline
 90
        2
 70
     0
 43
1.492365448374351
 10
-50.5343534726638
 20
97.52364864527127
 10
-50.53435347266343
 20
93.52364864527128
  0
LWPOLYLINE
  5
92
330
1F
100
AcDbEntity
  8
PROFILEEDGES
100
AcDbPolyline
 90
        2
 70
     0
 43
1.492365448374351
 10
-50.53435347266343
 20
93.52364864527128
 10
-54.53435347266378
 20
93.52364864527128
  0
LWPOLYLINE
  5
93
330
1F
100
AcDbEntity
  8
PROFILEEDGES
100
AcDbPolyline
 90
        2
 70
     0
 43
1.492365448374351
 10
-54.53435347266378
 20
93.52364864527128
 10
-54.5343534726637
 20
97.52364864527127
  0
LWPOLYLINE
  5
94
330
1F
100
AcDbEntity
  8
PROFILEEDGES
100
AcDbPolyline
 90
        2
 70
     0
 43
1.492365448374351
 10
-54.5343534726637
 20
97.52364864527127
 10
-56.0343534726638
 20
97.5236486452711
  0
LWPOLYLINE
  5
95
330
1F
100
AcDbEntity
  8
PROFILEEDGES
100
AcDbPolyline
 90
        2
 70
     0
 43
1.492365448374351
 10
-56.03435347266362
 20
101.5236486452711
 10
-54.5343534726637
 20
101.5236486452711
  0
LWPOLYLINE
  5
96
330
1F
100
AcDbEntity
  8
PROFILEEDGES
100
AcDbPolyline
 90
        2
 70
     0
 43
1.492365448374351
 10
-81.03435347266371
 20
111.5236486452712
 10
-54.53435347266378
 20
111.523648645271
  0
LWPOLYLINE
  5
97
330
1F
100
AcDbEntity
  8
PROFILEEDGES
100
AcDbPolyline
 90
        2
 70
     0
 43
1.492365448374351
 10
-81.03435347266371
 20
111.5236486452712
 10
-81.03435347266371
 20
115.5236486452712
  0
LWPOLYLINE
  5
98
330
1F
100
AcDbEntity
  8
PROFILEEDGES
100
AcDbPolyline
 90
        2
 70
     0
 43
1.492365448374351
 10
-81.03435347266371
 20
115.5236486452712
 10
-91.0343534726637
 20
115.5236486452712
  0
LWPOLYLINE
  5
99
330
1F
100
AcDbEntity
  8
PROFILEEDGES
100
AcDbPolyline
 90
        2
 70
     0
 43
1.492365448374351
 10
-91.0343534726637
 20
115.5236486452712
 10
-91.0343534726637
 20
111.5236486452712
  0
LWPOLYLINE
  5
9A
330
1F
100
AcDbEntity
  8
PROFILEEDGES
100
AcDbPolyline
 90
        2
 70
     0
 43
1.492365448374351
 10
-95.03435347266368
 20
111.5236486452712
 10
-91.0343534726637
 20
111.5236486452712
  0
LWPOLYLINE
  5
9B
330
1F
100
AcDbEntity
  8
PROFILEEDGES
100
AcDbPolyline
 90
        2
 70
     0
 43
1.492365448374351
 10
-5.489461263570858
 20
-180.4763513547288
 10
-5.489461263570858
 20
-184.4763513547288
  0
LWPOLYLINE
  5
9C
330
1F
100
AcDbEntity
  8
PROFILEEDGES
100
AcDbPolyline
 90
        2
 70
     0
 43
1.492365448374351
 10
-5.489461263570858
 20
-184.4763513547288
 10
-6.989461263570877
 20
-184.4763513547288
  0
LWPOLYLINE
  5
9D
330
1F
100
AcDbEntity
  8
PROFILEEDGES
100
AcDbPolyline
 90
        2
 70
     0
 43
1.492365448374351
 10
-6.989461263570877
 20
-184.4763513547288
 10
-6.989461263570877
 20
-188.4763513547288
  0
LWPOLYLINE
  5
9E
330
1F
100
AcDbEntity
  8
PROFILEEDGES
100
AcDbPolyline
 90
        2
 70
     0
 43
1.492365448374351
 10
39.01053873642913
 20
-198.4763513547288
 10
39.01053873642913
 20
-166.7263513547288
  0
LWPOLYLINE
  5
9F
330
1F
100
AcDbEntity
  8
PROFILEEDGES
100
AcDbPolyline
 90
        2
 70
     0
 43
1.492365448374351
 10
0.0105387364290642
 20
101.5236486452711
 10
-1.489461263570865
 20
101.5236486452711
  0
LWPOLYLINE
  5
A0
330
1F
100
AcDbEntity
  8
PROFILEEDGES
100
AcDbPolyline
 90
        2
 70
     0
 43
1.492365448374351
 10
-6.989461263570877
 20
-188.4763513547288
 10
-5.489461263570858
 20
-188.4763513547288
  0
LWPOLYLINE
  5
A1
330
1F
100
AcDbEntity
  8
PROFILEEDGES
100
AcDbPolyline
 90
        2
 70
     0
 43
1.492365448374351
 10
39.01053873642913
 20
111.5236486452712
 10
35.01053873642913
 20
111.5236486452712
  0
LWPOLYLINE
  5
A2
330
1F
100
AcDbEntity
  8
PROFILEEDGES
100
AcDbPolyline
 90
        2
 70
     0
 43
1.492365448374351
 10
-5.489461263570858
 20
-188.4763513547288
 10
-5.489461263570858
 20
-198.4763513547288
  0
LWPOLYLINE
  5
A3
330
1F
100
AcDbEntity
  8
PROFILEEDGES
100
AcDbPolyline
 90
        2
 70
     0
 43
1.492365448374351
 10
25.01053873642915
 20
111.5236486452712
 10
-1.489461263570775
 20
111.523648645271
  0
LWPOLYLINE
  5
A4
330
1F
100
AcDbEntity
  8
PROFILEEDGES
100
AcDbPolyline
 90
        2
 70
     0
 43
1.492365448374351
 10
-11.98946126357091
 20
-198.4763513547288
 10
-5.489461263570858
 20
-198.4763513547288
  0
LWPOLYLINE
  5
A5
330
1F
100
AcDbEntity
  8
PROFILEEDGES
100
AcDbPolyline
 90
        2
 70
     0
 43
1.492365448374351
 10
35.01053873642913
 20
115.5236486452712
 10
35.01053873642913
 20
111.5236486452712
  0
LWPOLYLINE
  5
A6
330
1F
100
AcDbEntity
  8
PROFILEEDGES
100
AcDbPolyline
 90
        2
 70
     0
 43
1.492365448374351
 10
19.31221184761784
 20
-6.804812323811634
 10
18.81515557277011
 20
-6.423407629576531
  0
LWPOLYLINE
  5
A7
330
1F
100
AcDbEntity
  8
PROFILEEDGES
100
AcDbPolyline
 90
        2
 70
     0
 43
1.492365448374351
 10
-11.98946126357091
 20
-202.4763513547288
 10
-11.98946126357091
 20
-198.4763513547288
  0
LWPOLYLINE
  5
A8
330
1F
100
AcDbEntity
  8
PROFILEEDGES
100
AcDbPolyline
 90
        2
 70
     0
 43
1.492365448374351
 10
-1.489461263570865
 20
101.5236486452711
 10
-1.489461263570775
 20
111.523648645271
  0
LWPOLYLINE
  5
A9
330
1F
100
AcDbEntity
  8
PROFILEEDGES
100
AcDbPolyline
 90
        2
 70
     0
 43
1.492365448374351
 10
-21.9894612635709
 20
-202.4763513547288
 10
-11.98946126357091
 20
-202.4763513547288
  0
LWPOLYLINE
  5
AA
330
1F
100
AcDbEntity
  8
PROFILEEDGES
100
AcDbPolyline
 90
        2
 70
     0
 43
1.492365448374351
 10
39.01053873642913
 20
79.77364864527115
 10
39.01053873642913
 20
111.5236486452712
  0
LWPOLYLINE
  5
AB
330
1F
100
AcDbEntity
  8
PROFILEEDGES
100
AcDbPolyline
 90
        2
 70
     0
 43
1.492365448374351
 10
-1.489461263570865
 20
-198.4763513547288
 10
25.01053873642915
 20
-198.4763513547288
  0
LWPOLYLINE
  5
AC
330
1F
100
AcDbEntity
  8
PROFILEEDGES
100
AcDbPolyline
 90
        2
 70
     0
 43
1.492365448374351
 10
-21.9894612635709
 20
-198.4763513547288
 10
-21.9894612635709
 20
-202.4763513547288
  0
LWPOLYLINE
  5
AD
330
1F
100
AcDbEntity
  8
PROFILEEDGES
100
AcDbPolyline
 90
        2
 70
     0
 43
1.492365448374351
 10
-25.98946126357089
 20
-198.4763513547288
 10
-21.9894612635709
 20
-198.4763513547288
  0
LWPOLYLINE
  5
AE
330
1F
100
AcDbEntity
  8
PROFILEEDGES
100
AcDbPolyline
 90
        2
 70
     0
 43
1.492365448374351
 10
-25.98946126357089
 20
111.5236486452712
 10
-25.98946126357089
 20
-198.4763513547288
  0
LWPOLYLINE
  5
AF
330
1F
100
AcDbEntity
  8
PROFILEEDGES
100
AcDbPolyline
 90
        2
 70
     0
 43
1.492365448374351
 10
-21.9894612635709
 20
111.5236486452712
 10
-25.98946126357089
 20
111.5236486452712
  0
LWPOLYLINE
  5
B0
330
1F
100
AcDbEntity
  8
PROFILEEDGES
100
AcDbPolyline
 90
        2
 70
     0
 43
1.492365448374351
 10
-21.9894612635709
 20
115.5236486452712
 10
-21.9894612635709
 20
111.5236486452712
  0
LWPOLYLINE
  5
B1
330
1F
100
AcDbEntity
  8
PROFILEEDGES
100
AcDbPolyline
 90
        2
 70
     0
 43
1.492365448374351
 10
-11.98946126357091
 20
111.5236486452712
 10
-11.98946126357091
 20
115.5236486452712
  0
LWPOLYLINE
  5
B2
330
1F
100
AcDbEntity
  8
PROFILEEDGES
100
AcDbPolyline
 90
        2
 70
     0
 43
1.492365448374351
 10
-5.489461263570678
 20
111.5236486452712
 10
-11.98946126357091
 20
111.5236486452712
  0
LWPOLYLINE
  5
B3
330
1F
100
AcDbEntity
  8
PROFILEEDGES
100
AcDbPolyline
 90
        2
 70
     0
 43
1.492365448374351
 10
34.01221184761779
 20
79.77364864527115
 10
39.01053873642913
 20
79.77364864527115
  0
LWPOLYLINE
  5
B4
330
1F
100
AcDbEntity
  8
PROFILEEDGES
100
AcDbPolyline
 90
        2
 70
     0
 43
1.492365448374351
 10
32.20047853190014
 20
79.53512942929466
 10
34.01221184761779
 20
79.77364864527115
  0
LWPOLYLINE
  5
B5
330
1F
100
AcDbEntity
  8
PROFILEEDGES
100
AcDbPolyline
 90
        2
 70
     0
 43
1.492365448374351
 10
29.06246437931194
 20
77.7233961135771
 10
30.51221184761782
 20
78.8358264717622
  0
LWPOLYLINE
  5
B6
330
1F
100
AcDbEntity
  8
PROFILEEDGES
100
AcDbPolyline
 90
        2
 70
     0
 43
1.492365448374351
 10
27.95003402112671
 20
76.27364864527122
 10
29.06246437931194
 20
77.7233961135771
  0
LWPOLYLINE
  5
B7
330
1F
100
AcDbEntity
  8
PROFILEEDGES
100
AcDbPolyline
 90
        2
 70
     0
 43
1.492365448374351
 10
27.25073106359434
 20
74.58538196098885
 10
27.95003402112671
 20
76.27364864527122
  0
LWPOLYLINE
  5
B8
330
1F
100
AcDbEntity
  8
PROFILEEDGES
100
AcDbPolyline
 90
        2
 70
     0
 43
1.492365448374351
 10
27.0122118476178
 20
72.77364864527112
 10
27.25073106359434
 20
74.58538196098885
  0
LWPOLYLINE
  5
B9
330
1F
100
AcDbEntity
  8
PROFILEEDGES
100
AcDbPolyline
 90
        2
 70
     0
 43
1.492365448374351
 10
27.25073106359434
 20
70.96191532955356
 10
27.0122118476178
 20
72.77364864527112
  0
LWPOLYLINE
  5
BA
330
1F
100
AcDbEntity
  8
PROFILEEDGES
100
AcDbPolyline
 90
        2
 70
     0
 43
1.492365448374351
 10
27.95003402112671
 20
69.2736486452712
 10
27.25073106359434
 20
70.96191532955356
  0
LWPOLYLINE
  5
BB
330
1F
100
AcDbEntity
  8
PROFILEEDGES
100
AcDbPolyline
 90
        2
 70
     0
 43
1.492365448374351
 10
29.06246437931194
 20
67.82390117696532
 10
27.95003402112671
 20
69.2736486452712
  0
LWPOLYLINE
  5
BC
330
1F
100
AcDbEntity
  8
PROFILEEDGES
100
AcDbPolyline
 90
        2
 70
     0
 43
1.492365448374351
 10
30.51221184761782
 20
66.71147081878004
 10
29.06246437931194
 20
67.82390117696532
  0
LWPOLYLINE
  5
BD
330
1F
100
AcDbEntity
  8
PROFILEEDGES
100
AcDbPolyline
 90
        2
 70
     0
 43
1.492365448374351
 10
34.01221184761779
 20
65.77364864527127
 10
32.20047853190014
 20
66.01216786124776
  0
LWPOLYLINE
  5
BE
330
1F
100
AcDbEntity
  8
PROFILEEDGES
100
AcDbPolyline
 90
        2
 70
     0
 43
1.492365448374351
 10
39.01053873642913
 20
2.273648645271229
 10
39.01053873642913
 20
65.77364864527127
  0
LWPOLYLINE
  5
BF
330
1F
100
AcDbEntity
  8
PROFILEEDGES
100
AcDbPolyline
 90
        2
 70
     0
 43
1.492365448374351
 10
34.01221184761779
 20
2.273648645271229
 10
39.01053873642913
 20
2.273648645271229
  0
LWPOLYLINE
  5
C0
330
1F
100
AcDbEntity
  8
PROFILEEDGES
100
AcDbPolyline
 90
        2
 70
     0
 43
1.492365448374351
 10
32.20047853190014
 20
2.035129429294644
 10
34.01221184761779
 20
2.273648645271229
  0
LWPOLYLINE
  5
C1
330
1F
100
AcDbEntity
  8
PROFILEEDGES
100
AcDbPolyline
 90
        2
 70
     0
 43
1.492365448374351
 10
29.06246437931194
 20
0.2233961135770866
 10
30.51221184761782
 20
1.335826471762366
  0
LWPOLYLINE
  5
C2
330
1F
100
AcDbEntity
  8
PROFILEEDGES
100
AcDbPolyline
 90
        2
 70
     0
 43
1.492365448374351
 10
27.95003402112671
 20
-1.226351354728787
 10
29.06246437931194
 20
0.2233961135770866
  0
LWPOLYLINE
  5
C3
330
1F
100
AcDbEntity
  8
PROFILEEDGES
100
AcDbPolyline
 90
        2
 70
     0
 43
1.492365448374351
 10
27.25073106359434
 20
-2.914618039011156
 10
27.95003402112671
 20
-1.226351354728787
  0
LWPOLYLINE
  5
C4
330
1F
100
AcDbEntity
  8
PROFILEEDGES
100
AcDbPolyline
 90
        2
 70
     0
 43
1.492365448374351
 10
27.0122118476178
 20
-4.726351354728713
 10
27.25073106359434
 20
-2.914618039011156
  0
LWPOLYLINE
  5
C5
330
1F
100
AcDbEntity
  8
PROFILEEDGES
100
AcDbPolyline
 90
        2
 70
     0
 43
1.492365448374351
 10
27.25073106359434
 20
-6.538084670446452
 10
27.0122118476178
 20
-4.726351354728713
  0
LWPOLYLINE
  5
C6
330
1F
100
AcDbEntity
  8
PROFILEEDGES
100
AcDbPolyline
 90
        2
 70
     0
 43
1.492365448374351
 10
27.95003402112671
 20
-8.22635135472882
 10
27.25073106359434
 20
-6.538084670446452
  0
LWPOLYLINE
  5
C7
330
1F
100
AcDbEntity
  8
PROFILEEDGES
100
AcDbPolyline
 90
        2
 70
     0
 43
1.492365448374351
 10
29.06246437931194
 20
-9.676098823034604
 10
27.95003402112671
 20
-8.22635135472882
  0
LWPOLYLINE
  5
C8
330
1F
100
AcDbEntity
  8
PROFILEEDGES
100
AcDbPolyline
 90
        2
 70
     0
 43
1.492365448374351
 10
30.51221184761782
 20
-10.78852918121979
 10
29.06246437931194
 20
-9.676098823034604
  0
LWPOLYLINE
  5
C9
330
1F
100
AcDbEntity
  8
PROFILEEDGES
100
AcDbPolyline
 90
        2
 70
     0
 43
1.492365448374351
 10
34.01221184761779
 20
-11.72635135472875
 10
32.20047853190014
 20
-11.48783213875225
  0
LWPOLYLINE
  5
CA
330
1F
100
AcDbEntity
  8
PROFILEEDGES
100
AcDbPolyline
 90
        2
 70
     0
 43
1.492365448374351
 10
39.01053873642913
 20
-75.22635135472883
 10
39.01053873642913
 20
-11.72635135472875
  0
LWPOLYLINE
  5
CB
330
1F
100
AcDbEntity
  8
PROFILEEDGES
100
AcDbPolyline
 90
        2
 70
     0
 43
1.492365448374351
 10
34.01221184761779
 20
-75.22635135472883
 10
39.01053873642913
 20
-75.22635135472883
  0
LWPOLYLINE
  5
CC
330
1F
100
AcDbEntity
  8
PROFILEEDGES
100
AcDbPolyline
 90
        2
 70
     0
 43
1.492365448374351
 10
32.20047853190014
 20
-75.46487057070541
 10
34.01221184761779
 20
-75.22635135472883
  0
LWPOLYLINE
  5
CD
330
1F
100
AcDbEntity
  8
PROFILEEDGES
100
AcDbPolyline
 90
        2
 70
     0
 43
1.492365448374351
 10
29.06246437931194
 20
-77.27660388642298
 10
30.51221184761782
 20
-76.1641735282377
  0
LWPOLYLINE
  5
CE
330
1F
100
AcDbEntity
  8
PROFILEEDGES
100
AcDbPolyline
 90
        2
 70
     0
 43
1.492365448374351
 10
27.95003402112671
 20
-78.72635135472885
 10
29.06246437931194
 20
-77.27660388642298
  0
LWPOLYLINE
  5
CF
330
1F
100
AcDbEntity
  8
PROFILEEDGES
100
AcDbPolyline
 90
        2
 70
     0
 43
1.492365448374351
 10
27.25073106359434
 20
-80.41461803901117
 10
27.95003402112671
 20
-78.72635135472885
  0
LWPOLYLINE
  5
D0
330
1F
100
AcDbEntity
  8
PROFILEEDGES
100
AcDbPolyline
 90
        2
 70
     0
 43
1.492365448374351
 10
27.0122118476178
 20
-82.22635135472882
 10
27.25073106359434
 20
-80.41461803901117
  0
LWPOLYLINE
  5
D1
330
1F
100
AcDbEntity
  8
PROFILEEDGES
100
AcDbPolyline
 90
        2
 70
     0
 43
1.492365448374351
 10
27.25073106359434
 20
-84.03808467044647
 10
27.0122118476178
 20
-82.22635135472882
  0
LWPOLYLINE
  5
D2
330
1F
100
AcDbEntity
  8
PROFILEEDGES
100
AcDbPolyline
 90
        2
 70
     0
 43
1.492365448374351
 10
27.95003402112671
 20
-85.72635135472883
 10
27.25073106359434
 20
-84.03808467044647
  0
LWPOLYLINE
  5
D3
330
1F
100
AcDbEntity
  8
PROFILEEDGES
100
AcDbPolyline
 90
        2
 70
     0
 43
1.492365448374351
 10
29.06246437931194
 20
-87.17609882303466
 10
27.95003402112671
 20
-85.72635135472883
  0
LWPOLYLINE
  5
D4
330
1F
100
AcDbEntity
  8
PROFILEEDGES
100
AcDbPolyline
 90
        2
 70
     0
 43
1.492365448374351
 10
30.51221184761782
 20
-88.2885291812199
 10
29.06246437931194
 20
-87.17609882303466
  0
LWPOLYLINE
  5
D5
330
1F
100
AcDbEntity
  8
PROFILEEDGES
100
AcDbPolyline
 90
        2
 70
     0
 43
1.492365448374351
 10
34.01221184761779
 20
-89.2263513547288
 10
32.20047853190014
 20
-88.98783213875227
  0
LWPOLYLINE
  5
D6
330
1F
100
AcDbEntity
  8
PROFILEEDGES
100
AcDbPolyline
 90
        2
 70
     0
 43
1.492365448374351
 10
39.01053873642913
 20
-152.7263513547288
 10
39.01053873642913
 20
-89.22635135472882
  0
LWPOLYLINE
  5
D7
330
1F
100
AcDbEntity
  8
PROFILEEDGES
100
AcDbPolyline
 90
        2
 70
     0
 43
1.492365448374351
 10
34.01221184761779
 20
-152.7263513547288
 10
39.01053873642913
 20
-152.7263513547288
  0
LWPOLYLINE
  5
D8
330
1F
100
AcDbEntity
  8
PROFILEEDGES
100
AcDbPolyline
 90
        2
 70
     0
 43
1.492365448374351
 10
32.20047853190014
 20
-152.9648705707054
 10
34.01221184761779
 20
-152.7263513547288
  0
LWPOLYLINE
  5
D9
330
1F
100
AcDbEntity
  8
PROFILEEDGES
100
AcDbPolyline
 90
        2
 70
     0
 43
1.492365448374351
 10
29.06246437931194
 20
-154.776603886423
 10
30.51221184761782
 20
-153.6641735282378
  0
LWPOLYLINE
  5
DA
330
1F
100
AcDbEntity
  8
PROFILEEDGES
100
AcDbPolyline
 90
        2
 70
     0
 43
1.492365448374351
 10
27.95003402112671
 20
-156.2263513547289
 10
29.06246437931194
 20
-154.776603886423
  0
LWPOLYLINE
  5
DB
330
1F
100
AcDbEntity
  8
PROFILEEDGES
100
AcDbPolyline
 90
        2
 70
     0
 43
1.492365448374351
 10
27.25073106359434
 20
-157.9146180390112
 10
27.95003402112671
 20
-156.2263513547289
  0
LWPOLYLINE
  5
DC
330
1F
100
AcDbEntity
  8
PROFILEEDGES
100
AcDbPolyline
 90
        2
 70
     0
 43
1.492365448374351
 10
27.0122118476178
 20
-159.7263513547288
 10
27.25073106359434
 20
-157.9146180390112
  0
LWPOLYLINE
  5
DD
330
1F
100
AcDbEntity
  8
PROFILEEDGES
100
AcDbPolyline
 90
        2
 70
     0
 43
1.492365448374351
 10
27.25073106359434
 20
-161.5380846704465
 10
27.0122118476178
 20
-159.7263513547288
  0
LWPOLYLINE
  5
DE
330
1F
100
AcDbEntity
  8
PROFILEEDGES
100
AcDbPolyline
 90
        2
 70
     0
 43
1.492365448374351
 10
27.95003402112671
 20
-163.2263513547288
 10
27.25073106359434
 20
-161.5380846704465
  0
LWPOLYLINE
  5
DF
330
1F
100
AcDbEntity
  8
PROFILEEDGES
100
AcDbPolyline
 90
        2
 70
     0
 43
1.492365448374351
 10
29.06246437931194
 20
-164.6760988230347
 10
27.95003402112671
 20
-163.2263513547288
  0
LWPOLYLINE
  5
E0
330
1F
100
AcDbEntity
  8
PROFILEEDGES
100
AcDbPolyline
 90
        2
 70
     0
 43
1.492365448374351
 10
30.51221184761782
 20
-165.7885291812199
 10
29.06246437931194
 20
-164.6760988230347
  0
LWPOLYLINE
  5
E1
330
1F
100
AcDbEntity
  8
PROFILEEDGES
100
AcDbPolyline
 90
        2
 70
     0
 43
1.492365448374351
 10
34.01221184761779
 20
-166.7263513547288
 10
32.20047853190014
 20
-166.4878321387523
  0
LWPOLYLINE
  5
E2
330
1F
100
AcDbEntity
  8
PROFILEEDGES
100
AcDbPolyline
 90
        2
 70
     0
 43
1.492365448374351
 10
35.01053873642913
 20
-198.4763513547288
 10
39.01053873642913
 20
-198.4763513547288
  0
LWPOLYLINE
  5
E3
330
1F
100
AcDbEntity
  8
PROFILEEDGES
100
AcDbPolyline
 90
        2
 70
     0
 43
1.492365448374351
 10
18.43375087853528
 20
-158.5263513547288
 10
18.19398986452412
 20
-159.1051856464827
  0
LWPOLYLINE
  5
E4
330
1F
100
AcDbEntity
  8
PROFILEEDGES
100
AcDbPolyline
 90
        2
 70
     0
 43
1.492365448374351
 10
22.20926812246547
 20
-158.0292950798811
 10
21.71221184761788
 20
-157.6478903856462
  0
LWPOLYLINE
  5
E5
330
1F
100
AcDbEntity
  8
PROFILEEDGES
100
AcDbPolyline
 90
        2
 70
     0
 43
1.492365448374351
 10
21.13337755586396
 20
-162.0445733378226
 10
21.71221184761788
 20
-161.8048123238114
  0
LWPOLYLINE
  5
E6
330
1F
100
AcDbEntity
  8
PROFILEEDGES
100
AcDbPolyline
 90
        2
 70
     0
 43
1.492365448374351
 10
35.01053873642913
 20
-198.4763513547288
 10
35.01053873642913
 20
-202.4763513547288
  0
LWPOLYLINE
  5
E7
330
1F
100
AcDbEntity
  8
PROFILEEDGES
100
AcDbPolyline
 90
        2
 70
     0
 43
1.492365448374351
 10
21.13337755586392
 20
-84.54457333782258
 10
20.51221184761783
 20
-84.62635135472881
  0
LWPOLYLINE
  5
E8
330
1F
100
AcDbEntity
  8
PROFILEEDGES
100
AcDbPolyline
 90
        2
 70
     0
 43
1.492365448374351
 10
21.71221184761788
 20
-161.8048123238114
 10
22.20926812246547
 20
-161.4234076295766
  0
LWPOLYLINE
  5
E9
330
1F
100
AcDbEntity
  8
PROFILEEDGES
100
AcDbPolyline
 90
        2
 70
     0
 43
1.492365448374351
 10
19.31221184761788
 20
-157.6478903856461
 10
18.81515557277011
 20
-158.0292950798811
  0
LWPOLYLINE
  5
EA
330
1F
100
AcDbEntity
  8
PROFILEEDGES
100
AcDbPolyline
 90
        2
 70
     0
 43
1.492365448374351
 10
18.1122118476178
 20
-159.7263513547288
 10
18.19398986452398
 20
-160.3475170629749
  0
LWPOLYLINE
  5
EB
330
1F
100
AcDbEntity
  8
PROFILEEDGES
100
AcDbPolyline
 90
        2
 70
     0
 43
1.492365448374351
 10
34.01221184761779
 20
65.77364864527127
 10
39.01053873642913
 20
65.77364864527127
  0
LWPOLYLINE
  5
EC
330
1F
100
AcDbEntity
  8
PROFILEEDGES
100
AcDbPolyline
 90
        2
 70
     0
 43
1.492365448374351
 10
18.19398986452398
 20
-160.3475170629749
 10
18.43375087853514
 20
-160.9263513547289
  0
LWPOLYLINE
  5
ED
330
1F
100
AcDbEntity
  8
PROFILEEDGES
100
AcDbPolyline
 90
        2
 70
     0
 43
1.492365448374351
 10
22.59067281670039
 20
-158.5263513547288
 10
22.83043383071151
 20
-159.1051856464828
  0
LWPOLYLINE
  5
EE
330
1F
100
AcDbEntity
  8
PROFILEEDGES
100
AcDbPolyline
 90
        2
 70
     0
 43
1.492365448374351
 10
22.59067281670044
 20
-160.9263513547289
 10
22.8304338307116
 20
-160.3475170629749
  0
LWPOLYLINE
  5
EF
330
1F
100
AcDbEntity
  8
PROFILEEDGES
100
AcDbPolyline
 90
        2
 70
     0
 43
1.492365448374351
 10
19.89104613937184
 20
-162.0445733378226
 10
19.31221184761788
 20
-161.8048123238115
  0
LWPOLYLINE
  5
F0
330
1F
100
AcDbEntity
  8
PROFILEEDGES
100
AcDbPolyline
 90
        2
 70
     0
 43
1.492365448374351
 10
20.51221184761783
 20
-162.1263513547288
 10
21.13337755586396
 20
-162.0445733378226
  0
LWPOLYLINE
  5
F1
330
1F
100
AcDbEntity
  8
PROFILEEDGES
100
AcDbPolyline
 90
        2
 70
     0
 43
1.492365448374351
 10
-1.489461263570865
 20
-180.4763513547288
 10
-5.489461263570858
 20
-180.4763513547288
  0
LWPOLYLINE
  5
F2
330
1F
100
AcDbEntity
  8
PROFILEEDGES
100
AcDbPolyline
 90
        2
 70
     0
 43
1.492365448374351
 10
22.59067281670039
 20
-83.42635135472882
 10
22.20926812246561
 20
-83.92340762957642
  0
LWPOLYLINE
  5
F3
330
1F
100
AcDbEntity
  8
PROFILEEDGES
100
AcDbPolyline
 90
        2
 70
     0
 43
1.492365448374351
 10
19.8910461393718
 20
-79.90812937163501
 10
20.51221184761783
 20
-79.82635135472887
  0
LWPOLYLINE
  5
F4
330
1F
100
AcDbEntity
  8
PROFILEEDGES
100
AcDbPolyline
 90
        2
 70
     0
 43
1.492365448374351
 10
20.51221184761783
 20
-84.62635135472881
 10
19.89104613937175
 20
-84.54457333782263
  0
LWPOLYLINE
  5
F5
330
1F
100
AcDbEntity
  8
PROFILEEDGES
100
AcDbPolyline
 90
        2
 70
     0
 43
1.492365448374351
 10
18.19398986452403
 20
-81.6051856464827
 10
18.43375087853528
 20
-81.02635135472877
  0
LWPOLYLINE
  5
F6
330
1F
100
AcDbEntity
  8
PROFILEEDGES
100
AcDbPolyline
 90
        2
 70
     0
 43
1.492365448374351
 10
18.11221184761775
 20
-4.726351354728849
 10
18.19398986452403
 20
-4.105185646482677
  0
LWPOLYLINE
  5
F7
330
1F
100
AcDbEntity
  8
PROFILEEDGES
100
AcDbPolyline
 90
        2
 70
     0
 43
1.492365448374351
 10
22.20926812246552
 20
-80.52929507988122
 10
22.59067281670039
 20
-81.02635135472877
  0
LWPOLYLINE
  5
F8
330
1F
100
AcDbEntity
  8
PROFILEEDGES
100
AcDbPolyline
 90
        2
 70
     0
 43
1.492365448374351
 10
18.43375087853528
 20
-3.526351354728806
 10
18.81515557277006
 20
-3.029295079881122
  0
LWPOLYLINE
  5
F9
330
1F
100
AcDbEntity
  8
PROFILEEDGES
100
AcDbPolyline
 90
        2
 70
     0
 43
1.492365448374351
 10
22.59067281670039
 20
-81.02635135472877
 10
22.83043383071156
 20
-81.60518564648274
  0
LWPOLYLINE
  5
FA
330
1F
100
AcDbEntity
  8
PROFILEEDGES
100
AcDbPolyline
 90
        2
 70
     0
 43
1.492365448374351
 10
22.91221184761774
 20
-159.7263513547288
 10
22.83043383071151
 20
-159.1051856464828
  0
LWPOLYLINE
  5
FB
330
1F
100
AcDbEntity
  8
PROFILEEDGES
100
AcDbPolyline
 90
        2
 70
     0
 43
1.492365448374351
 10
18.81515557277015
 20
-83.9234076295765
 10
18.43375087853528
 20
-83.42635135472877
  0
LWPOLYLINE
  5
FC
330
1F
100
AcDbEntity
  8
PROFILEEDGES
100
AcDbPolyline
 90
        2
 70
     0
 43
1.492365448374351
 10
22.83043383071156
 20
-81.60518564648274
 10
22.91221184761788
 20
-82.22635135472886
  0
LWPOLYLINE
  5
FD
330
1F
100
AcDbEntity
  8
PROFILEEDGES
100
AcDbPolyline
 90
        2
 70
     0
 43
1.492365448374351
 10
19.8910461393718
 20
-2.40812937163504
 10
20.51221184761783
 20
-2.326351354728853
  0
LWPOLYLINE
  5
FE
330
1F
100
AcDbEntity
  8
PROFILEEDGES
100
AcDbPolyline
 90
        2
 70
     0
 43
1.492365448374351
 10
18.1122118476178
 20
-82.22635135472886
 10
18.19398986452403
 20
-81.6051856464827
  0
LWPOLYLINE
  5
FF
330
1F
100
AcDbEntity
  8
PROFILEEDGES
100
AcDbPolyline
 90
        2
 70
     0
 43
1.492365448374351
 10
22.59067281670039
 20
-158.5263513547288
 10
22.20926812246547
 20
-158.0292950798811
  0
LWPOLYLINE
  5
100
330
1F
100
AcDbEntity
  8
PROFILEEDGES
100
AcDbPolyline
 90
        2
 70
     0
 43
1.492365448374351
 10
18.81515557277011
 20
-80.52929507988105
 10
19.31221184761788
 20
-80.14789038564608
  0
LWPOLYLINE
  5
101
330
1F
100
AcDbEntity
  8
PROFILEEDGES
100
AcDbPolyline
 90
        2
 70
     0
 43
1.492365448374351
 10
20.51221184761783
 20
-162.1263513547288
 10
19.89104613937184
 20
-162.0445733378226
  0
LWPOLYLINE
  5
102
330
1F
100
AcDbEntity
  8
PROFILEEDGES
100
AcDbPolyline
 90
        2
 70
     0
 43
1.492365448374351
 10
20.51221184761783
 20
-7.126351354728799
 10
19.89104613937175
 20
-7.044573337822612
  0
LWPOLYLINE
  5
103
330
1F
100
AcDbEntity
  8
PROFILEEDGES
100
AcDbPolyline
 90
        2
 70
     0
 43
1.492365448374351
 10
19.89104613937175
 20
-84.54457333782263
 10
19.31221184761784
 20
-84.3048123238116
  0
LWPOLYLINE
  5
104
330
1F
100
AcDbEntity
  8
PROFILEEDGES
100
AcDbPolyline
 90
        2
 70
     0
 43
1.492365448374351
 10
22.91221184761774
 20
-159.7263513547288
 10
22.8304338307116
 20
-160.3475170629749
  0
LWPOLYLINE
  5
105
330
1F
100
AcDbEntity
  8
PROFILEEDGES
100
AcDbPolyline
 90
        2
 70
     0
 43
1.492365448374351
 10
18.19398986452412
 20
-159.1051856464827
 10
18.1122118476178
 20
-159.7263513547288
  0
LWPOLYLINE
  5
106
330
1F
100
AcDbEntity
  8
PROFILEEDGES
100
AcDbPolyline
 90
        2
 70
     0
 43
1.492365448374351
 10
18.43375087853519
 20
-5.926351354728847
 10
18.19398986452398
 20
-5.347517062974886
  0
LWPOLYLINE
  5
107
330
1F
100
AcDbEntity
  8
PROFILEEDGES
100
AcDbPolyline
 90
        2
 70
     0
 43
1.492365448374351
 10
18.81515557277011
 20
-6.423407629576531
 10
18.43375087853519
 20
-5.926351354728847
  0
LWPOLYLINE
  5
108
330
1F
100
AcDbEntity
  8
PROFILEEDGES
100
AcDbPolyline
 90
        2
 70
     0
 43
1.492365448374351
 10
18.19398986452403
 20
-4.105185646482677
 10
18.43375087853528
 20
-3.526351354728806
  0
LWPOLYLINE
  5
109
330
1F
100
AcDbEntity
  8
PROFILEEDGES
100
AcDbPolyline
 90
        2
 70
     0
 43
1.492365448374351
 10
19.31221184761784
 20
-84.3048123238116
 10
18.81515557277015
 20
-83.9234076295765
  0
LWPOLYLINE
  5
10A
330
1F
100
AcDbEntity
  8
PROFILEEDGES
100
AcDbPolyline
 90
        2
 70
     0
 43
1.492365448374351
 10
18.43375087853528
 20
-83.42635135472877
 10
18.19398986452403
 20
-82.8475170629749
  0
LWPOLYLINE
  5
10B
330
1F
100
AcDbEntity
  8
PROFILEEDGES
100
AcDbPolyline
 90
        2
 70
     0
 43
1.492365448374351
 10
22.83043383071156
 20
-4.105185646482767
 10
22.91221184761783
 20
-4.726351354728849
  0
LWPOLYLINE
  5
10C
330
1F
100
AcDbEntity
  8
PROFILEEDGES
100
AcDbPolyline
 90
        2
 70
     0
 43
1.492365448374351
 10
19.31221184761788
 20
-80.14789038564608
 10
19.8910461393718
 20
-79.90812937163501
  0
LWPOLYLINE
  5
10D
330
1F
100
AcDbEntity
  8
PROFILEEDGES
100
AcDbPolyline
 90
        2
 70
     0
 43
1.492365448374351
 10
22.91221184761788
 20
-82.22635135472886
 10
22.83043383071164
 20
-82.84751706297482
  0
LWPOLYLINE
  5
10E
330
1F
100
AcDbEntity
  8
PROFILEEDGES
100
AcDbPolyline
 90
        2
 70
     0
 43
1.492365448374351
 10
-21.9894612635709
 20
115.5236486452712
 10
-11.98946126357091
 20
115.5236486452712
  0
LWPOLYLINE
  5
10F
330
1F
100
AcDbEntity
  8
PROFILEEDGES
100
AcDbPolyline
 90
        2
 70
     0
 43
1.492365448374351
 10
22.20926812246561
 20
-83.92340762957642
 10
21.71221184761788
 20
-84.30481232381142
  0
LWPOLYLINE
  5
110
330
1F
100
AcDbEntity
  8
PROFILEEDGES
100
AcDbPolyline
 90
        2
 70
     0
 43
1.492365448374351
 10
22.83043383071164
 20
-82.84751706297482
 10
22.59067281670039
 20
-83.42635135472882
  0
LWPOLYLINE
  5
111
330
1F
100
AcDbEntity
  8
PROFILEEDGES
100
AcDbPolyline
 90
        2
 70
     0
 43
1.492365448374351
 10
18.43375087853528
 20
-81.02635135472877
 10
18.81515557277011
 20
-80.52929507988105
  0
LWPOLYLINE
  5
112
330
1F
100
AcDbEntity
  8
PROFILEEDGES
100
AcDbPolyline
 90
        2
 70
     0
 43
1.492365448374351
 10
20.51221184761783
 20
-79.82635135472887
 10
21.13337755586392
 20
-79.9081293716351
  0
LWPOLYLINE
  5
113
330
1F
100
AcDbEntity
  8
PROFILEEDGES
100
AcDbPolyline
 90
        2
 70
     0
 43
1.492365448374351
 10
21.71221184761788
 20
-84.30481232381142
 10
21.13337755586392
 20
-84.54457333782258
  0
LWPOLYLINE
  5
114
330
1F
100
AcDbEntity
  8
PROFILEEDGES
100
AcDbPolyline
 90
        2
 70
     0
 43
1.492365448374351
 10
-5.489461263570678
 20
111.5236486452712
 10
-5.489461263570678
 20
101.5236486452713
  0
LWPOLYLINE
  5
115
330
1F
100
AcDbEntity
  8
PROFILEEDGES
100
AcDbPolyline
 90
        2
 70
     0
 43
1.492365448374351
 10
-5.489461263570678
 20
101.5236486452713
 10
-6.989461263570788
 20
101.5236486452711
  0
LWPOLYLINE
  5
116
330
1F
100
AcDbEntity
  8
PROFILEEDGES
100
AcDbPolyline
 90
        2
 70
     0
 43
1.492365448374351
 10
21.71221184761788
 20
-80.14789038564635
 10
22.20926812246552
 20
-80.52929507988122
  0
LWPOLYLINE
  5
117
330
1F
100
AcDbEntity
  8
PROFILEEDGES
100
AcDbPolyline
 90
        2
 70
     0
 43
1.492365448374351
 10
-6.989461263570788
 20
101.5236486452711
 10
-6.989461263570968
 20
97.5236486452711
  0
LWPOLYLINE
  5
118
330
1F
100
AcDbEntity
  8
PROFILEEDGES
100
AcDbPolyline
 90
        2
 70
     0
 43
1.492365448374351
 10
-6.989461263570968
 20
97.5236486452711
 10
-5.489461263570767
 20
97.52364864527127
  0
LWPOLYLINE
  5
119
330
1F
100
AcDbEntity
  8
PROFILEEDGES
100
AcDbPolyline
 90
        2
 70
     0
 43
1.492365448374351
 10
20.51221184761783
 20
-157.3263513547288
 10
19.89104613937175
 20
-157.408129371635
  0
LWPOLYLINE
  5
11A
330
1F
100
AcDbEntity
  8
PROFILEEDGES
100
AcDbPolyline
 90
        2
 70
     0
 43
1.492365448374351
 10
25.01053873642915
 20
-202.4763513547288
 10
25.01053873642915
 20
-198.4763513547288
  0
LWPOLYLINE
  5
11B
330
1F
100
AcDbEntity
  8
PROFILEEDGES
100
AcDbPolyline
 90
        2
 70
     0
 43
1.492365448374351
 10
-1.489461263570865
 20
-184.4763513547288
 10
-1.489461263570865
 20
-180.4763513547288
  0
LWPOLYLINE
  5
11C
330
1F
100
AcDbEntity
  8
PROFILEEDGES
100
AcDbPolyline
 90
        2
 70
     0
 43
1.492365448374351
 10
18.43375087853514
 20
-160.9263513547289
 10
18.81515557277011
 20
-161.4234076295765
  0
LWPOLYLINE
  5
11D
330
1F
100
AcDbEntity
  8
PROFILEEDGES
100
AcDbPolyline
 90
        2
 70
     0
 43
1.492365448374351
 10
-5.489461263570767
 20
97.52364864527127
 10
-5.489461263571129
 20
93.52364864527128
  0
LWPOLYLINE
  5
11E
330
1F
100
AcDbEntity
  8
PROFILEEDGES
100
AcDbPolyline
 90
        2
 70
     0
 43
1.492365448374351
 10
-5.489461263571129
 20
93.52364864527128
 10
-1.489461263570775
 20
93.52364864527128
  0
LWPOLYLINE
  5
11F
330
1F
100
AcDbEntity
  8
PROFILEEDGES
100
AcDbPolyline
 90
        2
 70
     0
 43
1.492365448374351
 10
18.81515557277011
 20
-158.0292950798811
 10
18.43375087853528
 20
-158.5263513547288
  0
LWPOLYLINE
  5
120
330
1F
100
AcDbEntity
  8
PROFILEEDGES
100
AcDbPolyline
 90
        2
 70
     0
 43
1.492365448374351
 10
-1.489461263570775
 20
93.52364864527128
 10
-1.489461263570865
 20
97.52364864527127
  0
LWPOLYLINE
  5
121
330
1F
100
AcDbEntity
  8
PROFILEEDGES
100
AcDbPolyline
 90
        2
 70
     0
 43
1.492365448374351
 10
25.01053873642915
 20
111.5236486452712
 10
25.01053873642915
 20
115.5236486452712
  0
LWPOLYLINE
  5
122
330
1F
100
AcDbEntity
  8
PROFILEEDGES
100
AcDbPolyline
 90
        2
 70
     0
 43
1.492365448374351
 10
25.01053873642915
 20
115.5236486452712
 10
35.01053873642913
 20
115.5236486452712
  0
LWPOLYLINE
  5
123
330
1F
100
AcDbEntity
  8
PROFILEEDGES
100
AcDbPolyline
 90
        2
 70
     0
 43
1.492365448374351
 10
21.13337755586392
 20
-2.408129371635085
 10
21.71221184761788
 20
-2.64789038564638
  0
LWPOLYLINE
  5
124
330
1F
100
AcDbEntity
  8
PROFILEEDGES
100
AcDbPolyline
 90
        2
 70
     0
 43
1.492365448374351
 10
22.91221184761783
 20
-4.726351354728849
 10
22.83043383071164
 20
-5.347517062974886
  0
LWPOLYLINE
  5
125
330
1F
100
AcDbEntity
  8
PROFILEEDGES
100
AcDbPolyline
 90
        2
 70
     0
 43
1.492365448374351
 10
19.31221184761797
 20
-2.647890385646109
 10
19.8910461393718
 20
-2.40812937163504
  0
LWPOLYLINE
  5
126
330
1F
100
AcDbEntity
  8
PROFILEEDGES
100
AcDbPolyline
 90
        2
 70
     0
 43
1.492365448374351
 10
21.13337755586392
 20
-79.9081293716351
 10
21.71221184761788
 20
-80.14789038564635
  0
LWPOLYLINE
  5
127
330
1F
100
AcDbEntity
  8
PROFILEEDGES
100
AcDbPolyline
 90
        2
 70
     0
 43
1.492365448374351
 10
18.19398986452403
 20
-82.8475170629749
 10
18.1122118476178
 20
-82.22635135472886
  0
LWPOLYLINE
  5
128
330
1F
100
AcDbEntity
  8
PROFILEEDGES
100
AcDbPolyline
 90
        2
 70
     0
 43
1.492365448374351
 10
19.31221184761788
 20
-161.8048123238115
 10
18.81515557277011
 20
-161.4234076295765
  0
LWPOLYLINE
  5
129
330
1F
100
AcDbEntity
  8
PROFILEEDGES
100
AcDbPolyline
 90
        2
 70
     0
 43
1.492365448374351
 10
18.81515557277006
 20
-3.029295079881122
 10
19.31221184761797
 20
-2.647890385646109
  0
LWPOLYLINE
  5
12A
330
1F
100
AcDbEntity
  8
PROFILEEDGES
100
AcDbPolyline
 90
        2
 70
     0
 43
1.492365448374351
 10
22.20926812246552
 20
-3.029295079881257
 10
22.59067281670039
 20
-3.526351354728806
  0
LWPOLYLINE
  5
12B
330
1F
100
AcDbEntity
  8
PROFILEEDGES
100
AcDbPolyline
 90
        2
 70
     0
 43
1.492365448374351
 10
21.13337755586396
 20
-157.4081293716351
 10
20.51221184761783
 20
-157.3263513547288
  0
LWPOLYLINE
  5
12C
330
1F
100
AcDbEntity
  8
PROFILEEDGES
100
AcDbPolyline
 90
        2
 70
     0
 43
1.492365448374351
 10
21.71221184761788
 20
-157.6478903856462
 10
21.13337755586396
 20
-157.4081293716351
  0
LWPOLYLINE
  5
12D
330
1F
100
AcDbEntity
  8
PROFILEEDGES
100
AcDbPolyline
 90
        2
 70
     0
 43
1.492365448374351
 10
-1.489461263570865
 20
97.52364864527127
 10
0.0105387364292447
 20
97.5236486452711
  0
LWPOLYLINE
  5
12E
330
1F
100
AcDbEntity
  8
PROFILEEDGES
100
AcDbPolyline
 90
        2
 70
     0
 43
1.492365448374351
 10
0.0105387364292447
 20
97.5236486452711
 10
0.0105387364290642
 20
101.5236486452711
  0
LWPOLYLINE
  5
12F
330
1F
100
AcDbEntity
  8
PROFILEEDGES
100
AcDbPolyline
 90
        2
 70
     0
 43
1.492365448374351
 10
22.20926812246547
 20
-161.4234076295766
 10
22.59067281670044
 20
-160.9263513547289
  0
LWPOLYLINE
  5
130
330
1F
100
AcDbEntity
  8
PROFILEEDGES
100
AcDbPolyline
 90
        2
 70
     0
 43
1.492365448374351
 10
19.31221184761788
 20
-157.6478903856461
 10
19.89104613937175
 20
-157.408129371635
  0
LWPOLYLINE
  5
131
330
1F
100
AcDbEntity
  8
PROFILEEDGES
100
AcDbPolyline
 90
        2
 70
     0
 43
1.492365448374351
 10
35.01053873642913
 20
-202.4763513547288
 10
25.01053873642915
 20
-202.4763513547288
  0
LWPOLYLINE
  5
132
330
1F
100
AcDbEntity
  8
PROFILEEDGES
100
AcDbPolyline
 90
        2
 70
     0
 43
1.492365448374351
 10
0.0105387364291545
 20
-184.4763513547288
 10
-1.489461263570865
 20
-184.4763513547288
  0
LWPOLYLINE
  5
133
330
1F
100
AcDbEntity
  8
PROFILEEDGES
100
AcDbPolyline
 90
        2
 70
     0
 43
1.492365448374351
 10
0.0105387364291545
 20
-188.4763513547288
 10
0.0105387364291545
 20
-184.4763513547288
  0
LWPOLYLINE
  5
134
330
1F
100
AcDbEntity
  8
PROFILEEDGES
100
AcDbPolyline
 90
        2
 70
     0
 43
1.492365448374351
 10
-1.489461263570865
 20
-188.4763513547288
 10
0.0105387364291545
 20
-188.4763513547288
  0
LWPOLYLINE
  5
135
330
1F
100
AcDbEntity
  8
PROFILEEDGES
100
AcDbPolyline
 90
        2
 70
     0
 43
1.492365448374351
 10
-1.489461263570865
 20
-198.4763513547288
 10
-1.489461263570865
 20
-188.4763513547288
  0
LWPOLYLINE
  5
136
330
1F
100
AcDbEntity
  8
PROFILEEDGES
100
AcDbPolyline
 90
        2
 70
     0
 43
1.492365448374351
 10
22.59067281670039
 20
-3.526351354728806
 10
22.83043383071156
 20
-4.105185646482767
  0
LWPOLYLINE
  5
137
330
1F
100
AcDbEntity
  8
PROFILEEDGES
100
AcDbPolyline
 90
        2
 70
     0
 43
1.492365448374351
 10
21.71221184761788
 20
-2.64789038564638
 10
22.20926812246552
 20
-3.029295079881257
  0
LWPOLYLINE
  5
138
330
1F
100
AcDbEntity
  8
PROFILEEDGES
100
AcDbPolyline
 90
        2
 70
     0
 43
1.492365448374351
 10
22.83043383071164
 20
-5.347517062974886
 10
22.59067281670044
 20
-5.926351354728847
  0
LWPOLYLINE
  5
139
330
1F
100
AcDbEntity
  8
PROFILEEDGES
100
AcDbPolyline
 90
        2
 70
     0
 43
1.492365448374351
 10
20.51221184761783
 20
-2.326351354728853
 10
21.13337755586392
 20
-2.408129371635085
  0
LWPOLYLINE
  5
13A
330
1F
100
AcDbEntity
  8
PROFILEEDGES
100
AcDbPolyline
 90
        2
 70
     0
 43
1.492365448374351
 10
18.19398986452398
 20
-5.347517062974886
 10
18.11221184761775
 20
-4.726351354728849
  0
LWPOLYLINE
  5
13B
330
1F
100
AcDbEntity
  8
PROFILEEDGES
100
AcDbPolyline
 90
        2
 70
     0
 43
1.492365448374351
 10
22.59067281670044
 20
-5.926351354728847
 10
22.20926812246561
 20
-6.423407629576486
  0
LWPOLYLINE
  5
13C
330
1F
100
AcDbEntity
  8
PROFILEEDGES
100
AcDbPolyline
 90
        2
 70
     0
 43
1.492365448374351
 10
22.20926812246561
 20
-6.423407629576486
 10
21.71221184761788
 20
-6.804812323811453
  0
LWPOLYLINE
  5
13D
330
1F
100
AcDbEntity
  8
PROFILEEDGES
100
AcDbPolyline
 90
        2
 70
     0
 43
1.492365448374351
 10
21.71221184761788
 20
-6.804812323811453
 10
21.13337755586392
 20
-7.044573337822568
  0
LWPOLYLINE
  5
13E
330
1F
100
AcDbEntity
  8
PROFILEEDGES
100
AcDbPolyline
 90
        2
 70
     0
 43
1.492365448374351
 10
21.13337755586392
 20
-7.044573337822568
 10
20.51221184761783
 20
-7.126351354728799
  0
LWPOLYLINE
  5
13F
330
1F
100
AcDbEntity
  8
PROFILEEDGES
100
AcDbPolyline
 90
        2
 70
     0
 43
1.492365448374351
 10
34.01221184761779
 20
-166.7263513547288
 10
39.01053873642913
 20
-166.7263513547288
  0
LWPOLYLINE
  5
140
330
1F
100
AcDbEntity
  8
PROFILEEDGES
100
AcDbPolyline
 90
        2
 70
     0
 43
1.492365448374351
 10
34.01221184761779
 20
-89.2263513547288
 10
39.01053873642913
 20
-89.22635135472882
  0
LWPOLYLINE
  5
141
330
1F
100
AcDbEntity
  8
PROFILEEDGES
100
AcDbPolyline
 90
        2
 70
     0
 43
1.492365448374351
 10
34.01221184761779
 20
-11.72635135472875
 10
39.01053873642913
 20
-11.72635135472875
  0
LWPOLYLINE
  5
142
330
1F
100
AcDbEntity
  8
PROFILEEDGES
100
AcDbPolyline
 90
        2
 70
     0
 43
1.492365448374351
 10
19.89104613937175
 20
-7.044573337822612
 10
19.31221184761784
 20
-6.804812323811634
  0
LWPOLYLINE
  5
143
330
1F
100
AcDbEntity
  8
PROFILEEDGES
100
AcDbPolyline
 90
        2
 70
     0
 43
1.492365448374351
 10
21.71221184761788
 20
74.85210961435372
 10
22.20926812246561
 20
74.4707049201188
  0
LWPOLYLINE
  5
144
330
1F
100
AcDbEntity
  8
PROFILEEDGES
100
AcDbPolyline
 90
        2
 70
     0
 43
1.492365448374351
 10
22.20926812246561
 20
74.4707049201188
 10
22.59067281670035
 20
73.9736486452713
  0
LWPOLYLINE
  5
145
330
1F
100
AcDbEntity
  8
PROFILEEDGES
100
AcDbPolyline
 90
        2
 70
     0
 43
1.492365448374351
 10
22.59067281670035
 20
73.9736486452713
 10
22.83043383071156
 20
73.39481435351729
  0
LWPOLYLINE
  5
146
330
1F
100
AcDbEntity
  8
PROFILEEDGES
100
AcDbPolyline
 90
        2
 70
     0
 43
1.492365448374351
 10
22.83043383071156
 20
73.39481435351729
 10
22.91221184761783
 20
72.77364864527104
  0
LWPOLYLINE
  5
147
330
1F
100
AcDbEntity
  8
PROFILEEDGES
100
AcDbPolyline
 90
        2
 70
     0
 43
1.492365448374351
 10
22.91221184761783
 20
72.77364864527104
 10
22.83043383071164
 20
72.15248293702513
  0
LWPOLYLINE
  5
148
330
1F
100
AcDbEntity
  8
PROFILEEDGES
100
AcDbPolyline
 90
        2
 70
     0
 43
1.492365448374351
 10
22.83043383071164
 20
72.15248293702513
 10
22.59067281670044
 20
71.57364864527122
  0
LWPOLYLINE
  5
149
330
1F
100
AcDbEntity
  8
PROFILEEDGES
100
AcDbPolyline
 90
        2
 70
     0
 43
1.492365448374351
 10
22.59067281670044
 20
71.57364864527122
 10
22.20926812246561
 20
71.07659237042353
  0
LWPOLYLINE
  5
14A
330
1F
100
AcDbEntity
  8
PROFILEEDGES
100
AcDbPolyline
 90
        2
 70
     0
 43
1.492365448374351
 10
22.20926812246561
 20
71.07659237042353
 10
21.71221184761788
 20
70.69518767618852
  0
LWPOLYLINE
  5
14B
330
1F
100
AcDbEntity
  8
PROFILEEDGES
100
AcDbPolyline
 90
        2
 70
     0
 43
1.492365448374351
 10
21.71221184761788
 20
70.69518767618852
 10
21.13337755586392
 20
70.45542666217736
  0
LWPOLYLINE
  5
14C
330
1F
100
AcDbEntity
  8
PROFILEEDGES
100
AcDbPolyline
 90
        2
 70
     0
 43
1.492365448374351
 10
21.13337755586392
 20
70.45542666217736
 10
20.51221184761783
 20
70.37364864527113
  0
LWPOLYLINE
  5
14D
330
1F
100
AcDbEntity
  8
PROFILEEDGES
100
AcDbPolyline
 90
        2
 70
     0
 43
1.492365448374351
 10
20.51221184761783
 20
70.37364864527113
 10
19.89104613937175
 20
70.45542666217736
  0
LWPOLYLINE
  5
14E
330
1F
100
AcDbEntity
  8
PROFILEEDGES
100
AcDbPolyline
 90
        2
 70
     0
 43
1.492365448374351
 10
19.89104613937175
 20
70.45542666217736
 10
19.31221184761788
 20
70.69518767618834
  0
LWPOLYLINE
  5
14F
330
1F
100
AcDbEntity
  8
PROFILEEDGES
100
AcDbPolyline
 90
        2
 70
     0
 43
1.492365448374351
 10
19.31221184761788
 20
70.69518767618834
 10
18.81515557277011
 20
71.07659237042344
  0
LWPOLYLINE
  5
150
330
1F
100
AcDbEntity
  8
PROFILEEDGES
100
AcDbPolyline
 90
        2
 70
     0
 43
1.492365448374351
 10
18.81515557277011
 20
71.07659237042344
 10
18.43375087853514
 20
71.57364864527122
  0
LWPOLYLINE
  5
151
330
1F
100
AcDbEntity
  8
PROFILEEDGES
100
AcDbPolyline
 90
        2
 70
     0
 43
1.492365448374351
 10
18.43375087853514
 20
71.57364864527122
 10
18.19398986452403
 20
72.15248293702513
  0
LWPOLYLINE
  5
152
330
1F
100
AcDbEntity
  8
PROFILEEDGES
100
AcDbPolyline
 90
        2
 70
     0
 43
1.492365448374351
 10
18.19398986452403
 20
72.15248293702513
 10
18.1122118476178
 20
72.77364864527104
  0
LWPOLYLINE
  5
153
330
1F
100
AcDbEntity
  8
PROFILEEDGES
100
AcDbPolyline
 90
        2
 70
     0
 43
1.492365448374351
 10
18.1122118476178
 20
72.77364864527104
 10
18.19398986452403
 20
73.39481435351729
  0
LWPOLYLINE
  5
154
330
1F
100
AcDbEntity
  8
PROFILEEDGES
100
AcDbPolyline
 90
        2
 70
     0
 43
1.492365448374351
 10
18.19398986452403
 20
73.39481435351729
 10
18.43375087853528
 20
73.97364864527121
  0
LWPOLYLINE
  5
155
330
1F
100
AcDbEntity
  8
PROFILEEDGES
100
AcDbPolyline
 90
        2
 70
     0
 43
1.492365448374351
 10
18.43375087853528
 20
73.97364864527121
 10
18.81515557277006
 20
74.47070492011889
  0
LWPOLYLINE
  5
156
330
1F
100
AcDbEntity
  8
PROFILEEDGES
100
AcDbPolyline
 90
        2
 70
     0
 43
1.492365448374351
 10
18.81515557277006
 20
74.47070492011889
 10
19.31221184761788
 20
74.8521096143539
  0
LWPOLYLINE
  5
157
330
1F
100
AcDbEntity
  8
PROFILEEDGES
100
AcDbPolyline
 90
        2
 70
     0
 43
1.492365448374351
 10
19.8910461393718
 20
75.09187062836497
 10
19.31221184761788
 20
74.8521096143539
  0
LWPOLYLINE
  5
158
330
1F
100
AcDbEntity
  8
PROFILEEDGES
100
AcDbPolyline
 90
        2
 70
     0
 43
1.492365448374351
 10
19.8910461393718
 20
75.09187062836497
 10
20.51221184761783
 20
75.17364864527111
  0
LWPOLYLINE
  5
159
330
1F
100
AcDbEntity
  8
PROFILEEDGES
100
AcDbPolyline
 90
        2
 70
     0
 43
1.492365448374351
 10
20.51221184761783
 20
75.17364864527111
 10
21.13337755586392
 20
75.09187062836489
  0
LWPOLYLINE
  5
15A
330
1F
100
AcDbEntity
  8
PROFILEEDGES
100
AcDbPolyline
 90
        2
 70
     0
 43
1.492365448374351
 10
21.13337755586392
 20
75.09187062836489
 10
21.71221184761788
 20
74.85210961435372
  0
LWPOLYLINE
  5
15B
330
1F
100
AcDbEntity
  8
PROFILEEDGES
100
AcDbPolyline
 90
        2
 70
     0
 43
1.492365448374351
 10
101.9938560185058
 20
48.77364864527117
 10
74.99385601850578
 20
48.77364864527117
  0
LWPOLYLINE
  5
15C
330
1F
100
AcDbEntity
  8
PROFILEEDGES
100
AcDbPolyline
 90
        2
 70
     0
 43
1.492365448374351
 10
74.99385601850578
 20
48.77364864527117
 10
74.99385601850578
 20
96.77364864527117
  0
LWPOLYLINE
  5
15D
330
1F
100
AcDbEntity
  8
PROFILEEDGES
100
AcDbPolyline
 90
        2
 70
     0
 43
1.492365448374351
 10
101.9938560185058
 20
65.77364864527127
 10
101.9938560185058
 20
48.77364864527117
  0
LWPOLYLINE
  5
15E
330
1F
100
AcDbEntity
  8
PROFILEEDGES
100
AcDbPolyline
 90
        2
 70
     0
 43
1.492365448374351
 10
101.9938560185058
 20
65.77364864527127
 10
106.9921829073171
 20
65.77364864527127
  0
LWPOLYLINE
  5
15F
330
1F
100
AcDbEntity
  8
PROFILEEDGES
100
AcDbPolyline
 90
        2
 70
     0
 43
1.492365448374351
 10
60.99218290731711
 20
-188.4763513547288
 10
67.99218290731714
 20
-188.4763513547288
  0
LWPOLYLINE
  5
160
330
1F
100
AcDbEntity
  8
PROFILEEDGES
100
AcDbPolyline
 90
        2
 70
     0
 43
1.492365448374351
 10
60.99218290731711
 20
-184.4763513547288
 10
60.99218290731711
 20
-188.4763513547288
  0
LWPOLYLINE
  5
161
330
1F
100
AcDbEntity
  8
PROFILEEDGES
100
AcDbPolyline
 90
        2
 70
     0
 43
1.492365448374351
 10
55.99218290731707
 20
-202.4763513547288
 10
55.99218290731707
 20
-198.4763513547288
  0
LWPOLYLINE
  5
162
330
1F
100
AcDbEntity
  8
PROFILEEDGES
100
AcDbPolyline
 90
        2
 70
     0
 43
1.492365448374351
 10
45.99218290731709
 20
-202.4763513547288
 10
55.99218290731707
 20
-202.4763513547288
  0
LWPOLYLINE
  5
163
330
1F
100
AcDbEntity
  8
PROFILEEDGES
100
AcDbPolyline
 90
        2
 70
     0
 43
1.492365448374351
 10
45.99218290731709
 20
-198.4763513547288
 10
45.99218290731709
 20
-202.4763513547288
  0
LWPOLYLINE
  5
164
330
1F
100
AcDbEntity
  8
PROFILEEDGES
100
AcDbPolyline
 90
        2
 70
     0
 43
1.492365448374351
 10
41.9921829073171
 20
-198.4763513547288
 10
45.99218290731709
 20
-198.4763513547288
  0
LWPOLYLINE
  5
165
330
1F
100
AcDbEntity
  8
PROFILEEDGES
100
AcDbPolyline
 90
        2
 70
     0
 43
1.492365448374351
 10
41.9921829073171
 20
111.5236486452712
 10
41.9921829073171
 20
-198.4763513547288
  0
LWPOLYLINE
  5
166
330
1F
100
AcDbEntity
  8
PROFILEEDGES
100
AcDbPolyline
 90
        2
 70
     0
 43
1.492365448374351
 10
45.99218290731709
 20
111.5236486452712
 10
41.9921829073171
 20
111.5236486452712
  0
LWPOLYLINE
  5
167
330
1F
100
AcDbEntity
  8
PROFILEEDGES
100
AcDbPolyline
 90
        2
 70
     0
 43
1.492365448374351
 10
45.99218290731709
 20
115.5236486452712
 10
45.99218290731709
 20
111.5236486452712
  0
LWPOLYLINE
  5
168
330
1F
100
AcDbEntity
  8
PROFILEEDGES
100
AcDbPolyline
 90
        2
 70
     0
 43
1.492365448374351
 10
45.99218290731709
 20
115.5236486452712
 10
55.99218290731707
 20
115.5236486452712
  0
LWPOLYLINE
  5
169
330
1F
100
AcDbEntity
  8
PROFILEEDGES
100
AcDbPolyline
 90
        2
 70
     0
 43
1.492365448374351
 10
55.99218290731707
 20
111.5236486452712
 10
55.99218290731707
 20
115.5236486452712
  0
LWPOLYLINE
  5
16A
330
1F
100
AcDbEntity
  8
PROFILEEDGES
100
AcDbPolyline
 90
        2
 70
     0
 43
1.492365448374351
 10
67.99218290731706
 20
101.5236486452711
 10
60.9921829073172
 20
101.5236486452711
  0
LWPOLYLINE
  5
16B
330
1F
100
AcDbEntity
  8
PROFILEEDGES
100
AcDbPolyline
 90
        2
 70
     0
 43
1.492365448374351
 10
60.9921829073172
 20
101.5236486452711
 10
60.99218290731702
 20
97.5236486452711
  0
LWPOLYLINE
  5
16C
330
1F
100
AcDbEntity
  8
PROFILEEDGES
100
AcDbPolyline
 90
        2
 70
     0
 43
1.492365448374351
 10
60.99218290731702
 20
97.5236486452711
 10
67.99218290731723
 20
97.5236486452711
  0
LWPOLYLINE
  5
16D
330
1F
100
AcDbEntity
  8
PROFILEEDGES
100
AcDbPolyline
 90
        2
 70
     0
 43
1.492365448374351
 10
67.99218290731723
 20
97.5236486452711
 10
67.99218290731706
 20
101.5236486452711
  0
LWPOLYLINE
  5
16E
330
1F
100
AcDbEntity
  8
PROFILEEDGES
100
AcDbPolyline
 90
        2
 70
     0
 43
1.492365448374351
 10
92.99218290731714
 20
111.5236486452712
 10
55.99218290731707
 20
111.5236486452712
  0
LWPOLYLINE
  5
16F
330
1F
100
AcDbEntity
  8
PROFILEEDGES
100
AcDbPolyline
 90
        2
 70
     0
 43
1.492365448374351
 10
92.99218290731714
 20
111.5236486452712
 10
92.99218290731714
 20
115.5236486452712
  0
LWPOLYLINE
  5
170
330
1F
100
AcDbEntity
  8
PROFILEEDGES
100
AcDbPolyline
 90
        2
 70
     0
 43
1.492365448374351
 10
92.99218290731714
 20
115.5236486452712
 10
102.9921829073171
 20
115.5236486452712
  0
LWPOLYLINE
  5
171
330
1F
100
AcDbEntity
  8
PROFILEEDGES
100
AcDbPolyline
 90
        2
 70
     0
 43
1.492365448374351
 10
102.9921829073171
 20
115.5236486452712
 10
102.9921829073171
 20
111.5236486452712
  0
LWPOLYLINE
  5
172
330
1F
100
AcDbEntity
  8
PROFILEEDGES
100
AcDbPolyline
 90
        2
 70
     0
 43
1.492365448374351
 10
106.9921829073171
 20
111.5236486452712
 10
102.9921829073171
 20
111.5236486452712
  0
LWPOLYLINE
  5
173
330
1F
100
AcDbEntity
  8
PROFILEEDGES
100
AcDbPolyline
 90
        2
 70
     0
 43
1.492365448374351
 10
106.9921829073171
 20
-198.4763513547288
 10
106.9921829073171
 20
-166.7263513547288
  0
LWPOLYLINE
  5
174
330
1F
100
AcDbEntity
  8
PROFILEEDGES
100
AcDbPolyline
 90
        2
 70
     0
 43
1.492365448374351
 10
102.9921829073171
 20
-198.4763513547288
 10
106.9921829073171
 20
-198.4763513547288
  0
LWPOLYLINE
  5
175
330
1F
100
AcDbEntity
  8
PROFILEEDGES
100
AcDbPolyline
 90
        2
 70
     0
 43
1.492365448374351
 10
102.9921829073171
 20
-198.4763513547288
 10
102.9921829073171
 20
-202.4763513547288
  0
LWPOLYLINE
  5
176
330
1F
100
AcDbEntity
  8
PROFILEEDGES
100
AcDbPolyline
 90
        2
 70
     0
 43
1.492365448374351
 10
102.9921829073171
 20
-202.4763513547288
 10
92.99218290731714
 20
-202.4763513547288
  0
LWPOLYLINE
  5
177
330
1F
100
AcDbEntity
  8
PROFILEEDGES
100
AcDbPolyline
 90
        2
 70
     0
 43
1.492365448374351
 10
92.99218290731714
 20
-202.4763513547288
 10
92.99218290731714
 20
-198.4763513547288
  0
LWPOLYLINE
  5
178
330
1F
100
AcDbEntity
  8
PROFILEEDGES
100
AcDbPolyline
 90
        2
 70
     0
 43
1.492365448374351
 10
101.9938560185058
 20
79.77364864527115
 10
106.9921829073171
 20
79.77364864527115
  0
LWPOLYLINE
  5
179
330
1F
100
AcDbEntity
  8
PROFILEEDGES
100
AcDbPolyline
 90
        2
 70
     0
 43
1.492365448374351
 10
106.9921829073171
 20
79.77364864527115
 10
106.9921829073171
 20
111.5236486452712
  0
LWPOLYLINE
  5
17A
330
1F
100
AcDbEntity
  8
PROFILEEDGES
100
AcDbPolyline
 90
        2
 70
     0
 43
1.492365448374351
 10
101.9938560185058
 20
-152.7263513547288
 10
106.9921829073171
 20
-152.7263513547288
  0
LWPOLYLINE
  5
17B
330
1F
100
AcDbEntity
  8
PROFILEEDGES
100
AcDbPolyline
 90
        2
 70
     0
 43
1.492365448374351
 10
101.9938560185058
 20
-135.7263513547288
 10
101.9938560185058
 20
-152.7263513547288
  0
LWPOLYLINE
  5
17C
330
1F
100
AcDbEntity
  8
PROFILEEDGES
100
AcDbPolyline
 90
        2
 70
     0
 43
1.492365448374351
 10
74.99385601850578
 20
-183.7263513547288
 10
74.99385601850578
 20
-135.7263513547288
  0
LWPOLYLINE
  5
17D
330
1F
100
AcDbEntity
  8
PROFILEEDGES
100
AcDbPolyline
 90
        2
 70
     0
 43
1.492365448374351
 10
101.9938560185058
 20
-183.7263513547288
 10
74.99385601850578
 20
-183.7263513547288
  0
LWPOLYLINE
  5
17E
330
1F
100
AcDbEntity
  8
PROFILEEDGES
100
AcDbPolyline
 90
        2
 70
     0
 43
1.492365448374351
 10
101.9938560185058
 20
-166.7263513547288
 10
101.9938560185058
 20
-183.7263513547288
  0
LWPOLYLINE
  5
17F
330
1F
100
AcDbEntity
  8
PROFILEEDGES
100
AcDbPolyline
 90
        2
 70
     0
 43
1.492365448374351
 10
55.99218290731707
 20
-198.4763513547288
 10
92.99218290731714
 20
-198.4763513547288
  0
LWPOLYLINE
  5
180
330
1F
100
AcDbEntity
  8
PROFILEEDGES
100
AcDbPolyline
 90
        2
 70
     0
 43
1.492365448374351
 10
106.9921829073171
 20
2.273648645271229
 10
106.9921829073171
 20
65.77364864527127
  0
LWPOLYLINE
  5
181
330
1F
100
AcDbEntity
  8
PROFILEEDGES
100
AcDbPolyline
 90
        2
 70
     0
 43
1.492365448374351
 10
101.9938560185058
 20
2.273648645271229
 10
106.9921829073171
 20
2.273648645271229
  0
LWPOLYLINE
  5
182
330
1F
100
AcDbEntity
  8
PROFILEEDGES
100
AcDbPolyline
 90
        2
 70
     0
 43
1.492365448374351
 10
106.9921829073171
 20
-75.22635135472883
 10
106.9921829073171
 20
-11.72635135472875
  0
LWPOLYLINE
  5
183
330
1F
100
AcDbEntity
  8
PROFILEEDGES
100
AcDbPolyline
 90
        2
 70
     0
 43
1.492365448374351
 10
101.9938560185058
 20
-75.22635135472883
 10
106.9921829073171
 20
-75.22635135472883
  0
LWPOLYLINE
  5
184
330
1F
100
AcDbEntity
  8
PROFILEEDGES
100
AcDbPolyline
 90
        2
 70
     0
 43
1.492365448374351
 10
106.9921829073171
 20
-152.7263513547288
 10
106.9921829073171
 20
-89.22635135472882
  0
LWPOLYLINE
  5
185
330
1F
100
AcDbEntity
  8
PROFILEEDGES
100
AcDbPolyline
 90
        2
 70
     0
 43
1.492365448374351
 10
101.9938560185058
 20
-166.7263513547288
 10
106.9921829073171
 20
-166.7263513547288
  0
LWPOLYLINE
  5
186
330
1F
100
AcDbEntity
  8
PROFILEEDGES
100
AcDbPolyline
 90
        2
 70
     0
 43
1.492365448374351
 10
101.9938560185058
 20
-89.2263513547288
 10
106.9921829073171
 20
-89.22635135472882
  0
LWPOLYLINE
  5
187
330
1F
100
AcDbEntity
  8
PROFILEEDGES
100
AcDbPolyline
 90
        2
 70
     0
 43
1.492365448374351
 10
101.9938560185058
 20
-11.72635135472875
 10
106.9921829073171
 20
-11.72635135472875
  0
LWPOLYLINE
  5
188
330
1F
100
AcDbEntity
  8
PROFILEEDGES
100
AcDbPolyline
 90
        2
 70
     0
 43
1.492365448374351
 10
74.99385601850578
 20
-135.7263513547288
 10
101.9938560185058
 20
-135.7263513547288
  0
LWPOLYLINE
  5
189
330
1F
100
AcDbEntity
  8
PROFILEEDGES
100
AcDbPolyline
 90
        2
 70
     0
 43
1.492365448374351
 10
67.99218290731714
 20
-188.4763513547288
 10
67.99218290731714
 20
-184.4763513547288
  0
LWPOLYLINE
  5
18A
330
1F
100
AcDbEntity
  8
PROFILEEDGES
100
AcDbPolyline
 90
        2
 70
     0
 43
1.492365448374351
 10
101.9938560185058
 20
96.77364864527117
 10
101.9938560185058
 20
79.77364864527115
  0
LWPOLYLINE
  5
18B
330
1F
100
AcDbEntity
  8
PROFILEEDGES
100
AcDbPolyline
 90
        2
 70
     0
 43
1.492365448374351
 10
74.99385601850578
 20
96.77364864527117
 10
101.9938560185058
 20
96.77364864527117
  0
LWPOLYLINE
  5
18C
330
1F
100
AcDbEntity
  8
PROFILEEDGES
100
AcDbPolyline
 90
        2
 70
     0
 43
1.492365448374351
 10
101.9938560185058
 20
-11.72635135472875
 10
101.9938560185058
 20
-28.72635135472885
  0
LWPOLYLINE
  5
18D
330
1F
100
AcDbEntity
  8
PROFILEEDGES
100
AcDbPolyline
 90
        2
 70
     0
 43
1.492365448374351
 10
101.9938560185058
 20
-28.72635135472885
 10
74.99385601850578
 20
-28.72635135472885
  0
LWPOLYLINE
  5
18E
330
1F
100
AcDbEntity
  8
PROFILEEDGES
100
AcDbPolyline
 90
        2
 70
     0
 43
1.492365448374351
 10
74.99385601850578
 20
-28.72635135472885
 10
74.99385601850578
 20
19.2736486452712
  0
LWPOLYLINE
  5
18F
330
1F
100
AcDbEntity
  8
PROFILEEDGES
100
AcDbPolyline
 90
        2
 70
     0
 43
1.492365448374351
 10
74.99385601850578
 20
19.2736486452712
 10
101.9938560185058
 20
19.2736486452712
  0
LWPOLYLINE
  5
190
330
1F
100
AcDbEntity
  8
PROFILEEDGES
100
AcDbPolyline
 90
        2
 70
     0
 43
1.492365448374351
 10
101.9938560185058
 20
19.2736486452712
 10
101.9938560185058
 20
2.273648645271229
  0
LWPOLYLINE
  5
191
330
1F
100
AcDbEntity
  8
PROFILEEDGES
100
AcDbPolyline
 90
        2
 70
     0
 43
1.492365448374351
 10
101.9938560185058
 20
-89.2263513547288
 10
101.9938560185058
 20
-106.2263513547288
  0
LWPOLYLINE
  5
192
330
1F
100
AcDbEntity
  8
PROFILEEDGES
100
AcDbPolyline
 90
        2
 70
     0
 43
1.492365448374351
 10
74.99385601850578
 20
-58.22635135472877
 10
101.9938560185058
 20
-58.22635135472877
  0
LWPOLYLINE
  5
193
330
1F
100
AcDbEntity
  8
PROFILEEDGES
100
AcDbPolyline
 90
        2
 70
     0
 43
1.492365448374351
 10
74.99385601850578
 20
-106.2263513547288
 10
74.99385601850578
 20
-58.22635135472877
  0
LWPOLYLINE
  5
194
330
1F
100
AcDbEntity
  8
PROFILEEDGES
100
AcDbPolyline
 90
        2
 70
     0
 43
1.492365448374351
 10
101.9938560185058
 20
-58.22635135472877
 10
101.9938560185058
 20
-75.22635135472883
  0
LWPOLYLINE
  5
195
330
1F
100
AcDbEntity
  8
PROFILEEDGES
100
AcDbPolyline
 90
        2
 70
     0
 43
1.492365448374351
 10
101.9938560185058
 20
-106.2263513547288
 10
74.99385601850578
 20
-106.2263513547288
  0
LWPOLYLINE
  5
196
330
1F
100
AcDbEntity
  8
PROFILEEDGES
100
AcDbPolyline
 90
        2
 70
     0
 43
1.492365448374351
 10
-111.0299203837686
 20
-198.4763513547288
 10
-106.0299203837686
 20
-198.4763513547288
  0
LWPOLYLINE
  5
197
330
1F
100
AcDbEntity
  8
PROFILEEDGES
100
AcDbPolyline
 90
        2
 70
     0
 43
1.492365448374351
 10
-120.0299203837686
 20
-198.4763513547288
 10
-115.0299203837686
 20
-198.4763513547288
  0
LWPOLYLINE
  5
198
330
1F
100
AcDbEntity
  8
PROFILEEDGES
100
AcDbPolyline
 90
        2
 70
     0
 43
1.492365448374351
 10
-120.0299203837686
 20
-202.4763513547288
 10
-120.0299203837686
 20
-198.4763513547288
  0
LWPOLYLINE
  5
199
330
1F
100
AcDbEntity
  8
PROFILEEDGES
100
AcDbPolyline
 90
        2
 70
     0
 43
1.492365448374351
 10
-124.0299203837686
 20
-202.4763513547288
 10
-120.0299203837686
 20
-202.4763513547288
  0
LWPOLYLINE
  5
19A
330
1F
100
AcDbEntity
  8
PROFILEEDGES
100
AcDbPolyline
 90
        2
 70
     0
 43
1.492365448374351
 10
-124.0299203837686
 20
-198.4763513547288
 10
-124.0299203837686
 20
-202.4763513547288
  0
LWPOLYLINE
  5
19B
330
1F
100
AcDbEntity
  8
PROFILEEDGES
100
AcDbPolyline
 90
        2
 70
     0
 43
1.492365448374351
 10
-128.0299203837686
 20
-198.4763513547288
 10
-124.0299203837686
 20
-198.4763513547288
  0
LWPOLYLINE
  5
19C
330
1F
100
AcDbEntity
  8
PROFILEEDGES
100
AcDbPolyline
 90
        2
 70
     0
 43
1.492365448374351
 10
-128.0299203837686
 20
111.5236486452712
 10
-128.0299203837686
 20
-198.4763513547288
  0
LWPOLYLINE
  5
19D
330
1F
100
AcDbEntity
  8
PROFILEEDGES
100
AcDbPolyline
 90
        2
 70
     0
 43
1.492365448374351
 10
-124.0299203837686
 20
111.5236486452712
 10
-128.0299203837686
 20
111.5236486452712
  0
LWPOLYLINE
  5
19E
330
1F
100
AcDbEntity
  8
PROFILEEDGES
100
AcDbPolyline
 90
        2
 70
     0
 43
1.492365448374351
 10
-124.0299203837686
 20
115.5236486452712
 10
-124.0299203837686
 20
111.5236486452712
  0
LWPOLYLINE
  5
19F
330
1F
100
AcDbEntity
  8
PROFILEEDGES
100
AcDbPolyline
 90
        2
 70
     0
 43
1.492365448374351
 10
-120.0299203837686
 20
111.5236486452712
 10
-120.0299203837686
 20
115.5236486452712
  0
LWPOLYLINE
  5
1A0
330
1F
100
AcDbEntity
  8
PROFILEEDGES
100
AcDbPolyline
 90
        2
 70
     0
 43
1.492365448374351
 10
-115.0299203837684
 20
111.5236486452712
 10
-120.0299203837686
 20
111.5236486452712
  0
LWPOLYLINE
  5
1A1
330
1F
100
AcDbEntity
  8
PROFILEEDGES
100
AcDbPolyline
 90
        2
 70
     0
 43
1.492365448374351
 10
-106.0299203837686
 20
111.5236486452709
 10
-111.0299203837685
 20
111.523648645271
  0
LWPOLYLINE
  5
1A2
330
1F
100
AcDbEntity
  8
PROFILEEDGES
100
AcDbPolyline
 90
        2
 70
     0
 43
1.492365448374351
 10
-98.02992038376858
 20
111.5236486452712
 10
-102.0299203837686
 20
111.5236486452709
  0
LWPOLYLINE
  5
1A3
330
1F
100
AcDbEntity
  8
PROFILEEDGES
100
AcDbPolyline
 90
        2
 70
     0
 43
1.492365448374351
 10
-102.0299203837686
 20
115.5236486452709
 10
-102.0299203837686
 20
111.5236486452709
  0
LWPOLYLINE
  5
1A4
330
1F
100
AcDbEntity
  8
PROFILEEDGES
100
AcDbPolyline
 90
        2
 70
     0
 43
1.492365448374351
 10
-106.0299203837686
 20
115.5236486452709
 10
-102.0299203837686
 20
115.5236486452709
  0
LWPOLYLINE
  5
1A5
330
1F
100
AcDbEntity
  8
PROFILEEDGES
100
AcDbPolyline
 90
        2
 70
     0
 43
1.492365448374351
 10
-106.0299203837686
 20
111.5236486452709
 10
-106.0299203837686
 20
115.5236486452709
  0
LWPOLYLINE
  5
1A6
330
1F
100
AcDbEntity
  8
PROFILEEDGES
100
AcDbPolyline
 90
        2
 70
     0
 43
1.492365448374351
 10
-111.0299203837686
 20
101.5236486452711
 10
-111.0299203837685
 20
111.523648645271
  0
LWPOLYLINE
  5
1A7
330
1F
100
AcDbEntity
  8
PROFILEEDGES
100
AcDbPolyline
 90
        2
 70
     0
 43
1.492365448374351
 10
-109.5299203837687
 20
101.5236486452711
 10
-111.0299203837686
 20
101.5236486452711
  0
LWPOLYLINE
  5
1A8
330
1F
100
AcDbEntity
  8
PROFILEEDGES
100
AcDbPolyline
 90
        2
 70
     0
 43
1.492365448374351
 10
-109.5299203837685
 20
97.5236486452711
 10
-109.5299203837687
 20
101.5236486452711
  0
LWPOLYLINE
  5
1A9
330
1F
100
AcDbEntity
  8
PROFILEEDGES
100
AcDbPolyline
 90
        2
 70
     0
 43
1.492365448374351
 10
-111.0299203837686
 20
97.52364864527127
 10
-109.5299203837685
 20
97.5236486452711
  0
LWPOLYLINE
  5
1AA
330
1F
100
AcDbEntity
  8
PROFILEEDGES
100
AcDbPolyline
 90
        2
 70
     0
 43
1.492365448374351
 10
-111.0299203837685
 20
93.52364864527128
 10
-111.0299203837686
 20
97.52364864527127
  0
LWPOLYLINE
  5
1AB
330
1F
100
AcDbEntity
  8
PROFILEEDGES
100
AcDbPolyline
 90
        2
 70
     0
 43
1.492365448374351
 10
-115.0299203837689
 20
93.52364864527128
 10
-111.0299203837685
 20
93.52364864527128
  0
LWPOLYLINE
  5
1AC
330
1F
100
AcDbEntity
  8
PROFILEEDGES
100
AcDbPolyline
 90
        2
 70
     0
 43
1.492365448374351
 10
-115.0299203837685
 20
97.52364864527127
 10
-115.0299203837689
 20
93.52364864527128
  0
LWPOLYLINE
  5
1AD
330
1F
100
AcDbEntity
  8
PROFILEEDGES
100
AcDbPolyline
 90
        2
 70
     0
 43
1.492365448374351
 10
-116.5299203837687
 20
97.5236486452711
 10
-115.0299203837685
 20
97.52364864527127
  0
LWPOLYLINE
  5
1AE
330
1F
100
AcDbEntity
  8
PROFILEEDGES
100
AcDbPolyline
 90
        2
 70
     0
 43
1.492365448374351
 10
-116.5299203837685
 20
101.5236486452711
 10
-116.5299203837687
 20
97.5236486452711
  0
LWPOLYLINE
  5
1AF
330
1F
100
AcDbEntity
  8
PROFILEEDGES
100
AcDbPolyline
 90
        2
 70
     0
 43
1.492365448374351
 10
-115.0299203837684
 20
101.5236486452713
 10
-116.5299203837685
 20
101.5236486452711
  0
LWPOLYLINE
  5
1B0
330
1F
100
AcDbEntity
  8
PROFILEEDGES
100
AcDbPolyline
 90
        2
 70
     0
 43
1.492365448374351
 10
-115.0299203837684
 20
111.5236486452712
 10
-115.0299203837684
 20
101.5236486452713
  0
LWPOLYLINE
  5
1B1
330
1F
100
AcDbEntity
  8
PROFILEEDGES
100
AcDbPolyline
 90
        2
 70
     0
 43
1.492365448374351
 10
-124.0299203837686
 20
115.5236486452712
 10
-120.0299203837686
 20
115.5236486452712
  0
LWPOLYLINE
  5
1B2
330
1F
100
AcDbEntity
  8
PROFILEEDGES
100
AcDbPolyline
 90
        2
 70
     0
 43
1.492365448374351
 10
-115.0299203837686
 20
-188.4763513547288
 10
-115.0299203837686
 20
-198.4763513547288
  0
LWPOLYLINE
  5
1B3
330
1F
100
AcDbEntity
  8
PROFILEEDGES
100
AcDbPolyline
 90
        2
 70
     0
 43
1.492365448374351
 10
-116.5299203837686
 20
-188.4763513547288
 10
-115.0299203837686
 20
-188.4763513547288
  0
LWPOLYLINE
  5
1B4
330
1F
100
AcDbEntity
  8
PROFILEEDGES
100
AcDbPolyline
 90
        2
 70
     0
 43
1.492365448374351
 10
-116.5299203837686
 20
-184.4763513547288
 10
-116.5299203837686
 20
-188.4763513547288
  0
LWPOLYLINE
  5
1B5
330
1F
100
AcDbEntity
  8
PROFILEEDGES
100
AcDbPolyline
 90
        2
 70
     0
 43
1.492365448374351
 10
-115.0299203837686
 20
-184.4763513547288
 10
-116.5299203837686
 20
-184.4763513547288
  0
LWPOLYLINE
  5
1B6
330
1F
100
AcDbEntity
  8
PROFILEEDGES
100
AcDbPolyline
 90
        2
 70
     0
 43
1.492365448374351
 10
-115.0299203837686
 20
-180.4763513547288
 10
-115.0299203837686
 20
-184.4763513547288
  0
LWPOLYLINE
  5
1B7
330
1F
100
AcDbEntity
  8
PROFILEEDGES
100
AcDbPolyline
 90
        2
 70
     0
 43
1.492365448374351
 10
-111.0299203837686
 20
-180.4763513547288
 10
-115.0299203837686
 20
-180.4763513547288
  0
LWPOLYLINE
  5
1B8
330
1F
100
AcDbEntity
  8
PROFILEEDGES
100
AcDbPolyline
 90
        2
 70
     0
 43
1.492365448374351
 10
-111.0299203837686
 20
-184.4763513547288
 10
-111.0299203837686
 20
-180.4763513547288
  0
LWPOLYLINE
  5
1B9
330
1F
100
AcDbEntity
  8
PROFILEEDGES
100
AcDbPolyline
 90
        2
 70
     0
 43
1.492365448374351
 10
-109.5299203837686
 20
-184.4763513547288
 10
-111.0299203837686
 20
-184.4763513547288
  0
LWPOLYLINE
  5
1BA
330
1F
100
AcDbEntity
  8
PROFILEEDGES
100
AcDbPolyline
 90
        2
 70
     0
 43
1.492365448374351
 10
-109.5299203837686
 20
-188.4763513547288
 10
-109.5299203837686
 20
-184.4763513547288
  0
LWPOLYLINE
  5
1BB
330
1F
100
AcDbEntity
  8
PROFILEEDGES
100
AcDbPolyline
 90
        2
 70
     0
 43
1.492365448374351
 10
-111.0299203837686
 20
-188.4763513547288
 10
-109.5299203837686
 20
-188.4763513547288
  0
LWPOLYLINE
  5
1BC
330
1F
100
AcDbEntity
  8
PROFILEEDGES
100
AcDbPolyline
 90
        2
 70
     0
 43
1.492365448374351
 10
-111.0299203837686
 20
-198.4763513547288
 10
-111.0299203837686
 20
-188.4763513547288
  0
LWPOLYLINE
  5
1BD
330
1F
100
AcDbEntity
  8
PROFILEEDGES
100
AcDbPolyline
 90
        2
 70
     0
 43
1.492365448374351
 10
-106.0299203837686
 20
-202.4763513547288
 10
-106.0299203837686
 20
-198.4763513547288
  0
LWPOLYLINE
  5
1BE
330
1F
100
AcDbEntity
  8
PROFILEEDGES
100
AcDbPolyline
 90
        2
 70
     0
 43
1.492365448374351
 10
-102.0299203837686
 20
-202.4763513547288
 10
-106.0299203837686
 20
-202.4763513547288
  0
LWPOLYLINE
  5
1BF
330
1F
100
AcDbEntity
  8
PROFILEEDGES
100
AcDbPolyline
 90
        2
 70
     0
 43
1.492365448374351
 10
-102.0299203837686
 20
-198.4763513547288
 10
-102.0299203837686
 20
-202.4763513547288
  0
LWPOLYLINE
  5
1C0
330
1F
100
AcDbEntity
  8
PROFILEEDGES
100
AcDbPolyline
 90
        2
 70
     0
 43
1.492365448374351
 10
-102.0299203837686
 20
-198.4763513547288
 10
-98.02992038376858
 20
-198.4763513547288
  0
LWPOLYLINE
  5
1C1
330
1F
100
AcDbEntity
  8
PROFILEEDGES
100
AcDbPolyline
 90
        2
 70
     0
 43
1.492365448374351
 10
123.7360277576223
 20
-158.9987419148199
 10
124.0299203837686
 20
-158.9032504120074
  0
LWPOLYLINE
  5
1C2
330
1F
100
AcDbEntity
  8
PROFILEEDGES
100
AcDbPolyline
 90
        2
 70
     0
 43
1.492365448374351
 10
123.5543921256209
 20
-159.2487419148199
 10
123.7360277576223
 20
-158.9987419148199
  0
LWPOLYLINE
  5
1C3
330
1F
100
AcDbEntity
  8
PROFILEEDGES
100
AcDbPolyline
 90
        2
 70
     0
 43
1.492365448374351
 10
123.5543921256209
 20
-159.5577589091949
 10
123.5543921256209
 20
-159.2487419148199
  0
LWPOLYLINE
  5
1C4
330
1F
100
AcDbEntity
  8
PROFILEEDGES
100
AcDbPolyline
 90
        2
 70
     0
 43
1.492365448374351
 10
124.3238130099148
 20
-159.8077589091949
 10
124.0299203837686
 20
-159.9032504120074
  0
LWPOLYLINE
  5
1C5
330
1F
100
AcDbEntity
  8
PROFILEEDGES
100
AcDbPolyline
 90
        2
 70
     0
 43
1.492365448374351
 10
124.5054486419162
 20
-159.5577589091949
 10
124.3238130099148
 20
-159.8077589091949
  0
LWPOLYLINE
  5
1C6
330
1F
100
AcDbEntity
  8
PROFILEEDGES
100
AcDbPolyline
 90
        2
 70
     0
 43
1.492365448374351
 10
123.7360277576223
 20
-159.8077589091949
 10
123.5543921256209
 20
-159.5577589091949
  0
LWPOLYLINE
  5
1C7
330
1F
100
AcDbEntity
  8
PROFILEEDGES
100
AcDbPolyline
 90
        2
 70
     0
 43
1.492365448374351
 10
124.0299203837686
 20
-159.9032504120074
 10
123.7360277576223
 20
-159.8077589091949
  0
LWPOLYLINE
  5
1C8
330
1F
100
AcDbEntity
  8
PROFILEEDGES
100
AcDbPolyline
 90
        2
 70
     0
 43
1.492365448374351
 10
124.0299203837686
 20
-158.9032504120074
 10
124.3238130099148
 20
-158.9987419148199
  0
LWPOLYLINE
  5
1C9
330
1F
100
AcDbEntity
  8
PROFILEEDGES
100
AcDbPolyline
 90
        2
 70
     0
 43
1.492365448374351
 10
124.5054486419162
 20
-159.2487419148199
 10
124.5054486419162
 20
-159.5577589091949
  0
LWPOLYLINE
  5
1CA
330
1F
100
AcDbEntity
  8
PROFILEEDGES
100
AcDbPolyline
 90
        2
 70
     0
 43
1.492365448374351
 10
124.3238130099148
 20
-158.9987419148199
 10
124.5054486419162
 20
-159.2487419148199
  0
LWPOLYLINE
  5
1CB
330
1F
100
AcDbEntity
  8
PROFILEEDGES
100
AcDbPolyline
 90
        2
 70
     0
 43
1.492365448374351
 10
124.0299203837686
 20
-82.40325041200741
 10
123.7360277576223
 20
-82.3077589091949
  0
LWPOLYLINE
  5
1CC
330
1F
100
AcDbEntity
  8
PROFILEEDGES
100
AcDbPolyline
 90
        2
 70
     0
 43
1.492365448374351
 10
124.0299203837686
 20
-81.40325041200737
 10
124.3238130099148
 20
-81.49874191481989
  0
LWPOLYLINE
  5
1CD
330
1F
100
AcDbEntity
  8
PROFILEEDGES
100
AcDbPolyline
 90
        2
 70
     0
 43
1.492365448374351
 10
123.7360277576223
 20
-81.49874191481989
 10
124.0299203837686
 20
-81.40325041200737
  0
LWPOLYLINE
  5
1CE
330
1F
100
AcDbEntity
  8
PROFILEEDGES
100
AcDbPolyline
 90
        2
 70
     0
 43
1.492365448374351
 10
124.3238130099148
 20
-82.3077589091949
 10
124.0299203837686
 20
-82.40325041200741
  0
LWPOLYLINE
  5
1CF
330
1F
100
AcDbEntity
  8
PROFILEEDGES
100
AcDbPolyline
 90
        2
 70
     0
 43
1.492365448374351
 10
123.5543921256209
 20
-81.74874191481992
 10
123.7360277576223
 20
-81.49874191481989
  0
LWPOLYLINE
  5
1D0
330
1F
100
AcDbEntity
  8
PROFILEEDGES
100
AcDbPolyline
 90
        2
 70
     0
 43
1.492365448374351
 10
123.5543921256209
 20
-82.05775890919487
 10
123.5543921256209
 20
-81.74874191481992
  0
LWPOLYLINE
  5
1D1
330
1F
100
AcDbEntity
  8
PROFILEEDGES
100
AcDbPolyline
 90
        2
 70
     0
 43
1.492365448374351
 10
124.5054486419162
 20
-82.05775890919487
 10
124.3238130099148
 20
-82.3077589091949
  0
LWPOLYLINE
  5
1D2
330
1F
100
AcDbEntity
  8
PROFILEEDGES
100
AcDbPolyline
 90
        2
 70
     0
 43
1.492365448374351
 10
123.7360277576223
 20
-82.3077589091949
 10
123.5543921256209
 20
-82.05775890919487
  0
LWPOLYLINE
  5
1D3
330
1F
100
AcDbEntity
  8
PROFILEEDGES
100
AcDbPolyline
 90
        2
 70
     0
 43
1.492365448374351
 10
124.5054486419162
 20
-81.74874191481992
 10
124.5054486419162
 20
-82.05775890919487
  0
LWPOLYLINE
  5
1D4
330
1F
100
AcDbEntity
  8
PROFILEEDGES
100
AcDbPolyline
 90
        2
 70
     0
 43
1.492365448374351
 10
124.3238130099148
 20
-81.49874191481989
 10
124.5054486419162
 20
-81.74874191481992
  0
LWPOLYLINE
  5
1D5
330
1F
100
AcDbEntity
  8
PROFILEEDGES
100
AcDbPolyline
 90
        2
 70
     0
 43
1.492365448374351
 10
124.0299203837685
 20
111.8467495879926
 10
128.0299203837685
 20
111.8467495879926
  0
LWPOLYLINE
  5
1D6
330
1F
100
AcDbEntity
  8
PROFILEEDGES
100
AcDbPolyline
 90
        2
 70
     0
 43
1.492365448374351
 10
124.3238130099148
 20
72.69224109080523
 10
124.0299203837686
 20
72.59674958799266
  0
LWPOLYLINE
  5
1D7
330
1F
100
AcDbEntity
  8
PROFILEEDGES
100
AcDbPolyline
 90
        2
 70
     0
 43
1.492365448374351
 10
128.0299203837685
 20
111.8467495879926
 10
128.0299203837685
 20
-198.1532504120074
  0
LWPOLYLINE
  5
1D8
330
1F
100
AcDbEntity
  8
PROFILEEDGES
100
AcDbPolyline
 90
        2
 70
     0
 43
1.492365448374351
 10
124.5054486419162
 20
72.94224109080517
 10
124.3238130099148
 20
72.69224109080523
  0
LWPOLYLINE
  5
1D9
330
1F
100
AcDbEntity
  8
PROFILEEDGES
100
AcDbPolyline
 90
        2
 70
     0
 43
1.492365448374351
 10
124.5054486419162
 20
73.25125808518011
 10
124.5054486419162
 20
72.94224109080517
  0
LWPOLYLINE
  5
1DA
330
1F
100
AcDbEntity
  8
PROFILEEDGES
100
AcDbPolyline
 90
        2
 70
     0
 43
1.492365448374351
 10
124.3238130099148
 20
73.50125808518024
 10
124.5054486419162
 20
73.25125808518011
  0
LWPOLYLINE
  5
1DB
330
1F
100
AcDbEntity
  8
PROFILEEDGES
100
AcDbPolyline
 90
        2
 70
     0
 43
1.492365448374351
 10
128.0299203837685
 20
-198.1532504120074
 10
124.0299203837685
 20
-198.1532504120074
  0
LWPOLYLINE
  5
1DC
330
1F
100
AcDbEntity
  8
PROFILEEDGES
100
AcDbPolyline
 90
        2
 70
     0
 43
1.492365448374351
 10
124.0299203837686
 20
73.5967495879927
 10
124.3238130099148
 20
73.50125808518024
  0
LWPOLYLINE
  5
1DD
330
1F
100
AcDbEntity
  8
PROFILEEDGES
100
AcDbPolyline
 90
        2
 70
     0
 43
1.492365448374351
 10
124.0299203837685
 20
-198.1532504120074
 10
124.0299203837685
 20
-202.1532504120074
  0
LWPOLYLINE
  5
1DE
330
1F
100
AcDbEntity
  8
PROFILEEDGES
100
AcDbPolyline
 90
        2
 70
     0
 43
1.492365448374351
 10
124.0299203837685
 20
-202.1532504120074
 10
114.0299203837686
 20
-202.1532504120074
  0
LWPOLYLINE
  5
1DF
330
1F
100
AcDbEntity
  8
PROFILEEDGES
100
AcDbPolyline
 90
        2
 70
     0
 43
1.492365448374351
 10
114.0299203837686
 20
-202.1532504120074
 10
114.0299203837686
 20
-198.1532504120074
  0
LWPOLYLINE
  5
1E0
330
1F
100
AcDbEntity
  8
PROFILEEDGES
100
AcDbPolyline
 90
        2
 70
     0
 43
1.492365448374351
 10
114.0299203837686
 20
-198.1532504120074
 10
110.0299203837686
 20
-198.1532504120074
  0
LWPOLYLINE
  5
1E1
330
1F
100
AcDbEntity
  8
PROFILEEDGES
100
AcDbPolyline
 90
        2
 70
     0
 43
1.492365448374351
 10
110.0299203837686
 20
-198.1532504120074
 10
110.0299203837686
 20
111.8467495879926
  0
LWPOLYLINE
  5
1E2
330
1F
100
AcDbEntity
  8
PROFILEEDGES
100
AcDbPolyline
 90
        2
 70
     0
 43
1.492365448374351
 10
110.0299203837686
 20
111.8467495879926
 10
114.0299203837686
 20
111.8467495879926
  0
LWPOLYLINE
  5
1E3
330
1F
100
AcDbEntity
  8
PROFILEEDGES
100
AcDbPolyline
 90
        2
 70
     0
 43
1.492365448374351
 10
114.0299203837686
 20
111.8467495879926
 10
114.0299203837686
 20
115.8467495879926
  0
LWPOLYLINE
  5
1E4
330
1F
100
AcDbEntity
  8
PROFILEEDGES
100
AcDbPolyline
 90
        2
 70
     0
 43
1.492365448374351
 10
124.0299203837685
 20
115.8467495879926
 10
114.0299203837686
 20
115.8467495879926
  0
LWPOLYLINE
  5
1E5
330
1F
100
AcDbEntity
  8
PROFILEEDGES
100
AcDbPolyline
 90
        2
 70
     0
 43
1.492365448374351
 10
124.0299203837685
 20
115.8467495879926
 10
124.0299203837685
 20
111.8467495879926
  0
LWPOLYLINE
  5
1E6
330
1F
100
AcDbEntity
  8
PROFILEEDGES
100
AcDbPolyline
 90
        2
 70
     0
 43
1.492365448374351
 10
124.5054486419162
 20
-4.2487419148199
 10
124.5054486419162
 20
-4.557758909194852
  0
LWPOLYLINE
  5
1E7
330
1F
100
AcDbEntity
  8
PROFILEEDGES
100
AcDbPolyline
 90
        2
 70
     0
 43
1.492365448374351
 10
124.5054486419162
 20
-4.557758909194852
 10
124.3238130099148
 20
-4.807758909194886
  0
LWPOLYLINE
  5
1E8
330
1F
100
AcDbEntity
  8
PROFILEEDGES
100
AcDbPolyline
 90
        2
 70
     0
 43
1.492365448374351
 10
124.3238130099148
 20
-4.807758909194886
 10
124.0299203837686
 20
-4.903250412007398
  0
LWPOLYLINE
  5
1E9
330
1F
100
AcDbEntity
  8
PROFILEEDGES
100
AcDbPolyline
 90
        2
 70
     0
 43
1.492365448374351
 10
124.0299203837686
 20
-4.903250412007398
 10
123.7360277576223
 20
-4.807758909194886
  0
LWPOLYLINE
  5
1EA
330
1F
100
AcDbEntity
  8
PROFILEEDGES
100
AcDbPolyline
 90
        2
 70
     0
 43
1.492365448374351
 10
123.7360277576223
 20
-4.807758909194886
 10
123.5543921256209
 20
-4.557758909194852
  0
LWPOLYLINE
  5
1EB
330
1F
100
AcDbEntity
  8
PROFILEEDGES
100
AcDbPolyline
 90
        2
 70
     0
 43
1.492365448374351
 10
123.5543921256209
 20
-4.557758909194852
 10
123.5543921256209
 20
-4.2487419148199
  0
LWPOLYLINE
  5
1EC
330
1F
100
AcDbEntity
  8
PROFILEEDGES
100
AcDbPolyline
 90
        2
 70
     0
 43
1.492365448374351
 10
123.5543921256209
 20
-4.2487419148199
 10
123.7360277576223
 20
-3.998741914819866
  0
LWPOLYLINE
  5
1ED
330
1F
100
AcDbEntity
  8
PROFILEEDGES
100
AcDbPolyline
 90
        2
 70
     0
 43
1.492365448374351
 10
123.7360277576223
 20
-3.998741914819866
 10
124.0299203837686
 20
-3.903250412007354
  0
LWPOLYLINE
  5
1EE
330
1F
100
AcDbEntity
  8
PROFILEEDGES
100
AcDbPolyline
 90
        2
 70
     0
 43
1.492365448374351
 10
124.0299203837686
 20
-3.903250412007354
 10
124.3238130099148
 20
-3.998741914819866
  0
LWPOLYLINE
  5
1EF
330
1F
100
AcDbEntity
  8
PROFILEEDGES
100
AcDbPolyline
 90
        2
 70
     0
 43
1.492365448374351
 10
124.3238130099148
 20
-3.998741914819866
 10
124.5054486419162
 20
-4.2487419148199
  0
LWPOLYLINE
  5
1F0
330
1F
100
AcDbEntity
  8
PROFILEEDGES
100
AcDbPolyline
 90
        2
 70
     0
 43
1.492365448374351
 10
124.0299203837686
 20
72.59674958799266
 10
123.7360277576223
 20
72.69224109080523
  0
LWPOLYLINE
  5
1F1
330
1F
100
AcDbEntity
  8
PROFILEEDGES
100
AcDbPolyline
 90
        2
 70
     0
 43
1.492365448374351
 10
123.7360277576223
 20
72.69224109080523
 10
123.5543921256209
 20
72.94224109080517
  0
LWPOLYLINE
  5
1F2
330
1F
100
AcDbEntity
  8
PROFILEEDGES
100
AcDbPolyline
 90
        2
 70
     0
 43
1.492365448374351
 10
123.5543921256209
 20
72.94224109080517
 10
123.5543921256209
 20
73.25125808518011
  0
LWPOLYLINE
  5
1F3
330
1F
100
AcDbEntity
  8
PROFILEEDGES
100
AcDbPolyline
 90
        2
 70
     0
 43
1.492365448374351
 10
123.5543921256209
 20
73.25125808518011
 10
123.7360277576223
 20
73.50125808518024
  0
LWPOLYLINE
  5
1F4
330
1F
100
AcDbEntity
  8
PROFILEEDGES
100
AcDbPolyline
 90
        2
 70
     0
 43
1.492365448374351
 10
123.7360277576223
 20
73.50125808518024
 10
124.0299203837686
 20
73.5967495879927
  0
LWPOLYLINE
  5
1F5
330
1F
100
AcDbEntity
  8
PROFILEEDGES
100
AcDbPolyline
 90
        2
 70
     0
 43
1.492365448374351
 10
-128.0299203837686
 20
119.4763513547286
 10
-78.0299203837686
 20
119.4763513547287
  0
LWPOLYLINE
  5
1F6
330
1F
100
AcDbEntity
  8
PROFILEEDGES
100
AcDbPolyline
 90
        2
 70
     0
 43
1.492365448374351
 10
-128.0299203837687
 20
202.4763513547287
 10
-128.0299203837686
 20
119.4763513547286
  0
LWPOLYLINE
  5
1F7
330
1F
100
AcDbEntity
  8
PROFILEEDGES
100
AcDbPolyline
 90
        2
 70
     0
 43
1.492365448374351
 10
-21.0299203837686
 20
137.4763513547287
 10
-21.02992038376863
 20
202.4763513547287
  0
LWPOLYLINE
  5
1F8
330
1F
100
AcDbEntity
  8
PROFILEEDGES
100
AcDbPolyline
 90
        2
 70
     0
 43
1.492365448374351
 10
-124.0299203837686
 20
133.4763513547286
 10
-120.0299203837686
 20
133.4763513547286
  0
LWPOLYLINE
  5
1F9
330
1F
100
AcDbEntity
  8
PROFILEEDGES
100
AcDbPolyline
 90
        2
 70
     0
 43
1.492365448374351
 10
-95.80637751907614
 20
167.0785738758615
 10
-96.52992038376857
 20
167.3782751433754
  0
LWPOLYLINE
  5
1FA
330
1F
100
AcDbEntity
  8
PROFILEEDGES
100
AcDbPolyline
 90
        2
 70
     0
 43
1.492365448374351
 10
-95.02992038376858
 20
166.9763513547287
 10
-95.80637751907614
 20
167.0785738758615
  0
LWPOLYLINE
  5
1FB
330
1F
100
AcDbEntity
  8
PROFILEEDGES
100
AcDbPolyline
 90
        2
 70
     0
 43
1.492365448374351
 10
-94.25346324846102
 20
167.0785738758615
 10
-95.02992038376858
 20
166.9763513547287
  0
LWPOLYLINE
  5
1FC
330
1F
100
AcDbEntity
  8
PROFILEEDGES
100
AcDbPolyline
 90
        2
 70
     0
 43
1.492365448374351
 10
-93.52992038376858
 20
167.3782751433754
 10
-94.25346324846102
 20
167.0785738758615
  0
LWPOLYLINE
  5
1FD
330
1F
100
AcDbEntity
  8
PROFILEEDGES
100
AcDbPolyline
 90
        2
 70
     0
 43
1.492365448374351
 10
-92.90860004020894
 20
167.855031011169
 10
-93.52992038376858
 20
167.3782751433754
  0
LWPOLYLINE
  5
1FE
330
1F
100
AcDbEntity
  8
PROFILEEDGES
100
AcDbPolyline
 90
        2
 70
     0
 43
1.492365448374351
 10
-92.43184417241527
 20
168.4763513547287
 10
-92.90860004020894
 20
167.855031011169
  0
LWPOLYLINE
  5
1FF
330
1F
100
AcDbEntity
  8
PROFILEEDGES
100
AcDbPolyline
 90
        2
 70
     0
 43
1.492365448374351
 10
-92.13214290490139
 20
169.1998942194211
 10
-92.43184417241527
 20
168.4763513547287
  0
LWPOLYLINE
  5
200
330
1F
100
AcDbEntity
  8
PROFILEEDGES
100
AcDbPolyline
 90
        2
 70
     0
 43
1.492365448374351
 10
-92.13214290490139
 20
170.7528084900362
 10
-92.02992038376858
 20
169.9763513547287
  0
LWPOLYLINE
  5
201
330
1F
100
AcDbEntity
  8
PROFILEEDGES
100
AcDbPolyline
 90
        2
 70
     0
 43
1.492365448374351
 10
-92.43184417241527
 20
171.4763513547287
 10
-92.13214290490139
 20
170.7528084900362
  0
LWPOLYLINE
  5
202
330
1F
100
AcDbEntity
  8
PROFILEEDGES
100
AcDbPolyline
 90
        2
 70
     0
 43
1.492365448374351
 10
-92.90860004020894
 20
172.0976716982883
 10
-92.43184417241527
 20
171.4763513547287
  0
LWPOLYLINE
  5
203
330
1F
100
AcDbEntity
  8
PROFILEEDGES
100
AcDbPolyline
 90
        2
 70
     0
 43
1.492365448374351
 10
-93.52992038376858
 20
172.574427566082
 10
-92.90860004020894
 20
172.0976716982883
  0
LWPOLYLINE
  5
204
330
1F
100
AcDbEntity
  8
PROFILEEDGES
100
AcDbPolyline
 90
        2
 70
     0
 43
1.492365448374351
 10
-94.25346324846102
 20
172.8741288335959
 10
-93.52992038376858
 20
172.574427566082
  0
LWPOLYLINE
  5
205
330
1F
100
AcDbEntity
  8
PROFILEEDGES
100
AcDbPolyline
 90
        2
 70
     0
 43
1.492365448374351
 10
-95.02992038376858
 20
172.9763513547287
 10
-94.25346324846102
 20
172.8741288335959
  0
LWPOLYLINE
  5
206
330
1F
100
AcDbEntity
  8
PROFILEEDGES
100
AcDbPolyline
 90
        2
 70
     0
 43
1.492365448374351
 10
-95.80637751907615
 20
172.8741288335959
 10
-95.02992038376858
 20
172.9763513547287
  0
LWPOLYLINE
  5
207
330
1F
100
AcDbEntity
  8
PROFILEEDGES
100
AcDbPolyline
 90
        2
 70
     0
 43
1.492365448374351
 10
-96.52992038376857
 20
172.574427566082
 10
-95.80637751907615
 20
172.8741288335959
  0
LWPOLYLINE
  5
208
330
1F
100
AcDbEntity
  8
PROFILEEDGES
100
AcDbPolyline
 90
        2
 70
     0
 43
1.492365448374351
 10
-97.15124072732822
 20
172.0976716982883
 10
-96.52992038376857
 20
172.574427566082
  0
LWPOLYLINE
  5
209
330
1F
100
AcDbEntity
  8
PROFILEEDGES
100
AcDbPolyline
 90
        2
 70
     0
 43
1.492365448374351
 10
-97.62799659512189
 20
171.4763513547286
 10
-97.15124072732822
 20
172.0976716982883
  0
LWPOLYLINE
  5
20A
330
1F
100
AcDbEntity
  8
PROFILEEDGES
100
AcDbPolyline
 90
        2
 70
     0
 43
1.492365448374351
 10
-97.92769786263577
 20
170.7528084900362
 10
-97.62799659512189
 20
171.4763513547286
  0
LWPOLYLINE
  5
20B
330
1F
100
AcDbEntity
  8
PROFILEEDGES
100
AcDbPolyline
 90
        2
 70
     0
 43
1.492365448374351
 10
-98.02992038376857
 20
169.9763513547287
 10
-97.92769786263577
 20
170.7528084900362
  0
LWPOLYLINE
  5
20C
330
1F
100
AcDbEntity
  8
PROFILEEDGES
100
AcDbPolyline
 90
        2
 70
     0
 43
1.492365448374351
 10
-97.92769786263577
 20
169.1998942194211
 10
-98.02992038376857
 20
169.9763513547287
  0
LWPOLYLINE
  5
20D
330
1F
100
AcDbEntity
  8
PROFILEEDGES
100
AcDbPolyline
 90
        2
 70
     0
 43
1.492365448374351
 10
-97.62799659512189
 20
168.4763513547286
 10
-97.92769786263577
 20
169.1998942194211
  0
LWPOLYLINE
  5
20E
330
1F
100
AcDbEntity
  8
PROFILEEDGES
100
AcDbPolyline
 90
        2
 70
     0
 43
1.492365448374351
 10
-97.15124072732822
 20
167.855031011169
 10
-97.62799659512189
 20
168.4763513547286
  0
LWPOLYLINE
  5
20F
330
1F
100
AcDbEntity
  8
PROFILEEDGES
100
AcDbPolyline
 90
        2
 70
     0
 43
1.492365448374351
 10
-96.52992038376857
 20
167.3782751433754
 10
-97.15124072732822
 20
167.855031011169
  0
LWPOLYLINE
  5
210
330
1F
100
AcDbEntity
  8
PROFILEEDGES
100
AcDbPolyline
 90
        2
 70
     0
 43
1.492365448374351
 10
-98.02992038376853
 20
123.4763513547288
 10
-98.02992038376856
 20
127.4763513547288
  0
LWPOLYLINE
  5
211
330
1F
100
AcDbEntity
  8
PROFILEEDGES
100
AcDbPolyline
 90
        2
 70
     0
 43
1.492365448374351
 10
-124.0299203837686
 20
180.4763513547287
 10
-120.0299203837686
 20
180.4763513547287
  0
LWPOLYLINE
  5
212
330
1F
100
AcDbEntity
  8
PROFILEEDGES
100
AcDbPolyline
 90
        2
 70
     0
 43
1.492365448374351
 10
-48.02992038376861
 20
188.4763513547288
 10
-52.02992038376861
 20
188.4763513547288
  0
LWPOLYLINE
  5
213
330
1F
100
AcDbEntity
  8
PROFILEEDGES
100
AcDbPolyline
 90
        2
 70
     0
 43
1.492365448374351
 10
-124.0299203837686
 20
170.4763513547287
 10
-120.0299203837686
 20
170.4763513547287
  0
LWPOLYLINE
  5
214
330
1F
100
AcDbEntity
  8
PROFILEEDGES
100
AcDbPolyline
 90
        2
 70
     0
 43
1.492365448374351
 10
-116.0299203837686
 20
127.4763513547287
 10
-112.0299203837686
 20
127.4763513547287
  0
LWPOLYLINE
  5
215
330
1F
100
AcDbEntity
  8
PROFILEEDGES
100
AcDbPolyline
 90
        2
 70
     0
 43
1.492365448374351
 10
-103.5361337196866
 20
124.22291551584
 10
-104.0549203837686
 20
123.7876018173491
  0
LWPOLYLINE
  5
216
330
1F
100
AcDbEntity
  8
PROFILEEDGES
100
AcDbPolyline
 90
        2
 70
     0
 43
1.492365448374351
 10
-120.3411708463888
 20
161.0013513547285
 10
-120.7764845448796
 20
160.4825646906466
  0
LWPOLYLINE
  5
217
330
1F
100
AcDbEntity
  8
PROFILEEDGES
100
AcDbPolyline
 90
        2
 70
     0
 43
1.492365448374351
 10
-122.6968596632535
 20
160.1439507441961
 10
-123.2833562226573
 20
160.4825646906465
  0
LWPOLYLINE
  5
218
330
1F
100
AcDbEntity
  8
PROFILEEDGES
100
AcDbPolyline
 90
        2
 70
     0
 43
1.492365448374351
 10
-103.1975197732362
 20
126.1432906342138
 10
-103.0799203837686
 20
125.4763513547287
  0
LWPOLYLINE
  5
219
330
1F
100
AcDbEntity
  8
PROFILEEDGES
100
AcDbPolyline
 90
        2
 70
     0
 43
1.492365448374351
 10
-123.9502955021424
 20
162.3149653011791
 10
-123.7186699211483
 20
162.9513513547286
  0
LWPOLYLINE
  5
21A
330
1F
100
AcDbEntity
  8
PROFILEEDGES
100
AcDbPolyline
 90
        2
 70
     0
 43
1.492365448374351
 10
-122.0299203837686
 20
163.9263513547285
 10
-121.3629811042835
 20
163.8087519652611
  0
LWPOLYLINE
  5
21B
330
1F
100
AcDbEntity
  8
PROFILEEDGES
100
AcDbPolyline
 90
        2
 70
     0
 43
1.492365448374351
 10
-94.02992038376857
 20
127.4763513547289
 10
-98.02992038376856
 20
127.4763513547288
  0
LWPOLYLINE
  5
21C
330
1F
100
AcDbEntity
  8
PROFILEEDGES
100
AcDbPolyline
 90
        2
 70
     0
 43
1.492365448374351
 10
-92.02992038376858
 20
169.9763513547287
 10
-92.13214290490139
 20
169.1998942194211
  0
LWPOLYLINE
  5
21D
330
1F
100
AcDbEntity
  8
PROFILEEDGES
100
AcDbPolyline
 90
        2
 70
     0
 43
1.492365448374351
 10
-106.5237070478506
 20
124.2229155158399
 10
-106.8623209943012
 20
124.8094120752438
  0
LWPOLYLINE
  5
21E
330
1F
100
AcDbEntity
  8
PROFILEEDGES
100
AcDbPolyline
 90
        2
 70
     0
 43
1.492365448374351
 10
-48.02992038376862
 20
198.4763513547287
 10
-48.02992038376861
 20
188.4763513547288
  0
LWPOLYLINE
  5
21F
330
1F
100
AcDbEntity
  8
PROFILEEDGES
100
AcDbPolyline
 90
        2
 70
     0
 43
1.492365448374351
 10
-21.02992038376863
 20
202.4763513547287
 10
-128.0299203837687
 20
202.4763513547287
  0
LWPOLYLINE
  5
220
330
1F
100
AcDbEntity
  8
PROFILEEDGES
100
AcDbPolyline
 90
        2
 70
     0
 43
1.492365448374351
 10
-48.02992038376862
 20
198.4763513547287
 10
-52.02992038376863
 20
198.4763513547287
  0
LWPOLYLINE
  5
221
330
1F
100
AcDbEntity
  8
PROFILEEDGES
100
AcDbPolyline
 90
        2
 70
     0
 43
1.492365448374351
 10
-25.0299203837686
 20
151.4763513547287
 10
-25.0299203837686
 20
141.4763513547287
  0
LWPOLYLINE
  5
222
330
1F
100
AcDbEntity
  8
PROFILEEDGES
100
AcDbPolyline
 90
        2
 70
     0
 43
1.492365448374351
 10
-25.02992038376862
 20
198.4763513547287
 10
-25.02992038376862
 20
188.4763513547288
  0
LWPOLYLINE
  5
223
330
1F
100
AcDbEntity
  8
PROFILEEDGES
100
AcDbPolyline
 90
        2
 70
     0
 43
1.492365448374351
 10
-120.0299203837686
 20
123.4763513547286
 10
-124.0299203837686
 20
123.4763513547286
  0
LWPOLYLINE
  5
224
330
1F
100
AcDbEntity
  8
PROFILEEDGES
100
AcDbPolyline
 90
        2
 70
     0
 43
1.492365448374351
 10
-96.02992038376863
 20
137.4763513547286
 10
-21.0299203837686
 20
137.4763513547287
  0
LWPOLYLINE
  5
225
330
1F
100
AcDbEntity
  8
PROFILEEDGES
100
AcDbPolyline
 90
        2
 70
     0
 43
1.492365448374351
 10
-106.0049203837687
 20
123.787601817349
 10
-106.5237070478506
 20
124.2229155158399
  0
LWPOLYLINE
  5
226
330
1F
100
AcDbEntity
  8
PROFILEEDGES
100
AcDbPolyline
 90
        2
 70
     0
 43
1.492365448374351
 10
-106.8623209943012
 20
126.1432906342138
 10
-106.5237070478506
 20
126.7297871936174
  0
LWPOLYLINE
  5
227
330
1F
100
AcDbEntity
  8
PROFILEEDGES
100
AcDbPolyline
 90
        2
 70
     0
 43
1.492365448374351
 10
-112.0299203837686
 20
127.4763513547287
 10
-112.0299203837686
 20
123.4763513547286
  0
LWPOLYLINE
  5
228
330
1F
100
AcDbEntity
  8
PROFILEEDGES
100
AcDbPolyline
 90
        2
 70
     0
 43
1.492365448374351
 10
-106.8623209943012
 20
124.8094120752438
 10
-106.9799203837686
 20
125.4763513547287
  0
LWPOLYLINE
  5
229
330
1F
100
AcDbEntity
  8
PROFILEEDGES
100
AcDbPolyline
 90
        2
 70
     0
 43
1.492365448374351
 10
-116.0299203837686
 20
123.4763513547286
 10
-116.0299203837686
 20
127.4763513547287
  0
LWPOLYLINE
  5
22A
330
1F
100
AcDbEntity
  8
PROFILEEDGES
100
AcDbPolyline
 90
        2
 70
     0
 43
1.492365448374351
 10
-106.9799203837686
 20
125.4763513547287
 10
-106.8623209943012
 20
126.1432906342138
  0
LWPOLYLINE
  5
22B
330
1F
100
AcDbEntity
  8
PROFILEEDGES
100
AcDbPolyline
 90
        2
 70
     0
 43
1.492365448374351
 10
-104.6913064373181
 20
127.3967264731025
 10
-104.0549203837686
 20
127.1651008921084
  0
LWPOLYLINE
  5
22C
330
1F
100
AcDbEntity
  8
PROFILEEDGES
100
AcDbPolyline
 90
        2
 70
     0
 43
1.492365448374351
 10
-104.0549203837686
 20
127.1651008921084
 10
-103.5361337196866
 20
126.7297871936175
  0
LWPOLYLINE
  5
22D
330
1F
100
AcDbEntity
  8
PROFILEEDGES
100
AcDbPolyline
 90
        2
 70
     0
 43
1.492365448374351
 10
-112.0299203837686
 20
123.4763513547286
 10
-116.0299203837686
 20
123.4763513547286
  0
LWPOLYLINE
  5
22E
330
1F
100
AcDbEntity
  8
PROFILEEDGES
100
AcDbPolyline
 90
        2
 70
     0
 43
1.492365448374351
 10
-106.5237070478506
 20
126.7297871936174
 10
-106.0049203837686
 20
127.1651008921084
  0
LWPOLYLINE
  5
22F
330
1F
100
AcDbEntity
  8
PROFILEEDGES
100
AcDbPolyline
 90
        2
 70
     0
 43
1.492365448374351
 10
-106.0049203837686
 20
127.1651008921084
 10
-105.3685343302191
 20
127.3967264731025
  0
LWPOLYLINE
  5
230
330
1F
100
AcDbEntity
  8
PROFILEEDGES
100
AcDbPolyline
 90
        2
 70
     0
 43
1.492365448374351
 10
-94.02992038376854
 20
123.4763513547288
 10
-94.02992038376857
 20
127.4763513547289
  0
LWPOLYLINE
  5
231
330
1F
100
AcDbEntity
  8
PROFILEEDGES
100
AcDbPolyline
 90
        2
 70
     0
 43
1.492365448374351
 10
-120.3411708463889
 20
162.9513513547286
 10
-120.1095452653948
 20
162.314965301179
  0
LWPOLYLINE
  5
232
330
1F
100
AcDbEntity
  8
PROFILEEDGES
100
AcDbPolyline
 90
        2
 70
     0
 43
1.492365448374351
 10
-121.3629811042835
 20
163.8087519652611
 10
-120.7764845448799
 20
163.4701380188106
  0
LWPOLYLINE
  5
233
330
1F
100
AcDbEntity
  8
PROFILEEDGES
100
AcDbPolyline
 90
        2
 70
     0
 43
1.492365448374351
 10
-120.7764845448799
 20
163.4701380188106
 10
-120.3411708463889
 20
162.9513513547286
  0
LWPOLYLINE
  5
234
330
1F
100
AcDbEntity
  8
PROFILEEDGES
100
AcDbPolyline
 90
        2
 70
     0
 43
1.492365448374351
 10
-105.3685343302191
 20
127.3967264731025
 10
-104.6913064373181
 20
127.3967264731025
  0
LWPOLYLINE
  5
235
330
1F
100
AcDbEntity
  8
PROFILEEDGES
100
AcDbPolyline
 90
        2
 70
     0
 43
1.492365448374351
 10
-124.0299203837686
 20
180.4763513547287
 10
-124.0299203837686
 20
170.4763513547287
  0
LWPOLYLINE
  5
236
330
1F
100
AcDbEntity
  8
PROFILEEDGES
100
AcDbPolyline
 90
        2
 70
     0
 43
1.492365448374351
 10
-121.3629811042835
 20
160.1439507441961
 10
-122.0299203837686
 20
160.0263513547285
  0
LWPOLYLINE
  5
237
330
1F
100
AcDbEntity
  8
PROFILEEDGES
100
AcDbPolyline
 90
        2
 70
     0
 43
1.492365448374351
 10
-122.0299203837686
 20
160.0263513547285
 10
-122.6968596632535
 20
160.1439507441961
  0
LWPOLYLINE
  5
238
330
1F
100
AcDbEntity
  8
PROFILEEDGES
100
AcDbPolyline
 90
        2
 70
     0
 43
1.492365448374351
 10
-123.9502955021424
 20
161.6377374082781
 10
-123.9502955021424
 20
162.3149653011791
  0
LWPOLYLINE
  5
239
330
1F
100
AcDbEntity
  8
PROFILEEDGES
100
AcDbPolyline
 90
        2
 70
     0
 43
1.492365448374351
 10
-123.2833562226573
 20
160.4825646906465
 10
-123.7186699211482
 20
161.0013513547285
  0
LWPOLYLINE
  5
23A
330
1F
100
AcDbEntity
  8
PROFILEEDGES
100
AcDbPolyline
 90
        2
 70
     0
 43
1.492365448374351
 10
-123.7186699211482
 20
161.0013513547285
 10
-123.9502955021424
 20
161.6377374082781
  0
LWPOLYLINE
  5
23B
330
1F
100
AcDbEntity
  8
PROFILEEDGES
100
AcDbPolyline
 90
        2
 70
     0
 43
1.492365448374351
 10
-120.7764845448796
 20
160.4825646906466
 10
-121.3629811042835
 20
160.1439507441961
  0
LWPOLYLINE
  5
23C
330
1F
100
AcDbEntity
  8
PROFILEEDGES
100
AcDbPolyline
 90
        2
 70
     0
 43
1.492365448374351
 10
-123.2833562226573
 20
163.4701380188105
 10
-122.6968596632536
 20
163.808751965261
  0
LWPOLYLINE
  5
23D
330
1F
100
AcDbEntity
  8
PROFILEEDGES
100
AcDbPolyline
 90
        2
 70
     0
 43
1.492365448374351
 10
-94.02992038376854
 20
123.4763513547288
 10
-98.02992038376853
 20
123.4763513547288
  0
LWPOLYLINE
  5
23E
330
1F
100
AcDbEntity
  8
PROFILEEDGES
100
AcDbPolyline
 90
        2
 70
     0
 43
1.492365448374351
 10
-123.7186699211483
 20
162.9513513547286
 10
-123.2833562226573
 20
163.4701380188105
  0
LWPOLYLINE
  5
23F
330
1F
100
AcDbEntity
  8
PROFILEEDGES
100
AcDbPolyline
 90
        2
 70
     0
 43
1.492365448374351
 10
-33.02992038376862
 20
198.4763513547287
 10
-25.02992038376862
 20
198.4763513547287
  0
LWPOLYLINE
  5
240
330
1F
100
AcDbEntity
  8
PROFILEEDGES
100
AcDbPolyline
 90
        2
 70
     0
 43
1.492365448374351
 10
-28.71866992114827
 20
160.9513513547289
 10
-28.28335622265746
 20
161.4701380188109
  0
LWPOLYLINE
  5
241
330
1F
100
AcDbEntity
  8
PROFILEEDGES
100
AcDbPolyline
 90
        2
 70
     0
 43
1.492365448374351
 10
-103.5361337196866
 20
126.7297871936175
 10
-103.1975197732362
 20
126.1432906342138
  0
LWPOLYLINE
  5
242
330
1F
100
AcDbEntity
  8
PROFILEEDGES
100
AcDbPolyline
 90
        2
 70
     0
 43
1.492365448374351
 10
-104.0549203837686
 20
123.7876018173491
 10
-104.6913064373181
 20
123.5559762363549
  0
LWPOLYLINE
  5
243
330
1F
100
AcDbEntity
  8
PROFILEEDGES
100
AcDbPolyline
 90
        2
 70
     0
 43
1.492365448374351
 10
-104.6913064373181
 20
123.5559762363549
 10
-105.3685343302191
 20
123.5559762363548
  0
LWPOLYLINE
  5
244
330
1F
100
AcDbEntity
  8
PROFILEEDGES
100
AcDbPolyline
 90
        2
 70
     0
 43
1.492365448374351
 10
-103.1975197732362
 20
124.8094120752438
 10
-103.5361337196866
 20
124.22291551584
  0
LWPOLYLINE
  5
245
330
1F
100
AcDbEntity
  8
PROFILEEDGES
100
AcDbPolyline
 90
        2
 70
     0
 43
1.492365448374351
 10
-52.02992038376863
 20
198.4763513547287
 10
-52.02992038376861
 20
188.4763513547288
  0
LWPOLYLINE
  5
246
330
1F
100
AcDbEntity
  8
PROFILEEDGES
100
AcDbPolyline
 90
        2
 70
     0
 43
1.492365448374351
 10
-105.3685343302191
 20
123.5559762363548
 10
-106.0049203837687
 20
123.787601817349
  0
LWPOLYLINE
  5
247
330
1F
100
AcDbEntity
  8
PROFILEEDGES
100
AcDbPolyline
 90
        2
 70
     0
 43
1.492365448374351
 10
-120.1095452653948
 20
162.314965301179
 10
-120.1095452653947
 20
161.6377374082781
  0
LWPOLYLINE
  5
248
330
1F
100
AcDbEntity
  8
PROFILEEDGES
100
AcDbPolyline
 90
        2
 70
     0
 43
1.492365448374351
 10
-122.6968596632536
 20
163.808751965261
 10
-122.0299203837686
 20
163.9263513547285
  0
LWPOLYLINE
  5
249
330
1F
100
AcDbEntity
  8
PROFILEEDGES
100
AcDbPolyline
 90
        2
 70
     0
 43
1.492365448374351
 10
-124.0299203837686
 20
123.4763513547286
 10
-124.0299203837686
 20
133.4763513547286
  0
LWPOLYLINE
  5
24A
330
1F
100
AcDbEntity
  8
PROFILEEDGES
100
AcDbPolyline
 90
        2
 70
     0
 43
1.492365448374351
 10
-120.0299203837686
 20
180.4763513547287
 10
-120.0299203837686
 20
170.4763513547287
  0
LWPOLYLINE
  5
24B
330
1F
100
AcDbEntity
  8
PROFILEEDGES
100
AcDbPolyline
 90
        2
 70
     0
 43
1.492365448374351
 10
-120.0299203837686
 20
123.4763513547286
 10
-120.0299203837686
 20
133.4763513547286
  0
LWPOLYLINE
  5
24C
330
1F
100
AcDbEntity
  8
PROFILEEDGES
100
AcDbPolyline
 90
        2
 70
     0
 43
1.492365448374351
 10
-96.02992038376863
 20
137.4763513547286
 10
-78.0299203837686
 20
119.4763513547287
  0
LWPOLYLINE
  5
24D
330
1F
100
AcDbEntity
  8
PROFILEEDGES
100
AcDbPolyline
 90
        2
 70
     0
 43
1.492365448374351
 10
-25.0299203837686
 20
141.4763513547287
 10
-33.0299203837686
 20
141.4763513547287
  0
LWPOLYLINE
  5
24E
330
1F
100
AcDbEntity
  8
PROFILEEDGES
100
AcDbPolyline
 90
        2
 70
     0
 43
1.492365448374351
 10
-25.02992038376862
 20
188.4763513547288
 10
-33.02992038376861
 20
188.4763513547288
  0
LWPOLYLINE
  5
24F
330
1F
100
AcDbEntity
  8
PROFILEEDGES
100
AcDbPolyline
 90
        2
 70
     0
 43
1.492365448374351
 10
-33.02992038376861
 20
151.4763513547287
 10
-25.0299203837686
 20
151.4763513547287
  0
LWPOLYLINE
  5
250
330
1F
100
AcDbEntity
  8
PROFILEEDGES
100
AcDbPolyline
 90
        2
 70
     0
 43
1.492365448374351
 10
-120.1095452653947
 20
161.6377374082781
 10
-120.3411708463888
 20
161.0013513547285
  0
LWPOLYLINE
  5
251
330
1F
100
AcDbEntity
  8
PROFILEEDGES
100
AcDbPolyline
 90
        2
 70
     0
 43
1.492365448374351
 10
-103.0799203837686
 20
125.4763513547287
 10
-103.1975197732362
 20
124.8094120752438
  0
LWPOLYLINE
  5
252
330
1F
100
AcDbEntity
  8
PROFILEEDGES
100
AcDbPolyline
 90
        2
 70
     0
 43
1.492365448374351
 10
-33.0299203837686
 20
141.4763513547287
 10
-33.02992038376861
 20
151.4763513547287
  0
LWPOLYLINE
  5
253
330
1F
100
AcDbEntity
  8
PROFILEEDGES
100
AcDbPolyline
 90
        2
 70
     0
 43
1.492365448374351
 10
-33.02992038376861
 20
188.4763513547288
 10
-33.02992038376862
 20
198.4763513547287
  0
LWPOLYLINE
  5
254
330
1F
100
AcDbEntity
  8
PROFILEEDGES
100
AcDbPolyline
 90
        2
 70
     0
 43
1.492365448374351
 10
-25.77648454487987
 20
158.4825646906468
 10
-26.36298110428356
 20
158.1439507441963
  0
LWPOLYLINE
  5
255
330
1F
100
AcDbEntity
  8
PROFILEEDGES
100
AcDbPolyline
 90
        2
 70
     0
 43
1.492365448374351
 10
-26.36298110428356
 20
158.1439507441963
 10
-27.0299203837686
 20
158.0263513547289
  0
LWPOLYLINE
  5
256
330
1F
100
AcDbEntity
  8
PROFILEEDGES
100
AcDbPolyline
 90
        2
 70
     0
 43
1.492365448374351
 10
-27.0299203837686
 20
158.0263513547289
 10
-27.69685966325364
 20
158.1439507441963
  0
LWPOLYLINE
  5
257
330
1F
100
AcDbEntity
  8
PROFILEEDGES
100
AcDbPolyline
 90
        2
 70
     0
 43
1.492365448374351
 10
-27.69685966325364
 20
158.1439507441963
 10
-28.28335622265733
 20
158.4825646906467
  0
LWPOLYLINE
  5
258
330
1F
100
AcDbEntity
  8
PROFILEEDGES
100
AcDbPolyline
 90
        2
 70
     0
 43
1.492365448374351
 10
-28.28335622265733
 20
158.4825646906467
 10
-28.71866992114825
 20
159.0013513547287
  0
LWPOLYLINE
  5
259
330
1F
100
AcDbEntity
  8
PROFILEEDGES
100
AcDbPolyline
 90
        2
 70
     0
 43
1.492365448374351
 10
-28.71866992114825
 20
159.0013513547287
 10
-28.95029550214241
 20
159.6377374082783
  0
LWPOLYLINE
  5
25A
330
1F
100
AcDbEntity
  8
PROFILEEDGES
100
AcDbPolyline
 90
        2
 70
     0
 43
1.492365448374351
 10
-28.95029550214241
 20
159.6377374082783
 10
-28.95029550214241
 20
160.3149653011793
  0
LWPOLYLINE
  5
25B
330
1F
100
AcDbEntity
  8
PROFILEEDGES
100
AcDbPolyline
 90
        2
 70
     0
 43
1.492365448374351
 10
-28.95029550214241
 20
160.3149653011793
 10
-28.71866992114827
 20
160.9513513547289
  0
LWPOLYLINE
  5
25C
330
1F
100
AcDbEntity
  8
PROFILEEDGES
100
AcDbPolyline
 90
        2
 70
     0
 43
1.492365448374351
 10
-28.28335622265746
 20
161.4701380188109
 10
-27.69685966325365
 20
161.8087519652613
  0
LWPOLYLINE
  5
25D
330
1F
100
AcDbEntity
  8
PROFILEEDGES
100
AcDbPolyline
 90
        2
 70
     0
 43
1.492365448374351
 10
-27.69685966325365
 20
161.8087519652613
 10
-27.02992038376858
 20
161.9263513547288
  0
LWPOLYLINE
  5
25E
330
1F
100
AcDbEntity
  8
PROFILEEDGES
100
AcDbPolyline
 90
        2
 70
     0
 43
1.492365448374351
 10
-27.02992038376858
 20
161.9263513547288
 10
-26.36298110428353
 20
161.8087519652614
  0
LWPOLYLINE
  5
25F
330
1F
100
AcDbEntity
  8
PROFILEEDGES
100
AcDbPolyline
 90
        2
 70
     0
 43
1.492365448374351
 10
-26.36298110428353
 20
161.8087519652614
 10
-25.7764845448798
 20
161.4701380188109
  0
LWPOLYLINE
  5
260
330
1F
100
AcDbEntity
  8
PROFILEEDGES
100
AcDbPolyline
 90
        2
 70
     0
 43
1.492365448374351
 10
-25.7764845448798
 20
161.4701380188109
 10
-25.34117084638902
 20
160.9513513547289
  0
LWPOLYLINE
  5
261
330
1F
100
AcDbEntity
  8
PROFILEEDGES
100
AcDbPolyline
 90
        2
 70
     0
 43
1.492365448374351
 10
-25.34117084638902
 20
160.9513513547289
 10
-25.1095452653948
 20
160.3149653011794
  0
LWPOLYLINE
  5
262
330
1F
100
AcDbEntity
  8
PROFILEEDGES
100
AcDbPolyline
 90
        2
 70
     0
 43
1.492365448374351
 10
-25.1095452653948
 20
160.3149653011794
 10
-25.10954526539477
 20
159.6377374082784
  0
LWPOLYLINE
  5
263
330
1F
100
AcDbEntity
  8
PROFILEEDGES
100
AcDbPolyline
 90
        2
 70
     0
 43
1.492365448374351
 10
-25.10954526539477
 20
159.6377374082784
 10
-25.34117084638874
 20
159.0013513547289
  0
LWPOLYLINE
  5
264
330
1F
100
AcDbEntity
  8
PROFILEEDGES
100
AcDbPolyline
 90
        2
 70
     0
 43
1.492365448374351
 10
-25.34117084638874
 20
159.0013513547289
 10
-25.77648454487987
 20
158.4825646906468
  0
LWPOLYLINE
  5
265
330
1F
100
AcDbEntity
  8
PROFILEEDGES
100
AcDbPolyline
 90
        2
 70
     0
 43
1.492365448374351
 10
67.80248022676399
 20
126.1432906342139
 10
67.92007961623142
 20
125.4763513547288
  0
LWPOLYLINE
  5
266
330
1F
100
AcDbEntity
  8
PROFILEEDGES
100
AcDbPolyline
 90
        2
 70
     0
 43
1.492365448374351
 10
56.97007961623137
 20
137.4763513547288
 10
38.97007961623137
 20
119.4763513547287
  0
LWPOLYLINE
  5
267
330
1F
100
AcDbEntity
  8
PROFILEEDGES
100
AcDbPolyline
 90
        2
 70
     0
 43
1.492365448374351
 10
88.97007961623136
 20
119.4763513547287
 10
38.97007961623137
 20
119.4763513547287
  0
LWPOLYLINE
  5
268
330
1F
100
AcDbEntity
  8
PROFILEEDGES
100
AcDbPolyline
 90
        2
 70
     0
 43
1.492365448374351
 10
88.97007961623132
 20
202.4763513547288
 10
88.97007961623136
 20
119.4763513547287
  0
LWPOLYLINE
  5
269
330
1F
100
AcDbEntity
  8
PROFILEEDGES
100
AcDbPolyline
 90
        2
 70
     0
 43
1.492365448374351
 10
-18.02992038376865
 20
137.4763513547287
 10
-18.02992038376868
 20
202.4763513547287
  0
LWPOLYLINE
  5
26A
330
1F
100
AcDbEntity
  8
PROFILEEDGES
100
AcDbPolyline
 90
        2
 70
     0
 43
1.492365448374351
 10
65.63146566978094
 20
127.3967264731026
 10
66.30869356268194
 20
127.3967264731026
  0
LWPOLYLINE
  5
26B
330
1F
100
AcDbEntity
  8
PROFILEEDGES
100
AcDbPolyline
 90
        2
 70
     0
 43
1.492365448374351
 10
66.30869356268194
 20
127.3967264731026
 10
66.94507961623144
 20
127.1651008921084
  0
LWPOLYLINE
  5
26C
330
1F
100
AcDbEntity
  8
PROFILEEDGES
100
AcDbPolyline
 90
        2
 70
     0
 43
1.492365448374351
 10
66.94507961623144
 20
127.1651008921084
 10
67.46386628031344
 20
126.7297871936175
  0
LWPOLYLINE
  5
26D
330
1F
100
AcDbEntity
  8
PROFILEEDGES
100
AcDbPolyline
 90
        2
 70
     0
 43
1.492365448374351
 10
67.46386628031344
 20
126.7297871936175
 10
67.80248022676399
 20
126.1432906342139
  0
LWPOLYLINE
  5
26E
330
1F
100
AcDbEntity
  8
PROFILEEDGES
100
AcDbPolyline
 90
        2
 70
     0
 43
1.492365448374351
 10
67.92007961623142
 20
125.4763513547288
 10
67.80248022676393
 20
124.8094120752438
  0
LWPOLYLINE
  5
26F
330
1F
100
AcDbEntity
  8
PROFILEEDGES
100
AcDbPolyline
 90
        2
 70
     0
 43
1.492365448374351
 10
67.80248022676393
 20
124.8094120752438
 10
67.46386628031341
 20
124.22291551584
  0
LWPOLYLINE
  5
270
330
1F
100
AcDbEntity
  8
PROFILEEDGES
100
AcDbPolyline
 90
        2
 70
     0
 43
1.492365448374351
 10
67.46386628031341
 20
124.22291551584
 10
66.94507961623148
 20
123.787601817349
  0
LWPOLYLINE
  5
271
330
1F
100
AcDbEntity
  8
PROFILEEDGES
100
AcDbPolyline
 90
        2
 70
     0
 43
1.492365448374351
 10
66.94507961623148
 20
123.787601817349
 10
66.30869356268195
 20
123.5559762363549
  0
LWPOLYLINE
  5
272
330
1F
100
AcDbEntity
  8
PROFILEEDGES
100
AcDbPolyline
 90
        2
 70
     0
 43
1.492365448374351
 10
66.30869356268195
 20
123.5559762363549
 10
65.63146566978094
 20
123.555976236355
  0
LWPOLYLINE
  5
273
330
1F
100
AcDbEntity
  8
PROFILEEDGES
100
AcDbPolyline
 90
        2
 70
     0
 43
1.492365448374351
 10
65.63146566978094
 20
123.555976236355
 10
64.99507961623144
 20
123.7876018173492
  0
LWPOLYLINE
  5
274
330
1F
100
AcDbEntity
  8
PROFILEEDGES
100
AcDbPolyline
 90
        2
 70
     0
 43
1.492365448374351
 10
64.99507961623144
 20
123.7876018173492
 10
64.47629295214938
 20
124.2229155158401
  0
LWPOLYLINE
  5
275
330
1F
100
AcDbEntity
  8
PROFILEEDGES
100
AcDbPolyline
 90
        2
 70
     0
 43
1.492365448374351
 10
64.47629295214938
 20
124.2229155158401
 10
64.137679005699
 20
124.8094120752438
  0
LWPOLYLINE
  5
276
330
1F
100
AcDbEntity
  8
PROFILEEDGES
100
AcDbPolyline
 90
        2
 70
     0
 43
1.492365448374351
 10
64.137679005699
 20
124.8094120752438
 10
64.0200796162314
 20
125.4763513547288
  0
LWPOLYLINE
  5
277
330
1F
100
AcDbEntity
  8
PROFILEEDGES
100
AcDbPolyline
 90
        2
 70
     0
 43
1.492365448374351
 10
64.0200796162314
 20
125.4763513547288
 10
64.13767900569894
 20
126.1432906342139
  0
LWPOLYLINE
  5
278
330
1F
100
AcDbEntity
  8
PROFILEEDGES
100
AcDbPolyline
 90
        2
 70
     0
 43
1.492365448374351
 10
64.13767900569894
 20
126.1432906342139
 10
64.4762929521494
 20
126.7297871936176
  0
LWPOLYLINE
  5
279
330
1F
100
AcDbEntity
  8
PROFILEEDGES
100
AcDbPolyline
 90
        2
 70
     0
 43
1.492365448374351
 10
64.4762929521494
 20
126.7297871936176
 10
64.9950796162314
 20
127.1651008921086
  0
LWPOLYLINE
  5
27A
330
1F
100
AcDbEntity
  8
PROFILEEDGES
100
AcDbPolyline
 90
        2
 70
     0
 43
1.492365448374351
 10
64.9950796162314
 20
127.1651008921086
 10
65.63146566978094
 20
127.3967264731026
  0
LWPOLYLINE
  5
27B
330
1F
100
AcDbEntity
  8
PROFILEEDGES
100
AcDbPolyline
 90
        2
 70
     0
 43
1.492365448374351
 10
80.97007961623136
 20
123.4763513547287
 10
80.97007961623135
 20
133.4763513547287
  0
LWPOLYLINE
  5
27C
330
1F
100
AcDbEntity
  8
PROFILEEDGES
100
AcDbPolyline
 90
        2
 70
     0
 43
1.492365448374351
 10
84.97007961623135
 20
133.4763513547287
 10
80.97007961623135
 20
133.4763513547287
  0
LWPOLYLINE
  5
27D
330
1F
100
AcDbEntity
  8
PROFILEEDGES
100
AcDbPolyline
 90
        2
 70
     0
 43
1.492365448374351
 10
84.97007961623135
 20
133.4763513547287
 10
84.97007961623135
 20
123.4763513547287
  0
LWPOLYLINE
  5
27E
330
1F
100
AcDbEntity
  8
PROFILEEDGES
100
AcDbPolyline
 90
        2
 70
     0
 43
1.492365448374351
 10
84.97007961623135
 20
123.4763513547287
 10
80.97007961623136
 20
123.4763513547287
  0
LWPOLYLINE
  5
27F
330
1F
100
AcDbEntity
  8
PROFILEEDGES
100
AcDbPolyline
 90
        2
 70
     0
 43
1.492365448374351
 10
56.74653675153886
 20
167.0785738758616
 10
57.4700796162313
 20
167.3782751433754
  0
LWPOLYLINE
  5
280
330
1F
100
AcDbEntity
  8
PROFILEEDGES
100
AcDbPolyline
 90
        2
 70
     0
 43
1.492365448374351
 10
55.9700796162313
 20
166.9763513547288
 10
56.74653675153886
 20
167.0785738758616
  0
LWPOLYLINE
  5
281
330
1F
100
AcDbEntity
  8
PROFILEEDGES
100
AcDbPolyline
 90
        2
 70
     0
 43
1.492365448374351
 10
55.19362248092374
 20
167.0785738758616
 10
55.9700796162313
 20
166.9763513547288
  0
LWPOLYLINE
  5
282
330
1F
100
AcDbEntity
  8
PROFILEEDGES
100
AcDbPolyline
 90
        2
 70
     0
 43
1.492365448374351
 10
54.4700796162313
 20
167.3782751433754
 10
55.19362248092374
 20
167.0785738758616
  0
LWPOLYLINE
  5
283
330
1F
100
AcDbEntity
  8
PROFILEEDGES
100
AcDbPolyline
 90
        2
 70
     0
 43
1.492365448374351
 10
53.84875927267166
 20
167.8550310111691
 10
54.4700796162313
 20
167.3782751433754
  0
LWPOLYLINE
  5
284
330
1F
100
AcDbEntity
  8
PROFILEEDGES
100
AcDbPolyline
 90
        2
 70
     0
 43
1.492365448374351
 10
53.37200340487799
 20
168.4763513547288
 10
53.84875927267166
 20
167.8550310111691
  0
LWPOLYLINE
  5
285
330
1F
100
AcDbEntity
  8
PROFILEEDGES
100
AcDbPolyline
 90
        2
 70
     0
 43
1.492365448374351
 10
53.07230213736411
 20
169.1998942194212
 10
53.37200340487799
 20
168.4763513547288
  0
LWPOLYLINE
  5
286
330
1F
100
AcDbEntity
  8
PROFILEEDGES
100
AcDbPolyline
 90
        2
 70
     0
 43
1.492365448374351
 10
53.07230213736411
 20
169.1998942194212
 10
52.97007961623131
 20
169.9763513547288
  0
LWPOLYLINE
  5
287
330
1F
100
AcDbEntity
  8
PROFILEEDGES
100
AcDbPolyline
 90
        2
 70
     0
 43
1.492365448374351
 10
53.07230213736411
 20
170.7528084900363
 10
52.97007961623131
 20
169.9763513547288
  0
LWPOLYLINE
  5
288
330
1F
100
AcDbEntity
  8
PROFILEEDGES
100
AcDbPolyline
 90
        2
 70
     0
 43
1.492365448374351
 10
53.37200340487799
 20
171.4763513547288
 10
53.07230213736411
 20
170.7528084900363
  0
LWPOLYLINE
  5
289
330
1F
100
AcDbEntity
  8
PROFILEEDGES
100
AcDbPolyline
 90
        2
 70
     0
 43
1.492365448374351
 10
53.84875927267166
 20
172.0976716982884
 10
53.37200340487799
 20
171.4763513547288
  0
LWPOLYLINE
  5
28A
330
1F
100
AcDbEntity
  8
PROFILEEDGES
100
AcDbPolyline
 90
        2
 70
     0
 43
1.492365448374351
 10
54.4700796162313
 20
172.5744275660821
 10
53.84875927267166
 20
172.0976716982884
  0
LWPOLYLINE
  5
28B
330
1F
100
AcDbEntity
  8
PROFILEEDGES
100
AcDbPolyline
 90
        2
 70
     0
 43
1.492365448374351
 10
55.19362248092374
 20
172.874128833596
 10
54.4700796162313
 20
172.5744275660821
  0
LWPOLYLINE
  5
28C
330
1F
100
AcDbEntity
  8
PROFILEEDGES
100
AcDbPolyline
 90
        2
 70
     0
 43
1.492365448374351
 10
55.9700796162313
 20
172.9763513547288
 10
55.19362248092374
 20
172.874128833596
  0
LWPOLYLINE
  5
28D
330
1F
100
AcDbEntity
  8
PROFILEEDGES
100
AcDbPolyline
 90
        2
 70
     0
 43
1.492365448374351
 10
56.74653675153887
 20
172.874128833596
 10
55.9700796162313
 20
172.9763513547288
  0
LWPOLYLINE
  5
28E
330
1F
100
AcDbEntity
  8
PROFILEEDGES
100
AcDbPolyline
 90
        2
 70
     0
 43
1.492365448374351
 10
57.4700796162313
 20
172.5744275660821
 10
56.74653675153887
 20
172.874128833596
  0
LWPOLYLINE
  5
28F
330
1F
100
AcDbEntity
  8
PROFILEEDGES
100
AcDbPolyline
 90
        2
 70
     0
 43
1.492365448374351
 10
58.09139995979094
 20
172.0976716982884
 10
57.4700796162313
 20
172.5744275660821
  0
LWPOLYLINE
  5
290
330
1F
100
AcDbEntity
  8
PROFILEEDGES
100
AcDbPolyline
 90
        2
 70
     0
 43
1.492365448374351
 10
58.56815582758461
 20
171.4763513547287
 10
58.09139995979094
 20
172.0976716982884
  0
LWPOLYLINE
  5
291
330
1F
100
AcDbEntity
  8
PROFILEEDGES
100
AcDbPolyline
 90
        2
 70
     0
 43
1.492365448374351
 10
58.86785709509849
 20
170.7528084900363
 10
58.56815582758461
 20
171.4763513547287
  0
LWPOLYLINE
  5
292
330
1F
100
AcDbEntity
  8
PROFILEEDGES
100
AcDbPolyline
 90
        2
 70
     0
 43
1.492365448374351
 10
58.9700796162313
 20
169.9763513547288
 10
58.86785709509849
 20
170.7528084900363
  0
LWPOLYLINE
  5
293
330
1F
100
AcDbEntity
  8
PROFILEEDGES
100
AcDbPolyline
 90
        2
 70
     0
 43
1.492365448374351
 10
58.86785709509849
 20
169.1998942194212
 10
58.9700796162313
 20
169.9763513547288
  0
LWPOLYLINE
  5
294
330
1F
100
AcDbEntity
  8
PROFILEEDGES
100
AcDbPolyline
 90
        2
 70
     0
 43
1.492365448374351
 10
58.56815582758461
 20
168.4763513547287
 10
58.86785709509849
 20
169.1998942194212
  0
LWPOLYLINE
  5
295
330
1F
100
AcDbEntity
  8
PROFILEEDGES
100
AcDbPolyline
 90
        2
 70
     0
 43
1.492365448374351
 10
58.09139995979094
 20
167.8550310111691
 10
58.56815582758461
 20
168.4763513547287
  0
LWPOLYLINE
  5
296
330
1F
100
AcDbEntity
  8
PROFILEEDGES
100
AcDbPolyline
 90
        2
 70
     0
 43
1.492365448374351
 10
57.4700796162313
 20
167.3782751433754
 10
58.09139995979094
 20
167.8550310111691
  0
LWPOLYLINE
  5
297
330
1F
100
AcDbEntity
  8
PROFILEEDGES
100
AcDbPolyline
 90
        2
 70
     0
 43
1.492365448374351
 10
54.97007961623134
 20
127.4763513547289
 10
58.97007961623133
 20
127.4763513547289
  0
LWPOLYLINE
  5
298
330
1F
100
AcDbEntity
  8
PROFILEEDGES
100
AcDbPolyline
 90
        2
 70
     0
 43
1.492365448374351
 10
58.9700796162313
 20
123.4763513547289
 10
58.97007961623133
 20
127.4763513547289
  0
LWPOLYLINE
  5
299
330
1F
100
AcDbEntity
  8
PROFILEEDGES
100
AcDbPolyline
 90
        2
 70
     0
 43
1.492365448374351
 10
58.9700796162313
 20
123.4763513547289
 10
54.9700796162313
 20
123.476351354729
  0
LWPOLYLINE
  5
29A
330
1F
100
AcDbEntity
  8
PROFILEEDGES
100
AcDbPolyline
 90
        2
 70
     0
 43
1.492365448374351
 10
54.9700796162313
 20
123.476351354729
 10
54.97007961623134
 20
127.4763513547289
  0
LWPOLYLINE
  5
29B
330
1F
100
AcDbEntity
  8
PROFILEEDGES
100
AcDbPolyline
 90
        2
 70
     0
 43
1.492365448374351
 10
72.9700796162314
 20
127.4763513547288
 10
76.97007961623137
 20
127.4763513547288
  0
LWPOLYLINE
  5
29C
330
1F
100
AcDbEntity
  8
PROFILEEDGES
100
AcDbPolyline
 90
        2
 70
     0
 43
1.492365448374351
 10
76.97007961623137
 20
127.4763513547288
 10
76.97007961623136
 20
123.4763513547288
  0
LWPOLYLINE
  5
29D
330
1F
100
AcDbEntity
  8
PROFILEEDGES
100
AcDbPolyline
 90
        2
 70
     0
 43
1.492365448374351
 10
76.97007961623136
 20
123.4763513547288
 10
72.97007961623136
 20
123.4763513547288
  0
LWPOLYLINE
  5
29E
330
1F
100
AcDbEntity
  8
PROFILEEDGES
100
AcDbPolyline
 90
        2
 70
     0
 43
1.492365448374351
 10
72.97007961623136
 20
123.4763513547288
 10
72.9700796162314
 20
127.4763513547288
  0
LWPOLYLINE
  5
29F
330
1F
100
AcDbEntity
  8
PROFILEEDGES
100
AcDbPolyline
 90
        2
 70
     0
 43
1.492365448374351
 10
84.22351545512005
 20
163.4701380188106
 10
84.65882915361101
 20
162.9513513547287
  0
LWPOLYLINE
  5
2A0
330
1F
100
AcDbEntity
  8
PROFILEEDGES
100
AcDbPolyline
 90
        2
 70
     0
 43
1.492365448374351
 10
84.65882915361101
 20
162.9513513547287
 10
84.89045473460507
 20
162.3149653011792
  0
LWPOLYLINE
  5
2A1
330
1F
100
AcDbEntity
  8
PROFILEEDGES
100
AcDbPolyline
 90
        2
 70
     0
 43
1.492365448374351
 10
84.89045473460507
 20
162.3149653011792
 10
84.89045473460514
 20
161.6377374082782
  0
LWPOLYLINE
  5
2A2
330
1F
100
AcDbEntity
  8
PROFILEEDGES
100
AcDbPolyline
 90
        2
 70
     0
 43
1.492365448374351
 10
84.89045473460514
 20
161.6377374082782
 10
84.65882915361097
 20
161.0013513547287
  0
LWPOLYLINE
  5
2A3
330
1F
100
AcDbEntity
  8
PROFILEEDGES
100
AcDbPolyline
 90
        2
 70
     0
 43
1.492365448374351
 10
84.65882915361097
 20
161.0013513547287
 10
84.22351545512001
 20
160.4825646906466
  0
LWPOLYLINE
  5
2A4
330
1F
100
AcDbEntity
  8
PROFILEEDGES
100
AcDbPolyline
 90
        2
 70
     0
 43
1.492365448374351
 10
84.22351545512001
 20
160.4825646906466
 10
83.63701889571631
 20
160.1439507441962
  0
LWPOLYLINE
  5
2A5
330
1F
100
AcDbEntity
  8
PROFILEEDGES
100
AcDbPolyline
 90
        2
 70
     0
 43
1.492365448374351
 10
83.63701889571631
 20
160.1439507441962
 10
82.97007961623133
 20
160.0263513547286
  0
LWPOLYLINE
  5
2A6
330
1F
100
AcDbEntity
  8
PROFILEEDGES
100
AcDbPolyline
 90
        2
 70
     0
 43
1.492365448374351
 10
82.97007961623133
 20
160.0263513547286
 10
82.30314033674627
 20
160.1439507441962
  0
LWPOLYLINE
  5
2A7
330
1F
100
AcDbEntity
  8
PROFILEEDGES
100
AcDbPolyline
 90
        2
 70
     0
 43
1.492365448374351
 10
82.30314033674627
 20
160.1439507441962
 10
81.71664377734231
 20
160.4825646906467
  0
LWPOLYLINE
  5
2A8
330
1F
100
AcDbEntity
  8
PROFILEEDGES
100
AcDbPolyline
 90
        2
 70
     0
 43
1.492365448374351
 10
81.71664377734231
 20
160.4825646906467
 10
81.2813300788515
 20
161.0013513547286
  0
LWPOLYLINE
  5
2A9
330
1F
100
AcDbEntity
  8
PROFILEEDGES
100
AcDbPolyline
 90
        2
 70
     0
 43
1.492365448374351
 10
81.2813300788515
 20
161.0013513547286
 10
81.04970449785743
 20
161.6377374082783
  0
LWPOLYLINE
  5
2AA
330
1F
100
AcDbEntity
  8
PROFILEEDGES
100
AcDbPolyline
 90
        2
 70
     0
 43
1.492365448374351
 10
81.04970449785743
 20
161.6377374082783
 10
81.04970449785749
 20
162.3149653011791
  0
LWPOLYLINE
  5
2AB
330
1F
100
AcDbEntity
  8
PROFILEEDGES
100
AcDbPolyline
 90
        2
 70
     0
 43
1.492365448374351
 10
81.04970449785749
 20
162.3149653011791
 10
81.28133007885165
 20
162.9513513547287
  0
LWPOLYLINE
  5
2AC
330
1F
100
AcDbEntity
  8
PROFILEEDGES
100
AcDbPolyline
 90
        2
 70
     0
 43
1.492365448374351
 10
81.28133007885165
 20
162.9513513547287
 10
81.71664377734267
 20
163.4701380188108
  0
LWPOLYLINE
  5
2AD
330
1F
100
AcDbEntity
  8
PROFILEEDGES
100
AcDbPolyline
 90
        2
 70
     0
 43
1.492365448374351
 10
81.71664377734267
 20
163.4701380188108
 10
82.30314033674622
 20
163.8087519652612
  0
LWPOLYLINE
  5
2AE
330
1F
100
AcDbEntity
  8
PROFILEEDGES
100
AcDbPolyline
 90
        2
 70
     0
 43
1.492365448374351
 10
82.30314033674622
 20
163.8087519652612
 10
82.97007961623132
 20
163.9263513547286
  0
LWPOLYLINE
  5
2AF
330
1F
100
AcDbEntity
  8
PROFILEEDGES
100
AcDbPolyline
 90
        2
 70
     0
 43
1.492365448374351
 10
82.97007961623132
 20
163.9263513547286
 10
83.63701889571635
 20
163.8087519652611
  0
LWPOLYLINE
  5
2B0
330
1F
100
AcDbEntity
  8
PROFILEEDGES
100
AcDbPolyline
 90
        2
 70
     0
 43
1.492365448374351
 10
83.63701889571635
 20
163.8087519652611
 10
84.22351545512005
 20
163.4701380188106
  0
LWPOLYLINE
  5
2B1
330
1F
100
AcDbEntity
  8
PROFILEEDGES
100
AcDbPolyline
 90
        2
 70
     0
 43
1.492365448374351
 10
84.97007961623129
 20
180.4763513547288
 10
84.9700796162313
 20
170.4763513547288
  0
LWPOLYLINE
  5
2B2
330
1F
100
AcDbEntity
  8
PROFILEEDGES
100
AcDbPolyline
 90
        2
 70
     0
 43
1.492365448374351
 10
84.9700796162313
 20
170.4763513547288
 10
80.9700796162313
 20
170.4763513547288
  0
LWPOLYLINE
  5
2B3
330
1F
100
AcDbEntity
  8
PROFILEEDGES
100
AcDbPolyline
 90
        2
 70
     0
 43
1.492365448374351
 10
80.9700796162313
 20
170.4763513547288
 10
80.9700796162313
 20
180.4763513547288
  0
LWPOLYLINE
  5
2B4
330
1F
100
AcDbEntity
  8
PROFILEEDGES
100
AcDbPolyline
 90
        2
 70
     0
 43
1.492365448374351
 10
84.97007961623129
 20
180.4763513547288
 10
80.9700796162313
 20
180.4763513547288
  0
LWPOLYLINE
  5
2B5
330
1F
100
AcDbEntity
  8
PROFILEEDGES
100
AcDbPolyline
 90
        2
 70
     0
 43
1.492365448374351
 10
8.97007961623132
 20
198.4763513547287
 10
12.97007961623132
 20
198.4763513547287
  0
LWPOLYLINE
  5
2B6
330
1F
100
AcDbEntity
  8
PROFILEEDGES
100
AcDbPolyline
 90
        2
 70
     0
 43
1.492365448374351
 10
12.97007961623132
 20
198.4763513547287
 10
12.97007961623132
 20
188.4763513547288
  0
LWPOLYLINE
  5
2B7
330
1F
100
AcDbEntity
  8
PROFILEEDGES
100
AcDbPolyline
 90
        2
 70
     0
 43
1.492365448374351
 10
8.970079616231326
 20
188.4763513547288
 10
12.97007961623132
 20
188.4763513547288
  0
LWPOLYLINE
  5
2B8
330
1F
100
AcDbEntity
  8
PROFILEEDGES
100
AcDbPolyline
 90
        2
 70
     0
 43
1.492365448374351
 10
8.970079616231326
 20
188.4763513547288
 10
8.97007961623132
 20
198.4763513547287
  0
LWPOLYLINE
  5
2B9
330
1F
100
AcDbEntity
  8
PROFILEEDGES
100
AcDbPolyline
 90
        2
 70
     0
 43
1.492365448374351
 10
-14.02992038376868
 20
198.4763513547287
 10
-6.029920383768679
 20
198.4763513547287
  0
LWPOLYLINE
  5
2BA
330
1F
100
AcDbEntity
  8
PROFILEEDGES
100
AcDbPolyline
 90
        2
 70
     0
 43
1.492365448374351
 10
-6.029920383768674
 20
188.4763513547288
 10
-14.02992038376867
 20
188.4763513547288
  0
LWPOLYLINE
  5
2BB
330
1F
100
AcDbEntity
  8
PROFILEEDGES
100
AcDbPolyline
 90
        2
 70
     0
 43
1.492365448374351
 10
-14.02992038376867
 20
188.4763513547288
 10
-14.02992038376868
 20
198.4763513547287
  0
LWPOLYLINE
  5
2BC
330
1F
100
AcDbEntity
  8
PROFILEEDGES
100
AcDbPolyline
 90
        2
 70
     0
 43
1.492365448374351
 10
-6.029920383768655
 20
141.4763513547287
 10
-14.02992038376865
 20
141.4763513547287
  0
LWPOLYLINE
  5
2BD
330
1F
100
AcDbEntity
  8
PROFILEEDGES
100
AcDbPolyline
 90
        2
 70
     0
 43
1.492365448374351
 10
-14.02992038376865
 20
141.4763513547287
 10
-14.02992038376865
 20
151.4763513547287
  0
LWPOLYLINE
  5
2BE
330
1F
100
AcDbEntity
  8
PROFILEEDGES
100
AcDbPolyline
 90
        2
 70
     0
 43
1.492365448374351
 10
-14.02992038376865
 20
151.4763513547287
 10
-6.029920383768658
 20
151.4763513547287
  0
LWPOLYLINE
  5
2BF
330
1F
100
AcDbEntity
  8
PROFILEEDGES
100
AcDbPolyline
 90
        2
 70
     0
 43
1.492365448374351
 10
-6.029920383768679
 20
198.4763513547287
 10
-6.029920383768674
 20
188.4763513547288
  0
LWPOLYLINE
  5
2C0
330
1F
100
AcDbEntity
  8
PROFILEEDGES
100
AcDbPolyline
 90
        2
 70
     0
 43
1.492365448374351
 10
-13.71866992114852
 20
159.0013513547289
 10
-13.95029550214249
 20
159.6377374082784
  0
LWPOLYLINE
  5
2C1
330
1F
100
AcDbEntity
  8
PROFILEEDGES
100
AcDbPolyline
 90
        2
 70
     0
 43
1.492365448374351
 10
-13.95029550214249
 20
159.6377374082784
 10
-13.95029550214245
 20
160.3149653011794
  0
LWPOLYLINE
  5
2C2
330
1F
100
AcDbEntity
  8
PROFILEEDGES
100
AcDbPolyline
 90
        2
 70
     0
 43
1.492365448374351
 10
-13.95029550214245
 20
160.3149653011794
 10
-13.71866992114825
 20
160.9513513547289
  0
LWPOLYLINE
  5
2C3
330
1F
100
AcDbEntity
  8
PROFILEEDGES
100
AcDbPolyline
 90
        2
 70
     0
 43
1.492365448374351
 10
-13.71866992114825
 20
160.9513513547289
 10
-13.28335622265745
 20
161.4701380188109
  0
LWPOLYLINE
  5
2C4
330
1F
100
AcDbEntity
  8
PROFILEEDGES
100
AcDbPolyline
 90
        2
 70
     0
 43
1.492365448374351
 10
-13.28335622265745
 20
161.4701380188109
 10
-12.69685966325373
 20
161.8087519652614
  0
LWPOLYLINE
  5
2C5
330
1F
100
AcDbEntity
  8
PROFILEEDGES
100
AcDbPolyline
 90
        2
 70
     0
 43
1.492365448374351
 10
-12.69685966325373
 20
161.8087519652614
 10
-12.02992038376868
 20
161.9263513547288
  0
LWPOLYLINE
  5
2C6
330
1F
100
AcDbEntity
  8
PROFILEEDGES
100
AcDbPolyline
 90
        2
 70
     0
 43
1.492365448374351
 10
-12.02992038376868
 20
161.9263513547288
 10
-11.36298110428363
 20
161.8087519652613
  0
LWPOLYLINE
  5
2C7
330
1F
100
AcDbEntity
  8
PROFILEEDGES
100
AcDbPolyline
 90
        2
 70
     0
 43
1.492365448374351
 10
-11.36298110428363
 20
161.8087519652613
 10
-10.7764845448798
 20
161.4701380188109
  0
LWPOLYLINE
  5
2C8
330
1F
100
AcDbEntity
  8
PROFILEEDGES
100
AcDbPolyline
 90
        2
 70
     0
 43
1.492365448374351
 10
-10.7764845448798
 20
161.4701380188109
 10
-10.341170846389
 20
160.9513513547289
  0
LWPOLYLINE
  5
2C9
330
1F
100
AcDbEntity
  8
PROFILEEDGES
100
AcDbPolyline
 90
        2
 70
     0
 43
1.492365448374351
 10
-10.341170846389
 20
160.9513513547289
 10
-10.10954526539486
 20
160.3149653011793
  0
LWPOLYLINE
  5
2CA
330
1F
100
AcDbEntity
  8
PROFILEEDGES
100
AcDbPolyline
 90
        2
 70
     0
 43
1.492365448374351
 10
-10.10954526539486
 20
160.3149653011793
 10
-10.10954526539486
 20
159.6377374082783
  0
LWPOLYLINE
  5
2CB
330
1F
100
AcDbEntity
  8
PROFILEEDGES
100
AcDbPolyline
 90
        2
 70
     0
 43
1.492365448374351
 10
-10.10954526539486
 20
159.6377374082783
 10
-10.34117084638897
 20
159.0013513547288
  0
LWPOLYLINE
  5
2CC
330
1F
100
AcDbEntity
  8
PROFILEEDGES
100
AcDbPolyline
 90
        2
 70
     0
 43
1.492365448374351
 10
-10.34117084638897
 20
159.0013513547288
 10
-10.77648454487989
 20
158.4825646906468
  0
LWPOLYLINE
  5
2CD
330
1F
100
AcDbEntity
  8
PROFILEEDGES
100
AcDbPolyline
 90
        2
 70
     0
 43
1.492365448374351
 10
-10.77648454487989
 20
158.4825646906468
 10
-11.36298110428362
 20
158.1439507441963
  0
LWPOLYLINE
  5
2CE
330
1F
100
AcDbEntity
  8
PROFILEEDGES
100
AcDbPolyline
 90
        2
 70
     0
 43
1.492365448374351
 10
-11.36298110428362
 20
158.1439507441963
 10
-12.02992038376866
 20
158.0263513547289
  0
LWPOLYLINE
  5
2CF
330
1F
100
AcDbEntity
  8
PROFILEEDGES
100
AcDbPolyline
 90
        2
 70
     0
 43
1.492365448374351
 10
-12.02992038376866
 20
158.0263513547289
 10
-12.69685966325372
 20
158.1439507441963
  0
LWPOLYLINE
  5
2D0
330
1F
100
AcDbEntity
  8
PROFILEEDGES
100
AcDbPolyline
 90
        2
 70
     0
 43
1.492365448374351
 10
-12.69685966325372
 20
158.1439507441963
 10
-13.28335622265741
 20
158.4825646906469
  0
LWPOLYLINE
  5
2D1
330
1F
100
AcDbEntity
  8
PROFILEEDGES
100
AcDbPolyline
 90
        2
 70
     0
 43
1.492365448374351
 10
-13.28335622265741
 20
158.4825646906469
 10
-13.71866992114852
 20
159.0013513547289
  0
LWPOLYLINE
  5
2D2
330
1F
100
AcDbEntity
  8
PROFILEEDGES
100
AcDbPolyline
 90
        2
 70
     0
 43
1.492365448374351
 10
-18.02992038376868
 20
202.4763513547287
 10
88.97007961623132
 20
202.4763513547288
  0
LWPOLYLINE
  5
2D3
330
1F
100
AcDbEntity
  8
PROFILEEDGES
100
AcDbPolyline
 90
        2
 70
     0
 43
1.492365448374351
 10
56.97007961623137
 20
137.4763513547288
 10
-18.02992038376865
 20
137.4763513547287
  0
LWPOLYLINE
  5
2D4
330
1F
100
AcDbEntity
  8
PROFILEEDGES
100
AcDbPolyline
 90
        2
 70
     0
 43
1.492365448374351
 10
-6.029920383768658
 20
151.4763513547287
 10
-6.029920383768655
 20
141.4763513547287
  0
LWPOLYLINE
  5
2D5
330
1F
100
AcDbEntity
  8
PROFILEEDGES
100
AcDbPolyline
 90
        2
 70
     0
 43
1.492365448374351
 10
-95.03435347266368
 20
-198.4763513547288
 10
-95.03435347266368
 20
111.5236486452712
  0
LWPOLYLINE
  5
2D6
330
1F
100
AcDbEntity
  8
PROFILEEDGES
100
AcDbPolyline
 90
        2
 70
     0
 43
1.492365448374351
 10
30.51221184761782
 20
-153.6641735282378
 10
32.20047853190014
 20
-152.9648705707054
  0
LWPOLYLINE
  5
2D7
330
1F
100
AcDbEntity
  8
PROFILEEDGES
100
AcDbPolyline
 90
        2
 70
     0
 43
1.492365448374351
 10
30.51221184761782
 20
66.71147081878004
 10
32.20047853190014
 20
66.01216786124776
  0
LWPOLYLINE
  5
2D8
330
1F
100
AcDbEntity
  8
PROFILEEDGES
100
AcDbPolyline
 90
        2
 70
     0
 43
1.492365448374351
 10
32.20047853190014
 20
79.53512942929466
 10
30.51221184761782
 20
78.8358264717622
  0
LWPOLYLINE
  5
2D9
330
1F
100
AcDbEntity
  8
PROFILEEDGES
100
AcDbPolyline
 90
        2
 70
     0
 43
1.492365448374351
 10
32.20047853190014
 20
-166.4878321387523
 10
30.51221184761782
 20
-165.7885291812199
  0
LWPOLYLINE
  5
2DA
330
1F
100
AcDbEntity
  8
PROFILEEDGES
100
AcDbPolyline
 90
        2
 70
     0
 43
1.492365448374351
 10
32.20047853190014
 20
-88.98783213875227
 10
30.51221184761782
 20
-88.2885291812199
  0
LWPOLYLINE
  5
2DB
330
1F
100
AcDbEntity
  8
PROFILEEDGES
100
AcDbPolyline
 90
        2
 70
     0
 43
1.492365448374351
 10
30.51221184761782
 20
-76.1641735282377
 10
32.20047853190014
 20
-75.46487057070541
  0
LWPOLYLINE
  5
2DC
330
1F
100
AcDbEntity
  8
PROFILEEDGES
100
AcDbPolyline
 90
        2
 70
     0
 43
1.492365448374351
 10
32.20047853190014
 20
-11.48783213875225
 10
30.51221184761782
 20
-10.78852918121979
  0
LWPOLYLINE
  5
2DD
330
1F
100
AcDbEntity
  8
PROFILEEDGES
100
AcDbPolyline
 90
        2
 70
     0
 43
1.492365448374351
 10
30.51221184761782
 20
1.335826471762366
 10
32.20047853190014
 20
2.035129429294644
  0
LWPOLYLINE
  5
2DE
330
1F
100
AcDbEntity
  8
PROFILEEDGES
100
AcDbPolyline
 90
        2
 70
     0
 43
1.492365448374351
 10
67.99218290731714
 20
-184.4763513547288
 10
60.99218290731711
 20
-184.4763513547288
  0
LWPOLYLINE
  5
2DF
330
1F
100
AcDbEntity
  8
PROFILEEDGES
100
AcDbPolyline
 90
        2
 70
     0
 43
1.492365448374351
 10
-98.02992038376858
 20
111.5236486452712
 10
-98.02992038376858
 20
-198.4763513547288
  0
ENDSEC
  0
SECTION
  2
OBJECTS
  0
DICTIONARY
  5
C
330
0
100
AcDbDictionary
  3
ACAD_GROUP
350
D
  3
ACAD_LAYOUT
350
1A
  3
ACAD_MATERIAL
350
43
  3
ACAD_MLEADERSTYLE
350
6B
  3
ACAD_MLINESTYLE
350
17
  3
ACAD_PLOTSETTINGS
350
19
  3
ACAD_SCALELIST
350
47
  3
ACAD_VISUALSTYLE
350
2A
  3
ACDBHEADERROUNDTRIPXREC
350
2E0
  3
ACDBVARIABLEDICTIONARY
350
301
  0
DICTIONARY
  5
308
330
8
100
AcDbDictionary
280
     1
  3
ACAD_XREC_ROUNDTRIP
360
309
  0
DICTIONARY
  5
D
102
{ACAD_REACTORS
330
C
102
}
330
C
100
AcDbDictionary
  0
DICTIONARY
  5
1A
102
{ACAD_REACTORS
330
C
102
}
330
C
100
AcDbDictionary
  0
DICTIONARY
  5
43
102
{ACAD_REACTORS
330
C
102
}
330
C
100
AcDbDictionary
  3
BYBLOCK
350
45
  3
BYLAYER
350
44
  3
GLOBAL
350
46
  0
DICTIONARY
  5
6B
102
{ACAD_REACTORS
330
C
102
}
330
C
100
AcDbDictionary
  3
STANDARD
350
6C
  0
DICTIONARY
  5
17
102
{ACAD_REACTORS
330
C
102
}
330
C
100
AcDbDictionary
  3
STANDARD
350
18
  0
DICTIONARY
  5
19
102
{ACAD_REACTORS
330
C
102
}
330
C
100
AcDbDictionary
  0
DICTIONARY
  5
47
102
{ACAD_REACTORS
330
C
102
}
330
C
100
AcDbDictionary
  3
A0
350
48
  3
A1
350
49
  3
A2
350
4A
  3
A3
350
4B
  3
A4
350
4C
  3
A5
350
4D
  3
A6
350
4E
  3
A7
350
4F
  3
A8
350
50
  3
A9
350
51
  3
B0
350
52
  3
B1
350
53
  3
B2
350
54
  3
B3
350
55
  3
B4
350
56
  3
B5
350
57
  3
B6
350
58
  3
B7
350
59
  3
B8
350
5A
  3
B9
350
5B
  3
C0
350
5C
  3
C1
350
5D
  3
C2
350
5E
  3
C3
350
5F
  3
C4
350
60
  3
C5
350
61
  3
C6
350
62
  3
C7
350
63
  3
C8
350
64
  3
C9
350
65
  3
D0
350
66
  3
D1
350
67
  3
D2
350
68
  0
DICTIONARY
  5
2A
102
{ACAD_REACTORS
330
C
102
}
330
C
100
AcDbDictionary
  3
2DWIREFRAME
350
2F
  3
BASIC
350
32
  3
BRIGHTEN
350
36
  3
COLORCHANGE
350
3A
  3
CONCEPTUAL
350
34
  3
DIM
350
35
  3
EDGECOLOROFF
350
3D
  3
FACEPATTERN
350
39
  3
FLAT
350
2B
  3
FLATWITHEDGES
350
2C
  3
GOURAUD
350
2D
  3
GOURAUDWITHEDGES
350
2E
  3
HIDDEN
350
31
  3
JITTEROFF
350
3B
  3
LINEPATTERN
350
38
  3
OVERHANGOFF
350
3C
  3
REALISTIC
350
33
  3
SHADED
350
42
  3
SHADED_WITH_EDGES
350
41
  3
SHADES_OF_GRAY
350
3E
  3
SKETCHY
350
3F
  3
THICKEN
350
37
  3
WIREFRAME
350
30
  3
X-RAY
350
40
  0
DICTIONARY
  5
2E0
102
{ACAD_REACTORS
330
C
102
}
330
C
100
AcDbDictionary
  3
CEPSNID
350
2EA
  3
CEPSNTYPE
350
2E9
  3
DIMSTYLEDATA
350
300
  3
FINGERPRINTGUID
350
2EB
  3
HYPERLINKBASE
350
2E3
  3
INSUNITS
350
2E8
  3
LAYOUTDICT
350
2E5
  3
LWETCUNION
350
2E7
  3
PLOTSETDICT
350
2E6
  3
PSVPSCALE
350
2ED
  3
PUCSBASE
350
2F0
  3
PUCSORGBACK
350
2F6
  3
PUCSORGBOTTOM
350
2F2
  3
PUCSORGFRONT
350
2F5
  3
PUCSORGLEFT
350
2F3
  3
PUCSORGRIGHT
350
2F4
  3
PUCSORGTOP
350
2F1
  3
PUCSORTHOREF
350
2EE
  3
PUCSORTHOVIEW
350
2EF
  3
STYLESHEET
350
2E4
  3
TSTACKALIGN
350
2E1
  3
TSTACKSIZE
350
2E2
  3
UCSBASE
350
2F9
  3
UCSORGBACK
350
2FF
  3
UCSORGBOTTOM
350
2FB
  3
UCSORGFRONT
350
2FE
  3
UCSORGLEFT
350
2FC
  3
UCSORGRIGHT
350
2FD
  3
UCSORGTOP
350
2FA
  3
UCSORTHOREF
350
2F7
  3
UCSORTHOVIEW
350
2F8
  3
VERSIONGUID
350
2EC
  0
DICTIONARY
  5
301
102
{ACAD_REACTORS
330
C
102
}
330
C
100
AcDbDictionary
  3
CANNOSCALE
350
30A
  3
CMLEADERSTYLE
350
303
  3
CTABLESTYLE
350
302
  3
DIMASSOC
350
306
  3
HIDETEXT
350
307
  3
MSLTSCALE
350
30B
  0
XRECORD
  5
309
102
{ACAD_REACTORS
330
308
102
}
330
308
100
AcDbXrecord
102
VTR_0.000_0.000_1.000_1.000_VISUALSTYLE
340
2F
102
VTR_0.000_0.000_1.000_1.000_GRIDDISPLAY
 70
     3
102
VTR_0.000_0.000_1.000_1.000_GRIDMAJOR
 70
     5
102
VTR_0.000_0.000_1.000_1.000_DEFAULTLIGHTING
280
     1
102
VTR_0.000_0.000_1.000_1.000_DEFAULTLIGHTINGTYPE
 70
     1
102
VTR_0.000_0.000_1.000_1.000_BRIGHTNESS
141
0.0
102
VTR_0.000_0.000_1.000_1.000_CONTRAST
142
0.0
  0
MATERIAL
  5
45
102
{ACAD_REACTORS
330
43
102
}
102
{ACAD_XDICTIONARY
360
30E
102
}
330
43
100
AcDbMaterial
  1
BYBLOCK
  0
MATERIAL
  5
44
102
{ACAD_REACTORS
330
43
102
}
102
{ACAD_XDICTIONARY
360
30C
102
}
330
43
100
AcDbMaterial
  1
BYLAYER
  0
MATERIAL
  5
46
102
{ACAD_REACTORS
330
43
102
}
102
{ACAD_XDICTIONARY
360
310
102
}
330
43
100
AcDbMaterial
  1
GLOBAL
  0
ACAD_PROXY_OBJECT
  5
6C
102
{ACAD_REACTORS
330
6B
102
}
330
6B
100
AcDbProxyObject
 90
      499
 91
      505
 93
      610
310
40901902A4063FBFFFFFE056BD1B81E855B9FC0AD7A3703D0AD73F4214DD185B99185C9900AD7A3703D0AC73F90141901A02B5E8DC0F42B1CFC02B5E8DC0F42B1CFE5764000000000000300FC0
340
14
340
0
340
11
340
0
 94
        0
1001
ACAD_MLEADERVER
1070
     2
  0
MLINESTYLE
  5
18
102
{ACAD_REACTORS
330
17
102
}
330
17
100
AcDbMlineStyle
  2
Standard
 70
     0
  3

 62
   256
 51
90.0
 52
90.0
 71
     2
 49
0.5
 62
   256
  6
BYLAYER
 49
-0.5
 62
   256
  6
BYLAYER
  0
ACAD_PROXY_OBJECT
  5
48
102
{ACAD_REACTORS
330
47
102
}
330
47
100
AcDbProxyObject
 90
      499
 91
      503
 93
       41
310
903313A31580
  0
ACAD_PROXY_OBJECT
  5
49
102
{ACAD_REACTORS
330
47
102
}
330
47
100
AcDbProxyObject
 90
      499
 91
      503
 93
      105
310
903313A324000000000000004000
  0
ACAD_PROXY_OBJECT
  5
4A
102
{ACAD_REACTORS
330
47
102
}
330
47
100
AcDbProxyObject
 90
      499
 91
      503
 93
      105
310
903313A344000000000000104000
  0
ACAD_PROXY_OBJECT
  5
4B
102
{ACAD_REACTORS
330
47
102
}
330
47
100
AcDbProxyObject
 90
      499
 91
      503
 93
      105
310
903313A354000000000000144000
  0
ACAD_PROXY_OBJECT
  5
4C
102
{ACAD_REACTORS
330
47
102
}
330
47
100
AcDbProxyObject
 90
      499
 91
      503
 93
      105
310
903313A384000000000000204000
  0
ACAD_PROXY_OBJECT
  5
4D
102
{ACAD_REACTORS
330
47
102
}
330
47
100
AcDbProxyObject
 90
      499
 91
      503
 93
      113
310
904313A31304000000000000244000
  0
ACAD_PROXY_OBJECT
  5
4E
102
{ACAD_REACTORS
330
47
102
}
330
47
100
AcDbProxyObject
 90
      499
 91
      503
 93
      113
310
904313A31364000000000000304000
  0
ACAD_PROXY_OBJECT
  5
4F
102
{ACAD_REACTORS
330
47
102
}
330
47
100
AcDbProxyObject
 90
      499
 91
      503
 93
      113
310
904313A32304000000000000344000
  0
ACAD_PROXY_OBJECT
  5
50
102
{ACAD_REACTORS
330
47
102
}
330
47
100
AcDbProxyObject
 90
      499
 91
      503
 93
      113
310
904313A333040000000000003E4000
  0
ACAD_PROXY_OBJECT
  5
51
102
{ACAD_REACTORS
330
47
102
}
330
47
100
AcDbProxyObject
 90
      499
 91
      503
 93
      113
310
904313A34304000000000000444000
  0
ACAD_PROXY_OBJECT
  5
52
102
{ACAD_REACTORS
330
47
102
}
330
47
100
AcDbProxyObject
 90
      499
 91
      503
 93
      113
310
904313A35304000000000000494000
  0
ACAD_PROXY_OBJECT
  5
53
102
{ACAD_REACTORS
330
47
102
}
330
47
100
AcDbProxyObject
 90
      499
 91
      503
 93
      121
310
905313A3130304000000000000594000
  0
ACAD_PROXY_OBJECT
  5
54
102
{ACAD_REACTORS
330
47
102
}
330
47
100
AcDbProxyObject
 90
      499
 91
      503
 93
      105
310
903323A310000000000000010100
  0
ACAD_PROXY_OBJECT
  5
55
102
{ACAD_REACTORS
330
47
102
}
330
47
100
AcDbProxyObject
 90
      499
 91
      503
 93
      105
310
903343A310000000000000410100
  0
ACAD_PROXY_OBJECT
  5
56
102
{ACAD_REACTORS
330
47
102
}
330
47
100
AcDbProxyObject
 90
      499
 91
      503
 93
      105
310
903383A310000000000000810100
  0
ACAD_PROXY_OBJECT
  5
57
102
{ACAD_REACTORS
330
47
102
}
330
47
100
AcDbProxyObject
 90
      499
 91
      503
 93
      113
310
90431303A310000000000000910100
  0
ACAD_PROXY_OBJECT
  5
58
102
{ACAD_REACTORS
330
47
102
}
330
47
100
AcDbProxyObject
 90
      499
 91
      503
 93
      121
310
9053130303A310000000000001650100
  0
ACAD_PROXY_OBJECT
  5
59
102
{ACAD_REACTORS
330
47
102
}
330
47
100
AcDbProxyObject
 90
      499
 91
      503
 93
      257
310
90E312F31323822203D2031272D3022000000000000200FC000000000000284000
  0
ACAD_PROXY_OBJECT
  5
5A
102
{ACAD_REACTORS
330
47
102
}
330
47
100
AcDbProxyObject
 90
      499
 91
      503
 93
      249
310
90D312F363422203D2031272D3022000000000000240FC000000000000284000
  0
ACAD_PROXY_OBJECT
  5
5B
102
{ACAD_REACTORS
330
47
102
}
330
47
100
AcDbProxyObject
 90
      499
 91
      503
 93
      249
310
90D312F333222203D2031272D3022000000000000280FC000000000000284000
  0
ACAD_PROXY_OBJECT
  5
5C
102
{ACAD_REACTORS
330
47
102
}
330
47
100
AcDbProxyObject
 90
      499
 91
      503
 93
      249
310
90D312F313622203D2031272D30220000000000002C0FC000000000000284000
  0
ACAD_PROXY_OBJECT
  5
5D
102
{ACAD_REACTORS
330
47
102
}
330
47
100
AcDbProxyObject
 90
      499
 91
      503
 93
      249
310
90D332F333222203D2031272D30220000000000002E0FC000000000000284000
  0
ACAD_PROXY_OBJECT
  5
5E
102
{ACAD_REACTORS
330
47
102
}
330
47
100
AcDbProxyObject
 90
      499
 91
      503
 93
      241
310
90C312F3822203D2031272D3022000000000000300FC000000000000284000
  0
ACAD_PROXY_OBJECT
  5
5F
102
{ACAD_REACTORS
330
47
102
}
330
47
100
AcDbProxyObject
 90
      499
 91
      503
 93
      249
310
90D332F313622203D2031272D3022000000000000320FC000000000000284000
  0
ACAD_PROXY_OBJECT
  5
60
102
{ACAD_REACTORS
330
47
102
}
330
47
100
AcDbProxyObject
 90
      499
 91
      503
 93
      241
310
90C312F3422203D2031272D3022000000000000340FC000000000000284000
  0
ACAD_PROXY_OBJECT
  5
61
102
{ACAD_REACTORS
330
47
102
}
330
47
100
AcDbProxyObject
 90
      499
 91
      503
 93
      241
310
90C332F3822203D2031272D3022000000000000360FC000000000000284000
  0
ACAD_PROXY_OBJECT
  5
62
102
{ACAD_REACTORS
330
47
102
}
330
47
100
AcDbProxyObject
 90
      499
 91
      503
 93
      241
310
90C312F3222203D2031272D3022000000000000380FC000000000000284000
  0
ACAD_PROXY_OBJECT
  5
63
102
{ACAD_REACTORS
330
47
102
}
330
47
100
AcDbProxyObject
 90
      499
 91
      503
 93
      241
310
90C332F3422203D2031272D30220000000000003A0FC000000000000284000
  0
ACAD_PROXY_OBJECT
  5
64
102
{ACAD_REACTORS
330
47
102
}
330
47
100
AcDbProxyObject
 90
      499
 91
      503
 93
      161
310
90A3122203D2031272D30224000000000000284000
  0
ACAD_PROXY_OBJECT
  5
65
102
{ACAD_REACTORS
330
47
102
}
330
47
100
AcDbProxyObject
 90
      499
 91
      503
 93
      257
310
90E312D312F3222203D2031272D30220000000000003E0FC000000000000284000
  0
ACAD_PROXY_OBJECT
  5
66
102
{ACAD_REACTORS
330
47
102
}
330
47
100
AcDbProxyObject
 90
      499
 91
      503
 93
      225
310
90A3322203D2031272D302200000000000002100000000000000284000
  0
ACAD_PROXY_OBJECT
  5
67
102
{ACAD_REACTORS
330
47
102
}
330
47
100
AcDbProxyObject
 90
      499
 91
      503
 93
      225
310
90A3622203D2031272D302200000000000006100000000000000284000
  0
ACAD_PROXY_OBJECT
  5
68
102
{ACAD_REACTORS
330
47
102
}
330
47
100
AcDbProxyObject
 90
      499
 91
      503
 93
      249
310
90D31272D3022203D2031272D30220000000000000A100000000000000284000
  0
ACAD_PROXY_OBJECT
  5
2F
102
{ACAD_REACTORS
330
2A
102
}
330
2A
100
AcDbProxyObject
 90
      499
 91
      501
 93
      436
310
42CC9915DA5C99599C985B595049028333333333333E33F0000000000000F90107901411070040501600405405064090741402480A0340
1001
ACAD
1000
AcDbSavedByObjectVersion
1070
     0
  0
ACAD_PROXY_OBJECT
  5
32
102
{ACAD_REACTORS
330
2A
102
}
330
2A
100
AcDbProxyObject
 90
      499
 91
      501
 93
      388
310
4150985CDA58D07406404333333333333E33F0000000000000F90107A41107004050150841D405064090741402480A0350
1001
ACAD
1000
AcDbSavedByObjectVersion
1070
     0
  0
ACAD_PROXY_OBJECT
  5
36
102
{ACAD_REACTORS
330
2A
102
}
330
2A
100
AcDbProxyObject
 90
      499
 91
      501
 93
      428
310
42109C9A59DA1D195B90C409028333333333333E33F0000000000000F9010790141107004050150841D405064090741402480A029950
1001
ACAD
1000
AcDbSavedByObjectVersion
1070
     0
  0
ACAD_PROXY_OBJECT
  5
3A
102
{ACAD_REACTORS
330
2A
102
}
330
2A
100
AcDbProxyObject
 90
      499
 91
      501
 93
      452
310
42D0DBDB1BDC90DA185B99D95104090240C333333333333E33F0000000000000F90108901411070040501508421405064090741402480A0350
1001
ACAD
1000
AcDbSavedByObjectVersion
1070
     0
  0
ACAD_PROXY_OBJECT
  5
34
102
{ACAD_REACTORS
330
2A
102
}
330
2A
100
AcDbProxyObject
 90
      499
 91
      501
 93
      500
310
4290DBDB98D95C1D1D585B10940D028333333333333E33F0000000000000F90107902409070040501000000000018199010841D405064090740C02480A0340
1001
ACAD
1000
AcDbSavedByObjectVersion
1070
     0
  0
ACAD_PROXY_OBJECT
  5
35
102
{ACAD_REACTORS
330
2A
102
}
330
2A
100
AcDbProxyObject
 90
      499
 91
      501
 93
      412
310
40D11A5B50B409028333333333333E33F0000000000000F9010790141107004050150841D405064090741402480A02677FFFFFD0
1001
ACAD
1000
AcDbSavedByObjectVersion
1070
     0
  0
ACAD_PROXY_OBJECT
  5
3D
102
{ACAD_REACTORS
330
2A
102
}
330
2A
100
AcDbProxyObject
 90
      499
 91
      501
 93
      452
310
43115919D950DBDB1BDC93D999916409028333333333333E33F0000000000000F9010790141107004050150841D405064090741402480A0350
1001
ACAD
1000
AcDbSavedByObjectVersion
1070
     0
  0
ACAD_PROXY_OBJECT
  5
39
102
{ACAD_REACTORS
330
2A
102
}
330
2A
100
AcDbProxyObject
 90
      499
 91
      501
 93
      444
310
42D19858D95C185D1D195C9B90F409028333333333333E33F0000000000000F9010790141107004050150841D405064090741402480A0350
1001
ACAD
1000
AcDbSavedByObjectVersion
1070
     0
  0
ACAD_PROXY_OBJECT
  5
2B
102
{ACAD_REACTORS
330
2A
102
}
330
2A
100
AcDbProxyObject
 90
      499
 91
      501
 93
      380
310
41119B185D240901404333333333333E33F0000000000000F9010740A907004050150841D405064090741402480A1B50
1001
ACAD
1000
AcDbSavedByObjectVersion
1070
     0
  0
ACAD_PROXY_OBJECT
  5
2C
102
{ACAD_REACTORS
330
2A
102
}
330
2A
100
AcDbProxyObject
 90
      499
 91
      501
 93
      468
310
43519B185D15DA5D1A115919D95CD0140901404333333333333E33F0000000000000F90107409019070040501600405405064090741402480A1B50
1001
ACAD
1000
AcDbSavedByObjectVersion
1070
     0
  0
ACAD_PROXY_OBJECT
  5
2D
102
{ACAD_REACTORS
330
2A
102
}
330
2A
100
AcDbProxyObject
 90
      499
 91
      501
 93
      404
310
41D1DBDD5C985D5910240902404333333333333E33F0000000000000F9010740A9070040501641D405064090741402480A1B50
1001
ACAD
1000
AcDbSavedByObjectVersion
1070
     0
  0
ACAD_PROXY_OBJECT
  5
2E
102
{ACAD_REACTORS
330
2A
102
}
330
2A
100
AcDbProxyObject
 90
      499
 91
      501
 93
      492
310
4411DBDD5C985D5915DA5D1A115919D95CD0340902404333333333333E33F0000000000000F90107409019070040501600405405064090741402480A1B50
1001
ACAD
1000
AcDbSavedByObjectVersion
1070
     0
  0
ACAD_PROXY_OBJECT
  5
31
102
{ACAD_REACTORS
330
2A
102
}
330
2A
100
AcDbProxyObject
 90
      499
 91
      501
 93
      476
310
41921A5919195B90640502408333333333333E33F0000000000000F901079024090700405020000000000001110200405405064090740C02480A0340
1001
ACAD
1000
AcDbSavedByObjectVersion
1070
     0
  0
ACAD_PROXY_OBJECT
  5
3B
102
{ACAD_REACTORS
330
2A
102
}
330
2A
100
AcDbProxyObject
 90
      499
 91
      501
 93
      428
310
42529A5D1D195C93D999914409028333333333333E33F0000000000000F9010790141107004050150A41D405064090741402480A0350
1001
ACAD
1000
AcDbSavedByObjectVersion
1070
     0
  0
ACAD_PROXY_OBJECT
  5
38
102
{ACAD_REACTORS
330
2A
102
}
330
2A
100
AcDbProxyObject
 90
      499
 91
      501
 93
      444
310
42D31A5B995C185D1D195C9B90E409028333333333333E33F0000000000000F9010790141107004050750841D405064090741402483A0350
1001
ACAD
1000
AcDbSavedByObjectVersion
1070
     0
  0
ACAD_PROXY_OBJECT
  5
3C
102
{ACAD_REACTORS
330
2A
102
}
330
2A
100
AcDbProxyObject
 90
      499
 91
      501
 93
      444
310
42D3DD995C9A185B99D3D999915409028333333333333E33F0000000000000F9010790141107004050150941D405064090741402480A0350
1001
ACAD
1000
AcDbSavedByObjectVersion
1070
     0
  0
ACAD_PROXY_OBJECT
  5
33
102
{ACAD_REACTORS
330
2A
102
}
330
2A
100
AcDbProxyObject
 90
      499
 91
      501
 93
      428
310
425499585B1A5CDD1A58D08409038333333333333E33F0000000000000F9010740A907004050150800405405064090740C02480A1B40
1001
ACAD
1000
AcDbSavedByObjectVersion
1070
     0
  0
ACAD_PROXY_OBJECT
  5
42
102
{ACAD_REACTORS
330
2A
102
}
330
2A
100
AcDbProxyObject
 90
      499
 91
      501
 93
      420
310
4194DA1859195911B40902404333333333333E33F0000000000000F9010740A41107004050150800405405064090840C02480A0B40
1001
ACAD
1000
AcDbSavedByObjectVersion
1070
     0
  0
ACAD_PROXY_OBJECT
  5
41
102
{ACAD_REACTORS
330
2A
102
}
330
2A
100
AcDbProxyObject
 90
      499
 91
      501
 93
      516
310
4454DA18591959081DDA5D1A08195919D95CD1A40902404333333333333E33F0000000000000F901074090142907004050250800405405064090740C02480A0B40
1001
ACAD
1000
AcDbSavedByObjectVersion
1070
     0
  0
ACAD_PROXY_OBJECT
  5
3E
102
{ACAD_REACTORS
330
2A
102
}
330
2A
100
AcDbProxyObject
 90
      499
 91
      501
 93
      532
310
4394DA1859195CC81BD98811DC985E5174090240C333333333333E33F0000000000000F901079024090741D01000000000000111010841D405064090740C02480A0340
1001
ACAD
1000
AcDbSavedByObjectVersion
1070
     0
  0
ACAD_PROXY_OBJECT
  5
3F
102
{ACAD_REACTORS
330
2A
102
}
330
2A
100
AcDbProxyObject
 90
      499
 91
      501
 93
      476
310
41D4DAD95D18DA1E51840502408333333333333E33F0000000000000F901079024090741D01000000000000111010B41D405064090741802480A0340
1001
ACAD
1000
AcDbSavedByObjectVersion
1070
     0
  0
ACAD_PROXY_OBJECT
  5
37
102
{ACAD_REACTORS
330
2A
102
}
330
2A
100
AcDbProxyObject
 90
      499
 91
      501
 93
      412
310
41D51A1A58DAD95B90D409028333333333333E33F0000000000000F9010790141107004050150C41D405064090741402480A0350
1001
ACAD
1000
AcDbSavedByObjectVersion
1070
     0
  0
ACAD_PROXY_OBJECT
  5
30
102
{ACAD_REACTORS
330
2A
102
}
330
2A
100
AcDbProxyObject
 90
      499
 91
      501
 93
      420
310
4255DA5C99599C985B595059028333333333333E33F0000000000000F90107901411070040501600405405064090740C02480A0340
1001
ACAD
1000
AcDbSavedByObjectVersion
1070
     0
  0
ACAD_PROXY_OBJECT
  5
40
102
{ACAD_REACTORS
330
2A
102
}
330
2A
100
AcDbProxyObject
 90
      499
 91
      501
 93
      404
310
41560B54985E51940902404000000000000E03F0000000000000F9010740501907004050150841D405064090740C02480A1B40
1001
ACAD
1000
AcDbSavedByObjectVersion
1070
     0
  0
XRECORD
  5
2EA
102
{ACAD_REACTORS
330
2E0
102
}
330
2E0
100
AcDbXrecord
340
0
  0
XRECORD
  5
2E9
102
{ACAD_REACTORS
330
2E0
102
}
330
2E0
100
AcDbXrecord
 90
        0
  0
XRECORD
  5
300
102
{ACAD_REACTORS
330
2E0
102
}
330
2E0
100
AcDbXrecord
1000
DSTYLE
1002
{
1070
   171
 70
     2
1070
   143
 40
25.4
1070
   274
 70
     2
1070
    41
 40
0.18
1070
   141
 40
0.09
1070
   271
 70
     4
1070
    43
 40
0.38
1070
   278
 70
    46
1070
    44
 40
0.18
1070
    42
 40
0.0625
1070
   147
 40
0.09
1070
    77
 70
     0
1070
   272
 70
     4
1070
    73
 70
     1
1070
   172
 70
     0
1070
    74
 70
     1
1070
   283
 70
     1
1070
   340
340
11
1070
   140
 40
0.18
1070
   284
 70
     0
1070
    78
 70
     0
1002
}
  0
XRECORD
  5
2EB
102
{ACAD_REACTORS
330
2E0
102
}
330
2E0
100
AcDbXrecord
  1
{53BC69DE-16FD-4B25-8463-E5EFD7FDBA2D}
  0
XRECORD
  5
2E3
102
{ACAD_REACTORS
330
2E0
102
}
330
2E0
100
AcDbXrecord
  1

  0
XRECORD
  5
2E8
102
{ACAD_REACTORS
330
2E0
102
}
330
2E0
100
AcDbXrecord
 90
        4
  0
XRECORD
  5
2E5
102
{ACAD_REACTORS
330
2E0
102
}
330
2E0
100
AcDbXrecord
340
1A
  0
XRECORD
  5
2E7
102
{ACAD_REACTORS
330
2E0
102
}
330
2E0
100
AcDbXrecord
 90
    10781
  0
XRECORD
  5
2E6
102
{ACAD_REACTORS
330
2E0
102
}
330
2E0
100
AcDbXrecord
340
19
  0
XRECORD
  5
2ED
102
{ACAD_REACTORS
330
2E0
102
}
330
2E0
100
AcDbXrecord
 40
0.0
  0
XRECORD
  5
2F0
102
{ACAD_REACTORS
330
2E0
102
}
330
2E0
100
AcDbXrecord
340
0
  0
XRECORD
  5
2F6
102
{ACAD_REACTORS
330
2E0
102
}
330
2E0
100
AcDbXrecord
 10
0.0
 20
0.0
 30
0.0
  0
XRECORD
  5
2F2
102
{ACAD_REACTORS
330
2E0
102
}
330
2E0
100
AcDbXrecord
 10
0.0
 20
0.0
 30
0.0
  0
XRECORD
  5
2F5
102
{ACAD_REACTORS
330
2E0
102
}
330
2E0
100
AcDbXrecord
 10
0.0
 20
0.0
 30
0.0
  0
XRECORD
  5
2F3
102
{ACAD_REACTORS
330
2E0
102
}
330
2E0
100
AcDbXrecord
 10
0.0
 20
0.0
 30
0.0
  0
XRECORD
  5
2F4
102
{ACAD_REACTORS
330
2E0
102
}
330
2E0
100
AcDbXrecord
 10
0.0
 20
0.0
 30
0.0
  0
XRECORD
  5
2F1
102
{ACAD_REACTORS
330
2E0
102
}
330
2E0
100
AcDbXrecord
 10
0.0
 20
0.0
 30
0.0
  0
XRECORD
  5
2EE
102
{ACAD_REACTORS
330
2E0
102
}
330
2E0
100
AcDbXrecord
340
0
  0
XRECORD
  5
2EF
102
{ACAD_REACTORS
330
2E0
102
}
330
2E0
100
AcDbXrecord
 70
     0
  0
XRECORD
  5
2E4
102
{ACAD_REACTORS
330
2E0
102
}
330
2E0
100
AcDbXrecord
  1

  0
XRECORD
  5
2E1
102
{ACAD_REACTORS
330
2E0
102
}
330
2E0
100
AcDbXrecord
 90
        1
  0
XRECORD
  5
2E2
102
{ACAD_REACTORS
330
2E0
102
}
330
2E0
100
AcDbXrecord
 90
       70
  0
XRECORD
  5
2F9
102
{ACAD_REACTORS
330
2E0
102
}
330
2E0
100
AcDbXrecord
340
0
  0
XRECORD
  5
2FF
102
{ACAD_REACTORS
330
2E0
102
}
330
2E0
100
AcDbXrecord
 10
0.0
 20
0.0
 30
0.0
  0
XRECORD
  5
2FB
102
{ACAD_REACTORS
330
2E0
102
}
330
2E0
100
AcDbXrecord
 10
0.0
 20
0.0
 30
0.0
  0
XRECORD
  5
2FE
102
{ACAD_REACTORS
330
2E0
102
}
330
2E0
100
AcDbXrecord
 10
0.0
 20
0.0
 30
0.0
  0
XRECORD
  5
2FC
102
{ACAD_REACTORS
330
2E0
102
}
330
2E0
100
AcDbXrecord
 10
0.0
 20
0.0
 30
0.0
  0
XRECORD
  5
2FD
102
{ACAD_REACTORS
330
2E0
102
}
330
2E0
100
AcDbXrecord
 10
0.0
 20
0.0
 30
0.0
  0
XRECORD
  5
2FA
102
{ACAD_REACTORS
330
2E0
102
}
330
2E0
100
AcDbXrecord
 10
0.0
 20
0.0
 30
0.0
  0
XRECORD
  5
2F7
102
{ACAD_REACTORS
330
2E0
102
}
330
2E0
100
AcDbXrecord
340
0
  0
XRECORD
  5
2F8
102
{ACAD_REACTORS
330
2E0
102
}
330
2E0
100
AcDbXrecord
 70
     0
  0
XRECORD
  5
2EC
102
{ACAD_REACTORS
330
2E0
102
}
330
2E0
100
AcDbXrecord
  1
{FAEB1C32-E019-11D5-929B-00C0DF256EC4}
  0
DICTIONARYVAR
  5
30A
102
{ACAD_REACTORS
330
301
102
}
330
301
100
DictionaryVariables
280
     0
  1
1:1
  0
DICTIONARYVAR
  5
303
102
{ACAD_REACTORS
330
301
102
}
330
301
100
DictionaryVariables
280
     0
  1
Standard
  0
DICTIONARYVAR
  5
302
102
{ACAD_REACTORS
330
301
102
}
330
301
100
DictionaryVariables
280
     0
  1
Standard
  0
DICTIONARYVAR
  5
306
102
{ACAD_REACTORS
330
301
102
}
330
301
100
DictionaryVariables
280
     0
  1
2
  0
DICTIONARYVAR
  5
307
102
{ACAD_REACTORS
330
301
102
}
330
301
100
DictionaryVariables
280
     0
  1
1
  0
DICTIONARYVAR
  5
30B
102
{ACAD_REACTORS
330
301
102
}
330
301
100
DictionaryVariables
280
     0
  1
1
  0
DICTIONARY
  5
30E
330
45
100
AcDbDictionary
280
     1
  3
ACAD_XREC_ROUNDTRIP
360
30F
  0
DICTIONARY
  5
30C
330
44
100
AcDbDictionary
280
     1
  3
ACAD_XREC_ROUNDTRIP
360
30D
  0
DICTIONARY
  5
310
330
46
100
AcDbDictionary
280
     1
  3
ACAD_XREC_ROUNDTRIP
360
311
  0
XRECORD
  5
30F
102
{ACAD_REACTORS
330
30E
102
}
330
30E
100
AcDbXrecord
102
MATERIAL
148
0.0
149
0.0
149
0.0
 93
        0
 94
      127
282
     0
 72
     1
 77
     1
171
     1
175
     1
179
     1
273
     0
  0
XRECORD
  5
30D
102
{ACAD_REACTORS
330
30C
102
}
330
30C
100
AcDbXrecord
102
MATERIAL
148
0.0
149
0.0
149
0.0
 93
        0
 94
      127
282
     0
 72
     1
 77
     1
171
     1
175
     1
179
     1
273
     0
  0
XRECORD
  5
311
102
{ACAD_REACTORS
330
310
102
}
330
310
100
AcDbXrecord
102
MATERIAL
148
0.0
149
0.0
149
0.0
 93
        0
 94
      127
282
     0
 72
     1
 77
     1
171
     1
175
     1
179
     1
273
     0
  0
ENDSEC
  0
EOF
